<svg xmlns="http://www.w3.org/2000/svg" viewBox="0 0 128 128">
  <defs>
    <linearGradient id="bg" x1="0" x2="1" y1="0" y2="1">
      <stop offset="0%" stop-color="#e0f2ff" />
      <stop offset="100%" stop-color="#c4f4d9" />
    </linearGradient>
  </defs>
  <rect width="128" height="128" rx="28" fill="url(#bg)" />
  <path
    fill="#124c66"
    d="M64 26c-16.017 0-29 13.317-29 29.746 0 15.834 13.395 26.86 26.94 38.412 1.02.885 2.098 1.82 3.206 2.796a3 3 0 0 0 3.768.018c1.117-.954 2.204-1.87 3.232-2.744C79.668 82.896 93 71.9 93 55.746 93 39.317 80.017 26 64 26Zm0 46.362c-9.412 0-17.052-7.757-17.052-17.316C46.948 46.487 54.588 38.73 64 38.73s17.052 7.757 17.052 16.316C81.052 64.605 73.412 72.362 64 72.362Z"
  />
  <circle cx="64" cy="55.2" r="9" fill="#0e9272" />
</svg>
