<?xml version="1.0" encoding="UTF-8" standalone="no"?>
<!-- Created with Inkscape (http://www.inkscape.org/) -->

<svg
   version="1.1"
   id="svg1"
   width="666.66669"
   height="666.66669"
   viewBox="0 0 666.66669 666.66669"
   sodipodi:docname="9248996.eps"
   xmlns:inkscape="http://www.inkscape.org/namespaces/inkscape"
   xmlns:sodipodi="http://sodipodi.sourceforge.net/DTD/sodipodi-0.dtd"
   xmlns="http://www.w3.org/2000/svg"
   xmlns:svg="http://www.w3.org/2000/svg">
  <defs
     id="defs1" />
  <sodipodi:namedview
     id="namedview1"
     pagecolor="#ffffff"
     bordercolor="#000000"
     borderopacity="0.25"
     inkscape:showpageshadow="2"
     inkscape:pageopacity="0.0"
     inkscape:pagecheckerboard="0"
     inkscape:deskcolor="#d1d1d1">
    <inkscape:page
       x="0"
       y="0"
       inkscape:label="1"
       id="page1"
       width="666.66669"
       height="666.66669"
       margin="0"
       bleed="0" />
  </sodipodi:namedview>
  <g
     id="g1"
     inkscape:groupmode="layer"
     inkscape:label="1">
    <g
       id="group-R5">
      <path
         id="path2"
         d="M 5000,0 H 0 V 5000 H 5000 V 0"
         style="fill:#ffffff;fill-opacity:1;fill-rule:nonzero;stroke:none"
         transform="matrix(0.13333333,0,0,-0.13333333,0,666.66667)" />
      <path
         id="path3"
         d="M 4459.8,2500 C 4459.8,1417.63 3582.37,540.199 2500,540.199 1417.63,540.199 540.199,1417.63 540.199,2500 c 0,1082.37 877.431,1959.8 1959.801,1959.8 1082.37,0 1959.8,-877.43 1959.8,-1959.8"
         style="fill:#feeaaa;fill-opacity:1;fill-rule:nonzero;stroke:none"
         transform="matrix(0.13333333,0,0,-0.13333333,0,666.66667)" />
      <path
         id="path4"
         d="m 2179.86,4354.66 c 19.61,14.61 31.05,39.02 27.81,65.03 -2.1,16.87 -10.02,31.6 -21.5,42.41 3.36,9.79 4.67,20.44 3.31,31.39 -1.74,13.92 -7.48,26.35 -15.87,36.37 9.6,10.42 14.74,24.81 12.85,39.97 -3.41,27.35 -28.34,46.76 -55.69,43.35 -4.81,-0.59 -9.36,-1.89 -13.61,-3.72 -8.88,15.63 -23.51,27.28 -40.67,32.51 2.19,8.39 2.91,17.3 1.78,26.42 -4.8,38.51 -39.9,65.84 -78.41,61.04 -1.79,-0.22 -3.53,-0.57 -5.26,-0.93 -0.07,1.03 -0.1,2.05 -0.23,3.09 -3.4,27.35 -28.34,46.76 -55.69,43.35 -18.79,-2.33 -33.83,-14.84 -40.3,-31.3 -7.34,1.51 -15.02,1.93 -22.87,0.96 -14.06,-1.75 -26.6,-7.58 -36.66,-16.1 -0.07,0.86 -0.08,1.71 -0.19,2.57 -4.79,38.51 -39.9,65.84 -78.41,61.04 -35.27,-4.39 -61.08,-34.22 -61.5,-68.79 -14.73,18.68 -38.52,29.48 -63.86,26.33 -23.14,-2.88 -42.17,-16.74 -52.7,-35.67 -9.93,7.33 -22.55,11.05 -35.77,9.4 -27.35,-3.4 -46.76,-28.34 -43.36,-55.68 0.71,-5.65 2.37,-10.93 4.74,-15.77 -16.13,-12.88 -26.49,-32.66 -26.49,-54.91 0,-10.89 2.55,-21.16 6.98,-30.36 -3.77,-8.55 -5.9,-17.97 -5.95,-27.89 -0.85,0.03 -1.69,0.12 -2.55,0.12 -38.8,0 -70.26,-31.45 -70.26,-70.26 0,-13.19 3.7,-25.49 10.03,-36.04 -18.67,-9.08 -30.41,-29.26 -27.71,-51 3.02,-24.22 22.92,-42.18 46.43,-43.62 7.27,-19.51 22.92,-34.88 42.61,-41.76 -4.87,-9.56 -7.67,-20.34 -7.67,-31.8 0,-38.8 31.46,-70.26 70.27,-70.26 7.31,0 14.36,1.12 20.99,3.19 17.66,-15.09 37.16,-28.43 58.08,-39.85 -13.17,-10.65 -25.2,-22.43 -35.74,-35.29 -1.73,-0.05 -3.47,-0.16 -5.22,-0.39 -17.06,-2.12 -31.21,-12.03 -39.44,-25.7 -5.84,2.36 -12.33,3.33 -19.02,2.49 -20.95,-2.6 -35.81,-21.7 -33.2,-42.64 1.16,-9.33 5.61,-17.44 12.02,-23.35 -15.02,-11.2 -23.78,-29.89 -21.3,-49.8 1.61,-12.92 7.68,-24.2 16.46,-32.48 -2.56,-7.49 -3.57,-15.65 -2.52,-24.04 1.32,-10.66 5.72,-20.18 12.14,-27.84 -7.34,-7.98 -11.28,-19.01 -9.83,-30.61 2.6,-20.95 21.7,-35.81 42.64,-33.2 3.69,0.46 7.17,1.45 10.42,2.85 6.8,-11.97 18,-20.89 31.14,-24.9 -1.67,-6.42 -2.22,-13.24 -1.36,-20.23 3.68,-29.48 30.56,-50.41 60.05,-46.74 1.36,0.17 2.69,0.44 4.02,0.71 0.05,-0.79 0.08,-1.57 0.18,-2.36 2.61,-20.95 21.7,-35.81 42.64,-33.2 14.39,1.79 25.91,11.36 30.86,23.97 5.62,-1.16 11.51,-1.48 17.52,-0.73 10.76,1.34 20.37,5.8 28.07,12.32 0.06,-0.66 0.06,-1.31 0.14,-1.97 3.68,-29.48 30.56,-50.41 60.04,-46.74 27.01,3.36 46.78,26.21 47.1,52.68 11.28,-14.31 29.5,-22.58 48.9,-20.16 17.72,2.2 32.3,12.82 40.35,27.31 7.61,-5.61 17.28,-8.46 27.4,-7.2 20.94,2.61 35.81,21.7 33.2,42.65 -0.54,4.32 -1.81,8.36 -3.63,12.07 12.35,9.86 20.29,25.01 20.29,42.04 0,8.34 -1.96,16.21 -5.35,23.26 2.89,6.54 4.52,13.75 4.56,21.35 0.65,-0.02 1.29,-0.09 1.95,-0.09 29.71,0 53.8,24.08 53.8,53.8 0,10.1 -2.83,19.52 -7.68,27.59 14.3,6.96 23.29,22.41 21.22,39.06 -2.31,18.55 -17.55,32.3 -35.55,33.41 -5.57,14.93 -17.55,26.7 -32.63,31.97 3.73,7.32 5.87,15.58 5.87,24.35 0,29.72 -24.09,53.81 -53.81,53.81 -5.6,0 -11,-0.86 -16.07,-2.45 -1.28,1.09 -2.61,2.12 -3.91,3.19 38.96,20.88 72.9,48.63 99.76,81.4 2.26,0.06 4.53,0.22 6.82,0.5 22.28,2.77 40.76,15.72 51.5,33.57 7.62,-3.09 16.1,-4.35 24.84,-3.26 27.35,3.41 46.76,28.34 43.36,55.69 -1.52,12.19 -7.33,22.78 -15.7,30.5"
         style="fill:#ffffff;fill-opacity:1;fill-rule:nonzero;stroke:none"
         transform="matrix(0.13333333,0,0,-0.13333333,0,666.66667)" />
      <path
         id="path5"
         d="m 2179.86,4354.66 c 19.61,14.61 31.05,39.02 27.81,65.03 -2.1,16.87 -10.02,31.6 -21.5,42.41 3.36,9.79 4.67,20.44 3.31,31.39 -1.74,13.92 -7.48,26.35 -15.87,36.37 9.6,10.42 14.74,24.81 12.85,39.97 -3.41,27.35 -28.34,46.76 -55.69,43.35 -4.81,-0.59 -9.36,-1.89 -13.61,-3.72 -8.88,15.63 -23.51,27.28 -40.67,32.51 2.19,8.39 2.91,17.3 1.78,26.42 -4.8,38.51 -39.9,65.84 -78.41,61.04 -1.79,-0.22 -3.53,-0.57 -5.26,-0.93 -0.07,1.03 -0.1,2.05 -0.23,3.09 -3.4,27.35 -28.34,46.76 -55.69,43.35 -18.79,-2.33 -33.83,-14.84 -40.3,-31.3 -7.34,1.51 -15.02,1.93 -22.87,0.96 -14.06,-1.75 -26.6,-7.58 -36.66,-16.1 -0.07,0.86 -0.08,1.71 -0.19,2.57 -4.79,38.51 -39.9,65.84 -78.41,61.04 -35.27,-4.39 -61.08,-34.22 -61.5,-68.79 -14.73,18.68 -38.52,29.48 -63.86,26.33 -23.14,-2.88 -42.17,-16.74 -52.7,-35.67 -9.93,7.33 -22.55,11.05 -35.77,9.4 -27.35,-3.4 -46.76,-28.34 -43.36,-55.68 0.71,-5.65 2.37,-10.93 4.74,-15.77 -16.13,-12.88 -26.49,-32.66 -26.49,-54.91 0,-10.89 2.55,-21.16 6.98,-30.36 -3.77,-8.55 -5.9,-17.97 -5.95,-27.89 -0.85,0.03 -1.69,0.12 -2.55,0.12 -38.8,0 -70.26,-31.45 -70.26,-70.26 0,-13.19 3.7,-25.49 10.03,-36.04 -18.67,-9.08 -30.41,-29.26 -27.71,-51 3.02,-24.22 22.92,-42.18 46.43,-43.62 7.27,-19.51 22.92,-34.88 42.61,-41.76 -4.87,-9.56 -7.67,-20.34 -7.67,-31.8 0,-38.8 31.46,-70.26 70.27,-70.26 7.31,0 14.36,1.12 20.99,3.19 17.66,-15.09 37.16,-28.43 58.08,-39.85 -13.17,-10.65 -25.2,-22.43 -35.74,-35.29 -1.73,-0.05 -3.47,-0.16 -5.22,-0.39 -17.06,-2.12 -31.21,-12.03 -39.44,-25.7 -5.84,2.36 -12.33,3.33 -19.02,2.49 -20.95,-2.6 -35.81,-21.7 -33.2,-42.64 1.16,-9.33 5.61,-17.44 12.02,-23.35 -15.02,-11.2 -23.78,-29.89 -21.3,-49.8 1.61,-12.92 7.68,-24.2 16.46,-32.48 -2.56,-7.49 -3.57,-15.65 -2.52,-24.04 1.32,-10.66 5.72,-20.18 12.14,-27.84 -7.34,-7.98 -11.28,-19.01 -9.83,-30.61 2.6,-20.95 21.7,-35.81 42.64,-33.2 3.69,0.46 7.17,1.45 10.42,2.85 6.8,-11.97 18,-20.89 31.14,-24.9 -1.67,-6.42 -2.22,-13.24 -1.36,-20.23 3.68,-29.48 30.56,-50.41 60.05,-46.74 1.36,0.17 2.69,0.44 4.02,0.71 0.05,-0.79 0.08,-1.57 0.18,-2.36 2.61,-20.95 21.7,-35.81 42.64,-33.2 14.39,1.79 25.91,11.36 30.86,23.97 5.62,-1.16 11.51,-1.48 17.52,-0.73 10.76,1.34 20.37,5.8 28.07,12.32 0.06,-0.66 0.06,-1.31 0.14,-1.97 3.68,-29.48 30.56,-50.41 60.04,-46.74 27.01,3.36 46.78,26.21 47.1,52.68 11.28,-14.31 29.5,-22.58 48.9,-20.16 17.72,2.2 32.3,12.82 40.35,27.31 7.61,-5.61 17.28,-8.46 27.4,-7.2 20.94,2.61 35.81,21.7 33.2,42.65 -0.54,4.32 -1.81,8.36 -3.63,12.07 12.35,9.86 20.29,25.01 20.29,42.04 0,8.34 -1.96,16.21 -5.35,23.26 2.89,6.54 4.52,13.75 4.56,21.35 0.65,-0.02 1.29,-0.09 1.95,-0.09 29.71,0 53.8,24.08 53.8,53.8 0,10.1 -2.83,19.52 -7.68,27.59 14.3,6.96 23.29,22.41 21.22,39.06 -2.31,18.55 -17.55,32.3 -35.55,33.41 -5.57,14.93 -17.55,26.7 -32.63,31.97 3.73,7.32 5.87,15.58 5.87,24.35 0,29.72 -24.09,53.81 -53.81,53.81 -5.6,0 -11,-0.86 -16.07,-2.45 -1.28,1.09 -2.61,2.12 -3.91,3.19 38.96,20.88 72.9,48.63 99.76,81.4 2.26,0.06 4.53,0.22 6.82,0.5 22.28,2.77 40.76,15.72 51.5,33.57 7.62,-3.09 16.1,-4.35 24.84,-3.26 27.35,3.41 46.76,28.34 43.36,55.69 -1.52,12.19 -7.33,22.78 -15.7,30.5 z"
         style="fill:none;stroke:#341334;stroke-width:10;stroke-linecap:round;stroke-linejoin:round;stroke-miterlimit:10;stroke-dasharray:none;stroke-opacity:1"
         transform="matrix(0.13333333,0,0,-0.13333333,0,666.66667)" />
      <path
         id="path6"
         d="m 1449.69,3529.81 -53.42,-459.31 c 9.97,-86.42 -23.93,-209.48 -41.23,-264.87 -3.13,-10.01 -38.31,-145.97 -62.15,-238.38 -14.22,-55.09 -11.67,-113.87 7.2,-167.18 v 0 c 7.02,-19.82 9.66,-40.36 7.8,-60.64 l -13.08,-142.63 c -0.7,-7.67 -2.55,-15.27 -6.16,-21.83 -8.91,-16.19 -17.77,-8.07 -24.24,3.53 -6.9,12.37 -10.06,26.91 -10.36,41.49 l -2.08,102.85 c -14.13,-24.59 -19.1,-53.83 -20.74,-74.75 -1.3,-16.67 3.38,-33.45 13.44,-48.4 l 51.17,-76.05 c 11.48,-17.5 9.98,-30.03 5.18,-38.4 -4.7,-8.2 -18.97,-8.56 -25.25,-0.72 l -21.03,26.23 -73.69,72.73 c -6.42,6.34 -10.91,13.79 -13.09,21.71 l -19.39,70.76 c -1.53,5.59 -1.88,11.31 -1.03,16.92 l 25.37,167.64 c 7.49,49.56 10.92,99.78 10.23,150.03 l -4.73,344.21 c -0.48,35.02 5.58,69.69 17.97,102.84 16.28,43.53 24.1,89.16 23.19,135.17 -2.1,105.08 -6.97,210.18 -6.43,315.3 0.33,64.35 -10.18,318.93 267.93,342.56 l 114.15,-6.22"
         style="fill:#ffffff;fill-opacity:1;fill-rule:nonzero;stroke:#341334;stroke-width:10;stroke-linecap:round;stroke-linejoin:round;stroke-miterlimit:10;stroke-dasharray:none;stroke-opacity:1"
         transform="matrix(0.13333333,0,0,-0.13333333,0,666.66667)" />
      <path
         id="path7"
         d="m 1293.28,2184.67 c 0,-18.31 -5.66,-22.86 -13.81,-22.86 -8.15,0 -15.69,4.55 -15.69,22.86 0,18.32 6.6,33.17 14.75,33.17 8.15,0 14.75,-14.85 14.75,-33.17"
         style="fill:#ffffff;fill-opacity:1;fill-rule:nonzero;stroke:none"
         transform="matrix(0.13333333,0,0,-0.13333333,0,666.66667)" />
      <path
         id="path8"
         d="m 1293.28,2184.67 c 0,-18.31 -5.66,-22.86 -13.81,-22.86 -8.15,0 -15.69,4.55 -15.69,22.86 0,18.32 6.6,33.17 14.75,33.17 8.15,0 14.75,-14.85 14.75,-33.17 z"
         style="fill:none;stroke:#341334;stroke-width:10;stroke-linecap:round;stroke-linejoin:round;stroke-miterlimit:10;stroke-dasharray:none;stroke-opacity:1"
         transform="matrix(0.13333333,0,0,-0.13333333,0,666.66667)" />
      <path
         id="path9"
         d="m 1274.36,2084.08 c -9.89,11.17 -9.78,16.79 -6.09,20.9 3.69,4.11 8.14,2.35 18.03,-8.81 9.88,-11.17 12.8,-16.67 9.11,-20.77 -3.69,-4.11 -11.16,-2.48 -21.05,8.68"
         style="fill:#ffffff;fill-opacity:1;fill-rule:nonzero;stroke:none"
         transform="matrix(0.13333333,0,0,-0.13333333,0,666.66667)" />
      <path
         id="path10"
         d="m 1274.36,2084.08 c -9.89,11.17 -9.78,16.79 -6.09,20.9 3.69,4.11 8.14,2.35 18.03,-8.81 9.88,-11.17 12.8,-16.67 9.11,-20.77 -3.69,-4.11 -11.16,-2.48 -21.05,8.68 z"
         style="fill:none;stroke:#341334;stroke-width:10;stroke-linecap:round;stroke-linejoin:round;stroke-miterlimit:10;stroke-dasharray:none;stroke-opacity:1"
         transform="matrix(0.13333333,0,0,-0.13333333,0,666.66667)" />
      <path
         id="path11"
         d="m 1254.74,2110.75 -56.68,90.54 -19.09,103.67"
         style="fill:none;stroke:#341334;stroke-width:10;stroke-linecap:round;stroke-linejoin:round;stroke-miterlimit:10;stroke-dasharray:none;stroke-opacity:1"
         transform="matrix(0.13333333,0,0,-0.13333333,0,666.66667)" />
      <path
         id="path12"
         d="m 1300.49,3103.19 c 0,0 -35.77,-11.83 -48.84,-59.31"
         style="fill:none;stroke:#341334;stroke-width:10;stroke-linecap:round;stroke-linejoin:round;stroke-miterlimit:10;stroke-dasharray:none;stroke-opacity:1"
         transform="matrix(0.13333333,0,0,-0.13333333,0,666.66667)" />
      <path
         id="path13"
         d="m 2146.68,3529.81 53.42,-459.31 c -9.97,-86.42 23.93,-209.48 41.23,-264.87 3.13,-10.01 38.31,-145.97 62.15,-238.38 14.22,-55.09 11.67,-113.87 -7.2,-167.18 v 0 c -7.02,-19.82 -9.66,-40.36 -7.8,-60.64 l 13.08,-142.63 c 0.7,-7.67 2.55,-15.27 6.16,-21.83 8.91,-16.19 17.77,-8.07 24.24,3.53 6.9,12.37 10.06,26.91 10.36,41.49 l 2.08,102.85 c 14.13,-24.59 19.1,-53.83 20.74,-74.75 1.3,-16.67 -3.38,-33.45 -13.44,-48.4 l -51.17,-76.05 c -11.48,-17.5 -9.98,-30.03 -5.18,-38.4 4.7,-8.2 18.97,-8.56 25.25,-0.72 l 21.03,26.23 73.69,72.73 c 6.42,6.34 10.91,13.79 13.09,21.71 l 19.39,70.76 c 1.53,5.59 1.88,11.31 1.03,16.92 l -25.37,167.64 c -7.5,49.56 -10.92,99.78 -10.23,150.03 l 4.73,344.21 c 0.48,35.02 -5.58,69.69 -17.97,102.84 -16.28,43.53 -24.1,89.16 -23.19,135.17 2.1,105.08 6.96,210.18 6.43,315.3 -0.33,64.35 10.18,318.93 -267.93,342.56 l -114.15,-6.22"
         style="fill:#ffffff;fill-opacity:1;fill-rule:nonzero;stroke:#341334;stroke-width:10;stroke-linecap:round;stroke-linejoin:round;stroke-miterlimit:10;stroke-dasharray:none;stroke-opacity:1"
         transform="matrix(0.13333333,0,0,-0.13333333,0,666.66667)" />
      <path
         id="path14"
         d="m 2303.09,2184.67 c 0,-18.31 5.66,-22.86 13.81,-22.86 8.15,0 15.69,4.55 15.69,22.86 0,18.32 -6.6,33.17 -14.75,33.17 -8.15,0 -14.75,-14.85 -14.75,-33.17"
         style="fill:#ffffff;fill-opacity:1;fill-rule:nonzero;stroke:none"
         transform="matrix(0.13333333,0,0,-0.13333333,0,666.66667)" />
      <path
         id="path15"
         d="m 2303.09,2184.67 c 0,-18.31 5.66,-22.86 13.81,-22.86 8.15,0 15.69,4.55 15.69,22.86 0,18.32 -6.6,33.17 -14.75,33.17 -8.15,0 -14.75,-14.85 -14.75,-33.17 z"
         style="fill:none;stroke:#341334;stroke-width:10;stroke-linecap:round;stroke-linejoin:round;stroke-miterlimit:10;stroke-dasharray:none;stroke-opacity:1"
         transform="matrix(0.13333333,0,0,-0.13333333,0,666.66667)" />
      <path
         id="path16"
         d="m 2322.01,2084.08 c 9.89,11.17 9.78,16.79 6.09,20.9 -3.69,4.11 -8.14,2.35 -18.03,-8.81 -9.88,-11.17 -12.8,-16.67 -9.11,-20.77 3.69,-4.11 11.16,-2.48 21.05,8.68"
         style="fill:#ffffff;fill-opacity:1;fill-rule:nonzero;stroke:none"
         transform="matrix(0.13333333,0,0,-0.13333333,0,666.66667)" />
      <path
         id="path17"
         d="m 2322.01,2084.08 c 9.89,11.17 9.78,16.79 6.09,20.9 -3.69,4.11 -8.14,2.35 -18.03,-8.81 -9.88,-11.17 -12.8,-16.67 -9.11,-20.77 3.69,-4.11 11.16,-2.48 21.05,8.68 z"
         style="fill:none;stroke:#341334;stroke-width:10;stroke-linecap:round;stroke-linejoin:round;stroke-miterlimit:10;stroke-dasharray:none;stroke-opacity:1"
         transform="matrix(0.13333333,0,0,-0.13333333,0,666.66667)" />
      <path
         id="path18"
         d="m 2341.63,2110.75 56.68,90.54 19.09,103.67"
         style="fill:none;stroke:#341334;stroke-width:10;stroke-linecap:round;stroke-linejoin:round;stroke-miterlimit:10;stroke-dasharray:none;stroke-opacity:1"
         transform="matrix(0.13333333,0,0,-0.13333333,0,666.66667)" />
      <path
         id="path19"
         d="m 2295.88,3103.19 c 0,0 35.77,-11.83 48.84,-59.31"
         style="fill:none;stroke:#341334;stroke-width:10;stroke-linecap:round;stroke-linejoin:round;stroke-miterlimit:10;stroke-dasharray:none;stroke-opacity:1"
         transform="matrix(0.13333333,0,0,-0.13333333,0,666.66667)" />
      <path
         id="path20"
         d="m 2266.01,2339.72 c 0,0 42.65,276.5 -76.24,519.19 -69.15,141.15 -81.09,303.6 -38.83,454.99 l 29.94,185.02 -56.44,351.92 c 0,0 -65.51,15.96 -125.11,42.09 -47.88,21 -78.3,68.94 -78.3,121.23 v 130.57 h -114.6 -11 -114.61 l 0.01,-131.09 c 0,-51.91 -29.99,-99.59 -77.38,-120.8 -58.5,-26.18 -122.38,-42.22 -122.38,-42.22 l -64.02,-363.03 33.86,-173.69 c 42.27,-151.39 30.32,-313.84 -38.82,-454.99 -36.33,-74.15 -57.58,-151.47 -69.56,-223.08 -21,-125.45 -15.92,-253.89 11.26,-378.15 l 97.14,-444.12 c 8.17,-38.2 11.95,-77.02 11.28,-115.88 l -0.68,-39.8 c -0.59,-34.28 -5.16,-68.36 -12.1,-102.11 -56.46,-274.64 152.28,-911.848 151.84,-965.758 -0.51,-63.93 -18.5,-126.84 -49.48,-184.821 l -65.67,-122.929 c -18.8,-35.282 18.81,-37 18.81,-37 7.92,-21.512 31.68,-12.051 31.68,-12.051 7.91,-15.492 34.64,-9.461 34.64,-9.461 14.85,-19.801 53.52,-5.949 53.52,-5.949 114.12,-50.711 118.61,90.508 106.29,261.148 -1.05,14.563 0.62,29.18 4.52,43.36 13.35,48.601 -3.04,90.601 -3.04,90.601 -22.16,59.949 -36.94,203.41 -36.94,203.41 -19.7,301.9 65.21,564.81 33.26,678.73 l -3.9,42.9 c -2.31,25.45 0.51,51.05 8.34,75.66 13.13,41.27 18.94,83.98 17.4,126.77 -9.1,252.55 14.51,410.11 44.71,700.02 h 0.02 11 9.44 c 30.21,-289.91 53.07,-447.47 43.97,-700.02 -1.54,-42.8 4.27,-85.5 17.4,-126.77 7.82,-24.61 10.65,-50.21 8.34,-75.66 l -3.9,-42.9 c -31.95,-113.92 44.28,-376.83 24.58,-678.73 0,0 -14.78,-143.461 -36.95,-203.41 0,0 -16.38,-42 -3.03,-90.601 3.9,-14.18 5.57,-28.797 4.52,-43.36 -12.32,-170.64 -7.83,-311.859 106.29,-261.148 0,0 38.67,-13.852 53.52,5.949 0,0 26.72,-6.031 34.64,9.461 0,0 23.76,-9.461 31.68,12.051 0,0 37.61,1.718 18.81,37 l -65.68,122.929 c -30.97,57.981 -48.96,120.891 -49.48,184.821 -0.43,53.91 222.84,709.588 166.38,984.228 -6.94,33.75 -11.51,67.83 -12.09,102.1 l -0.69,39.81 c -0.67,38.86 3.12,77.67 11.29,115.87 l 100.54,507.7"
         style="fill:#ffffff;fill-opacity:1;fill-rule:nonzero;stroke:none"
         transform="matrix(0.13333333,0,0,-0.13333333,0,666.66667)" />
      <path
         id="path21"
         d="m 2266.01,2339.72 c 0,0 42.65,276.5 -76.24,519.19 -69.15,141.15 -81.09,303.6 -38.83,454.99 l 29.94,185.02 -56.44,351.92 c 0,0 -65.51,15.96 -125.11,42.09 -47.88,21 -78.3,68.94 -78.3,121.23 v 130.57 h -114.6 -11 -114.61 l 0.01,-131.09 c 0,-51.91 -29.99,-99.59 -77.38,-120.8 -58.5,-26.18 -122.38,-42.22 -122.38,-42.22 l -64.02,-363.03 33.86,-173.69 c 42.27,-151.39 30.32,-313.84 -38.82,-454.99 -36.33,-74.15 -57.58,-151.47 -69.56,-223.08 -21,-125.45 -15.92,-253.89 11.26,-378.15 l 97.14,-444.12 c 8.17,-38.2 11.95,-77.02 11.28,-115.88 l -0.68,-39.8 c -0.59,-34.28 -5.16,-68.36 -12.1,-102.11 -56.46,-274.64 152.28,-911.848 151.84,-965.758 -0.51,-63.93 -18.5,-126.84 -49.48,-184.821 l -65.67,-122.929 c -18.8,-35.282 18.81,-37 18.81,-37 7.92,-21.512 31.68,-12.051 31.68,-12.051 7.91,-15.492 34.64,-9.461 34.64,-9.461 14.85,-19.801 53.52,-5.949 53.52,-5.949 114.12,-50.711 118.61,90.508 106.29,261.148 -1.05,14.563 0.62,29.18 4.52,43.36 13.35,48.601 -3.04,90.601 -3.04,90.601 -22.16,59.949 -36.94,203.41 -36.94,203.41 -19.7,301.9 65.21,564.81 33.26,678.73 l -3.9,42.9 c -2.31,25.45 0.51,51.05 8.34,75.66 13.13,41.27 18.94,83.98 17.4,126.77 -9.1,252.55 14.51,410.11 44.71,700.02 h 0.02 11 9.44 c 30.21,-289.91 53.07,-447.47 43.97,-700.02 -1.54,-42.8 4.27,-85.5 17.4,-126.77 7.82,-24.61 10.65,-50.21 8.34,-75.66 l -3.9,-42.9 c -31.95,-113.92 44.28,-376.83 24.58,-678.73 0,0 -14.78,-143.461 -36.95,-203.41 0,0 -16.38,-42 -3.03,-90.601 3.9,-14.18 5.57,-28.797 4.52,-43.36 -12.32,-170.64 -7.83,-311.859 106.29,-261.148 0,0 38.67,-13.852 53.52,5.949 0,0 26.72,-6.031 34.64,9.461 0,0 23.76,-9.461 31.68,12.051 0,0 37.61,1.718 18.81,37 l -65.68,122.929 c -30.97,57.981 -48.96,120.891 -49.48,184.821 -0.43,53.91 222.84,709.588 166.38,984.228 -6.94,33.75 -11.51,67.83 -12.09,102.1 l -0.69,39.81 c -0.67,38.86 3.12,77.67 11.29,115.87 z"
         style="fill:none;stroke:#341334;stroke-width:10;stroke-linecap:round;stroke-linejoin:round;stroke-miterlimit:10;stroke-dasharray:none;stroke-opacity:1"
         transform="matrix(0.13333333,0,0,-0.13333333,0,666.66667)" />
      <path
         id="path22"
         d="m 1505.59,247.461 c 0,0 1.73,12.91 10.34,28.41"
         style="fill:none;stroke:#341334;stroke-width:10;stroke-linecap:round;stroke-linejoin:round;stroke-miterlimit:10;stroke-dasharray:none;stroke-opacity:1"
         transform="matrix(0.13333333,0,0,-0.13333333,0,666.66667)" />
      <path
         id="path23"
         d="m 1538.09,236.969 c 0,0 2.59,13.773 20.67,38.742"
         style="fill:none;stroke:#341334;stroke-width:10;stroke-linecap:round;stroke-linejoin:round;stroke-miterlimit:10;stroke-dasharray:none;stroke-opacity:1"
         transform="matrix(0.13333333,0,0,-0.13333333,0,666.66667)" />
      <path
         id="path24"
         d="m 1572.18,227.441 c 0,0 8.61,30.129 24.97,47.36"
         style="fill:none;stroke:#341334;stroke-width:10;stroke-linecap:round;stroke-linejoin:round;stroke-miterlimit:10;stroke-dasharray:none;stroke-opacity:1"
         transform="matrix(0.13333333,0,0,-0.13333333,0,666.66667)" />
      <path
         id="path25"
         d="m 1628.26,219.012 c 0,0 -13.84,17.136 11.99,55.027"
         style="fill:none;stroke:#341334;stroke-width:10;stroke-linecap:round;stroke-linejoin:round;stroke-miterlimit:10;stroke-dasharray:none;stroke-opacity:1"
         transform="matrix(0.13333333,0,0,-0.13333333,0,666.66667)" />
      <path
         id="path26"
         d="m 1654.2,240.68 c 5.38,-0.27 13.95,-1 19.98,-3.051 2.53,-0.859 5.27,0.34 6.11,2.883 2.67,8.148 5.81,24.07 -8.76,27.867 0,0 -18.01,1.5 -21.8,-22.109 -0.46,-2.821 1.61,-5.45 4.47,-5.59"
         style="fill:#ffffff;fill-opacity:1;fill-rule:nonzero;stroke:none"
         transform="matrix(0.13333333,0,0,-0.13333333,0,666.66667)" />
      <path
         id="path27"
         d="m 1654.2,240.68 c 5.38,-0.27 13.95,-1 19.98,-3.051 2.53,-0.859 5.27,0.34 6.11,2.883 2.67,8.148 5.81,24.07 -8.76,27.867 0,0 -18.01,1.5 -21.8,-22.109 -0.46,-2.821 1.61,-5.45 4.47,-5.59 z"
         style="fill:none;stroke:#341334;stroke-width:10;stroke-linecap:round;stroke-linejoin:round;stroke-miterlimit:10;stroke-dasharray:none;stroke-opacity:1"
         transform="matrix(0.13333333,0,0,-0.13333333,0,666.66667)" />
      <path
         id="path28"
         d="m 1591.85,235.832 c 3.15,-0.16 8.17,-0.594 11.71,-1.781 1.48,-0.512 3.09,0.199 3.57,1.679 1.57,4.782 3.41,14.11 -5.13,16.34 0,0 -10.55,0.879 -12.77,-12.961 -0.27,-1.66 0.94,-3.199 2.62,-3.277"
         style="fill:#ffffff;fill-opacity:1;fill-rule:nonzero;stroke:none"
         transform="matrix(0.13333333,0,0,-0.13333333,0,666.66667)" />
      <path
         id="path29"
         d="m 1591.85,235.832 c 3.15,-0.16 8.17,-0.594 11.71,-1.781 1.48,-0.512 3.09,0.199 3.57,1.679 1.57,4.782 3.41,14.11 -5.13,16.34 0,0 -10.55,0.879 -12.77,-12.961 -0.27,-1.66 0.94,-3.199 2.62,-3.277 z"
         style="fill:none;stroke:#341334;stroke-width:5;stroke-linecap:round;stroke-linejoin:round;stroke-miterlimit:10;stroke-dasharray:none;stroke-opacity:1"
         transform="matrix(0.13333333,0,0,-0.13333333,0,666.66667)" />
      <path
         id="path30"
         d="m 1553.22,239.391 c 2.56,-0.129 6.63,-0.481 9.49,-1.45 1.2,-0.402 2.5,0.168 2.89,1.368 1.28,3.871 2.76,11.421 -4.15,13.23 0,0 -8.55,0.711 -10.35,-10.5 -0.22,-1.34 0.77,-2.578 2.12,-2.648"
         style="fill:#ffffff;fill-opacity:1;fill-rule:nonzero;stroke:none"
         transform="matrix(0.13333333,0,0,-0.13333333,0,666.66667)" />
      <path
         id="path31"
         d="m 1553.22,239.391 c 2.56,-0.129 6.63,-0.481 9.49,-1.45 1.2,-0.402 2.5,0.168 2.89,1.368 1.28,3.871 2.76,11.421 -4.15,13.23 0,0 -8.55,0.711 -10.35,-10.5 -0.22,-1.34 0.77,-2.578 2.12,-2.648 z"
         style="fill:none;stroke:#341334;stroke-width:5;stroke-linecap:round;stroke-linejoin:round;stroke-miterlimit:10;stroke-dasharray:none;stroke-opacity:1"
         transform="matrix(0.13333333,0,0,-0.13333333,0,666.66667)" />
      <path
         id="path32"
         d="m 1519.87,248.922 c 2.56,-0.133 6.62,-0.481 9.48,-1.453 1.2,-0.399 2.51,0.172 2.9,1.371 1.27,3.871 2.76,11.422 -4.15,13.23 0,0 -8.55,0.711 -10.35,-10.5 -0.22,-1.34 0.76,-2.59 2.12,-2.648"
         style="fill:#ffffff;fill-opacity:1;fill-rule:nonzero;stroke:none"
         transform="matrix(0.13333333,0,0,-0.13333333,0,666.66667)" />
      <path
         id="path33"
         d="m 1519.87,248.922 c 2.56,-0.133 6.62,-0.481 9.48,-1.453 1.2,-0.399 2.51,0.172 2.9,1.371 1.27,3.871 2.76,11.422 -4.15,13.23 0,0 -8.55,0.711 -10.35,-10.5 -0.22,-1.34 0.76,-2.59 2.12,-2.648 z"
         style="fill:none;stroke:#341334;stroke-width:5;stroke-linecap:round;stroke-linejoin:round;stroke-miterlimit:10;stroke-dasharray:none;stroke-opacity:1"
         transform="matrix(0.13333333,0,0,-0.13333333,0,666.66667)" />
      <path
         id="path34"
         d="m 1487.61,264.309 c 2.56,-0.118 6.63,-0.469 9.49,-1.438 1.2,-0.41 2.5,0.16 2.9,1.359 1.27,3.872 2.76,11.43 -4.16,13.231 0,0 -8.55,0.711 -10.35,-10.492 -0.21,-1.34 0.77,-2.59 2.12,-2.66"
         style="fill:#ffffff;fill-opacity:1;fill-rule:nonzero;stroke:none"
         transform="matrix(0.13333333,0,0,-0.13333333,0,666.66667)" />
      <path
         id="path35"
         d="m 1487.61,264.309 c 2.56,-0.118 6.63,-0.469 9.49,-1.438 1.2,-0.41 2.5,0.16 2.9,1.359 1.27,3.872 2.76,11.43 -4.16,13.231 0,0 -8.55,0.711 -10.35,-10.492 -0.21,-1.34 0.77,-2.59 2.12,-2.66 z"
         style="fill:none;stroke:#341334;stroke-width:5;stroke-linecap:round;stroke-linejoin:round;stroke-miterlimit:10;stroke-dasharray:none;stroke-opacity:1"
         transform="matrix(0.13333333,0,0,-0.13333333,0,666.66667)" />
      <path
         id="path36"
         d="m 1581.71,1677.25 c 0,0 21.07,-37.07 13.48,-107.86"
         style="fill:none;stroke:#341334;stroke-width:10;stroke-linecap:round;stroke-linejoin:round;stroke-miterlimit:10;stroke-dasharray:none;stroke-opacity:1"
         transform="matrix(0.13333333,0,0,-0.13333333,0,666.66667)" />
      <path
         id="path37"
         d="m 1703.34,1647.76 c 0,0 -18.54,-19.38 -22.76,-96.91"
         style="fill:none;stroke:#341334;stroke-width:10;stroke-linecap:round;stroke-linejoin:round;stroke-miterlimit:10;stroke-dasharray:none;stroke-opacity:1"
         transform="matrix(0.13333333,0,0,-0.13333333,0,666.66667)" />
      <path
         id="path38"
         d="m 2096.53,245.34 c 0,0 -1.72,12.922 -10.33,28.422"
         style="fill:none;stroke:#341334;stroke-width:10;stroke-linecap:round;stroke-linejoin:round;stroke-miterlimit:10;stroke-dasharray:none;stroke-opacity:1"
         transform="matrix(0.13333333,0,0,-0.13333333,0,666.66667)" />
      <path
         id="path39"
         d="m 2064.03,234.852 c 0,0 -2.58,13.777 -20.66,38.75"
         style="fill:none;stroke:#341334;stroke-width:10;stroke-linecap:round;stroke-linejoin:round;stroke-miterlimit:10;stroke-dasharray:none;stroke-opacity:1"
         transform="matrix(0.13333333,0,0,-0.13333333,0,666.66667)" />
      <path
         id="path40"
         d="m 2029.95,225.32 c 0,0 -8.61,30.141 -24.98,47.36"
         style="fill:none;stroke:#341334;stroke-width:10;stroke-linecap:round;stroke-linejoin:round;stroke-miterlimit:10;stroke-dasharray:none;stroke-opacity:1"
         transform="matrix(0.13333333,0,0,-0.13333333,0,666.66667)" />
      <path
         id="path41"
         d="m 1973.87,216.891 c 0,0 13.84,17.148 -12,55.031"
         style="fill:none;stroke:#341334;stroke-width:10;stroke-linecap:round;stroke-linejoin:round;stroke-miterlimit:10;stroke-dasharray:none;stroke-opacity:1"
         transform="matrix(0.13333333,0,0,-0.13333333,0,666.66667)" />
      <path
         id="path42"
         d="m 1947.93,238.559 c -5.39,-0.258 -13.95,-1 -19.98,-3.039 -2.53,-0.86 -5.27,0.339 -6.11,2.878 -2.67,8.153 -5.81,24.063 8.76,27.864 0,0 18,1.508 21.8,-22.114 0.45,-2.816 -1.62,-5.449 -4.47,-5.589"
         style="fill:#ffffff;fill-opacity:1;fill-rule:nonzero;stroke:none"
         transform="matrix(0.13333333,0,0,-0.13333333,0,666.66667)" />
      <path
         id="path43"
         d="m 1947.93,238.559 c -5.39,-0.258 -13.95,-1 -19.98,-3.039 -2.53,-0.86 -5.27,0.339 -6.11,2.878 -2.67,8.153 -5.81,24.063 8.76,27.864 0,0 18,1.508 21.8,-22.114 0.45,-2.816 -1.62,-5.449 -4.47,-5.589 z"
         style="fill:none;stroke:#341334;stroke-width:10;stroke-linecap:round;stroke-linejoin:round;stroke-miterlimit:10;stroke-dasharray:none;stroke-opacity:1"
         transform="matrix(0.13333333,0,0,-0.13333333,0,666.66667)" />
      <path
         id="path44"
         d="m 2010.28,233.711 c -3.15,-0.152 -8.18,-0.582 -11.71,-1.781 -1.48,-0.5 -3.09,0.199 -3.58,1.691 -1.57,4.777 -3.41,14.098 5.13,16.328 0,0 10.56,0.883 12.78,-12.957 0.27,-1.652 -0.95,-3.191 -2.62,-3.281"
         style="fill:#ffffff;fill-opacity:1;fill-rule:nonzero;stroke:none"
         transform="matrix(0.13333333,0,0,-0.13333333,0,666.66667)" />
      <path
         id="path45"
         d="m 2010.28,233.711 c -3.15,-0.152 -8.18,-0.582 -11.71,-1.781 -1.48,-0.5 -3.09,0.199 -3.58,1.691 -1.57,4.777 -3.41,14.098 5.13,16.328 0,0 10.56,0.883 12.78,-12.957 0.27,-1.652 -0.95,-3.191 -2.62,-3.281 z"
         style="fill:none;stroke:#341334;stroke-width:5;stroke-linecap:round;stroke-linejoin:round;stroke-miterlimit:10;stroke-dasharray:none;stroke-opacity:1"
         transform="matrix(0.13333333,0,0,-0.13333333,0,666.66667)" />
      <path
         id="path46"
         d="m 2048.91,237.27 c -2.56,-0.122 -6.63,-0.469 -9.49,-1.438 -1.2,-0.41 -2.5,0.16 -2.9,1.367 -1.27,3.86 -2.76,11.422 4.16,13.223 0,0 8.55,0.719 10.35,-10.492 0.21,-1.34 -0.77,-2.59 -2.12,-2.66"
         style="fill:#ffffff;fill-opacity:1;fill-rule:nonzero;stroke:none"
         transform="matrix(0.13333333,0,0,-0.13333333,0,666.66667)" />
      <path
         id="path47"
         d="m 2048.91,237.27 c -2.56,-0.122 -6.63,-0.469 -9.49,-1.438 -1.2,-0.41 -2.5,0.16 -2.9,1.367 -1.27,3.86 -2.76,11.422 4.16,13.223 0,0 8.55,0.719 10.35,-10.492 0.21,-1.34 -0.77,-2.59 -2.12,-2.66 z"
         style="fill:none;stroke:#341334;stroke-width:5;stroke-linecap:round;stroke-linejoin:round;stroke-miterlimit:10;stroke-dasharray:none;stroke-opacity:1"
         transform="matrix(0.13333333,0,0,-0.13333333,0,666.66667)" />
      <path
         id="path48"
         d="m 2082.26,246.801 c -2.56,-0.121 -6.62,-0.469 -9.49,-1.442 -1.2,-0.41 -2.5,0.161 -2.89,1.371 -1.27,3.86 -2.76,11.418 4.15,13.219 0,0 8.55,0.723 10.35,-10.488 0.22,-1.34 -0.77,-2.59 -2.12,-2.66"
         style="fill:#ffffff;fill-opacity:1;fill-rule:nonzero;stroke:none"
         transform="matrix(0.13333333,0,0,-0.13333333,0,666.66667)" />
      <path
         id="path49"
         d="m 2082.26,246.801 c -2.56,-0.121 -6.62,-0.469 -9.49,-1.442 -1.2,-0.41 -2.5,0.161 -2.89,1.371 -1.27,3.86 -2.76,11.418 4.15,13.219 0,0 8.55,0.723 10.35,-10.488 0.22,-1.34 -0.77,-2.59 -2.12,-2.66 z"
         style="fill:none;stroke:#341334;stroke-width:5;stroke-linecap:round;stroke-linejoin:round;stroke-miterlimit:10;stroke-dasharray:none;stroke-opacity:1"
         transform="matrix(0.13333333,0,0,-0.13333333,0,666.66667)" />
      <path
         id="path50"
         d="m 2114.51,262.199 c -2.55,-0.129 -6.62,-0.48 -9.48,-1.449 -1.2,-0.398 -2.5,0.16 -2.9,1.371 -1.27,3.871 -2.76,11.418 4.16,13.231 0,0 8.54,0.707 10.35,-10.5 0.21,-1.34 -0.77,-2.59 -2.13,-2.653"
         style="fill:#ffffff;fill-opacity:1;fill-rule:nonzero;stroke:none"
         transform="matrix(0.13333333,0,0,-0.13333333,0,666.66667)" />
      <path
         id="path51"
         d="m 2114.51,262.199 c -2.55,-0.129 -6.62,-0.48 -9.48,-1.449 -1.2,-0.398 -2.5,0.16 -2.9,1.371 -1.27,3.871 -2.76,11.418 4.16,13.231 0,0 8.54,0.707 10.35,-10.5 0.21,-1.34 -0.77,-2.59 -2.13,-2.653 z"
         style="fill:none;stroke:#341334;stroke-width:5;stroke-linecap:round;stroke-linejoin:round;stroke-miterlimit:10;stroke-dasharray:none;stroke-opacity:1"
         transform="matrix(0.13333333,0,0,-0.13333333,0,666.66667)" />
      <path
         id="path52"
         d="m 2020.42,1675.14 c 0,0 -21.07,-37.08 -13.49,-107.87"
         style="fill:none;stroke:#341334;stroke-width:10;stroke-linecap:round;stroke-linejoin:round;stroke-miterlimit:10;stroke-dasharray:none;stroke-opacity:1"
         transform="matrix(0.13333333,0,0,-0.13333333,0,666.66667)" />
      <path
         id="path53"
         d="m 1901.51,1647.32 c 0,0 18.54,-19.38 22.76,-96.91"
         style="fill:none;stroke:#341334;stroke-width:10;stroke-linecap:round;stroke-linejoin:round;stroke-miterlimit:10;stroke-dasharray:none;stroke-opacity:1"
         transform="matrix(0.13333333,0,0,-0.13333333,0,666.66667)" />
      <path
         id="path54"
         d="m 1478.83,3223.7 c 217.51,21.63 431.71,24.1 642.44,7"
         style="fill:none;stroke:#341334;stroke-width:10;stroke-linecap:round;stroke-linejoin:round;stroke-miterlimit:10;stroke-dasharray:none;stroke-opacity:1"
         transform="matrix(0.13333333,0,0,-0.13333333,0,666.66667)" />
      <path
         id="path55"
         d="m 1569.32,3878.86 c 63.5,-51 141,-80.9 224.7,-80.9 83.6,0 161,29.7 224.3,80.6"
         style="fill:none;stroke:#341334;stroke-width:10;stroke-linecap:round;stroke-linejoin:round;stroke-miterlimit:10;stroke-dasharray:none;stroke-opacity:1"
         transform="matrix(0.13333333,0,0,-0.13333333,0,666.66667)" />
      <path
         id="path56"
         d="m 1389.18,2810.99 c 86.62,-17.61 342.85,-116.05 404.48,-368.82"
         style="fill:none;stroke:#341334;stroke-width:10;stroke-linecap:round;stroke-linejoin:round;stroke-miterlimit:10;stroke-dasharray:none;stroke-opacity:1"
         transform="matrix(0.13333333,0,0,-0.13333333,0,666.66667)" />
      <path
         id="path57"
         d="m 1818.73,2442.17 c 62.15,254.94 306.85,349.75 390.59,367.96"
         style="fill:none;stroke:#341334;stroke-width:10;stroke-linecap:round;stroke-linejoin:round;stroke-miterlimit:10;stroke-dasharray:none;stroke-opacity:1"
         transform="matrix(0.13333333,0,0,-0.13333333,0,666.66667)" />
      <path
         id="path58"
         d="m 1416.8,2867.62 c 257.82,-76.81 512.19,-79.66 766.32,2.67"
         style="fill:none;stroke:#341334;stroke-width:10;stroke-linecap:round;stroke-linejoin:round;stroke-miterlimit:10;stroke-dasharray:none;stroke-opacity:1"
         transform="matrix(0.13333333,0,0,-0.13333333,0,666.66667)" />
      <path
         id="path59"
         d="m 1769.88,2976.33 c 0,0 42.13,11.53 28.65,-34.58"
         style="fill:none;stroke:#341334;stroke-width:10;stroke-linecap:round;stroke-linejoin:round;stroke-miterlimit:10;stroke-dasharray:none;stroke-opacity:1"
         transform="matrix(0.13333333,0,0,-0.13333333,0,666.66667)" />
      <path
         id="path60"
         d="m 1766.33,3491.42 c 0.8,-7.71 1.22,-15.56 1.22,-23.51 0,-109.78 -79.19,-198.77 -176.88,-198.77 -97.68,0 -176.87,88.99 -176.87,198.77 0,53.53 18.83,102.12 49.45,137.86"
         style="fill:#ffffff;fill-opacity:1;fill-rule:nonzero;stroke:#341334;stroke-width:10;stroke-linecap:round;stroke-linejoin:round;stroke-miterlimit:10;stroke-dasharray:none;stroke-opacity:1"
         transform="matrix(0.13333333,0,0,-0.13333333,0,666.66667)" />
      <path
         id="path61"
         d="m 1650.91,3654.85 c 25.51,-10.38 48.29,-27.17 66.8,-48.64"
         style="fill:none;stroke:#341334;stroke-width:10;stroke-linecap:round;stroke-linejoin:round;stroke-miterlimit:10;stroke-dasharray:none;stroke-opacity:1"
         transform="matrix(0.13333333,0,0,-0.13333333,0,666.66667)" />
      <path
         id="path62"
         d="m 1835.63,3491.42 c -0.81,-7.71 -1.22,-15.56 -1.22,-23.51 0,-109.78 79.19,-198.77 176.87,-198.77 97.69,0 176.88,88.99 176.88,198.77 0,53.53 -18.83,102.12 -49.46,137.86"
         style="fill:#ffffff;fill-opacity:1;fill-rule:nonzero;stroke:#341334;stroke-width:10;stroke-linecap:round;stroke-linejoin:round;stroke-miterlimit:10;stroke-dasharray:none;stroke-opacity:1"
         transform="matrix(0.13333333,0,0,-0.13333333,0,666.66667)" />
      <path
         id="path63"
         d="m 1951.05,3654.85 c -25.51,-10.38 -48.29,-27.17 -66.8,-48.64"
         style="fill:none;stroke:#341334;stroke-width:10;stroke-linecap:round;stroke-linejoin:round;stroke-miterlimit:10;stroke-dasharray:none;stroke-opacity:1"
         transform="matrix(0.13333333,0,0,-0.13333333,0,666.66667)" />
      <path
         id="path64"
         d="m 1637.75,4258.21 c 7.94,-37.7 0.79,-68.26 -15.97,-68.26 -16.76,0 -36.78,30.56 -44.72,68.26 -7.94,37.7 -0.78,68.26 15.97,68.26 16.76,0 36.79,-30.56 44.72,-68.26"
         style="fill:#ffffff;fill-opacity:1;fill-rule:nonzero;stroke:none"
         transform="matrix(0.13333333,0,0,-0.13333333,0,666.66667)" />
      <path
         id="path65"
         d="m 1637.75,4258.21 c 7.94,-37.7 0.79,-68.26 -15.97,-68.26 -16.76,0 -36.78,30.56 -44.72,68.26 -7.94,37.7 -0.78,68.26 15.97,68.26 16.76,0 36.79,-30.56 44.72,-68.26 z"
         style="fill:none;stroke:#341334;stroke-width:10;stroke-linecap:round;stroke-linejoin:round;stroke-miterlimit:10;stroke-dasharray:none;stroke-opacity:1"
         transform="matrix(0.13333333,0,0,-0.13333333,0,666.66667)" />
      <path
         id="path66"
         d="m 1967.01,4258.21 c -7.94,-37.7 -0.79,-68.26 15.97,-68.26 16.76,0 36.78,30.56 44.72,68.26 7.93,37.7 0.78,68.26 -15.98,68.26 -16.75,0 -36.78,-30.56 -44.71,-68.26"
         style="fill:#ffffff;fill-opacity:1;fill-rule:nonzero;stroke:none"
         transform="matrix(0.13333333,0,0,-0.13333333,0,666.66667)" />
      <path
         id="path67"
         d="m 1967.01,4258.21 c -7.94,-37.7 -0.79,-68.26 15.97,-68.26 16.76,0 36.78,30.56 44.72,68.26 7.93,37.7 0.78,68.26 -15.98,68.26 -16.75,0 -36.78,-30.56 -44.71,-68.26 z"
         style="fill:none;stroke:#341334;stroke-width:10;stroke-linecap:round;stroke-linejoin:round;stroke-miterlimit:10;stroke-dasharray:none;stroke-opacity:1"
         transform="matrix(0.13333333,0,0,-0.13333333,0,666.66667)" />
      <path
         id="path68"
         d="m 1602.68,4286.71 7.25,-51.26 c 2.72,-26.28 11.14,-51.96 25.22,-75.47 28.5,-47.57 84.9,-120.46 161.48,-123.14 v -0.16 c 0.37,0 0.72,0.07 1.09,0.08 0.36,-0.01 0.7,-0.08 1.06,-0.08 v 0.16 c 79.19,2.63 137.72,75.56 167.32,123.14 14.62,23.51 23.38,49.19 26.27,75.47 l 13.88,126.16"
         style="fill:#ffffff;fill-opacity:1;fill-rule:nonzero;stroke:#341334;stroke-width:10;stroke-linecap:round;stroke-linejoin:round;stroke-miterlimit:10;stroke-dasharray:none;stroke-opacity:1"
         transform="matrix(0.13333333,0,0,-0.13333333,0,666.66667)" />
      <path
         id="path69"
         d="m 1714.7,4281.37 c -29.41,3.24 -32.65,23.02 -32.65,23.02 l -15.17,1.85 10.63,-0.92 c 8.08,6.31 15.71,10.47 22.71,13.01 18.79,6.7 33.5,1.38 43.5,-5.78 v -0.07 c 10.24,-7.16 15.63,-16.32 15.63,-16.32"
         style="fill:none;stroke:#341334;stroke-width:10;stroke-linecap:round;stroke-linejoin:round;stroke-miterlimit:10;stroke-dasharray:none;stroke-opacity:1"
         transform="matrix(0.13333333,0,0,-0.13333333,0,666.66667)" />
      <path
         id="path70"
         d="m 1743.72,4312.55 v -0.07 c 0,-13.63 -9.93,-24.64 -22.09,-24.64 -12.17,0 -22.1,11.01 -22.1,24.64 0,2 0.23,4 0.69,5.85 18.79,6.7 33.5,1.38 43.5,-5.78 z"
         style="fill:none;stroke:#341334;stroke-width:10;stroke-linecap:round;stroke-linejoin:round;stroke-miterlimit:10;stroke-dasharray:none;stroke-opacity:1"
         transform="matrix(0.13333333,0,0,-0.13333333,0,666.66667)" />
      <path
         id="path71"
         d="m 1842.52,4296.16 c 0,0 5.39,9.16 15.63,16.32 v 0.07 c 10.01,7.16 24.72,12.48 43.5,5.78 7.01,-2.54 14.63,-6.7 22.72,-13.01 l 10.62,0.92 -15.16,-1.85 c 0,0 -3.24,-19.78 -32.65,-23.02"
         style="fill:none;stroke:#341334;stroke-width:10;stroke-linecap:round;stroke-linejoin:round;stroke-miterlimit:10;stroke-dasharray:none;stroke-opacity:1"
         transform="matrix(0.13333333,0,0,-0.13333333,0,666.66667)" />
      <path
         id="path72"
         d="m 1858.15,4312.55 v -0.07 c 0,-13.63 9.94,-24.64 22.1,-24.64 12.17,0 22.1,11.01 22.1,24.64 0,2 -0.23,4 -0.7,5.85 -18.78,6.7 -33.49,1.38 -43.5,-5.78 z"
         style="fill:none;stroke:#341334;stroke-width:10;stroke-linecap:round;stroke-linejoin:round;stroke-miterlimit:10;stroke-dasharray:none;stroke-opacity:1"
         transform="matrix(0.13333333,0,0,-0.13333333,0,666.66667)" />
      <path
         id="path73"
         d="m 1661.85,4340.26 27.12,22.99 80.47,-29.43 1.84,14.72 -81.39,20.23 -28.04,-28.51"
         style="fill:#341334;fill-opacity:1;fill-rule:nonzero;stroke:none"
         transform="matrix(0.13333333,0,0,-0.13333333,0,666.66667)" />
      <path
         id="path74"
         d="m 1661.85,4340.26 27.12,22.99 80.47,-29.43 1.84,14.72 -81.39,20.23 z"
         style="fill:none;stroke:#341334;stroke-width:10;stroke-linecap:round;stroke-linejoin:round;stroke-miterlimit:10;stroke-dasharray:none;stroke-opacity:1"
         transform="matrix(0.13333333,0,0,-0.13333333,0,666.66667)" />
      <path
         id="path75"
         d="m 1940.02,4340.26 -27.13,22.99 -80.46,-29.43 -1.84,14.72 81.38,20.23 28.05,-28.51"
         style="fill:#341334;fill-opacity:1;fill-rule:nonzero;stroke:none"
         transform="matrix(0.13333333,0,0,-0.13333333,0,666.66667)" />
      <path
         id="path76"
         d="m 1940.02,4340.26 -27.13,22.99 -80.46,-29.43 -1.84,14.72 81.38,20.23 z"
         style="fill:none;stroke:#341334;stroke-width:10;stroke-linecap:round;stroke-linejoin:round;stroke-miterlimit:10;stroke-dasharray:none;stroke-opacity:1"
         transform="matrix(0.13333333,0,0,-0.13333333,0,666.66667)" />
      <path
         id="path77"
         d="m 1821.39,4307.62 c 0,0 -10.57,-15.17 -5.97,-72.19"
         style="fill:none;stroke:#341334;stroke-width:10;stroke-linecap:round;stroke-linejoin:round;stroke-miterlimit:10;stroke-dasharray:none;stroke-opacity:1"
         transform="matrix(0.13333333,0,0,-0.13333333,0,666.66667)" />
      <path
         id="path78"
         d="m 1772.65,4197.27 c 0,0 5.03,-2.32 15.07,-2.7"
         style="fill:none;stroke:#341334;stroke-width:10;stroke-linecap:round;stroke-linejoin:round;stroke-miterlimit:10;stroke-dasharray:none;stroke-opacity:1"
         transform="matrix(0.13333333,0,0,-0.13333333,0,666.66667)" />
      <path
         id="path79"
         d="m 1827.83,4197.27 c 0,0 -5.6,-2.58 -16.79,-2.75"
         style="fill:none;stroke:#341334;stroke-width:10;stroke-linecap:round;stroke-linejoin:round;stroke-miterlimit:10;stroke-dasharray:none;stroke-opacity:1"
         transform="matrix(0.13333333,0,0,-0.13333333,0,666.66667)" />
      <path
         id="path80"
         d="m 1844.25,4116.96 c 6.19,4.72 13.89,16.72 12.86,26.68 -17.87,15.45 -36.88,25.68 -58.44,14.45 -21.56,11.23 -40.58,1 -58.44,-14.45 1.57,-10.31 5.75,-18.5 12.94,-24.29 24.88,-20.06 70.7,-17.89 91.08,-2.39 z"
         style="fill:none;stroke:#341334;stroke-width:10;stroke-linecap:round;stroke-linejoin:round;stroke-miterlimit:10;stroke-dasharray:none;stroke-opacity:1"
         transform="matrix(0.13333333,0,0,-0.13333333,0,666.66667)" />
      <path
         id="path81"
         d="m 1740.23,4143.64 c 39.14,-6.21 78.11,-6.4 116.88,0"
         style="fill:none;stroke:#341334;stroke-width:10;stroke-linecap:round;stroke-linejoin:round;stroke-miterlimit:10;stroke-dasharray:none;stroke-opacity:1"
         transform="matrix(0.13333333,0,0,-0.13333333,0,666.66667)" />
      <path
         id="path82"
         d="m 2074.5,4387.02 c 32.35,-68.16 -30.8,-97.11 -30.8,-97.11 -7.12,-10.58 -14.69,-15.32 -20.43,-17.41 -6.62,-2.42 -14.33,-1.36 -19.69,3.23 -5.03,4.31 -6.95,10.61 -9,17.7 -2.05,7.12 -0.22,32.18 1.21,47.95 0.69,7.6 -2.69,14.87 -8.81,19.42 -4.56,3.38 -10.07,8.34 -15.29,15.24 -4.56,6.05 -7.67,13.91 -9.14,22.23 -2.23,12.66 -14.71,20.94 -27.04,17.33 -15.42,-4.52 -32.27,-4.25 -47.26,1.57 -9.4,3.64 -18.4,9.66 -22.87,18.7 -4.46,9.03 -3.05,21.4 5.09,27.34 -19.61,-17.15 -43.43,-31.15 -69.45,-32.62 -13.51,-0.76 -27.55,2.6 -39.18,9.43 -10.69,6.28 -24.38,2.7 -30.24,-8.22 -3.47,-6.48 -8.23,-12.21 -14.22,-16.56 -9.2,-6.7 -21.26,-9.38 -32.43,-7.7 -10.95,1.64 -21.18,-4.53 -24.75,-15.01 -3.13,-9.19 -9.07,-18.39 -20.23,-22.89 -8.65,-3.48 -13.57,-12.8 -12.49,-22.08 2.49,-21.42 1.73,-54.93 -23.58,-69.46 -1.59,-0.92 -3.3,-1.61 -5.07,-2.09 -8.68,-2.35 -33.01,-5.2 -42.43,32.45 0,0 -51.4,34.08 -25.41,80.29"
         style="fill:#ffffff;fill-opacity:1;fill-rule:nonzero;stroke:#341334;stroke-width:10;stroke-linecap:round;stroke-linejoin:round;stroke-miterlimit:10;stroke-dasharray:none;stroke-opacity:1"
         transform="matrix(0.13333333,0,0,-0.13333333,0,666.66667)" />
      <path
         id="path83"
         d="m 2863.28,3517.5 -42.39,-436.03 c 10.4,-83.76 -20.09,-203.13 -37.53,-262.13 -5.42,-18.34 -12.2,-36.15 -19.3,-53.9 -33.36,-83.43 -48.63,-229.3 -52.23,-268.2 l 25.42,-141.94 c 4.27,-23.86 5.14,-48.01 2.6,-71.98 l -8.84,-100.53 c -3.17,-20.85 -24.92,-17.88 -30.89,-8.7 -5.13,7.89 -7.46,17.28 -7.45,26.68 l 0.24,114.71 -14.15,-38.05 3.35,-89.32 52.42,-70.83 c 4.73,-6.39 8.12,-13.83 8.83,-21.74 2.02,-22.52 -15.45,-23.99 -15.45,-23.99 l -24.74,20.92 -84.28,84.24 -27.79,81.38 c -5.74,16.78 -6.81,34.8 -3.12,52.14 l 24.26,113.95 c 3.9,38.19 9.82,151.63 8.98,189.99 l -7.75,352.03 c -0.75,33.86 5.86,67.37 17.55,99.79 15.96,44.28 23.43,90.4 22.12,136.64 -7.84,277.95 -108.62,602.5 200.01,628.2"
         style="fill:#ffffff;fill-opacity:1;fill-rule:nonzero;stroke:#341334;stroke-width:10;stroke-linecap:round;stroke-linejoin:round;stroke-miterlimit:10;stroke-dasharray:none;stroke-opacity:1"
         transform="matrix(0.13333333,0,0,-0.13333333,0,666.66667)" />
      <path
         id="path84"
         d="m 2656.26,2255.81 v 0 c 25.92,21.75 43.5,51.82 49.72,85.08 l 6.22,33.22"
         style="fill:#ffffff;fill-opacity:1;fill-rule:nonzero;stroke:#341334;stroke-width:10;stroke-linecap:round;stroke-linejoin:round;stroke-miterlimit:10;stroke-dasharray:none;stroke-opacity:1"
         transform="matrix(0.13333333,0,0,-0.13333333,0,666.66667)" />
      <path
         id="path85"
         d="m 2656.26,2255.81 -5.77,-73.82 c 0,0 88.14,-50.32 52.68,-89.52"
         style="fill:none;stroke:#341334;stroke-width:10;stroke-linecap:round;stroke-linejoin:round;stroke-miterlimit:10;stroke-dasharray:none;stroke-opacity:1"
         transform="matrix(0.13333333,0,0,-0.13333333,0,666.66667)" />
      <path
         id="path86"
         d="m 2758.64,3077.19 c 0,0 -23.36,-8.44 -31.65,-39.76"
         style="fill:#ffffff;fill-opacity:1;fill-rule:nonzero;stroke:#341334;stroke-width:10;stroke-linecap:round;stroke-linejoin:round;stroke-miterlimit:10;stroke-dasharray:none;stroke-opacity:1"
         transform="matrix(0.13333333,0,0,-0.13333333,0,666.66667)" />
      <path
         id="path87"
         d="m 2705.67,3048.79 c 0,0 11.23,18.61 -7.04,47.22"
         style="fill:#ffffff;fill-opacity:1;fill-rule:nonzero;stroke:#341334;stroke-width:10;stroke-linecap:round;stroke-linejoin:round;stroke-miterlimit:10;stroke-dasharray:none;stroke-opacity:1"
         transform="matrix(0.13333333,0,0,-0.13333333,0,666.66667)" />
      <path
         id="path88"
         d="m 2690,2101.05 c 6.56,-7.09 13.4,-11.44 17.43,-7.72 4.03,3.73 1.98,12.5 -4.58,19.59 -6.55,7.1 -15.13,9.84 -19.16,6.12 -4.03,-3.72 -0.24,-10.89 6.31,-17.99"
         style="fill:#ffffff;fill-opacity:1;fill-rule:nonzero;stroke:none"
         transform="matrix(0.13333333,0,0,-0.13333333,0,666.66667)" />
      <path
         id="path89"
         d="m 2690,2101.05 c 6.56,-7.09 13.4,-11.44 17.43,-7.72 4.03,3.73 1.98,12.5 -4.58,19.59 -6.55,7.1 -15.13,9.84 -19.16,6.12 -4.03,-3.72 -0.24,-10.89 6.31,-17.99 z"
         style="fill:none;stroke:#341334;stroke-width:10;stroke-linecap:round;stroke-linejoin:round;stroke-miterlimit:10;stroke-dasharray:none;stroke-opacity:1"
         transform="matrix(0.13333333,0,0,-0.13333333,0,666.66667)" />
      <path
         id="path90"
         d="m 2723.77,2072.93 c 6.13,-6.64 12.53,-10.7 16.3,-7.22 3.77,3.48 1.85,11.68 -4.28,18.32 -6.13,6.64 -14.15,9.2 -17.92,5.72 -3.77,-3.48 -0.23,-10.18 5.9,-16.82"
         style="fill:#ffffff;fill-opacity:1;fill-rule:nonzero;stroke:none"
         transform="matrix(0.13333333,0,0,-0.13333333,0,666.66667)" />
      <path
         id="path91"
         d="m 2723.77,2072.93 c 6.13,-6.64 12.53,-10.7 16.3,-7.22 3.77,3.48 1.85,11.68 -4.28,18.32 -6.13,6.64 -14.15,9.2 -17.92,5.72 -3.77,-3.48 -0.23,-10.18 5.9,-16.82 z"
         style="fill:none;stroke:#341334;stroke-width:10;stroke-linecap:round;stroke-linejoin:round;stroke-miterlimit:10;stroke-dasharray:none;stroke-opacity:1"
         transform="matrix(0.13333333,0,0,-0.13333333,0,666.66667)" />
      <path
         id="path92"
         d="m 3591.97,3519.11 49.71,-435.26 c -8.99,-83.93 23.49,-202.77 41.92,-261.46 5.73,-18.24 12.8,-35.94 20.2,-53.58 34.75,-82.85 52.47,-228.45 56.72,-267.27 l -23.03,-142.35 c -3.87,-23.93 -4.34,-48.09 -1.39,-72.02 l 10.52,-100.37 c 3.52,-20.79 25.21,-17.45 31.03,-8.17 5,7.97 7.17,17.39 7,26.8 l -2.16,114.68 14.78,-37.8 -1.85,-89.36 -51.22,-71.71 c -4.62,-6.46 -7.88,-13.96 -8.46,-21.88 -1.65,-22.55 15.85,-23.73 15.85,-23.73 l 24.38,21.34 82.85,85.64 26.43,81.83 c 5.45,16.87 6.22,34.91 2.24,52.19 l -26.16,113.53 c -4.55,38.12 -12.37,151.44 -12.17,189.81 l 1.84,352.11 c 0.18,33.86 -6.99,67.26 -19.22,99.48 -16.71,44.01 -24.94,89.99 -24.42,136.25 3.18,278.04 95.07,604.11 -213.95,624.62"
         style="fill:#ffffff;fill-opacity:1;fill-rule:nonzero;stroke:#341334;stroke-width:10;stroke-linecap:round;stroke-linejoin:round;stroke-miterlimit:10;stroke-dasharray:none;stroke-opacity:1"
         transform="matrix(0.13333333,0,0,-0.13333333,0,666.66667)" />
      <path
         id="path93"
         d="m 3820.13,2261.07 v 0 c -26.28,21.31 -44.36,51.08 -51.14,84.24 l -6.78,33.1"
         style="fill:#ffffff;fill-opacity:1;fill-rule:nonzero;stroke:#341334;stroke-width:10;stroke-linecap:round;stroke-linejoin:round;stroke-miterlimit:10;stroke-dasharray:none;stroke-opacity:1"
         transform="matrix(0.13333333,0,0,-0.13333333,0,666.66667)" />
      <path
         id="path94"
         d="m 3820.13,2261.07 7.01,-73.72 c 0,0 -87.29,-51.79 -51.17,-90.38"
         style="fill:none;stroke:#341334;stroke-width:10;stroke-linecap:round;stroke-linejoin:round;stroke-miterlimit:10;stroke-dasharray:none;stroke-opacity:1"
         transform="matrix(0.13333333,0,0,-0.13333333,0,666.66667)" />
      <path
         id="path95"
         d="m 3703.99,3080.62 c 0,0 23.49,-8.05 32.32,-39.23"
         style="fill:#ffffff;fill-opacity:1;fill-rule:nonzero;stroke:#341334;stroke-width:10;stroke-linecap:round;stroke-linejoin:round;stroke-miterlimit:10;stroke-dasharray:none;stroke-opacity:1"
         transform="matrix(0.13333333,0,0,-0.13333333,0,666.66667)" />
      <path
         id="path96"
         d="m 3757.43,3053.11 c 0,0 -11.55,18.42 6.25,47.33"
         style="fill:#ffffff;fill-opacity:1;fill-rule:nonzero;stroke:#341334;stroke-width:10;stroke-linecap:round;stroke-linejoin:round;stroke-miterlimit:10;stroke-dasharray:none;stroke-opacity:1"
         transform="matrix(0.13333333,0,0,-0.13333333,0,666.66667)" />
      <path
         id="path97"
         d="m 3788.99,2105.77 c -6.43,-7.21 -13.2,-11.66 -17.29,-8.01 -4.09,3.65 -2.19,12.45 4.24,19.66 6.44,7.21 14.97,10.09 19.06,6.44 4.09,-3.66 0.43,-10.88 -6.01,-18.09"
         style="fill:#ffffff;fill-opacity:1;fill-rule:nonzero;stroke:none"
         transform="matrix(0.13333333,0,0,-0.13333333,0,666.66667)" />
      <path
         id="path98"
         d="m 3788.99,2105.77 c -6.43,-7.21 -13.2,-11.66 -17.29,-8.01 -4.09,3.65 -2.19,12.45 4.24,19.66 6.44,7.21 14.97,10.09 19.06,6.44 4.09,-3.66 0.43,-10.88 -6.01,-18.09 z"
         style="fill:none;stroke:#341334;stroke-width:10;stroke-linecap:round;stroke-linejoin:round;stroke-miterlimit:10;stroke-dasharray:none;stroke-opacity:1"
         transform="matrix(0.13333333,0,0,-0.13333333,0,666.66667)" />
      <path
         id="path99"
         d="m 3755.7,2077.08 c -6.02,-6.74 -12.35,-10.9 -16.18,-7.49 -3.82,3.42 -2.04,11.65 3.98,18.39 6.01,6.74 13.99,9.44 17.82,6.02 3.83,-3.41 0.4,-10.18 -5.62,-16.92"
         style="fill:#ffffff;fill-opacity:1;fill-rule:nonzero;stroke:none"
         transform="matrix(0.13333333,0,0,-0.13333333,0,666.66667)" />
      <path
         id="path100"
         d="m 3755.7,2077.08 c -6.02,-6.74 -12.35,-10.9 -16.18,-7.49 -3.82,3.42 -2.04,11.65 3.98,18.39 6.01,6.74 13.99,9.44 17.82,6.02 3.83,-3.41 0.4,-10.18 -5.62,-16.92 z"
         style="fill:none;stroke:#341334;stroke-width:10;stroke-linecap:round;stroke-linejoin:round;stroke-miterlimit:10;stroke-dasharray:none;stroke-opacity:1"
         transform="matrix(0.13333333,0,0,-0.13333333,0,666.66667)" />
      <path
         id="path101"
         d="m 3686.8,2282.42 c 29.85,120.18 36.96,245.25 17.33,367.51 -12.41,77.29 -36.06,162.08 -79.08,242.53 -6.1,11.41 -15.44,27.44 -26.39,45.66 -65.88,109.55 -78.61,243.06 -35.03,363.23 l 30.75,84.81 c 36.43,95.23 49.46,173.31 38.79,272.86 l -18.21,171.32 c 0,0 -206.87,62.36 -259.83,115.03 v 199.88 h -117.55 -11.28 -117.55 v -199.88 c -53.05,-52.67 -256.38,-115.03 -256.38,-115.03 l -16.05,-194.62 v -10.62 c 0,-67.33 10.86,-134.35 32.28,-199.27 l 43.39,-141.72 c 36.15,-118.09 18.93,-245.98 -46.68,-350.61 -20.31,-32.39 -38.19,-63.04 -47.65,-84.23 -25.64,-57.5 -42.38,-116.12 -53.07,-171.7 -25.2,-131.07 -19.53,-266.21 12.64,-395.74 l 114.7,-461.88 c 8.41,-37.57 12.3,-75.68 11.56,-113.87 l -0.65,-39.11 c -0.65,-33.73 -5.36,-67.22 -12.38,-100.33 -57.95,-269.94 137.14,-914.23 136.68,-967.199 -0.46,-62.832 -18.94,-124.66 -50.74,-181.632 L 2914,288.922 c -3.04,-6.281 0.26,-13.481 7.63,-16.332 26.72,-10.348 72.87,-23.449 147.19,-11.699 0,0 54.44,-10.082 84.38,6.55 20.32,10.731 8.91,133.86 7.12,222.899 -1.11,14.242 0.55,28.64 4.62,42.57 13.68,47.738 -3.14,89.012 -3.14,89.012 -22.74,58.898 -37.9,199.879 -37.9,199.879 -20.14,296.659 45.38,555.049 12.67,666.999 l -3.98,42.12 c -0.55,5.69 -0.83,11.47 -0.83,17.17 0,19.32 3.14,38.57 9.33,57.2 13.5,40.58 19.41,82.54 17.84,124.58 -9.33,248.15 30.12,455.63 61.08,740.51 h 6.29 11.28 8.27 c 31.05,-284.88 68.44,-492.36 59.1,-740.51 -0.18,-4.54 -0.28,-9.16 -0.28,-13.7 0,-37.42 6.1,-74.69 18.12,-110.88 7.95,-24.17 10.9,-49.35 8.5,-74.37 l -3.97,-42.12 c -32.81,-111.95 32.81,-370.34 12.66,-666.999 0,0 -15.16,-140.981 -37.89,-199.879 0,0 -16.82,-41.274 -3.15,-89.012 3.98,-13.93 5.73,-28.328 4.63,-42.57 -7.12,-94.629 -8.78,-180.102 12.19,-227.602 0,0 12.06,-26.328 90.09,-3.718 0,0 104.99,-26.52 149.19,8.878 5.54,5.161 8.13,14.012 -0.28,29.102 l -67.37,120.809 c -31.7,56.972 -50.19,118.8 -50.74,181.632 -0.46,52.969 194.72,697.259 136.78,967.199 -7.12,33.11 -11.74,66.6 -12.39,100.33 l -0.74,39.11 c -0.64,38.19 3.24,76.3 11.65,113.87 l 114.85,462.47"
         style="fill:#ffffff;fill-opacity:1;fill-rule:nonzero;stroke:none"
         transform="matrix(0.13333333,0,0,-0.13333333,0,666.66667)" />
      <path
         id="path102"
         d="m 3686.8,2282.42 c 29.85,120.18 36.96,245.25 17.33,367.51 -12.41,77.29 -36.06,162.08 -79.08,242.53 -6.1,11.41 -15.44,27.44 -26.39,45.66 -65.88,109.55 -78.61,243.06 -35.03,363.23 l 30.75,84.81 c 36.43,95.23 49.46,173.31 38.79,272.86 l -18.21,171.32 c 0,0 -206.87,62.36 -259.83,115.03 v 199.88 h -117.55 -11.28 -117.55 v -199.88 c -53.05,-52.67 -256.38,-115.03 -256.38,-115.03 l -16.05,-194.62 v -10.62 c 0,-67.33 10.86,-134.35 32.28,-199.27 l 43.39,-141.72 c 36.15,-118.09 18.93,-245.98 -46.68,-350.61 -20.31,-32.39 -38.19,-63.04 -47.65,-84.23 -25.64,-57.5 -42.38,-116.12 -53.07,-171.7 -25.2,-131.07 -19.53,-266.21 12.64,-395.74 l 114.7,-461.88 c 8.41,-37.57 12.3,-75.68 11.56,-113.87 l -0.65,-39.11 c -0.65,-33.73 -5.36,-67.22 -12.38,-100.33 -57.95,-269.94 137.14,-914.23 136.68,-967.199 -0.46,-62.832 -18.94,-124.66 -50.74,-181.632 L 2914,288.922 c -3.04,-6.281 0.26,-13.481 7.63,-16.332 26.72,-10.348 72.87,-23.449 147.19,-11.699 0,0 54.44,-10.082 84.38,6.55 20.32,10.731 8.91,133.86 7.12,222.899 -1.11,14.242 0.55,28.64 4.62,42.57 13.68,47.738 -3.14,89.012 -3.14,89.012 -22.74,58.898 -37.9,199.879 -37.9,199.879 -20.14,296.659 45.38,555.049 12.67,666.999 l -3.98,42.12 c -0.55,5.69 -0.83,11.47 -0.83,17.17 0,19.32 3.14,38.57 9.33,57.2 13.5,40.58 19.41,82.54 17.84,124.58 -9.33,248.15 30.12,455.63 61.08,740.51 h 6.29 11.28 8.27 c 31.05,-284.88 68.44,-492.36 59.1,-740.51 -0.18,-4.54 -0.28,-9.16 -0.28,-13.7 0,-37.42 6.1,-74.69 18.12,-110.88 7.95,-24.17 10.9,-49.35 8.5,-74.37 l -3.97,-42.12 c -32.81,-111.95 32.81,-370.34 12.66,-666.999 0,0 -15.16,-140.981 -37.89,-199.879 0,0 -16.82,-41.274 -3.15,-89.012 3.98,-13.93 5.73,-28.328 4.63,-42.57 -7.12,-94.629 -8.78,-180.102 12.19,-227.602 0,0 12.06,-26.328 90.09,-3.718 0,0 104.99,-26.52 149.19,8.878 5.54,5.161 8.13,14.012 -0.28,29.102 l -67.37,120.809 c -31.7,56.972 -50.19,118.8 -50.74,181.632 -0.46,52.969 194.72,697.259 136.78,967.199 -7.12,33.11 -11.74,66.6 -12.39,100.33 l -0.74,39.11 c -0.64,38.19 3.24,76.3 11.65,113.87 z"
         style="fill:none;stroke:#341334;stroke-width:10;stroke-linecap:round;stroke-linejoin:round;stroke-miterlimit:10;stroke-dasharray:none;stroke-opacity:1"
         transform="matrix(0.13333333,0,0,-0.13333333,0,666.66667)" />
      <path
         id="path103"
         d="m 2925.63,3224.39 c 209.58,20.48 416,23.1 619.27,7.55"
         style="fill:none;stroke:#341334;stroke-width:10;stroke-linecap:round;stroke-linejoin:round;stroke-miterlimit:10;stroke-dasharray:none;stroke-opacity:1"
         transform="matrix(0.13333333,0,0,-0.13333333,0,666.66667)" />
      <path
         id="path104"
         d="m 3036.05,352.289 c 0,0 -9.05,-26.379 3.39,-65.008"
         style="fill:#ffffff;fill-opacity:1;fill-rule:nonzero;stroke:#341334;stroke-width:10;stroke-linecap:round;stroke-linejoin:round;stroke-miterlimit:10;stroke-dasharray:none;stroke-opacity:1"
         transform="matrix(0.13333333,0,0,-0.13333333,0,666.66667)" />
      <path
         id="path105"
         d="M 3015.69,449.34 C 2996.47,357.949 3129.91,340.992 3162.71,406"
         style="fill:#ffffff;fill-opacity:1;fill-rule:nonzero;stroke:#341334;stroke-width:10;stroke-linecap:round;stroke-linejoin:round;stroke-miterlimit:10;stroke-dasharray:none;stroke-opacity:1"
         transform="matrix(0.13333333,0,0,-0.13333333,0,666.66667)" />
      <path
         id="path106"
         d="m 3064.32,639.648 c 0,0 14.7,-60.296 -1.13,-111.168"
         style="fill:#ffffff;fill-opacity:1;fill-rule:nonzero;stroke:#341334;stroke-width:10;stroke-linecap:round;stroke-linejoin:round;stroke-miterlimit:10;stroke-dasharray:none;stroke-opacity:1"
         transform="matrix(0.13333333,0,0,-0.13333333,0,666.66667)" />
      <path
         id="path107"
         d="m 3114.08,667.922 c 0,0 2.26,-71.613 15.83,-108.352"
         style="fill:#ffffff;fill-opacity:1;fill-rule:nonzero;stroke:#341334;stroke-width:10;stroke-linecap:round;stroke-linejoin:round;stroke-miterlimit:10;stroke-dasharray:none;stroke-opacity:1"
         transform="matrix(0.13333333,0,0,-0.13333333,0,666.66667)" />
      <path
         id="path108"
         d="m 3431.11,352.289 c 0,0 9.04,-26.379 -3.4,-65.008"
         style="fill:#ffffff;fill-opacity:1;fill-rule:nonzero;stroke:#341334;stroke-width:10;stroke-linecap:round;stroke-linejoin:round;stroke-miterlimit:10;stroke-dasharray:none;stroke-opacity:1"
         transform="matrix(0.13333333,0,0,-0.13333333,0,666.66667)" />
      <path
         id="path109"
         d="M 3451.46,449.34 C 3470.69,357.949 3337.24,340.992 3304.45,406"
         style="fill:#ffffff;fill-opacity:1;fill-rule:nonzero;stroke:#341334;stroke-width:10;stroke-linecap:round;stroke-linejoin:round;stroke-miterlimit:10;stroke-dasharray:none;stroke-opacity:1"
         transform="matrix(0.13333333,0,0,-0.13333333,0,666.66667)" />
      <path
         id="path110"
         d="m 3402.83,639.648 c 0,0 -14.7,-60.296 1.13,-111.168"
         style="fill:#ffffff;fill-opacity:1;fill-rule:nonzero;stroke:#341334;stroke-width:10;stroke-linecap:round;stroke-linejoin:round;stroke-miterlimit:10;stroke-dasharray:none;stroke-opacity:1"
         transform="matrix(0.13333333,0,0,-0.13333333,0,666.66667)" />
      <path
         id="path111"
         d="m 3353.07,667.922 c 0,0 -2.26,-71.613 -15.83,-108.352"
         style="fill:#ffffff;fill-opacity:1;fill-rule:nonzero;stroke:#341334;stroke-width:10;stroke-linecap:round;stroke-linejoin:round;stroke-miterlimit:10;stroke-dasharray:none;stroke-opacity:1"
         transform="matrix(0.13333333,0,0,-0.13333333,0,666.66667)" />
      <path
         id="path112"
         d="m 3482.44,1673.09 c 0,0 0,-31.59 13.55,-68.82"
         style="fill:#ffffff;fill-opacity:1;fill-rule:nonzero;stroke:#341334;stroke-width:10;stroke-linecap:round;stroke-linejoin:round;stroke-miterlimit:10;stroke-dasharray:none;stroke-opacity:1"
         transform="matrix(0.13333333,0,0,-0.13333333,0,666.66667)" />
      <path
         id="path113"
         d="m 3390.36,1653.91 c 0,0 -1.36,-24.82 -6.77,-71.08"
         style="fill:#ffffff;fill-opacity:1;fill-rule:nonzero;stroke:#341334;stroke-width:10;stroke-linecap:round;stroke-linejoin:round;stroke-miterlimit:10;stroke-dasharray:none;stroke-opacity:1"
         transform="matrix(0.13333333,0,0,-0.13333333,0,666.66667)" />
      <path
         id="path114"
         d="m 2981.38,1670.83 c 0,0 5.48,-0.27 -3.46,-69.79"
         style="fill:#ffffff;fill-opacity:1;fill-rule:nonzero;stroke:#341334;stroke-width:10;stroke-linecap:round;stroke-linejoin:round;stroke-miterlimit:10;stroke-dasharray:none;stroke-opacity:1"
         transform="matrix(0.13333333,0,0,-0.13333333,0,666.66667)" />
      <path
         id="path115"
         d="m 3078.89,1648.27 c 0,0 -1.36,-36.1 1.35,-65.44"
         style="fill:#ffffff;fill-opacity:1;fill-rule:nonzero;stroke:#341334;stroke-width:10;stroke-linecap:round;stroke-linejoin:round;stroke-miterlimit:10;stroke-dasharray:none;stroke-opacity:1"
         transform="matrix(0.13333333,0,0,-0.13333333,0,666.66667)" />
      <path
         id="path116"
         d="m 3245.87,2470.38 c 65.43,261.48 336.27,327.62 415.38,342.24"
         style="fill:#ffffff;fill-opacity:1;fill-rule:nonzero;stroke:#341334;stroke-width:10;stroke-linecap:round;stroke-linejoin:round;stroke-miterlimit:10;stroke-dasharray:none;stroke-opacity:1"
         transform="matrix(0.13333333,0,0,-0.13333333,0,666.66667)" />
      <path
         id="path117"
         d="m 2802.49,2812.62 c 79.11,-14.62 352.02,-80.76 417.45,-342.24"
         style="fill:#ffffff;fill-opacity:1;fill-rule:nonzero;stroke:#341334;stroke-width:10;stroke-linecap:round;stroke-linejoin:round;stroke-miterlimit:10;stroke-dasharray:none;stroke-opacity:1"
         transform="matrix(0.13333333,0,0,-0.13333333,0,666.66667)" />
      <path
         id="path118"
         d="m 2828.93,2873.14 c 267.09,-86.31 536.3,-83.38 807.36,-2.77"
         style="fill:#ffffff;fill-opacity:1;fill-rule:nonzero;stroke:#341334;stroke-width:10;stroke-linecap:round;stroke-linejoin:round;stroke-miterlimit:10;stroke-dasharray:none;stroke-opacity:1"
         transform="matrix(0.13333333,0,0,-0.13333333,0,666.66667)" />
      <path
         id="path119"
         d="m 3559.82,2456.65 c 0,0 -257.3,-80.95 -331.07,68.96 -73.78,-149.91 -331.08,-68.96 -331.08,-68.96"
         style="fill:none;stroke:#341334;stroke-width:10;stroke-linecap:round;stroke-linejoin:round;stroke-miterlimit:10;stroke-dasharray:none;stroke-opacity:1"
         transform="matrix(0.13333333,0,0,-0.13333333,0,666.66667)" />
      <path
         id="path120"
         d="M 3227.85,3724.23 V 3113.87"
         style="fill:#ffffff;fill-opacity:1;fill-rule:nonzero;stroke:#341334;stroke-width:10;stroke-linecap:round;stroke-linejoin:round;stroke-miterlimit:10;stroke-dasharray:none;stroke-opacity:1"
         transform="matrix(0.13333333,0,0,-0.13333333,0,666.66667)" />
      <path
         id="path121"
         d="m 3605.26,4325.32 c 19.61,14.61 31.05,39.02 27.81,65.03 -2.1,16.87 -10.02,31.59 -21.5,42.41 3.36,9.79 4.67,20.44 3.3,31.39 -1.73,13.93 -7.47,26.35 -15.86,36.37 9.6,10.42 14.74,24.81 12.85,39.97 -3.41,27.35 -28.34,46.76 -55.69,43.35 -4.81,-0.59 -9.37,-1.89 -13.61,-3.72 -8.88,15.63 -23.51,27.28 -40.67,32.51 2.19,8.39 2.91,17.3 1.78,26.42 -4.8,38.51 -39.9,65.84 -78.41,61.04 -1.79,-0.22 -3.53,-0.57 -5.26,-0.93 -0.07,1.03 -0.1,2.05 -0.23,3.09 -3.4,27.35 -28.34,46.76 -55.69,43.36 -18.79,-2.34 -33.83,-14.85 -40.3,-31.31 -7.34,1.51 -15.03,1.93 -22.87,0.96 -14.06,-1.75 -26.6,-7.58 -36.66,-16.1 -0.07,0.86 -0.08,1.71 -0.19,2.57 -4.79,38.51 -39.9,65.84 -78.41,61.04 -35.27,-4.39 -61.08,-34.22 -61.5,-68.79 -14.73,18.68 -38.52,29.48 -63.86,26.33 -23.14,-2.88 -42.17,-16.74 -52.7,-35.67 -9.93,7.33 -22.55,11.05 -35.77,9.4 -27.35,-3.4 -46.76,-28.34 -43.36,-55.68 0.71,-5.65 2.37,-10.93 4.74,-15.77 -16.13,-12.87 -26.49,-32.66 -26.49,-54.9 0,-10.9 2.55,-21.17 6.98,-30.37 -3.77,-8.55 -5.9,-17.97 -5.95,-27.89 -0.85,0.03 -1.69,0.12 -2.55,0.12 -38.8,0 -70.26,-31.45 -70.26,-70.26 0,-13.19 3.7,-25.49 10.03,-36.04 -18.67,-9.08 -30.41,-29.26 -27.71,-51 3.02,-24.22 22.92,-42.18 46.43,-43.62 7.27,-19.5 22.92,-34.88 42.61,-41.76 -4.87,-9.56 -7.67,-20.34 -7.67,-31.8 0,-38.8 31.46,-70.26 70.27,-70.26 7.31,0 14.36,1.12 20.99,3.19 60.64,-51.84 142.42,-83.7 232.47,-83.7 111.52,0 210.43,48.79 272.09,124.02 2.26,0.06 4.53,0.22 6.82,0.5 22.28,2.77 40.76,15.72 51.5,33.57 7.62,-3.09 16.1,-4.35 24.84,-3.26 27.35,3.41 46.76,28.34 43.36,55.69 -1.52,12.19 -7.33,22.78 -15.7,30.5"
         style="fill:#ffffff;fill-opacity:1;fill-rule:nonzero;stroke:none"
         transform="matrix(0.13333333,0,0,-0.13333333,0,666.66667)" />
      <path
         id="path122"
         d="m 3605.26,4325.32 c 19.61,14.61 31.05,39.02 27.81,65.03 -2.1,16.87 -10.02,31.59 -21.5,42.41 3.36,9.79 4.67,20.44 3.3,31.39 -1.73,13.93 -7.47,26.35 -15.86,36.37 9.6,10.42 14.74,24.81 12.85,39.97 -3.41,27.35 -28.34,46.76 -55.69,43.35 -4.81,-0.59 -9.37,-1.89 -13.61,-3.72 -8.88,15.63 -23.51,27.28 -40.67,32.51 2.19,8.39 2.91,17.3 1.78,26.42 -4.8,38.51 -39.9,65.84 -78.41,61.04 -1.79,-0.22 -3.53,-0.57 -5.26,-0.93 -0.07,1.03 -0.1,2.05 -0.23,3.09 -3.4,27.35 -28.34,46.76 -55.69,43.36 -18.79,-2.34 -33.83,-14.85 -40.3,-31.31 -7.34,1.51 -15.03,1.93 -22.87,0.96 -14.06,-1.75 -26.6,-7.58 -36.66,-16.1 -0.07,0.86 -0.08,1.71 -0.19,2.57 -4.79,38.51 -39.9,65.84 -78.41,61.04 -35.27,-4.39 -61.08,-34.22 -61.5,-68.79 -14.73,18.68 -38.52,29.48 -63.86,26.33 -23.14,-2.88 -42.17,-16.74 -52.7,-35.67 -9.93,7.33 -22.55,11.05 -35.77,9.4 -27.35,-3.4 -46.76,-28.34 -43.36,-55.68 0.71,-5.65 2.37,-10.93 4.74,-15.77 -16.13,-12.87 -26.49,-32.66 -26.49,-54.9 0,-10.9 2.55,-21.17 6.98,-30.37 -3.77,-8.55 -5.9,-17.97 -5.95,-27.89 -0.85,0.03 -1.69,0.12 -2.55,0.12 -38.8,0 -70.26,-31.45 -70.26,-70.26 0,-13.19 3.7,-25.49 10.03,-36.04 -18.67,-9.08 -30.41,-29.26 -27.71,-51 3.02,-24.22 22.92,-42.18 46.43,-43.62 7.27,-19.5 22.92,-34.88 42.61,-41.76 -4.87,-9.56 -7.67,-20.34 -7.67,-31.8 0,-38.8 31.46,-70.26 70.27,-70.26 7.31,0 14.36,1.12 20.99,3.19 60.64,-51.84 142.42,-83.7 232.47,-83.7 111.52,0 210.43,48.79 272.09,124.02 2.26,0.06 4.53,0.22 6.82,0.5 22.28,2.77 40.76,15.72 51.5,33.57 7.62,-3.09 16.1,-4.35 24.84,-3.26 27.35,3.41 46.76,28.34 43.36,55.69 -1.52,12.19 -7.33,22.78 -15.7,30.5 z"
         style="fill:none;stroke:#341334;stroke-width:10;stroke-linecap:round;stroke-linejoin:round;stroke-miterlimit:10;stroke-dasharray:none;stroke-opacity:1"
         transform="matrix(0.13333333,0,0,-0.13333333,0,666.66667)" />
      <path
         id="path123"
         d="m 3343.49,4158.75 c 0,-63.69 -50.51,-115.33 -112.83,-115.33 -62.31,0 -112.83,51.64 -112.83,115.33 0,63.71 50.52,115.34 112.83,115.34 62.32,0 112.83,-51.63 112.83,-115.34"
         style="fill:#ffffff;fill-opacity:1;fill-rule:nonzero;stroke:none"
         transform="matrix(0.13333333,0,0,-0.13333333,0,666.66667)" />
      <path
         id="path124"
         d="m 3343.49,4158.75 c 0,-63.69 -50.51,-115.33 -112.83,-115.33 -62.31,0 -112.83,51.64 -112.83,115.33 0,63.71 50.52,115.34 112.83,115.34 62.32,0 112.83,-51.63 112.83,-115.34 z"
         style="fill:none;stroke:#341334;stroke-width:10;stroke-linecap:round;stroke-linejoin:round;stroke-miterlimit:10;stroke-dasharray:none;stroke-opacity:1"
         transform="matrix(0.13333333,0,0,-0.13333333,0,666.66667)" />
      <path
         id="path125"
         d="m 3537.66,4000.34 c -2.31,18.55 -17.55,32.3 -35.55,33.4 -5.57,14.94 -17.55,26.71 -32.63,31.98 3.73,7.32 5.87,15.58 5.87,24.35 0,19.01 -9.88,35.68 -24.77,45.25 -4.58,12.53 -17.28,20.74 -31.08,19.02 -2.82,-0.35 -5.5,-1.11 -7.99,-2.19 -5.21,9.18 -13.8,16.02 -23.87,19.09 1.28,4.92 1.71,10.15 1.04,15.51 -2.81,22.6 -23.42,38.64 -46.03,35.83 -1.04,-0.13 -2.06,-0.34 -3.08,-0.54 -0.04,0.6 -0.06,1.2 -0.14,1.8 -2,16.06 -16.63,27.46 -32.69,25.46 -11.03,-1.38 -19.86,-8.71 -23.65,-18.38 -4.31,0.89 -8.82,1.13 -13.43,0.56 -8.25,-1.03 -15.61,-4.44 -21.52,-9.44 -0.04,0.5 -0.05,1 -0.11,1.5 -2.82,22.61 -23.42,38.65 -46.03,35.84 -20.7,-2.58 -35.85,-20.09 -36.1,-40.39 -8.64,10.97 -22.61,17.31 -37.49,15.46 -13.58,-1.69 -24.75,-9.83 -30.93,-20.94 -5.83,4.3 -13.24,6.49 -21,5.52 -16.06,-2 -27.45,-16.64 -25.45,-32.69 0.41,-3.32 1.39,-6.41 2.78,-9.25 -9.47,-7.56 -15.55,-19.18 -15.55,-32.23 0,-4.15 0.68,-8.11 1.83,-11.87 -7.48,-7.08 -14.53,-14.55 -20.99,-22.44 -1.73,-0.04 -3.47,-0.16 -5.22,-0.38 -17.06,-2.12 -31.21,-12.04 -39.44,-25.71 -5.83,2.37 -12.33,3.33 -19.02,2.5 -20.94,-2.61 -35.81,-21.7 -33.2,-42.64 1.16,-9.34 5.61,-17.44 12.02,-23.36 -15.01,-11.19 -23.78,-29.88 -21.3,-49.79 1.61,-12.92 7.68,-24.2 16.47,-32.48 -2.57,-7.5 -3.58,-15.65 -2.53,-24.04 1.33,-10.66 5.72,-20.18 12.15,-27.85 -7.35,-7.98 -11.29,-19 -9.84,-30.61 2.61,-20.94 21.7,-35.8 42.64,-33.2 3.69,0.46 7.17,1.46 10.42,2.86 6.8,-11.98 18,-20.89 31.15,-24.9 -1.68,-6.42 -2.23,-13.24 -1.36,-20.23 3.67,-29.49 30.55,-50.41 60.04,-46.74 1.37,0.17 2.7,0.44 4.03,0.71 0.05,-0.79 0.07,-1.57 0.17,-2.36 2.61,-20.95 21.7,-35.81 42.65,-33.2 14.38,1.79 25.9,11.36 30.86,23.97 5.62,-1.16 11.5,-1.48 17.51,-0.73 10.77,1.34 20.37,5.79 28.07,12.32 0.06,-0.66 0.06,-1.31 0.15,-1.97 3.67,-29.49 30.55,-50.41 60.04,-46.74 27.01,3.36 46.77,26.21 47.09,52.68 11.28,-14.31 29.5,-22.58 48.9,-20.17 17.72,2.21 32.3,12.83 40.36,27.32 7.6,-5.61 17.27,-8.46 27.39,-7.2 20.95,2.61 35.81,21.7 33.2,42.64 -0.54,4.33 -1.81,8.37 -3.62,12.07 12.35,9.86 20.28,25.02 20.28,42.05 0,8.34 -1.95,16.21 -5.34,23.25 2.88,6.55 4.51,13.76 4.55,21.36 0.65,-0.02 1.29,-0.1 1.95,-0.1 29.72,0 53.81,24.09 53.81,53.81 0,10.1 -2.84,19.52 -7.68,27.59 14.29,6.96 23.29,22.41 21.21,39.06"
         style="fill:#ffffff;fill-opacity:1;fill-rule:nonzero;stroke:none"
         transform="matrix(0.13333333,0,0,-0.13333333,0,666.66667)" />
      <path
         id="path126"
         d="m 3537.66,4000.34 c -2.31,18.55 -17.55,32.3 -35.55,33.4 -5.57,14.94 -17.55,26.71 -32.63,31.98 3.73,7.32 5.87,15.58 5.87,24.35 0,19.01 -9.88,35.68 -24.77,45.25 -4.58,12.53 -17.28,20.74 -31.08,19.02 -2.82,-0.35 -5.5,-1.11 -7.99,-2.19 -5.21,9.18 -13.8,16.02 -23.87,19.09 1.28,4.92 1.71,10.15 1.04,15.51 -2.81,22.6 -23.42,38.64 -46.03,35.83 -1.04,-0.13 -2.06,-0.34 -3.08,-0.54 -0.04,0.6 -0.06,1.2 -0.14,1.8 -2,16.06 -16.63,27.46 -32.69,25.46 -11.03,-1.38 -19.86,-8.71 -23.65,-18.38 -4.31,0.89 -8.82,1.13 -13.43,0.56 -8.25,-1.03 -15.61,-4.44 -21.52,-9.44 -0.04,0.5 -0.05,1 -0.11,1.5 -2.82,22.61 -23.42,38.65 -46.03,35.84 -20.7,-2.58 -35.85,-20.09 -36.1,-40.39 -8.64,10.97 -22.61,17.31 -37.49,15.46 -13.58,-1.69 -24.75,-9.83 -30.93,-20.94 -5.83,4.3 -13.24,6.49 -21,5.52 -16.06,-2 -27.45,-16.64 -25.45,-32.69 0.41,-3.32 1.39,-6.41 2.78,-9.25 -9.47,-7.56 -15.55,-19.18 -15.55,-32.23 0,-4.15 0.68,-8.11 1.83,-11.87 -7.48,-7.08 -14.53,-14.55 -20.99,-22.44 -1.73,-0.04 -3.47,-0.16 -5.22,-0.38 -17.06,-2.12 -31.21,-12.04 -39.44,-25.71 -5.83,2.37 -12.33,3.33 -19.02,2.5 -20.94,-2.61 -35.81,-21.7 -33.2,-42.64 1.16,-9.34 5.61,-17.44 12.02,-23.36 -15.01,-11.19 -23.78,-29.88 -21.3,-49.79 1.61,-12.92 7.68,-24.2 16.47,-32.48 -2.57,-7.5 -3.58,-15.65 -2.53,-24.04 1.33,-10.66 5.72,-20.18 12.15,-27.85 -7.35,-7.98 -11.29,-19 -9.84,-30.61 2.61,-20.94 21.7,-35.8 42.64,-33.2 3.69,0.46 7.17,1.46 10.42,2.86 6.8,-11.98 18,-20.89 31.15,-24.9 -1.68,-6.42 -2.23,-13.24 -1.36,-20.23 3.67,-29.49 30.55,-50.41 60.04,-46.74 1.37,0.17 2.7,0.44 4.03,0.71 0.05,-0.79 0.07,-1.57 0.17,-2.36 2.61,-20.95 21.7,-35.81 42.65,-33.2 14.38,1.79 25.9,11.36 30.86,23.97 5.62,-1.16 11.5,-1.48 17.51,-0.73 10.77,1.34 20.37,5.79 28.07,12.32 0.06,-0.66 0.06,-1.31 0.15,-1.97 3.67,-29.49 30.55,-50.41 60.04,-46.74 27.01,3.36 46.77,26.21 47.09,52.68 11.28,-14.31 29.5,-22.58 48.9,-20.17 17.72,2.21 32.3,12.83 40.36,27.32 7.6,-5.61 17.27,-8.46 27.39,-7.2 20.95,2.61 35.81,21.7 33.2,42.64 -0.54,4.33 -1.81,8.37 -3.62,12.07 12.35,9.86 20.28,25.02 20.28,42.05 0,8.34 -1.95,16.21 -5.34,23.25 2.88,6.55 4.51,13.76 4.55,21.36 0.65,-0.02 1.29,-0.1 1.95,-0.1 29.72,0 53.81,24.09 53.81,53.81 0,10.1 -2.84,19.52 -7.68,27.59 14.29,6.96 23.29,22.41 21.21,39.06 z"
         style="fill:none;stroke:#341334;stroke-width:10;stroke-linecap:round;stroke-linejoin:round;stroke-miterlimit:10;stroke-dasharray:none;stroke-opacity:1"
         transform="matrix(0.13333333,0,0,-0.13333333,0,666.66667)" />
    </g>
  </g>
</svg>
