<?xml version="1.0" encoding="UTF-8" standalone="no"?>
<!-- Created with Inkscape (http://www.inkscape.org/) -->

<svg
   version="1.1"
   id="svg1"
   width="666.66669"
   height="666.66669"
   viewBox="0 0 666.66669 666.66669"
   sodipodi:docname="9248836.eps"
   xmlns:inkscape="http://www.inkscape.org/namespaces/inkscape"
   xmlns:sodipodi="http://sodipodi.sourceforge.net/DTD/sodipodi-0.dtd"
   xmlns="http://www.w3.org/2000/svg"
   xmlns:svg="http://www.w3.org/2000/svg">
  <defs
     id="defs1" />
  <sodipodi:namedview
     id="namedview1"
     pagecolor="#ffffff"
     bordercolor="#000000"
     borderopacity="0.25"
     inkscape:showpageshadow="2"
     inkscape:pageopacity="0.0"
     inkscape:pagecheckerboard="0"
     inkscape:deskcolor="#d1d1d1">
    <inkscape:page
       x="0"
       y="0"
       inkscape:label="1"
       id="page1"
       width="666.66669"
       height="666.66669"
       margin="0"
       bleed="0" />
  </sodipodi:namedview>
  <g
     id="g1"
     inkscape:groupmode="layer"
     inkscape:label="1">
    <g
       id="group-R5">
      <path
         id="path2"
         d="M 5000,0 H 0 V 5000 H 5000 V 0"
         style="fill:#ffffff;fill-opacity:1;fill-rule:nonzero;stroke:none"
         transform="matrix(0.13333333,0,0,-0.13333333,0,666.66667)" />
      <path
         id="path3"
         d="M 4459.8,2500 C 4459.8,1417.63 3582.37,540.199 2500,540.199 1417.63,540.199 540.199,1417.63 540.199,2500 c 0,1082.37 877.431,1959.8 1959.801,1959.8 1082.37,0 1959.8,-877.43 1959.8,-1959.8"
         style="fill:#feeaaa;fill-opacity:1;fill-rule:nonzero;stroke:none"
         transform="matrix(0.13333333,0,0,-0.13333333,0,666.66667)" />
      <path
         id="path4"
         d="m 3793.72,2329.02 -18.98,114.45 c -2.68,38.26 -5.73,151.79 -4.29,190.13 l 13.24,351.79 c 1.27,33.83 -3.85,67.48 -13.41,100.14 -13.05,44.61 -18.69,90.87 -16.7,137.07 11.95,277.73 84.42,741.8 -167.77,676.64 l -25.25,-324.83 45.02,-469.38 c -10.59,-83.51 13.7,-203.51 27.77,-262.86 4.37,-18.45 9.93,-36.4 15.77,-54.3 27.44,-84.12 38.02,-230.28 40.43,-269.24 l -24.71,-141.37 c -4.15,-23.76 -5.36,-47.89 -3.59,-71.91 l 5.82,-100.7 c 2.37,-20.91 21.32,-18.4 26.69,-9.35 4.6,7.78 6.8,17.11 6.96,26.51 l 1.91,114.69 11.59,-38.34 -4.56,-89.22 -46.86,-69.71 c -4.22,-6.29 -7.31,-13.65 -8.07,-21.55 -2.18,-22.47 12.98,-24.31 12.98,-24.31 l 21.89,20.39 74.78,82.43 25.66,80.77 c 5.29,16.65 6.56,34.64 3.68,52.06"
         style="fill:#ffffff;fill-opacity:1;fill-rule:nonzero;stroke:none"
         transform="matrix(0.13333333,0,0,-0.13333333,0,666.66667)" />
      <path
         id="path5"
         d="m 3793.72,2329.02 -18.98,114.45 c -2.68,38.26 -5.73,151.79 -4.29,190.13 l 13.24,351.79 c 1.27,33.83 -3.85,67.48 -13.41,100.14 -13.05,44.61 -18.69,90.87 -16.7,137.07 11.95,277.73 84.42,741.8 -167.77,676.64 l -25.25,-324.83 45.02,-469.38 c -10.59,-83.51 13.7,-203.51 27.77,-262.86 4.37,-18.45 9.93,-36.4 15.77,-54.3 27.44,-84.12 38.02,-230.28 40.43,-269.24 l -24.71,-141.37 c -4.15,-23.76 -5.36,-47.89 -3.59,-71.91 l 5.82,-100.7 c 2.37,-20.91 21.32,-18.4 26.69,-9.35 4.6,7.78 6.8,17.11 6.96,26.51 l 1.91,114.69 11.59,-38.34 -4.56,-89.22 -46.86,-69.71 c -4.22,-6.29 -7.31,-13.65 -8.07,-21.55 -2.18,-22.47 12.98,-24.31 12.98,-24.31 l 21.89,20.39 74.78,82.43 25.66,80.77 c 5.29,16.65 6.56,34.64 3.68,52.06 z"
         style="fill:none;stroke:#341334;stroke-width:10;stroke-linecap:round;stroke-linejoin:round;stroke-miterlimit:10;stroke-dasharray:none;stroke-opacity:1"
         transform="matrix(0.13333333,0,0,-0.13333333,0,666.66667)" />
      <path
         id="path6"
         d="m 3733.38,2276.06 v 0 c -22.13,22.3 -36.84,52.74 -41.64,86.13 l -4.79,33.34"
         style="fill:#ffffff;fill-opacity:1;fill-rule:nonzero;stroke:#341334;stroke-width:10;stroke-linecap:round;stroke-linejoin:round;stroke-miterlimit:10;stroke-dasharray:none;stroke-opacity:1"
         transform="matrix(0.13333333,0,0,-0.13333333,0,666.66667)" />
      <path
         id="path7"
         d="m 3733.38,2276.06 3.64,-73.92 c 0,0 -77.52,-48.44 -47.42,-88.38"
         style="fill:none;stroke:#341334;stroke-width:10;stroke-linecap:round;stroke-linejoin:round;stroke-miterlimit:10;stroke-dasharray:none;stroke-opacity:1"
         transform="matrix(0.13333333,0,0,-0.13333333,0,666.66667)" />
      <path
         id="path8"
         d="m 3659.59,3099.44 c 0,0 20.14,-8.94 26.77,-40.43"
         style="fill:#ffffff;fill-opacity:1;fill-rule:nonzero;stroke:#341334;stroke-width:10;stroke-linecap:round;stroke-linejoin:round;stroke-miterlimit:10;stroke-dasharray:none;stroke-opacity:1"
         transform="matrix(0.13333333,0,0,-0.13333333,0,666.66667)" />
      <path
         id="path9"
         d="m 3705.09,3069.92 c 0,0 -9.41,18.84 7,47.06"
         style="fill:#ffffff;fill-opacity:1;fill-rule:nonzero;stroke:#341334;stroke-width:10;stroke-linecap:round;stroke-linejoin:round;stroke-miterlimit:10;stroke-dasharray:none;stroke-opacity:1"
         transform="matrix(0.13333333,0,0,-0.13333333,0,666.66667)" />
      <path
         id="path10"
         d="m 3701.2,2122.06 c -5.83,-6.96 -11.86,-11.15 -15.29,-7.35 -3.43,3.81 -1.49,12.53 4.34,19.49 5.82,6.96 13.33,9.51 16.76,5.71 3.44,-3.81 0.01,-10.89 -5.81,-17.85"
         style="fill:#ffffff;fill-opacity:1;fill-rule:nonzero;stroke:none"
         transform="matrix(0.13333333,0,0,-0.13333333,0,666.66667)" />
      <path
         id="path11"
         d="m 3701.2,2122.06 c -5.83,-6.96 -11.86,-11.15 -15.29,-7.35 -3.43,3.81 -1.49,12.53 4.34,19.49 5.82,6.96 13.33,9.51 16.76,5.71 3.44,-3.81 0.01,-10.89 -5.81,-17.85 z"
         style="fill:none;stroke:#341334;stroke-width:10;stroke-linecap:round;stroke-linejoin:round;stroke-miterlimit:10;stroke-dasharray:none;stroke-opacity:1"
         transform="matrix(0.13333333,0,0,-0.13333333,0,666.66667)" />
      <path
         id="path12"
         d="m 3671.33,2094.66 c -5.45,-6.5 -11.09,-10.43 -14.3,-6.87 -3.21,3.56 -1.39,11.72 4.06,18.23 5.45,6.5 12.47,8.89 15.68,5.33 3.21,-3.55 0.01,-10.18 -5.44,-16.69"
         style="fill:#ffffff;fill-opacity:1;fill-rule:nonzero;stroke:none"
         transform="matrix(0.13333333,0,0,-0.13333333,0,666.66667)" />
      <path
         id="path13"
         d="m 3671.33,2094.66 c -5.45,-6.5 -11.09,-10.43 -14.3,-6.87 -3.21,3.56 -1.39,11.72 4.06,18.23 5.45,6.5 12.47,8.89 15.68,5.33 3.21,-3.55 0.01,-10.18 -5.44,-16.69 z"
         style="fill:none;stroke:#341334;stroke-width:10;stroke-linecap:round;stroke-linejoin:round;stroke-miterlimit:10;stroke-dasharray:none;stroke-opacity:1"
         transform="matrix(0.13333333,0,0,-0.13333333,0,666.66667)" />
      <path
         id="path14"
         d="m 2713.6,2329.02 18.98,114.45 c 2.68,38.26 5.73,151.79 4.29,190.13 l -13.24,351.79 c -1.27,33.83 3.85,67.48 13.41,100.14 13.05,44.61 18.69,90.87 16.7,137.07 -11.96,277.73 -84.43,741.8 167.76,676.64 l 25.25,-324.83 -45.01,-469.38 c 10.58,-83.51 -13.7,-203.51 -27.77,-262.86 -4.37,-18.45 -9.93,-36.4 -15.77,-54.3 -27.45,-84.12 -38.03,-230.28 -40.43,-269.24 l 24.71,-141.37 c 4.15,-23.76 5.35,-47.89 3.59,-71.91 l -5.82,-100.7 c -2.37,-20.91 -21.33,-18.4 -26.69,-9.35 -4.6,7.78 -6.8,17.11 -6.96,26.51 l -1.92,114.69 -11.59,-38.34 4.56,-89.22 46.87,-69.71 c 4.22,-6.29 7.3,-13.65 8.07,-21.55 2.17,-22.47 -12.98,-24.31 -12.98,-24.31 l -21.89,20.39 -74.79,82.43 -25.66,80.77 c -5.29,16.65 -6.56,34.64 -3.67,52.06"
         style="fill:#ffffff;fill-opacity:1;fill-rule:nonzero;stroke:none"
         transform="matrix(0.13333333,0,0,-0.13333333,0,666.66667)" />
      <path
         id="path15"
         d="m 2713.6,2329.02 18.98,114.45 c 2.68,38.26 5.73,151.79 4.29,190.13 l -13.24,351.79 c -1.27,33.83 3.85,67.48 13.41,100.14 13.05,44.61 18.69,90.87 16.7,137.07 -11.96,277.73 -84.43,741.8 167.76,676.64 l 25.25,-324.83 -45.01,-469.38 c 10.58,-83.51 -13.7,-203.51 -27.77,-262.86 -4.37,-18.45 -9.93,-36.4 -15.77,-54.3 -27.45,-84.12 -38.03,-230.28 -40.43,-269.24 l 24.71,-141.37 c 4.15,-23.76 5.35,-47.89 3.59,-71.91 l -5.82,-100.7 c -2.37,-20.91 -21.33,-18.4 -26.69,-9.35 -4.6,7.78 -6.8,17.11 -6.96,26.51 l -1.92,114.69 -11.59,-38.34 4.56,-89.22 46.87,-69.71 c 4.22,-6.29 7.3,-13.65 8.07,-21.55 2.17,-22.47 -12.98,-24.31 -12.98,-24.31 l -21.89,20.39 -74.79,82.43 -25.66,80.77 c -5.29,16.65 -6.56,34.64 -3.67,52.06 z"
         style="fill:none;stroke:#341334;stroke-width:10;stroke-linecap:round;stroke-linejoin:round;stroke-miterlimit:10;stroke-dasharray:none;stroke-opacity:1"
         transform="matrix(0.13333333,0,0,-0.13333333,0,666.66667)" />
      <path
         id="path16"
         d="m 2773.94,2276.06 v 0 c 22.13,22.3 36.84,52.74 41.64,86.13 l 4.79,33.34"
         style="fill:#ffffff;fill-opacity:1;fill-rule:nonzero;stroke:#341334;stroke-width:10;stroke-linecap:round;stroke-linejoin:round;stroke-miterlimit:10;stroke-dasharray:none;stroke-opacity:1"
         transform="matrix(0.13333333,0,0,-0.13333333,0,666.66667)" />
      <path
         id="path17"
         d="m 2773.94,2276.06 -3.65,-73.92 c 0,0 77.53,-48.44 47.43,-88.38"
         style="fill:none;stroke:#341334;stroke-width:10;stroke-linecap:round;stroke-linejoin:round;stroke-miterlimit:10;stroke-dasharray:none;stroke-opacity:1"
         transform="matrix(0.13333333,0,0,-0.13333333,0,666.66667)" />
      <path
         id="path18"
         d="m 2847.73,3099.44 c 0,0 -20.14,-8.94 -26.77,-40.43"
         style="fill:#ffffff;fill-opacity:1;fill-rule:nonzero;stroke:#341334;stroke-width:10;stroke-linecap:round;stroke-linejoin:round;stroke-miterlimit:10;stroke-dasharray:none;stroke-opacity:1"
         transform="matrix(0.13333333,0,0,-0.13333333,0,666.66667)" />
      <path
         id="path19"
         d="m 2802.22,3069.92 c 0,0 9.42,18.84 -6.99,47.06"
         style="fill:#ffffff;fill-opacity:1;fill-rule:nonzero;stroke:#341334;stroke-width:10;stroke-linecap:round;stroke-linejoin:round;stroke-miterlimit:10;stroke-dasharray:none;stroke-opacity:1"
         transform="matrix(0.13333333,0,0,-0.13333333,0,666.66667)" />
      <path
         id="path20"
         d="m 2806.12,2122.06 c 5.83,-6.96 11.86,-11.15 15.29,-7.35 3.43,3.81 1.49,12.53 -4.34,19.49 -5.83,6.96 -13.33,9.51 -16.77,5.71 -3.43,-3.81 -0.01,-10.89 5.82,-17.85"
         style="fill:#ffffff;fill-opacity:1;fill-rule:nonzero;stroke:none"
         transform="matrix(0.13333333,0,0,-0.13333333,0,666.66667)" />
      <path
         id="path21"
         d="m 2806.12,2122.06 c 5.83,-6.96 11.86,-11.15 15.29,-7.35 3.43,3.81 1.49,12.53 -4.34,19.49 -5.83,6.96 -13.33,9.51 -16.77,5.71 -3.43,-3.81 -0.01,-10.89 5.82,-17.85 z"
         style="fill:none;stroke:#341334;stroke-width:10;stroke-linecap:round;stroke-linejoin:round;stroke-miterlimit:10;stroke-dasharray:none;stroke-opacity:1"
         transform="matrix(0.13333333,0,0,-0.13333333,0,666.66667)" />
      <path
         id="path22"
         d="m 2835.99,2094.66 c 5.45,-6.5 11.08,-10.43 14.29,-6.87 3.21,3.56 1.4,11.72 -4.05,18.23 -5.45,6.5 -12.47,8.89 -15.68,5.33 -3.21,-3.55 -0.01,-10.18 5.44,-16.69"
         style="fill:#ffffff;fill-opacity:1;fill-rule:nonzero;stroke:none"
         transform="matrix(0.13333333,0,0,-0.13333333,0,666.66667)" />
      <path
         id="path23"
         d="m 2835.99,2094.66 c 5.45,-6.5 11.08,-10.43 14.29,-6.87 3.21,3.56 1.4,11.72 -4.05,18.23 -5.45,6.5 -12.47,8.89 -15.68,5.33 -3.21,-3.55 -0.01,-10.18 5.44,-16.69 z"
         style="fill:none;stroke:#341334;stroke-width:10;stroke-linecap:round;stroke-linejoin:round;stroke-miterlimit:10;stroke-dasharray:none;stroke-opacity:1"
         transform="matrix(0.13333333,0,0,-0.13333333,0,666.66667)" />
      <path
         id="path24"
         d="m 3652.1,2735.26 c -21.99,121.01 -67.94,253.26 -160.03,357.96 0,0 -29.14,36.36 -2.46,111.53 l 76.18,239.02 c 31.29,98.18 42.48,178.67 33.31,281.31 l -13.29,174.16 c 0,0 -180.03,66.76 -225.51,121.06 v 206.07 h -100.98 -9.68 -100.97 V 4020.3 C 3103.1,3966 2923.15,3899.24 2923.15,3899.24 l -8.48,-198.19 v -10.95 c 0,-69.41 9.33,-138.5 27.73,-205.43 l 76.96,-279.92 c 26.59,-75.17 -2.46,-111.53 -2.46,-111.53 -92.11,-104.69 -138.07,-236.92 -160.06,-357.91 -27.35,-150.47 -20.07,-305.19 16.62,-453.66 l 88.98,-360.09 c 7.23,-38.74 10.56,-78.03 9.93,-117.4 l -0.56,-40.33 c -0.56,-34.77 -4.6,-69.3 -10.64,-103.43 -49.77,-278.3 117.8,-942.56 117.41,-997.17 -0.4,-64.769 -16.28,-128.519 -43.58,-187.261 l -53.61,-132.867 c -2.62,-6.5 0.24,-13.911 6.6,-16.864 22.95,-10.668 62.58,-24.148 126.39,-12.039 0,0 46.75,-10.398 72.47,6.742 17.46,11.071 7.65,138.02 6.11,229.809 -0.95,14.68 0.48,29.531 3.97,43.898 11.75,49.211 -2.7,91.762 -2.7,91.762 -19.52,60.731 -32.54,206.07 -32.54,206.07 -17.31,305.85 38.97,572.25 10.87,687.67 l -3.41,43.42 c -0.48,5.87 -0.72,11.83 -0.72,17.7 0,19.92 2.7,39.77 8.02,58.98 11.59,41.83 16.67,85.09 15.32,128.44 -8.02,255.84 4.05,377.22 30.64,670.93 h 27.23 9.68 27.15 c 26.67,-293.71 38.74,-415.09 30.72,-670.93 -0.16,-4.69 -0.24,-9.45 -0.24,-14.13 0,-38.58 5.24,-77 15.56,-114.31 6.83,-24.93 9.37,-50.88 7.31,-76.68 l -3.42,-43.42 c -28.18,-115.42 28.18,-381.82 10.88,-687.67 0,0 -13.02,-145.339 -32.55,-206.07 0,0 -14.45,-42.551 -2.7,-91.762 3.42,-14.367 4.92,-29.218 3.97,-43.898 -6.11,-97.559 -7.54,-185.668 10.48,-234.648 0,0 10.35,-27.153 77.37,-3.832 0,0 90.18,-27.348 128.14,9.152 4.77,5.32 6.99,14.449 -0.23,30.008 l -57.87,124.539 c -27.23,58.742 -43.11,122.492 -43.58,187.261 -0.4,54.61 167.25,718.87 117.48,997.17 -6.11,34.13 -10.08,68.66 -10.64,103.43 l -0.63,40.33 c -0.56,39.37 2.78,78.66 10,117.4 l 88.96,360.01 c 36.7,148.48 43.96,303.21 16.62,453.69"
         style="fill:#ffffff;fill-opacity:1;fill-rule:nonzero;stroke:none"
         transform="matrix(0.13333333,0,0,-0.13333333,0,666.66667)" />
      <path
         id="path25"
         d="m 3652.1,2735.26 c -21.99,121.01 -67.94,253.26 -160.03,357.96 0,0 -29.14,36.36 -2.46,111.53 l 76.18,239.02 c 31.29,98.18 42.48,178.67 33.31,281.31 l -13.29,174.16 c 0,0 -180.03,66.76 -225.51,121.06 v 206.07 h -100.98 -9.68 -100.97 V 4020.3 C 3103.1,3966 2923.15,3899.24 2923.15,3899.24 l -8.48,-198.19 v -10.95 c 0,-69.41 9.33,-138.5 27.73,-205.43 l 76.96,-279.92 c 26.59,-75.17 -2.46,-111.53 -2.46,-111.53 -92.11,-104.69 -138.07,-236.92 -160.06,-357.91 -27.35,-150.47 -20.07,-305.19 16.62,-453.66 l 88.98,-360.09 c 7.23,-38.74 10.56,-78.03 9.93,-117.4 l -0.56,-40.33 c -0.56,-34.77 -4.6,-69.3 -10.64,-103.43 -49.77,-278.3 117.8,-942.56 117.41,-997.17 -0.4,-64.769 -16.28,-128.519 -43.58,-187.261 l -53.61,-132.867 c -2.62,-6.5 0.24,-13.911 6.6,-16.864 22.95,-10.668 62.58,-24.148 126.39,-12.039 0,0 46.75,-10.398 72.47,6.742 17.46,11.071 7.65,138.02 6.11,229.809 -0.95,14.68 0.48,29.531 3.97,43.898 11.75,49.211 -2.7,91.762 -2.7,91.762 -19.52,60.731 -32.54,206.07 -32.54,206.07 -17.31,305.85 38.97,572.25 10.87,687.67 l -3.41,43.42 c -0.48,5.87 -0.72,11.83 -0.72,17.7 0,19.92 2.7,39.77 8.02,58.98 11.59,41.83 16.67,85.09 15.32,128.44 -8.02,255.84 4.05,377.22 30.64,670.93 h 27.23 9.68 27.15 c 26.67,-293.71 38.74,-415.09 30.72,-670.93 -0.16,-4.69 -0.24,-9.45 -0.24,-14.13 0,-38.58 5.24,-77 15.56,-114.31 6.83,-24.93 9.37,-50.88 7.31,-76.68 l -3.42,-43.42 c -28.18,-115.42 28.18,-381.82 10.88,-687.67 0,0 -13.02,-145.339 -32.55,-206.07 0,0 -14.45,-42.551 -2.7,-91.762 3.42,-14.367 4.92,-29.218 3.97,-43.898 -6.11,-97.559 -7.54,-185.668 10.48,-234.648 0,0 10.35,-27.153 77.37,-3.832 0,0 90.18,-27.348 128.14,9.152 4.77,5.32 6.99,14.449 -0.23,30.008 l -57.87,124.539 c -27.23,58.742 -43.11,122.492 -43.58,187.261 -0.4,54.61 167.25,718.87 117.48,997.17 -6.11,34.13 -10.08,68.66 -10.64,103.43 l -0.63,40.33 c -0.56,39.37 2.78,78.66 10,117.4 l 88.96,360.01 c 36.7,148.48 43.96,303.21 16.62,453.69 z"
         style="fill:none;stroke:#341334;stroke-width:10;stroke-linecap:round;stroke-linejoin:round;stroke-miterlimit:10;stroke-dasharray:none;stroke-opacity:1"
         transform="matrix(0.13333333,0,0,-0.13333333,0,666.66667)" />
      <path
         id="path26"
         d="m 2996.89,3286.59 c 176.06,16.27 349.59,18.18 520.57,5.48"
         style="fill:none;stroke:#341334;stroke-width:10;stroke-linecap:round;stroke-linejoin:round;stroke-miterlimit:10;stroke-dasharray:none;stroke-opacity:1"
         transform="matrix(0.13333333,0,0,-0.13333333,0,666.66667)" />
      <path
         id="path27"
         d="m 3536.11,2485.46 c 0,0 -221.01,-83.46 -284.37,71.09 -63.37,-154.55 -284.37,-71.09 -284.37,-71.09"
         style="fill:none;stroke:#341334;stroke-width:10;stroke-linecap:round;stroke-linejoin:round;stroke-miterlimit:10;stroke-dasharray:none;stroke-opacity:1"
         transform="matrix(0.13333333,0,0,-0.13333333,0,666.66667)" />
      <path
         id="path28"
         d="m 3086.23,408.43 c 0,0 -7.78,-27.2 2.91,-67.02"
         style="fill:#ffffff;fill-opacity:1;fill-rule:nonzero;stroke:#341334;stroke-width:10;stroke-linecap:round;stroke-linejoin:round;stroke-miterlimit:10;stroke-dasharray:none;stroke-opacity:1"
         transform="matrix(0.13333333,0,0,-0.13333333,0,666.66667)" />
      <path
         id="path29"
         d="m 3068.74,508.48 c -16.51,-94.218 98.11,-111.71 126.28,-44.679"
         style="fill:#ffffff;fill-opacity:1;fill-rule:nonzero;stroke:#341334;stroke-width:10;stroke-linecap:round;stroke-linejoin:round;stroke-miterlimit:10;stroke-dasharray:none;stroke-opacity:1"
         transform="matrix(0.13333333,0,0,-0.13333333,0,666.66667)" />
      <path
         id="path30"
         d="m 3110.51,704.691 c 0,0 12.63,-62.171 -0.97,-114.621"
         style="fill:#ffffff;fill-opacity:1;fill-rule:nonzero;stroke:#341334;stroke-width:10;stroke-linecap:round;stroke-linejoin:round;stroke-miterlimit:10;stroke-dasharray:none;stroke-opacity:1"
         transform="matrix(0.13333333,0,0,-0.13333333,0,666.66667)" />
      <path
         id="path31"
         d="m 3153.25,733.832 c 0,0 1.94,-73.82 13.6,-111.703"
         style="fill:#ffffff;fill-opacity:1;fill-rule:nonzero;stroke:#341334;stroke-width:10;stroke-linecap:round;stroke-linejoin:round;stroke-miterlimit:10;stroke-dasharray:none;stroke-opacity:1"
         transform="matrix(0.13333333,0,0,-0.13333333,0,666.66667)" />
      <path
         id="path32"
         d="m 3425.55,408.43 c 0,0 7.77,-27.2 -2.92,-67.02"
         style="fill:#ffffff;fill-opacity:1;fill-rule:nonzero;stroke:#341334;stroke-width:10;stroke-linecap:round;stroke-linejoin:round;stroke-miterlimit:10;stroke-dasharray:none;stroke-opacity:1"
         transform="matrix(0.13333333,0,0,-0.13333333,0,666.66667)" />
      <path
         id="path33"
         d="m 3443.03,508.48 c 16.51,-94.218 -98.1,-111.71 -126.27,-44.679"
         style="fill:#ffffff;fill-opacity:1;fill-rule:nonzero;stroke:#341334;stroke-width:10;stroke-linecap:round;stroke-linejoin:round;stroke-miterlimit:10;stroke-dasharray:none;stroke-opacity:1"
         transform="matrix(0.13333333,0,0,-0.13333333,0,666.66667)" />
      <path
         id="path34"
         d="m 3401.27,704.691 c 0,0 -12.63,-62.171 0.97,-114.621"
         style="fill:#ffffff;fill-opacity:1;fill-rule:nonzero;stroke:#341334;stroke-width:10;stroke-linecap:round;stroke-linejoin:round;stroke-miterlimit:10;stroke-dasharray:none;stroke-opacity:1"
         transform="matrix(0.13333333,0,0,-0.13333333,0,666.66667)" />
      <path
         id="path35"
         d="m 3358.53,733.832 c 0,0 -1.95,-73.82 -13.6,-111.703"
         style="fill:#ffffff;fill-opacity:1;fill-rule:nonzero;stroke:#341334;stroke-width:10;stroke-linecap:round;stroke-linejoin:round;stroke-miterlimit:10;stroke-dasharray:none;stroke-opacity:1"
         transform="matrix(0.13333333,0,0,-0.13333333,0,666.66667)" />
      <path
         id="path36"
         d="m 3469.64,1770.15 c 0,0 0,-32.57 11.64,-70.96"
         style="fill:#ffffff;fill-opacity:1;fill-rule:nonzero;stroke:#341334;stroke-width:10;stroke-linecap:round;stroke-linejoin:round;stroke-miterlimit:10;stroke-dasharray:none;stroke-opacity:1"
         transform="matrix(0.13333333,0,0,-0.13333333,0,666.66667)" />
      <path
         id="path37"
         d="m 3390.55,1750.37 c 0,0 -1.16,-25.59 -5.82,-73.28"
         style="fill:#ffffff;fill-opacity:1;fill-rule:nonzero;stroke:#341334;stroke-width:10;stroke-linecap:round;stroke-linejoin:round;stroke-miterlimit:10;stroke-dasharray:none;stroke-opacity:1"
         transform="matrix(0.13333333,0,0,-0.13333333,0,666.66667)" />
      <path
         id="path38"
         d="m 3039.27,1767.82 c 0,0 4.71,-0.28 -2.97,-71.95"
         style="fill:#ffffff;fill-opacity:1;fill-rule:nonzero;stroke:#341334;stroke-width:10;stroke-linecap:round;stroke-linejoin:round;stroke-miterlimit:10;stroke-dasharray:none;stroke-opacity:1"
         transform="matrix(0.13333333,0,0,-0.13333333,0,666.66667)" />
      <path
         id="path39"
         d="m 3123.02,1744.56 c 0,0 -1.16,-37.22 1.16,-67.47"
         style="fill:#ffffff;fill-opacity:1;fill-rule:nonzero;stroke:#341334;stroke-width:10;stroke-linecap:round;stroke-linejoin:round;stroke-miterlimit:10;stroke-dasharray:none;stroke-opacity:1"
         transform="matrix(0.13333333,0,0,-0.13333333,0,666.66667)" />
      <path
         id="path40"
         d="m 3286.49,2499.62 c 56.2,269.57 268.78,337.76 336.73,352.84"
         style="fill:#ffffff;fill-opacity:1;fill-rule:nonzero;stroke:#341334;stroke-width:10;stroke-linecap:round;stroke-linejoin:round;stroke-miterlimit:10;stroke-dasharray:none;stroke-opacity:1"
         transform="matrix(0.13333333,0,0,-0.13333333,0,666.66667)" />
      <path
         id="path41"
         d="m 2885.62,2852.46 c 67.95,-15.08 280.53,-83.27 336.73,-352.84"
         style="fill:#ffffff;fill-opacity:1;fill-rule:nonzero;stroke:#341334;stroke-width:10;stroke-linecap:round;stroke-linejoin:round;stroke-miterlimit:10;stroke-dasharray:none;stroke-opacity:1"
         transform="matrix(0.13333333,0,0,-0.13333333,0,666.66667)" />
      <path
         id="path42"
         d="m 2908.33,2914.85 c 229.4,-88.98 460.64,-85.97 693.46,-2.85"
         style="fill:#ffffff;fill-opacity:1;fill-rule:nonzero;stroke:#341334;stroke-width:10;stroke-linecap:round;stroke-linejoin:round;stroke-miterlimit:10;stroke-dasharray:none;stroke-opacity:1"
         transform="matrix(0.13333333,0,0,-0.13333333,0,666.66667)" />
      <path
         id="path43"
         d="M 3250.97,3792.31 V 3163.04"
         style="fill:#ffffff;fill-opacity:1;fill-rule:nonzero;stroke:#341334;stroke-width:10;stroke-linecap:round;stroke-linejoin:round;stroke-miterlimit:10;stroke-dasharray:none;stroke-opacity:1"
         transform="matrix(0.13333333,0,0,-0.13333333,0,666.66667)" />
      <path
         id="path44"
         d="m 3594.67,4019.84 c -4.39,29.32 -16.6,56.01 -33.49,77.24 -36.5,45.85 -60.55,100.76 -73.82,157.61 -13.4,57.39 -10.63,112.77 -11.24,170.99 -2.16,208.03 -125.95,248.99 -211.31,252.45 -58.44,2.37 -116.46,-17.28 -157.97,-58.5 -43.91,-43.59 -58.73,-102.84 -61.85,-162.89 -1.54,-29.8 -0.69,-59.65 -0.56,-89.47 0.15,-33.54 -8.08,-68.07 -16.3,-100.64 -15.16,-60.09 -36.33,-120.58 -75.31,-169.55 -16.9,-21.23 -29.11,-47.92 -33.49,-77.24 -6.53,-43.66 0.95,-104 62.6,-162.78 l 2.23,66.39 c 0,0 125.82,-198.92 199.46,-215.51 -21.59,67.74 -27.39,66.3 19.23,190.61 0,0 -15.95,-77.44 -4.81,-132.96 13.34,-66.52 74.4,-103.17 74.95,-105.22 1.27,-4.74 -27.46,60.26 -11.53,131.17 11.96,53.25 49.68,107.01 49.68,107.01 18.95,-60.63 15.78,-122.61 -15.09,-186.29 73.64,16.6 233.79,211.19 233.79,211.19 l 2.23,-66.39 c 61.65,58.78 69.13,119.12 62.6,162.78"
         style="fill:#ffffff;fill-opacity:1;fill-rule:nonzero;stroke:none"
         transform="matrix(0.13333333,0,0,-0.13333333,0,666.66667)" />
      <path
         id="path45"
         d="m 3594.67,4019.84 c -4.39,29.32 -16.6,56.01 -33.49,77.24 -36.5,45.85 -60.55,100.76 -73.82,157.61 -13.4,57.39 -10.63,112.77 -11.24,170.99 -2.16,208.03 -125.95,248.99 -211.31,252.45 -58.44,2.37 -116.46,-17.28 -157.97,-58.5 -43.91,-43.59 -58.73,-102.84 -61.85,-162.89 -1.54,-29.8 -0.69,-59.65 -0.56,-89.47 0.15,-33.54 -8.08,-68.07 -16.3,-100.64 -15.16,-60.09 -36.33,-120.58 -75.31,-169.55 -16.9,-21.23 -29.11,-47.92 -33.49,-77.24 -6.53,-43.66 0.95,-104 62.6,-162.78 l 2.23,66.39 c 0,0 125.82,-198.92 199.46,-215.51 -21.59,67.74 -27.39,66.3 19.23,190.61 0,0 -15.95,-77.44 -4.81,-132.96 13.34,-66.52 74.4,-103.17 74.95,-105.22 1.27,-4.74 -27.46,60.26 -11.53,131.17 11.96,53.25 49.68,107.01 49.68,107.01 18.95,-60.63 15.78,-122.61 -15.09,-186.29 73.64,16.6 233.79,211.19 233.79,211.19 l 2.23,-66.39 c 61.65,58.78 69.13,119.12 62.6,162.78 z"
         style="fill:none;stroke:#341334;stroke-width:10;stroke-linecap:round;stroke-linejoin:round;stroke-miterlimit:10;stroke-dasharray:none;stroke-opacity:1"
         transform="matrix(0.13333333,0,0,-0.13333333,0,666.66667)" />
      <path
         id="path46"
         d="m 3183.62,3707.94 c 0,0 -127.72,106.04 -66.5,287.34 7.4,21.92 14.22,43.98 19.2,66.57 18,81.61 51.02,263.46 21.45,390.77"
         style="fill:none;stroke:#341334;stroke-width:10;stroke-linecap:round;stroke-linejoin:round;stroke-miterlimit:10;stroke-dasharray:none;stroke-opacity:1"
         transform="matrix(0.13333333,0,0,-0.13333333,0,666.66667)" />
      <path
         id="path47"
         d="m 2984.16,3923.45 c 0,0 -25.6,111.14 46.24,189.52 0,0 53.35,63.14 60.97,183.98"
         style="fill:none;stroke:#341334;stroke-width:10;stroke-linecap:round;stroke-linejoin:round;stroke-miterlimit:10;stroke-dasharray:none;stroke-opacity:1"
         transform="matrix(0.13333333,0,0,-0.13333333,0,666.66667)" />
      <path
         id="path48"
         d="m 3296.05,3712.26 c 0,0 99.48,74.4 134.98,209.17 20.52,77.89 12.36,160.35 -18.33,234.82 -16.75,40.63 -38.43,108.58 -35.03,182.06"
         style="fill:none;stroke:#341334;stroke-width:10;stroke-linecap:round;stroke-linejoin:round;stroke-miterlimit:10;stroke-dasharray:none;stroke-opacity:1"
         transform="matrix(0.13333333,0,0,-0.13333333,0,666.66667)" />
      <path
         id="path49"
         d="m 3311.14,3898.55 c 0,0 34.97,59.87 13.98,157.8 -3.07,14.32 -7.44,28.28 -12.43,42.06 -8.04,22.22 -25.37,76.88 -25.37,135.4"
         style="fill:none;stroke:#341334;stroke-width:10;stroke-linecap:round;stroke-linejoin:round;stroke-miterlimit:10;stroke-dasharray:none;stroke-opacity:1"
         transform="matrix(0.13333333,0,0,-0.13333333,0,666.66667)" />
      <path
         id="path50"
         d="m 3529.84,3923.45 c 0,0 34.19,67.09 -19.78,152.5 -4.32,6.83 -9.13,13.26 -14.05,19.67 -11.31,14.7 -45.95,65.96 -54.11,151.25"
         style="fill:none;stroke:#341334;stroke-width:10;stroke-linecap:round;stroke-linejoin:round;stroke-miterlimit:10;stroke-dasharray:none;stroke-opacity:1"
         transform="matrix(0.13333333,0,0,-0.13333333,0,666.66667)" />
      <path
         id="path51"
         d="m 1575.76,4472.4 c 0,0 25.22,-216.22 -91.59,-362.99 -16.9,-21.23 -29.11,-47.92 -33.5,-77.24 -6.53,-43.66 0.96,-104 62.6,-162.78 l 2.23,66.39 c 0,0 64.72,-141.07 138.36,-157.67 l 80.34,132.77 c 0,0 40.17,-160.43 42.4,-152.13 2.23,8.3 0,829.83 0,829.83 L 1575.76,4472.4"
         style="fill:#ffffff;fill-opacity:1;fill-rule:nonzero;stroke:#341334;stroke-width:10;stroke-linecap:round;stroke-linejoin:round;stroke-miterlimit:10;stroke-dasharray:none;stroke-opacity:1"
         transform="matrix(0.13333333,0,0,-0.13333333,0,666.66667)" />
      <path
         id="path52"
         d="m 1515.5,3935.78 c 0,0 -29.97,89.61 26.06,171.69 25,36.62 42.34,80.47 46.64,128.14 4.11,45.53 3.54,106.94 -10.21,184.24"
         style="fill:none;stroke:#341334;stroke-width:10;stroke-linecap:round;stroke-linejoin:round;stroke-miterlimit:10;stroke-dasharray:none;stroke-opacity:1"
         transform="matrix(0.13333333,0,0,-0.13333333,0,666.66667)" />
      <path
         id="path53"
         d="m 1653.86,3778.11 c 0,0 -102.65,85.75 -29.01,282.14 0,0 74.59,169.18 -10.68,440.04"
         style="fill:none;stroke:#341334;stroke-width:10;stroke-linecap:round;stroke-linejoin:round;stroke-miterlimit:10;stroke-dasharray:none;stroke-opacity:1"
         transform="matrix(0.13333333,0,0,-0.13333333,0,666.66667)" />
      <path
         id="path54"
         d="m 2000.93,4472.4 c 0,0 -25.22,-216.22 91.59,-362.99 16.9,-21.23 29.11,-47.92 33.49,-77.24 6.53,-43.66 -0.95,-104 -62.6,-162.78 l -2.23,66.39 c 0,0 -64.71,-141.07 -138.35,-157.67 l -80.34,132.77 c 0,0 -40.17,-160.43 -42.4,-152.13 -2.23,8.3 0,829.83 0,829.83 l 200.84,-116.18"
         style="fill:#ffffff;fill-opacity:1;fill-rule:nonzero;stroke:none"
         transform="matrix(0.13333333,0,0,-0.13333333,0,666.66667)" />
      <path
         id="path55"
         d="m 2000.93,4472.4 c 0,0 -25.22,-216.22 91.59,-362.99 16.9,-21.23 29.11,-47.92 33.49,-77.24 6.53,-43.66 -0.95,-104 -62.6,-162.78 l -2.23,66.39 c 0,0 -64.71,-141.07 -138.35,-157.67 l -80.34,132.77 c 0,0 -40.17,-160.43 -42.4,-152.13 -2.23,8.3 0,829.83 0,829.83 z"
         style="fill:none;stroke:#341334;stroke-width:10;stroke-linecap:round;stroke-linejoin:round;stroke-miterlimit:10;stroke-dasharray:none;stroke-opacity:1"
         transform="matrix(0.13333333,0,0,-0.13333333,0,666.66667)" />
      <path
         id="path56"
         d="m 2061.18,3935.78 c 0,0 29.98,89.61 -26.05,171.69 -25,36.62 -42.35,80.47 -46.65,128.14 -4.1,45.53 -3.54,106.94 10.22,184.24"
         style="fill:none;stroke:#341334;stroke-width:10;stroke-linecap:round;stroke-linejoin:round;stroke-miterlimit:10;stroke-dasharray:none;stroke-opacity:1"
         transform="matrix(0.13333333,0,0,-0.13333333,0,666.66667)" />
      <path
         id="path57"
         d="m 1922.83,3778.11 c 0,0 102.65,85.75 29.01,282.14 0,0 -74.59,169.18 10.68,440.04"
         style="fill:none;stroke:#341334;stroke-width:10;stroke-linecap:round;stroke-linejoin:round;stroke-miterlimit:10;stroke-dasharray:none;stroke-opacity:1"
         transform="matrix(0.13333333,0,0,-0.13333333,0,666.66667)" />
      <path
         id="path58"
         d="m 2125.44,3913.78 c 0,0 -179.97,66.83 -225.53,121.06 v 206.07 h -100.94 -9.69 -100.94 v -206.07 c -45.56,-54.23 -225.53,-121.06 -225.53,-121.06 l -27.44,-306.72 123.61,-387.78 c 26.66,-75.13 -2.43,-111.49 -2.43,-111.49 -92.1,-104.7 -138.05,-236.93 -160.04,-357.92 -27.34,-150.46 -20.06,-305.17 16.61,-453.62 l 88.98,-360.14 c 7.2,-38.71 10.53,-78.03 9.94,-117.4 l -0.6,-40.32 c -0.49,-32.7 -3.3,-65.34 -9.53,-97.44 -53.3,-274.56 116.74,-948.149 116.36,-1003.149 -0.46,-64.77 -16.3,-128.512 -43.59,-187.25 l -57.84,-124.539 c -16.56,-35.75 16.57,-37.492 16.57,-37.492 6.97,-21.801 27.9,-12.211 27.9,-12.211 6.97,-15.688 30.51,-9.59 30.51,-9.59 13.08,-20.047 47.14,-6.028 47.14,-6.028 100.19,-51.199 104.44,90.758 93.73,262.86 -0.92,14.73 -0.13,29.629 3.45,43.949 12.52,49.949 -2.25,93.492 -2.25,93.492 -19.52,60.738 -32.54,206.078 -32.54,206.078 -17.35,305.86 38.99,572.22 10.85,687.65 l -3.43,43.45 c -2.04,25.79 0.45,51.73 7.34,76.66 v 0 c 11.57,41.81 16.68,85.08 15.33,128.44 -8.02,255.86 4.04,377.22 30.65,670.94 h 27.19 9.69 27.19 c 26.61,-293.72 38.67,-415.08 30.66,-670.94 -1.36,-43.36 3.75,-86.63 15.32,-128.44 v 0 c 6.89,-24.93 9.38,-50.87 7.34,-76.66 l -3.43,-43.45 c -28.14,-115.43 28.2,-381.79 10.85,-687.65 0,0 -13.02,-145.34 -32.54,-206.078 0,0 -14.77,-43.543 -2.25,-93.492 3.58,-14.309 4.37,-29.219 3.45,-43.941 -10.71,-172.11 -6.46,-314.067 93.73,-262.868 0,0 34.06,-14.019 47.14,6.028 0,0 23.54,-6.098 30.51,9.59 0,0 20.93,-9.59 27.9,12.211 0,0 33.14,1.742 16.57,37.492 l -57.84,124.539 c -27.29,58.738 -43.13,122.48 -43.59,187.25 -0.38,55 169.66,728.589 116.36,1003.149 -6.23,32.1 -9.04,64.74 -9.53,97.44 l -0.6,40.33 c -0.59,39.36 2.74,78.69 9.94,117.39 l 88.98,360.14 c 36.68,148.45 43.95,303.16 16.61,453.62 -21.99,120.99 -67.94,253.22 -160.04,357.92 0,0 -29.09,36.36 -2.43,111.49 l 123.61,387.78"
         style="fill:#ffffff;fill-opacity:1;fill-rule:nonzero;stroke:#341334;stroke-width:10;stroke-linecap:round;stroke-linejoin:round;stroke-miterlimit:10;stroke-dasharray:none;stroke-opacity:1"
         transform="matrix(0.13333333,0,0,-0.13333333,0,666.66667)" />
      <path
         id="path59"
         d="m 1531.62,3305.29 c 178.2,16.67 353.79,18.65 526.76,5.55"
         style="fill:none;stroke:#341334;stroke-width:10;stroke-linecap:round;stroke-linejoin:round;stroke-miterlimit:10;stroke-dasharray:none;stroke-opacity:1"
         transform="matrix(0.13333333,0,0,-0.13333333,0,666.66667)" />
      <path
         id="path60"
         d="m 1533.41,328.52 c 0,0 1.74,13.07 10.46,28.769"
         style="fill:none;stroke:#341334;stroke-width:10;stroke-linecap:round;stroke-linejoin:round;stroke-miterlimit:10;stroke-dasharray:none;stroke-opacity:1"
         transform="matrix(0.13333333,0,0,-0.13333333,0,666.66667)" />
      <path
         id="path61"
         d="m 1561.31,316.309 c 0,0 2.61,13.953 20.92,39.23"
         style="fill:none;stroke:#341334;stroke-width:10;stroke-linecap:round;stroke-linejoin:round;stroke-miterlimit:10;stroke-dasharray:none;stroke-opacity:1"
         transform="matrix(0.13333333,0,0,-0.13333333,0,666.66667)" />
      <path
         id="path62"
         d="m 1591.82,306.719 c 0,0 8.72,30.511 25.29,47.953"
         style="fill:none;stroke:#341334;stroke-width:10;stroke-linecap:round;stroke-linejoin:round;stroke-miterlimit:10;stroke-dasharray:none;stroke-opacity:1"
         transform="matrix(0.13333333,0,0,-0.13333333,0,666.66667)" />
      <path
         id="path63"
         d="m 1638.96,300.691 c 0,0 -14.01,17.36 12.15,55.731"
         style="fill:none;stroke:#341334;stroke-width:10;stroke-linecap:round;stroke-linejoin:round;stroke-miterlimit:10;stroke-dasharray:none;stroke-opacity:1"
         transform="matrix(0.13333333,0,0,-0.13333333,0,666.66667)" />
      <path
         id="path64"
         d="m 1658.07,316.031 c 5.39,-0.269 13.95,-1 19.98,-3.051 2.53,-0.851 5.27,0.352 6.11,2.879 2.67,8.153 5.81,24.071 -8.76,27.871 0,0 -18.01,1.5 -21.8,-22.109 -0.46,-2.82 1.61,-5.449 4.47,-5.59"
         style="fill:#ffffff;fill-opacity:1;fill-rule:nonzero;stroke:none"
         transform="matrix(0.13333333,0,0,-0.13333333,0,666.66667)" />
      <path
         id="path65"
         d="m 1658.07,316.031 c 5.39,-0.269 13.95,-1 19.98,-3.051 2.53,-0.851 5.27,0.352 6.11,2.879 2.67,8.153 5.81,24.071 -8.76,27.871 0,0 -18.01,1.5 -21.8,-22.109 -0.46,-2.82 1.61,-5.449 4.47,-5.59 z"
         style="fill:none;stroke:#341334;stroke-width:10;stroke-linecap:round;stroke-linejoin:round;stroke-miterlimit:10;stroke-dasharray:none;stroke-opacity:1"
         transform="matrix(0.13333333,0,0,-0.13333333,0,666.66667)" />
      <path
         id="path66"
         d="m 1608.94,313.832 c 3.15,-0.16 8.18,-0.59 11.71,-1.793 1.48,-0.5 3.09,0.203 3.58,1.691 1.57,4.782 3.41,14.11 -5.13,16.329 0,0 -10.56,0.882 -12.78,-12.957 -0.27,-1.653 0.95,-3.192 2.62,-3.27"
         style="fill:#ffffff;fill-opacity:1;fill-rule:nonzero;stroke:none"
         transform="matrix(0.13333333,0,0,-0.13333333,0,666.66667)" />
      <path
         id="path67"
         d="m 1608.94,313.832 c 3.15,-0.16 8.18,-0.59 11.71,-1.793 1.48,-0.5 3.09,0.203 3.58,1.691 1.57,4.782 3.41,14.11 -5.13,16.329 0,0 -10.56,0.882 -12.78,-12.957 -0.27,-1.653 0.95,-3.192 2.62,-3.27 z"
         style="fill:none;stroke:#341334;stroke-width:5;stroke-linecap:round;stroke-linejoin:round;stroke-miterlimit:10;stroke-dasharray:none;stroke-opacity:1"
         transform="matrix(0.13333333,0,0,-0.13333333,0,666.66667)" />
      <path
         id="path68"
         d="m 1573.87,319.18 c 2.56,-0.129 6.63,-0.481 9.49,-1.45 1.2,-0.398 2.5,0.168 2.9,1.372 1.27,3.867 2.76,11.429 -4.16,13.23 0,0 -8.55,0.707 -10.35,-10.5 -0.21,-1.34 0.77,-2.582 2.12,-2.652"
         style="fill:#ffffff;fill-opacity:1;fill-rule:nonzero;stroke:none"
         transform="matrix(0.13333333,0,0,-0.13333333,0,666.66667)" />
      <path
         id="path69"
         d="m 1573.87,319.18 c 2.56,-0.129 6.63,-0.481 9.49,-1.45 1.2,-0.398 2.5,0.168 2.9,1.372 1.27,3.867 2.76,11.429 -4.16,13.23 0,0 -8.55,0.707 -10.35,-10.5 -0.21,-1.34 0.77,-2.582 2.12,-2.652 z"
         style="fill:none;stroke:#341334;stroke-width:5;stroke-linecap:round;stroke-linejoin:round;stroke-miterlimit:10;stroke-dasharray:none;stroke-opacity:1"
         transform="matrix(0.13333333,0,0,-0.13333333,0,666.66667)" />
      <path
         id="path70"
         d="m 1544.56,329.23 c 2.56,-0.128 6.63,-0.48 9.49,-1.441 1.2,-0.41 2.5,0.16 2.89,1.359 1.28,3.872 2.77,11.422 -4.15,13.231 0,0 -8.55,0.711 -10.35,-10.5 -0.21,-1.34 0.77,-2.578 2.12,-2.649"
         style="fill:#ffffff;fill-opacity:1;fill-rule:nonzero;stroke:none"
         transform="matrix(0.13333333,0,0,-0.13333333,0,666.66667)" />
      <path
         id="path71"
         d="m 1544.56,329.23 c 2.56,-0.128 6.63,-0.48 9.49,-1.441 1.2,-0.41 2.5,0.16 2.89,1.359 1.28,3.872 2.77,11.422 -4.15,13.231 0,0 -8.55,0.711 -10.35,-10.5 -0.21,-1.34 0.77,-2.578 2.12,-2.649 z"
         style="fill:none;stroke:#341334;stroke-width:5;stroke-linecap:round;stroke-linejoin:round;stroke-miterlimit:10;stroke-dasharray:none;stroke-opacity:1"
         transform="matrix(0.13333333,0,0,-0.13333333,0,666.66667)" />
      <path
         id="path72"
         d="m 1521.69,346.402 c 1.83,-0.093 4.75,-0.343 6.8,-1.043 0.86,-0.289 1.79,0.121 2.07,0.981 0.91,2.769 1.98,8.191 -2.97,9.48 0,0 -6.13,0.512 -7.42,-7.519 -0.15,-0.961 0.55,-1.852 1.52,-1.899"
         style="fill:#ffffff;fill-opacity:1;fill-rule:nonzero;stroke:none"
         transform="matrix(0.13333333,0,0,-0.13333333,0,666.66667)" />
      <path
         id="path73"
         d="m 1521.69,346.402 c 1.83,-0.093 4.75,-0.343 6.8,-1.043 0.86,-0.289 1.79,0.121 2.07,0.981 0.91,2.769 1.98,8.191 -2.97,9.48 0,0 -6.13,0.512 -7.42,-7.519 -0.15,-0.961 0.55,-1.852 1.52,-1.899 z"
         style="fill:none;stroke:#341334;stroke-width:5;stroke-linecap:round;stroke-linejoin:round;stroke-miterlimit:10;stroke-dasharray:none;stroke-opacity:1"
         transform="matrix(0.13333333,0,0,-0.13333333,0,666.66667)" />
      <path
         id="path74"
         d="m 1472.68,3602.36 -47.3,-463.7 c 8.83,-87.25 -21.18,-211.49 -36.5,-267.4 -2.77,-10.11 -33.91,-147.37 -55.02,-240.66 -12.59,-55.63 -10.34,-114.97 6.37,-168.78 v 0 c 6.22,-20.01 8.56,-40.74 6.91,-61.22 l -11.58,-144 c -0.63,-7.74 -2.26,-15.41 -5.46,-22.04 -7.89,-16.34 -15.73,-8.15 -21.46,3.57 -6.11,12.49 -8.91,27.16 -9.17,41.89 l -1.85,103.82 c -12.5,-24.82 -16.9,-54.33 -18.35,-75.46 -1.16,-16.83 2.99,-33.76 11.89,-48.86 l 45.31,-76.77 c 10.16,-17.67 8.83,-30.33 4.59,-38.78 -4.17,-8.28 -16.8,-8.64 -22.36,-0.73 l -18.62,26.49 -65.24,73.42 c -5.69,6.4 -9.66,13.92 -11.59,21.92 l -17.17,71.44 c -1.35,5.64 -1.66,11.48 -0.9,17.22 l 22.45,169.11 c 6.64,50.02 9.67,100.73 9.06,151.46 l -4.19,347.5 c -0.43,35.36 4.94,70.36 15.91,103.82 14.41,43.95 21.34,90.01 20.53,136.47 -1.86,106.08 14.71,329.37 15.18,435.5 0.27,60.9 7.02,170.98 198.59,226.55 33.81,9.81 66.44,23.34 97.84,39.26 l 8.06,4.09"
         style="fill:#ffffff;fill-opacity:1;fill-rule:nonzero;stroke:#341334;stroke-width:10;stroke-linecap:round;stroke-linejoin:round;stroke-miterlimit:10;stroke-dasharray:none;stroke-opacity:1"
         transform="matrix(0.13333333,0,0,-0.13333333,0,666.66667)" />
      <path
         id="path75"
         d="m 1334.2,2244.36 c 0,-18.49 -5.01,-23.08 -12.23,-23.08 -7.21,0 -13.89,4.59 -13.89,23.08 0,18.5 5.85,33.49 13.06,33.49 7.21,0 13.06,-14.99 13.06,-33.49"
         style="fill:#ffffff;fill-opacity:1;fill-rule:nonzero;stroke:none"
         transform="matrix(0.13333333,0,0,-0.13333333,0,666.66667)" />
      <path
         id="path76"
         d="m 1334.2,2244.36 c 0,-18.49 -5.01,-23.08 -12.23,-23.08 -7.21,0 -13.89,4.59 -13.89,23.08 0,18.5 5.85,33.49 13.06,33.49 7.21,0 13.06,-14.99 13.06,-33.49 z"
         style="fill:none;stroke:#341334;stroke-width:10;stroke-linecap:round;stroke-linejoin:round;stroke-miterlimit:10;stroke-dasharray:none;stroke-opacity:1"
         transform="matrix(0.13333333,0,0,-0.13333333,0,666.66667)" />
      <path
         id="path77"
         d="m 1317.45,2142.81 c -8.75,11.27 -8.66,16.95 -5.39,21.1 3.27,4.14 7.2,2.37 15.96,-8.9 8.75,-11.28 11.33,-16.82 8.06,-20.97 -3.26,-4.15 -9.87,-2.51 -18.63,8.77"
         style="fill:#ffffff;fill-opacity:1;fill-rule:nonzero;stroke:none"
         transform="matrix(0.13333333,0,0,-0.13333333,0,666.66667)" />
      <path
         id="path78"
         d="m 1317.45,2142.81 c -8.75,11.27 -8.66,16.95 -5.39,21.1 3.27,4.14 7.2,2.37 15.96,-8.9 8.75,-11.28 11.33,-16.82 8.06,-20.97 -3.26,-4.15 -9.87,-2.51 -18.63,8.77 z"
         style="fill:none;stroke:#341334;stroke-width:10;stroke-linecap:round;stroke-linejoin:round;stroke-miterlimit:10;stroke-dasharray:none;stroke-opacity:1"
         transform="matrix(0.13333333,0,0,-0.13333333,0,666.66667)" />
      <path
         id="path79"
         d="m 1300.08,2169.73 -50.18,91.41 -16.9,104.66"
         style="fill:none;stroke:#341334;stroke-width:10;stroke-linecap:round;stroke-linejoin:round;stroke-miterlimit:10;stroke-dasharray:none;stroke-opacity:1"
         transform="matrix(0.13333333,0,0,-0.13333333,0,666.66667)" />
      <path
         id="path80"
         d="m 1340.59,3171.66 c 0,0 -31.67,-11.94 -43.24,-59.88"
         style="fill:none;stroke:#341334;stroke-width:10;stroke-linecap:round;stroke-linejoin:round;stroke-miterlimit:10;stroke-dasharray:none;stroke-opacity:1"
         transform="matrix(0.13333333,0,0,-0.13333333,0,666.66667)" />
      <path
         id="path81"
         d="m 2118.46,3602.36 47.3,-463.7 c -8.83,-87.25 21.18,-211.49 36.5,-267.4 2.77,-10.11 33.92,-147.37 55.03,-240.66 12.58,-55.63 10.33,-114.97 -6.38,-168.78 v 0 c -6.22,-20.01 -8.55,-40.74 -6.91,-61.22 l 11.59,-144 c 0.62,-7.74 2.25,-15.41 5.45,-22.04 7.89,-16.34 15.73,-8.15 21.46,3.57 6.11,12.49 8.91,27.16 9.17,41.89 l 1.85,103.82 c 12.5,-24.82 16.9,-54.33 18.35,-75.46 1.16,-16.83 -2.98,-33.76 -11.89,-48.86 l -45.31,-76.77 c -10.16,-17.67 -8.83,-30.33 -4.58,-38.78 4.16,-8.28 16.79,-8.64 22.36,-0.73 l 18.61,26.49 65.25,73.42 c 5.68,6.4 9.66,13.92 11.58,21.92 l 17.17,71.44 c 1.36,5.64 1.66,11.48 0.9,17.22 l -22.45,169.11 c -6.64,50.02 -9.67,100.73 -9.06,151.46 l 4.19,347.5 c 0.43,35.36 -4.94,70.36 -15.91,103.82 -14.41,43.95 -21.34,90.01 -20.53,136.47 1.86,106.08 -14.71,329.37 -15.18,435.5 -0.27,60.9 -7.02,170.98 -198.59,226.55 -33.81,9.81 -66.43,23.34 -97.83,39.26 l -8.06,4.09"
         style="fill:#ffffff;fill-opacity:1;fill-rule:nonzero;stroke:#341334;stroke-width:10;stroke-linecap:round;stroke-linejoin:round;stroke-miterlimit:10;stroke-dasharray:none;stroke-opacity:1"
         transform="matrix(0.13333333,0,0,-0.13333333,0,666.66667)" />
      <path
         id="path82"
         d="m 2256.94,2244.36 c 0,-18.49 5.01,-23.08 12.23,-23.08 7.21,0 13.89,4.59 13.89,23.08 0,18.5 -5.85,33.49 -13.06,33.49 -7.21,0 -13.06,-14.99 -13.06,-33.49"
         style="fill:#ffffff;fill-opacity:1;fill-rule:nonzero;stroke:none"
         transform="matrix(0.13333333,0,0,-0.13333333,0,666.66667)" />
      <path
         id="path83"
         d="m 2256.94,2244.36 c 0,-18.49 5.01,-23.08 12.23,-23.08 7.21,0 13.89,4.59 13.89,23.08 0,18.5 -5.85,33.49 -13.06,33.49 -7.21,0 -13.06,-14.99 -13.06,-33.49 z"
         style="fill:none;stroke:#341334;stroke-width:10;stroke-linecap:round;stroke-linejoin:round;stroke-miterlimit:10;stroke-dasharray:none;stroke-opacity:1"
         transform="matrix(0.13333333,0,0,-0.13333333,0,666.66667)" />
      <path
         id="path84"
         d="m 2273.69,2142.81 c 8.75,11.27 8.66,16.95 5.39,21.1 -3.26,4.14 -7.2,2.37 -15.96,-8.9 -8.75,-11.28 -11.33,-16.82 -8.06,-20.97 3.26,-4.15 9.88,-2.51 18.63,8.77"
         style="fill:#ffffff;fill-opacity:1;fill-rule:nonzero;stroke:none"
         transform="matrix(0.13333333,0,0,-0.13333333,0,666.66667)" />
      <path
         id="path85"
         d="m 2273.69,2142.81 c 8.75,11.27 8.66,16.95 5.39,21.1 -3.26,4.14 -7.2,2.37 -15.96,-8.9 -8.75,-11.28 -11.33,-16.82 -8.06,-20.97 3.26,-4.15 9.88,-2.51 18.63,8.77 z"
         style="fill:none;stroke:#341334;stroke-width:10;stroke-linecap:round;stroke-linejoin:round;stroke-miterlimit:10;stroke-dasharray:none;stroke-opacity:1"
         transform="matrix(0.13333333,0,0,-0.13333333,0,666.66667)" />
      <path
         id="path86"
         d="m 2291.06,2169.73 50.18,91.41 16.9,104.66"
         style="fill:none;stroke:#341334;stroke-width:10;stroke-linecap:round;stroke-linejoin:round;stroke-miterlimit:10;stroke-dasharray:none;stroke-opacity:1"
         transform="matrix(0.13333333,0,0,-0.13333333,0,666.66667)" />
      <path
         id="path87"
         d="m 2250.56,3171.66 c 0,0 31.67,-11.94 43.23,-59.88"
         style="fill:none;stroke:#341334;stroke-width:10;stroke-linecap:round;stroke-linejoin:round;stroke-miterlimit:10;stroke-dasharray:none;stroke-opacity:1"
         transform="matrix(0.13333333,0,0,-0.13333333,0,666.66667)" />
      <path
         id="path88"
         d="m 2054.17,329.52 c 0,0 -0.05,13.839 -15.12,29.722"
         style="fill:none;stroke:#341334;stroke-width:10;stroke-linecap:round;stroke-linejoin:round;stroke-miterlimit:10;stroke-dasharray:none;stroke-opacity:1"
         transform="matrix(0.13333333,0,0,-0.13333333,0,666.66667)" />
      <path
         id="path89"
         d="m 2026.27,317.309 c 0,0 2.08,10.66 -20.93,39.242"
         style="fill:none;stroke:#341334;stroke-width:10;stroke-linecap:round;stroke-linejoin:round;stroke-miterlimit:10;stroke-dasharray:none;stroke-opacity:1"
         transform="matrix(0.13333333,0,0,-0.13333333,0,666.66667)" />
      <path
         id="path90"
         d="m 1995.75,307.719 c 0,0 3.28,15.39 -25.28,47.961"
         style="fill:none;stroke:#341334;stroke-width:10;stroke-linecap:round;stroke-linejoin:round;stroke-miterlimit:10;stroke-dasharray:none;stroke-opacity:1"
         transform="matrix(0.13333333,0,0,-0.13333333,0,666.66667)" />
      <path
         id="path91"
         d="m 1948.61,301.699 c 0,0 14.01,17.36 -12.14,55.723"
         style="fill:none;stroke:#341334;stroke-width:10;stroke-linecap:round;stroke-linejoin:round;stroke-miterlimit:10;stroke-dasharray:none;stroke-opacity:1"
         transform="matrix(0.13333333,0,0,-0.13333333,0,666.66667)" />
      <path
         id="path92"
         d="m 1929.51,317.031 c -5.39,-0.261 -13.96,-1 -19.99,-3.043 -2.53,-0.859 -5.27,0.344 -6.1,2.883 -2.68,8.149 -5.82,24.07 8.75,27.871 0,0 18.01,1.496 21.81,-22.121 0.45,-2.82 -1.62,-5.449 -4.47,-5.59"
         style="fill:#ffffff;fill-opacity:1;fill-rule:nonzero;stroke:none"
         transform="matrix(0.13333333,0,0,-0.13333333,0,666.66667)" />
      <path
         id="path93"
         d="m 1929.51,317.031 c -5.39,-0.261 -13.96,-1 -19.99,-3.043 -2.53,-0.859 -5.27,0.344 -6.1,2.883 -2.68,8.149 -5.82,24.07 8.75,27.871 0,0 18.01,1.496 21.81,-22.121 0.45,-2.82 -1.62,-5.449 -4.47,-5.59 z"
         style="fill:none;stroke:#341334;stroke-width:10;stroke-linecap:round;stroke-linejoin:round;stroke-miterlimit:10;stroke-dasharray:none;stroke-opacity:1"
         transform="matrix(0.13333333,0,0,-0.13333333,0,666.66667)" />
      <path
         id="path94"
         d="m 1978.64,314.832 c -3.16,-0.152 -8.18,-0.582 -11.71,-1.781 -1.49,-0.512 -3.09,0.199 -3.58,1.691 -1.57,4.77 -3.41,14.098 5.13,16.328 0,0 10.55,0.879 12.78,-12.961 0.26,-1.648 -0.95,-3.199 -2.62,-3.277"
         style="fill:#ffffff;fill-opacity:1;fill-rule:nonzero;stroke:none"
         transform="matrix(0.13333333,0,0,-0.13333333,0,666.66667)" />
      <path
         id="path95"
         d="m 1978.64,314.832 c -3.16,-0.152 -8.18,-0.582 -11.71,-1.781 -1.49,-0.512 -3.09,0.199 -3.58,1.691 -1.57,4.77 -3.41,14.098 5.13,16.328 0,0 10.55,0.879 12.78,-12.961 0.26,-1.648 -0.95,-3.199 -2.62,-3.277 z"
         style="fill:none;stroke:#341334;stroke-width:5;stroke-linecap:round;stroke-linejoin:round;stroke-miterlimit:10;stroke-dasharray:none;stroke-opacity:1"
         transform="matrix(0.13333333,0,0,-0.13333333,0,666.66667)" />
      <path
         id="path96"
         d="m 2013.87,320.68 c -2.19,-0.098 -5.68,-0.399 -8.14,-1.239 -1.03,-0.351 -2.14,0.141 -2.48,1.18 -1.09,3.32 -2.37,9.801 3.56,11.34 0,0 7.33,0.609 8.88,-9 0.18,-1.152 -0.66,-2.219 -1.82,-2.281"
         style="fill:#ffffff;fill-opacity:1;fill-rule:nonzero;stroke:none"
         transform="matrix(0.13333333,0,0,-0.13333333,0,666.66667)" />
      <path
         id="path97"
         d="m 2013.87,320.68 c -2.19,-0.098 -5.68,-0.399 -8.14,-1.239 -1.03,-0.351 -2.14,0.141 -2.48,1.18 -1.09,3.32 -2.37,9.801 3.56,11.34 0,0 7.33,0.609 8.88,-9 0.18,-1.152 -0.66,-2.219 -1.82,-2.281 z"
         style="fill:none;stroke:#341334;stroke-width:5;stroke-linecap:round;stroke-linejoin:round;stroke-miterlimit:10;stroke-dasharray:none;stroke-opacity:1"
         transform="matrix(0.13333333,0,0,-0.13333333,0,666.66667)" />
      <path
         id="path98"
         d="m 2042.88,330.879 c -1.98,-0.098 -5.14,-0.367 -7.36,-1.117 -0.94,-0.321 -1.95,0.117 -2.25,1.058 -0.99,3 -2.15,8.871 3.22,10.27 0,0 6.64,0.558 8.04,-8.149 0.17,-1.043 -0.59,-2.011 -1.65,-2.062"
         style="fill:#ffffff;fill-opacity:1;fill-rule:nonzero;stroke:none"
         transform="matrix(0.13333333,0,0,-0.13333333,0,666.66667)" />
      <path
         id="path99"
         d="m 2042.88,330.879 c -1.98,-0.098 -5.14,-0.367 -7.36,-1.117 -0.94,-0.321 -1.95,0.117 -2.25,1.058 -0.99,3 -2.15,8.871 3.22,10.27 0,0 6.64,0.558 8.04,-8.149 0.17,-1.043 -0.59,-2.011 -1.65,-2.062 z"
         style="fill:none;stroke:#341334;stroke-width:5;stroke-linecap:round;stroke-linejoin:round;stroke-miterlimit:10;stroke-dasharray:none;stroke-opacity:1"
         transform="matrix(0.13333333,0,0,-0.13333333,0,666.66667)" />
      <path
         id="path100"
         d="m 2066.65,345.66 c -1.59,-0.219 -4.1,-0.711 -5.83,-1.672 -0.72,-0.406 -1.57,0.024 -1.89,1.032 -1.04,3.261 -2.45,9.652 1.75,11.519 0,0 5.29,1 7.13,-8.508 0.22,-1.133 -0.32,-2.25 -1.16,-2.371"
         style="fill:#ffffff;fill-opacity:1;fill-rule:nonzero;stroke:none"
         transform="matrix(0.13333333,0,0,-0.13333333,0,666.66667)" />
      <path
         id="path101"
         d="m 2066.65,345.66 c -1.59,-0.219 -4.1,-0.711 -5.83,-1.672 -0.72,-0.406 -1.57,0.024 -1.89,1.032 -1.04,3.261 -2.45,9.652 1.75,11.519 0,0 5.29,1 7.13,-8.508 0.22,-1.133 -0.32,-2.25 -1.16,-2.371 z"
         style="fill:none;stroke:#341334;stroke-width:5;stroke-linecap:round;stroke-linejoin:round;stroke-miterlimit:10;stroke-dasharray:none;stroke-opacity:1"
         transform="matrix(0.13333333,0,0,-0.13333333,0,666.66667)" />
      <path
         id="path102"
         d="m 1565.1,1841.55 c 0,0 21.33,-37.54 13.65,-109.22"
         style="fill:none;stroke:#341334;stroke-width:10;stroke-linecap:round;stroke-linejoin:round;stroke-miterlimit:10;stroke-dasharray:none;stroke-opacity:1"
         transform="matrix(0.13333333,0,0,-0.13333333,0,666.66667)" />
      <path
         id="path103"
         d="m 1689.67,1811.68 c 0,0 -18.77,-19.62 -23.03,-98.12"
         style="fill:none;stroke:#341334;stroke-width:10;stroke-linecap:round;stroke-linejoin:round;stroke-miterlimit:10;stroke-dasharray:none;stroke-opacity:1"
         transform="matrix(0.13333333,0,0,-0.13333333,0,666.66667)" />
      <path
         id="path104"
         d="m 2019.88,1841.55 c 0,0 -21.33,-37.54 -13.65,-109.22"
         style="fill:none;stroke:#341334;stroke-width:10;stroke-linecap:round;stroke-linejoin:round;stroke-miterlimit:10;stroke-dasharray:none;stroke-opacity:1"
         transform="matrix(0.13333333,0,0,-0.13333333,0,666.66667)" />
      <path
         id="path105"
         d="m 1895.31,1811.68 c 0,0 18.77,-19.62 23.03,-98.12"
         style="fill:none;stroke:#341334;stroke-width:10;stroke-linecap:round;stroke-linejoin:round;stroke-miterlimit:10;stroke-dasharray:none;stroke-opacity:1"
         transform="matrix(0.13333333,0,0,-0.13333333,0,666.66667)" />
      <path
         id="path106"
         d="m 1582.66,3965.57 c 49.21,-90.65 125.81,-148.84 211.78,-148.84 85.97,0 162.49,58.11 211.71,148.6"
         style="fill:none;stroke:#341334;stroke-width:10;stroke-linecap:round;stroke-linejoin:round;stroke-miterlimit:10;stroke-dasharray:none;stroke-opacity:1"
         transform="matrix(0.13333333,0,0,-0.13333333,0,666.66667)" />
      <path
         id="path107"
         d="m 1425.38,2867.03 c 67.95,-15.08 280.52,-83.27 336.73,-352.84"
         style="fill:none;stroke:#341334;stroke-width:10;stroke-linecap:round;stroke-linejoin:round;stroke-miterlimit:10;stroke-dasharray:none;stroke-opacity:1"
         transform="matrix(0.13333333,0,0,-0.13333333,0,666.66667)" />
      <path
         id="path108"
         d="m 1826.24,2514.19 c 56.21,269.57 268.78,337.76 336.73,352.84"
         style="fill:none;stroke:#341334;stroke-width:10;stroke-linecap:round;stroke-linejoin:round;stroke-miterlimit:10;stroke-dasharray:none;stroke-opacity:1"
         transform="matrix(0.13333333,0,0,-0.13333333,0,666.66667)" />
      <path
         id="path109"
         d="m 1446.81,2926.57 c 232.82,-83.12 464.05,-86.13 693.46,2.85"
         style="fill:none;stroke:#341334;stroke-width:10;stroke-linecap:round;stroke-linejoin:round;stroke-miterlimit:10;stroke-dasharray:none;stroke-opacity:1"
         transform="matrix(0.13333333,0,0,-0.13333333,0,666.66667)" />
      <path
         id="path110"
         d="m 1768.32,3035.81 c 0,0 37.14,11.89 25.26,-35.65"
         style="fill:none;stroke:#341334;stroke-width:10;stroke-linecap:round;stroke-linejoin:round;stroke-miterlimit:10;stroke-dasharray:none;stroke-opacity:1"
         transform="matrix(0.13333333,0,0,-0.13333333,0,666.66667)" />
      <path
         id="path111"
         d="m 1766.7,3568.14 c 0.77,-6.94 1.17,-13.99 1.17,-21.15 0,-98.72 -75.57,-178.75 -168.78,-178.75 -93.21,0 -168.77,80.03 -168.77,178.75 0,48.14 17.97,91.84 47.19,123.98 l -14.7,242.81"
         style="fill:#ffffff;fill-opacity:1;fill-rule:nonzero;stroke:#341334;stroke-width:10;stroke-linecap:round;stroke-linejoin:round;stroke-miterlimit:10;stroke-dasharray:none;stroke-opacity:1"
         transform="matrix(0.13333333,0,0,-0.13333333,0,666.66667)" />
      <path
         id="path112"
         d="m 1652.54,3715.69 c 24.34,-9.34 46.08,-24.44 63.74,-43.74"
         style="fill:none;stroke:#341334;stroke-width:10;stroke-linecap:round;stroke-linejoin:round;stroke-miterlimit:10;stroke-dasharray:none;stroke-opacity:1"
         transform="matrix(0.13333333,0,0,-0.13333333,0,666.66667)" />
      <path
         id="path113"
         d="m 1828.8,3568.71 c -0.77,-6.93 -1.17,-13.99 -1.17,-21.14 0,-98.73 75.57,-178.76 168.78,-178.76 93.21,0 168.77,80.03 168.77,178.76 0,48.14 -17.97,91.84 -47.19,123.97 l 19.55,240.22"
         style="fill:#ffffff;fill-opacity:1;fill-rule:nonzero;stroke:#341334;stroke-width:10;stroke-linecap:round;stroke-linejoin:round;stroke-miterlimit:10;stroke-dasharray:none;stroke-opacity:1"
         transform="matrix(0.13333333,0,0,-0.13333333,0,666.66667)" />
      <path
         id="path114"
         d="m 1938.93,3715.69 c -24.34,-9.34 -46.08,-24.44 -63.74,-43.74"
         style="fill:none;stroke:#341334;stroke-width:10;stroke-linecap:round;stroke-linejoin:round;stroke-miterlimit:10;stroke-dasharray:none;stroke-opacity:1"
         transform="matrix(0.13333333,0,0,-0.13333333,0,666.66667)" />
      <path
         id="path115"
         d="m 1660.44,4323.58 c 8.18,-38.86 0.81,-70.37 -16.47,-70.37 -17.28,0 -37.92,31.51 -46.1,70.37 -8.19,38.87 -0.81,70.38 16.46,70.38 17.28,0 37.92,-31.51 46.11,-70.38"
         style="fill:#ffffff;fill-opacity:1;fill-rule:nonzero;stroke:none"
         transform="matrix(0.13333333,0,0,-0.13333333,0,666.66667)" />
      <path
         id="path116"
         d="m 1660.44,4323.58 c 8.18,-38.86 0.81,-70.37 -16.47,-70.37 -17.28,0 -37.92,31.51 -46.1,70.37 -8.19,38.87 -0.81,70.38 16.46,70.38 17.28,0 37.92,-31.51 46.11,-70.38 z"
         style="fill:none;stroke:#341334;stroke-width:10;stroke-linecap:round;stroke-linejoin:round;stroke-miterlimit:10;stroke-dasharray:none;stroke-opacity:1"
         transform="matrix(0.13333333,0,0,-0.13333333,0,666.66667)" />
      <path
         id="path117"
         d="m 1925.89,4323.58 c -8.19,-38.86 -0.81,-70.37 16.47,-70.37 17.27,0 37.91,31.51 46.1,70.37 8.18,38.87 0.81,70.38 -16.47,70.38 -17.28,0 -37.92,-31.51 -46.1,-70.38"
         style="fill:#ffffff;fill-opacity:1;fill-rule:nonzero;stroke:none"
         transform="matrix(0.13333333,0,0,-0.13333333,0,666.66667)" />
      <path
         id="path118"
         d="m 1925.89,4323.58 c -8.19,-38.86 -0.81,-70.37 16.47,-70.37 17.27,0 37.91,31.51 46.1,70.37 8.18,38.87 0.81,70.38 -16.47,70.38 -17.28,0 -37.92,-31.51 -46.1,-70.38 z"
         style="fill:none;stroke:#341334;stroke-width:10;stroke-linecap:round;stroke-linejoin:round;stroke-miterlimit:10;stroke-dasharray:none;stroke-opacity:1"
         transform="matrix(0.13333333,0,0,-0.13333333,0,666.66667)" />
      <path
         id="path119"
         d="m 1982.79,4477.18 c 0,101.8 -82.52,184.32 -184.31,184.32 -101.79,0 -184.31,-82.52 -184.31,-184.32 0,-12.43 1.25,-24.57 3.59,-36.32 l -0.04,-0.02 19.58,-144.74 c 3.3,-24.41 11.22,-47.97 23.59,-69.27 24.62,-42.36 71.39,-105.44 132.24,-107.71 v -0.14 c 0.29,0 0.57,0.06 0.86,0.07 0.28,-0.01 0.55,-0.07 0.84,-0.07 v 0.13 c 62.92,2.24 111.28,65.34 136.74,107.72 12.79,21.3 20.97,44.86 24.39,69.27 l 17.03,121.79 c 6.32,18.61 9.8,38.54 9.8,59.29"
         style="fill:#ffffff;fill-opacity:1;fill-rule:nonzero;stroke:none"
         transform="matrix(0.13333333,0,0,-0.13333333,0,666.66667)" />
      <path
         id="path120"
         d="m 1982.79,4477.18 c 0,101.8 -82.52,184.32 -184.31,184.32 -101.79,0 -184.31,-82.52 -184.31,-184.32 0,-12.43 1.25,-24.57 3.59,-36.32 l -0.04,-0.02 19.58,-144.74 c 3.3,-24.41 11.22,-47.97 23.59,-69.27 24.62,-42.36 71.39,-105.44 132.24,-107.71 v -0.14 c 0.29,0 0.57,0.06 0.86,0.07 0.28,-0.01 0.55,-0.07 0.84,-0.07 v 0.13 c 62.92,2.24 111.28,65.34 136.74,107.72 12.79,21.3 20.97,44.86 24.39,69.27 l 17.03,121.79 c 6.32,18.61 9.8,38.54 9.8,59.29 z"
         style="fill:none;stroke:#341334;stroke-width:10;stroke-linecap:round;stroke-linejoin:round;stroke-miterlimit:10;stroke-dasharray:none;stroke-opacity:1"
         transform="matrix(0.13333333,0,0,-0.13333333,0,666.66667)" />
      <path
         id="path121"
         d="m 1707.06,4347.46 c -30.33,3.34 -33.66,23.74 -33.66,23.74 l -15.64,1.9 10.96,-0.95 c 8.33,6.51 16.19,10.8 23.41,13.42 19.37,6.9 34.53,1.42 44.85,-5.96 v -0.08 c 10.56,-7.38 16.12,-16.83 16.12,-16.83"
         style="fill:none;stroke:#341334;stroke-width:10;stroke-linecap:round;stroke-linejoin:round;stroke-miterlimit:10;stroke-dasharray:none;stroke-opacity:1"
         transform="matrix(0.13333333,0,0,-0.13333333,0,666.66667)" />
      <path
         id="path122"
         d="m 1736.98,4379.61 v -0.08 c 0,-14.05 -10.24,-25.4 -22.78,-25.4 -12.54,0 -22.78,11.35 -22.78,25.4 0,2.07 0.24,4.13 0.71,6.04 19.37,6.9 34.53,1.43 44.85,-5.96 z"
         style="fill:none;stroke:#341334;stroke-width:10;stroke-linecap:round;stroke-linejoin:round;stroke-miterlimit:10;stroke-dasharray:none;stroke-opacity:1"
         transform="matrix(0.13333333,0,0,-0.13333333,0,666.66667)" />
      <path
         id="path123"
         d="m 1838.84,4362.7 c 0,0 5.56,9.45 16.12,16.83 v 0.08 c 10.32,7.38 25.48,12.86 44.85,5.96 7.22,-2.62 15.08,-6.91 23.41,-13.42 l 10.96,0.95 -15.64,-1.9 c 0,0 -3.33,-20.4 -33.66,-23.74"
         style="fill:none;stroke:#341334;stroke-width:10;stroke-linecap:round;stroke-linejoin:round;stroke-miterlimit:10;stroke-dasharray:none;stroke-opacity:1"
         transform="matrix(0.13333333,0,0,-0.13333333,0,666.66667)" />
      <path
         id="path124"
         d="m 1854.96,4379.61 v -0.08 c 0,-14.05 10.24,-25.4 22.78,-25.4 12.54,0 22.78,11.35 22.78,25.4 0,2.07 -0.24,4.13 -0.71,6.04 -19.37,6.9 -34.53,1.43 -44.85,-5.96 z"
         style="fill:none;stroke:#341334;stroke-width:10;stroke-linecap:round;stroke-linejoin:round;stroke-miterlimit:10;stroke-dasharray:none;stroke-opacity:1"
         transform="matrix(0.13333333,0,0,-0.13333333,0,666.66667)" />
      <path
         id="path125"
         d="m 1652.57,4408.18 27.97,23.7 82.95,-30.34 1.9,15.17 -83.91,20.86 -28.91,-29.39"
         style="fill:#341334;fill-opacity:1;fill-rule:nonzero;stroke:none"
         transform="matrix(0.13333333,0,0,-0.13333333,0,666.66667)" />
      <path
         id="path126"
         d="m 1652.57,4408.18 27.97,23.7 82.95,-30.34 1.9,15.17 -83.91,20.86 z"
         style="fill:none;stroke:#341334;stroke-width:10;stroke-linecap:round;stroke-linejoin:round;stroke-miterlimit:10;stroke-dasharray:none;stroke-opacity:1"
         transform="matrix(0.13333333,0,0,-0.13333333,0,666.66667)" />
      <path
         id="path127"
         d="m 1939.36,4408.18 -27.97,23.7 -82.96,-30.34 -1.89,15.17 83.9,20.86 28.92,-29.39"
         style="fill:#341334;fill-opacity:1;fill-rule:nonzero;stroke:none"
         transform="matrix(0.13333333,0,0,-0.13333333,0,666.66667)" />
      <path
         id="path128"
         d="m 1939.36,4408.18 -27.97,23.7 -82.96,-30.34 -1.89,15.17 83.9,20.86 z"
         style="fill:none;stroke:#341334;stroke-width:10;stroke-linecap:round;stroke-linejoin:round;stroke-miterlimit:10;stroke-dasharray:none;stroke-opacity:1"
         transform="matrix(0.13333333,0,0,-0.13333333,0,666.66667)" />
      <path
         id="path129"
         d="m 1817.06,4374.52 c 0,0 -10.91,-15.64 -6.17,-74.42"
         style="fill:none;stroke:#341334;stroke-width:10;stroke-linecap:round;stroke-linejoin:round;stroke-miterlimit:10;stroke-dasharray:none;stroke-opacity:1"
         transform="matrix(0.13333333,0,0,-0.13333333,0,666.66667)" />
      <path
         id="path130"
         d="m 1766.81,4260.75 c 0,0 5.18,-2.38 15.53,-2.79"
         style="fill:none;stroke:#341334;stroke-width:10;stroke-linecap:round;stroke-linejoin:round;stroke-miterlimit:10;stroke-dasharray:none;stroke-opacity:1"
         transform="matrix(0.13333333,0,0,-0.13333333,0,666.66667)" />
      <path
         id="path131"
         d="m 1823.69,4260.75 c 0,0 -5.77,-2.66 -17.31,-2.83"
         style="fill:none;stroke:#341334;stroke-width:10;stroke-linecap:round;stroke-linejoin:round;stroke-miterlimit:10;stroke-dasharray:none;stroke-opacity:1"
         transform="matrix(0.13333333,0,0,-0.13333333,0,666.66667)" />
      <path
         id="path132"
         d="m 1783.47,4180.18 c 6.68,-1.42 13.65,-1.42 20.33,0 12.55,2.66 21.22,8.6 27.11,13.97 7.27,6.63 13.11,12.39 13.11,12.39 -15.4,15.06 -31.8,25.04 -50.39,14.08 -18.59,10.96 -34.98,0.98 -50.38,-14.08 0,0 5.84,-5.76 13.11,-12.39 5.89,-5.37 14.56,-11.31 27.11,-13.97 z"
         style="fill:none;stroke:#341334;stroke-width:10;stroke-linecap:round;stroke-linejoin:round;stroke-miterlimit:10;stroke-dasharray:none;stroke-opacity:1"
         transform="matrix(0.13333333,0,0,-0.13333333,0,666.66667)" />
      <path
         id="path133"
         d="m 1743.25,4206.54 c 33.75,-6.07 67.34,-6.24 100.77,0"
         style="fill:none;stroke:#341334;stroke-width:10;stroke-linecap:round;stroke-linejoin:round;stroke-miterlimit:10;stroke-dasharray:none;stroke-opacity:1"
         transform="matrix(0.13333333,0,0,-0.13333333,0,666.66667)" />
      <path
         id="path134"
         d="m 1898.78,4575.18 c 0,0 -53.2,-57.3 -163.71,-102.32 l 36.84,53.21 c 0,0 -162.81,-69.08 -134.61,-229.97 0,0 -31.15,15.1 -49.56,92.86 0,0 -48.32,144.95 50.45,243 41.51,41.22 99.52,60.87 157.97,58.5 85.36,-3.46 209.15,-44.42 211.31,-252.45 0.25,-24.24 -4.32,-48.52 -14.52,-70.51 -7.6,-16.38 -18.97,-33.23 -35.78,-43.92 l 9.14,112.45 c 0,0 -53.2,24.55 -67.53,139.15"
         style="fill:#ffffff;fill-opacity:1;fill-rule:nonzero;stroke:none"
         transform="matrix(0.13333333,0,0,-0.13333333,0,666.66667)" />
      <path
         id="path135"
         d="m 1898.78,4575.18 c 0,0 -53.2,-57.3 -163.71,-102.32 l 36.84,53.21 c 0,0 -162.81,-69.08 -134.61,-229.97 0,0 -31.15,15.1 -49.56,92.86 0,0 -48.32,144.95 50.45,243 41.51,41.22 99.52,60.87 157.97,58.5 85.36,-3.46 209.15,-44.42 211.31,-252.45 0.25,-24.24 -4.32,-48.52 -14.52,-70.51 -7.6,-16.38 -18.97,-33.23 -35.78,-43.92 l 9.14,112.45 c 0,0 -53.2,24.55 -67.53,139.15 z"
         style="fill:none;stroke:#341334;stroke-width:10;stroke-linecap:round;stroke-linejoin:round;stroke-miterlimit:10;stroke-dasharray:none;stroke-opacity:1"
         transform="matrix(0.13333333,0,0,-0.13333333,0,666.66667)" />
    </g>
  </g>
</svg>
