<?xml version="1.0" encoding="UTF-8" standalone="no"?>
<!-- Created with Inkscape (http://www.inkscape.org/) -->

<svg
   version="1.1"
   id="svg1"
   width="666.66669"
   height="666.66669"
   viewBox="0 0 666.66669 666.66669"
   sodipodi:docname="9330280.eps"
   xmlns:inkscape="http://www.inkscape.org/namespaces/inkscape"
   xmlns:sodipodi="http://sodipodi.sourceforge.net/DTD/sodipodi-0.dtd"
   xmlns="http://www.w3.org/2000/svg"
   xmlns:svg="http://www.w3.org/2000/svg">
  <defs
     id="defs1" />
  <sodipodi:namedview
     id="namedview1"
     pagecolor="#ffffff"
     bordercolor="#000000"
     borderopacity="0.25"
     inkscape:showpageshadow="2"
     inkscape:pageopacity="0.0"
     inkscape:pagecheckerboard="0"
     inkscape:deskcolor="#d1d1d1">
    <inkscape:page
       x="0"
       y="0"
       inkscape:label="1"
       id="page1"
       width="666.66669"
       height="666.66669"
       margin="0"
       bleed="0" />
  </sodipodi:namedview>
  <g
     id="g1"
     inkscape:groupmode="layer"
     inkscape:label="1">
    <g
       id="group-R5">
      <path
         id="path2"
         d="M 0,0 H 5000 V 5000 H 0 V 0"
         style="fill:#ffffff;fill-opacity:1;fill-rule:evenodd;stroke:none"
         transform="matrix(0.13333333,0,0,-0.13333333,0,666.66667)" />
      <path
         id="path3"
         d="M 791.523,4333.48 H 4208.48 c 68.75,0 125,-56.25 125,-125 V 791.52 c 0,-68.75 -56.25,-125 -125,-125 H 791.523 c -68.75,0 -125,56.25 -125,125 v 3416.96 c 0,68.75 56.25,125 125,125"
         style="fill:#b5e3f3;fill-opacity:1;fill-rule:evenodd;stroke:none"
         transform="matrix(0.13333333,0,0,-0.13333333,0,666.66667)" />
      <path
         id="path4"
         d="m 2313.98,2926.97 c 8.2,-89.67 -15.02,-175.73 -48.03,-258.29 -8.47,-24.37 -13.15,-49.94 -22.7,-73.93 -5.78,-15.63 -13.84,-30.68 -18.96,-46.39 0,-2.53 -1.19,-4.79 -2.99,-6.41 -15.24,-57.71 11.91,-118.75 -3.31,-177.26 -8.62,-52.7 -46.82,-102.41 -102.54,-107.9 -7.68,-1.17 -15.46,-1.49 -23.13,-2.71 -5.31,-2.1 -12.32,-1.41 -14.74,4.52 -7.67,-1.59 -18.18,-1.04 -23.76,-6.89 -2.45,-5.3 -1.1,-13.48 -1.57,-20.19 0.11,-0.45 0.17,-0.91 0.21,-1.4 4.7,-63.95 1.41,-128.28 0.58,-192.35 0.46,-76.8 -7.26,-153.79 -34.71,-226.01 -7.71,-22.81 -18.38,-45.24 -24.3,-68.59 9.24,-32.31 7.14,-67.07 9.32,-100.41 -0.08,-27.02 -7.4,-53.44 -9.39,-80.28 7.75,-31.57 14.44,-63.5 18.69,-95.79 10.88,-76.76 17,-154.4 9.99,-231.82 -4.46,-65.83 -4.6,-131.72 -16.33,-197.05 -5.61,-67.14 -6.41,-134.898 -5.9,-202.218 3.19,-47.09 16.46,-94.141 43.38,-133.301 3.11,-4.551 6.21,-9.102 9.34,-13.641 3.91,1.891 9.02,1.379 11.76,-2.59 8.19,-11.968 16.33,-23.961 24.47,-35.961 18.32,-27.609 40.43,-52.078 65.21,-73.828 30.65,-29.383 107.08,-77.75 53.26,-120.75 -5.29,-5.66 -12.5,-8.84 -18.55,-13.332 -5.09,-13.058 -18.52,-20.89 -31.64,-13.48 -43.43,19.75 -84.09,45.23 -125.29,69.23 -2.34,-2.98 -6.24,-4.629 -10.73,-2.648 -18.04,8.09 -36.07,16.211 -54.32,23.801 -18.52,7.437 -38.27,14.5 -51.39,30.367 -25.63,28.222 -34.08,67.711 -35.42,104.773 0.67,20.36 -5.45,43.918 1.79,63 0.24,0.317 0.49,0.61 0.75,0.879 -0.61,3.75 -1.19,7.488 -1.75,11.238 -7.22,57.301 -16.63,114.313 -23.06,171.692 -4.67,83.281 -32.05,162.579 -49.74,243.569 -1.47,5.44 -2.6,10.95 -3.75,16.46 -1.62,1.09 -2.92,2.83 -3.61,5.32 -26.34,89.7 -39.37,184.2 -33.09,277.65 0.84,35.71 8.28,71.03 8.44,106.68 -1.37,19.26 -6.73,37.89 -12.12,56.34 -16.01,57.61 -43.15,111.28 -60.33,168.52 -18.54,63.07 -35.49,126.74 -48.11,191.29 -13.26,66.65 -27.95,132.85 -39.98,199.7 -12.05,52.37 -18.84,106.56 -41.44,155.55 -2.24,-60.75 -7.03,-121.51 -11.87,-181.99 -4.33,-58.54 -5.6,-117.39 -14.68,-175.46 -13.91,-91.09 -24.8,-184.14 -62.71,-268.97 -7.41,-20.94 -11.69,-42.82 -16.59,-64.45 -0.25,-47.07 -2.73,-94.11 -1.39,-141.19 2.54,-73.99 9.91,-146.56 9.98,-220.43 -1.28,-53.33 -13.49,-105.66 -23.53,-157.85 -10.81,-46.87 -18.41,-94.5 -32.6,-140.528 -17.59,-62.293 -22.34,-127.371 -22.93,-191.84 -0.05,-2.133 -0.08,-4.27 -0.12,-6.402 2.2,-1.668 3.68,-4.219 3.51,-7.321 -0.56,-10 -0.9,-20.008 -1.22,-30.019 -7.16,-55.469 24.93,-139.371 -42.67,-166.11 -32.68,-14.66 -69.76,-11.218 -103.56,-21.711 -45.43,-13.629 -184.88,-108.82 -221.59,-67 -3.56,4.973 -3.77,11.313 -3.02,17.172 -12.65,-1.402 -28.6,-0.722 -35.859,11.489 -23.485,1.812 -26.246,25.332 -9.887,39.218 26.196,27.871 62.956,41.903 92.496,65.614 33.84,25.878 67.45,52.277 96.81,83.207 16.79,18.601 37.7,34.351 48.69,57.382 2.68,5.957 6.03,12 6.54,18.598 -0.12,4.082 2.18,6.953 5.22,8.352 1.16,8.14 2.1,16.179 2.68,23.73 2.27,38.981 0.74,78.051 0.22,117.059 0.75,8.652 -3.82,23.929 5.92,27.441 -1.31,34.84 -3.67,69.639 -6.77,104.289 -4.21,83.98 -5.32,168.27 -5.31,252.32 -0.02,4.82 2.97,7.77 6.59,8.81 0.09,75.83 0.19,151.67 -1,227.46 -1.19,32.67 -11.01,62.36 -14.48,94.36 -5.68,47.04 2.33,94.31 4.82,141.31 -0.09,3.36 0.28,6.23 0.99,8.63 -63.54,82.38 -76.45,161.21 -93,263.09 -13.21,67.43 -14.36,135.76 -9.03,203.87 -4.34,-1.99 -10.12,-0.91 -12.59,3.87 -0.41,1.08 -0.81,2.16 -1.2,3.24 -5.07,3.1 -8.08,9.5 -11.76,14.01 -10.41,16.05 -16.71,34.64 -29.27,49.29 -36.95,38.18 -33.89,-22.01 -27.31,-45.59 4.69,-21.45 13.69,-44.9 33.02,-57.08 12.37,-5 7.05,-17.73 -2.04,-18.71 -0.01,-0.01 -0.02,-0.02 -0.04,-0.01 -9.4,-3.77 -25.89,3.64 -35.4,1.28 -22.39,-1.79 -44.62,-6.92 -67.202,-5.31 -114.688,-1.53 -66.035,227.7 -57.235,298.3 1.168,5.15 0.883,11.74 2.93,16.81 -41.379,109.2 -72.398,223.77 -67.684,341.28 1.508,41.97 7.321,85.89 10.817,127.27 1.859,37.64 0.269,75.67 8.465,112.77 6.875,39.27 28.218,75.94 25.8,116.58 -2.304,93.42 9.68,188.37 39.184,277.11 1.703,29.54 -6.156,59.26 -1.379,88.91 6.324,50.38 26.352,99.21 56.223,140.19 24.401,29.57 53.261,56.14 86.211,75.95 2.26,2.26 5.56,3.92 9.2,5.29 2.68,1.49 5.39,2.92 8.13,4.31 11.66,4.65 30.91,18.93 44.58,16.53 5.24,2.22 10.48,4.4 15.77,6.47 27.46,9.91 55.81,18.03 84.23,24.26 2.39,0.02 4.32,-0.69 5.78,-1.86 4.06,1.61 8.13,3.24 12.19,4.86 70.41,33.63 141.74,43.39 169.42,109.93 2.31,12.44 4.61,24.87 7.37,37.21 7.31,26.6 4.52,53.16 -5.89,78.32 -6.63,27.01 -20.37,51.09 -33.51,75.47 0,0 -0.01,0 -0.01,0.01 -0.42,0.47 -0.79,1 -1.13,1.6 -0.41,0.92 -0.81,1.84 -1.21,2.75 0,0 0,0.01 0,0.02 -5.93,11.09 -11.64,22.27 -16.41,33.87 -4.42,6.1 -5.13,11.52 -3.89,15.56 -33.62,90.49 10.43,48.3 7.45,135.62 -2.11,51.15 -10.73,106.09 15.82,152.77 28.26,53.73 73.74,96.43 128.97,121.54 35.91,14.97 74.04,6.15 109.37,-5.72 189.17,-60.62 129.82,-162.09 122.04,-308.5 1.62,-1.52 2.67,-3.75 2.68,-6.72 -1.05,-11.65 6.15,-22.42 10.62,-32.84 11.21,-28.97 -14.24,-54.29 -26.5,-78.38 -7.46,-18.5 -17.18,-35.64 -27.48,-52.65 -8.95,-20.3 -14.56,-42.32 -17.85,-64.24 0.02,-34.81 7.49,-69.02 14.22,-103.31 33.35,-18.05 59.72,-47.52 96.13,-60.14 24.56,-12.43 50.67,-20.84 77.65,-26.16 36.84,-9.57 73.85,-18.58 110.37,-28.58 24.81,-6.91 51.9,-5.11 75.16,-17.38 45.11,-22.97 77.88,-63.91 101.1,-108.01 36.3,-61.34 35.37,-125.29 33.82,-193.84 0.31,-3.27 1.03,-6.4 2.03,-9.43 0,-0.01 0,-0.01 0.01,0 8.46,-4.8 16.2,-19.13 22.07,-24.02 17.5,-23.21 27.11,-51.5 35.21,-79.15 18.88,-53.45 14.3,-112.07 13.01,-167.29 -0.75,-31.54 8.53,-61.51 16.07,-91.74 11.49,-77.36 18.89,-155.7 22.71,-233.88 z m -202.05,-362.59 c 21.53,39.02 12.3,87.01 8.49,129.44 -6.05,57.47 -15.02,114.68 -17.9,172.43 -1.55,64.78 3.3,131.92 9.34,195.87 1.37,9.73 1.59,19.69 -0.94,29.25 -31.55,50.76 -48.79,108.42 -68.8,164.53 -14.2,26.8 -28.76,53.36 -39.91,81.68 -5.66,-13.71 -14.58,-25.7 -22.49,-38.14 -11.12,-18.94 -23.58,-37.85 -41.02,-51.45 -20.6,-36.22 -54.76,-77.49 -55.58,-120.27 -0.57,-48.59 5.84,-96.43 1.14,-144.78 -0.69,-24.7 -13.15,-47.32 -15.36,-71.42 3.57,-12.55 11.34,-23.65 14.27,-36.47 3.66,-16.77 3.83,-34.03 6.23,-50.99 7.5,-32.78 17.54,-63.45 27.57,-94.97 14.88,-48.93 42.71,-92.43 59.78,-140.55 16.19,-45.17 23.65,-93.11 39.27,-138.47 23.6,44.61 72.17,70.18 95.91,114.31 z m -871.83,525.31 c 0.8,15.56 1.63,31.13 1.63,46.7 -4.41,7.24 -1.2,23.78 -1.99,37.23 -0.55,3.17 -1.18,6.48 -1.63,9.7 -0.39,1.18 -0.86,2.26 -1.42,3.28 -10.67,27.23 -36.06,45.17 -52.23,69.06 -16.46,18.95 -23.05,44.33 -40.1,62.71 -33.07,-48.33 -30.71,-108.8 -45.72,-163.3 -10.24,-35.7 -31.12,-66.7 -46.59,-100 -6.19,-18.83 -7.14,-41.08 -9.05,-60.21 -5.52,-54.86 1.38,-108.83 4.42,-163.17 -1.06,-35.82 -3.73,-71.67 -7.61,-107.29 -0.84,-6.57 -1.8,-13.16 -2.6,-19.73 -0.48,-3.93 -3.24,-6.57 -6.51,-7.6 -0.99,-29.63 -4.14,-59.34 -5.85,-88.63 -2.98,-11.73 4.44,-55.28 -16.64,-46.86 -4.56,-71.59 42.78,-72.14 66.15,-127.31 18.14,-41.8 27.49,-86.46 42.69,-129.27 2.46,-10.04 6.82,-19.92 9.92,-29.87 5.27,54.35 14.3,108.49 24.25,161.85 10.16,57.07 18.88,114.77 31.79,171.2 1.8,3.15 4.59,4.52 7.44,4.58 6.17,62.85 28.4,122.65 36.51,184.99 2.42,36.36 -5.71,73.75 4.75,109.33 6.19,12.21 -1.85,24.61 -2.15,37.34 -4.19,28.25 4.44,55.84 7.38,83.71 1.63,20.49 2.14,41.04 3.16,61.56 v 0"
         style="fill:#ffffff;fill-opacity:1;fill-rule:evenodd;stroke:none"
         transform="matrix(0.13333333,0,0,-0.13333333,0,666.66667)" />
      <path
         id="path5"
         d="m 1562.69,3971.36 c -54.05,12.19 -103.95,49.92 -137.43,93.48 -28.3,41.49 -32.58,92.36 -36.42,141.01 -2.98,37.49 -7.46,74.91 -9.45,112.45 -0.01,12.22 19.08,12.42 19.04,0 6.72,-66.78 6.67,-135.12 22.59,-200.44 19.22,-62.44 78.38,-105.48 137.7,-126.6 36.64,-7.11 65.61,25.33 88.45,49.41 23.32,28.85 50.24,58.49 57.19,96.05 12.4,71.05 16.86,143.24 17.86,215.22 -0.19,12.2 19.26,12.44 19.04,0.01 -0.57,-37.89 -2.2,-75.69 -5.02,-113.47 -7.27,-80.24 -8.41,-137.51 -65.98,-199.98 -27.31,-31.64 -61.88,-70.61 -107.57,-67.14"
         style="fill:#040606;fill-opacity:1;fill-rule:evenodd;stroke:none"
         transform="matrix(0.13333333,0,0,-0.13333333,0,666.66667)" />
      <path
         id="path6"
         d="m 1389.67,4139.74 c -24.64,39.22 -59.63,84.93 -48.19,133.75 7.09,19.37 30.02,38.89 49.22,22.02 14.19,-5.9 1.15,-25.72 -10.4,-15.95 -7.13,7.46 -13.27,-0.55 -17.74,-6.62 -13.03,-23.49 3.23,-51.33 12.79,-73.38 7.95,-19.54 25.35,-35.64 31.3,-55.29 -0.76,-8.02 -12.35,-11.29 -16.98,-4.53"
         style="fill:#040606;fill-opacity:1;fill-rule:evenodd;stroke:none"
         transform="matrix(0.13333333,0,0,-0.13333333,0,666.66667)" />
      <path
         id="path7"
         d="m 1713.65,4143.89 c -12.3,12.54 14.34,29.41 19.16,41.53 15.49,25.82 40.67,61.13 24.73,91.42 -8.16,4.75 -10.11,-10.53 -18.3,-9.43 -5.19,0 -9.52,4.33 -9.52,9.52 0.91,10.25 11.62,16.99 20.74,19.5 29.44,4.79 35.7,-35.29 28.97,-56.54 -0.82,-15.6 -48.58,-111.02 -65.78,-96"
         style="fill:#040606;fill-opacity:1;fill-rule:evenodd;stroke:none"
         transform="matrix(0.13333333,0,0,-0.13333333,0,666.66667)" />
      <path
         id="path8"
         d="m 1723.82,4340.71 c 0,0.02 0,0.04 0,0.07 -0.05,0.36 -0.08,0.72 -0.06,0.72 6.72,60.5 -21.01,137.17 -95.26,115.31 -4.74,-1.67 -9.22,-3.99 -13.41,-6.77 -10.5,-6.41 -20.31,10.26 -9.62,16.45 33.51,21.28 83.76,16.07 109.61,-15.01 18.51,-21.23 26.04,-49.79 27.8,-77.41 0.59,-10.71 -0.61,-21.39 -0.1,-32.08 0.15,-11.56 -17.67,-12.71 -18.96,-1.22 v -0.06"
         style="fill:#040606;fill-opacity:1;fill-rule:evenodd;stroke:none"
         transform="matrix(0.13333333,0,0,-0.13333333,0,666.66667)" />
      <path
         id="path9"
         d="m 1377.66,4322.08 c -6.21,54.17 9.49,116.34 61.78,142.39 48.47,34.71 113.36,26.87 163.13,-1.32 24.28,-10.42 12.64,-37.7 -6.88,-18.13 -32.99,19.4 -74.17,28.91 -111.93,20.57 -37.2,-15.46 -77.18,-39.66 -83.92,-82.9 -6.42,-21.21 -1.27,-44.75 -5.21,-65.14 -4.65,-6.58 -16.31,-3.64 -16.97,4.53"
         style="fill:#040606;fill-opacity:1;fill-rule:evenodd;stroke:none"
         transform="matrix(0.13333333,0,0,-0.13333333,0,666.66667)" />
      <path
         id="path10"
         d="m 1593.62,4450.01 c -10.22,8.85 3.55,18.04 8.16,25.75 9.65,15.91 18.08,33.31 19.78,52.06 0.32,6.11 0.3,12.24 -0.65,18.29 -1.8,12.18 17.3,14.83 18.87,2.59 2.64,-17.89 0.12,-36.28 -6.65,-53.02 -6.98,-12.89 -20.7,-54.73 -39.51,-45.67"
         style="fill:#040606;fill-opacity:1;fill-rule:evenodd;stroke:none"
         transform="matrix(0.13333333,0,0,-0.13333333,0,666.66667)" />
      <path
         id="path11"
         d="m 1637.37,4472.8 c -11.45,10.83 20.64,25.75 22.39,66.93 1.58,12.19 20.66,9.64 18.87,-2.59 -1.33,-16.31 -18.12,-78.12 -41.26,-64.34"
         style="fill:#040606;fill-opacity:1;fill-rule:evenodd;stroke:none"
         transform="matrix(0.13333333,0,0,-0.13333333,0,666.66667)" />
      <path
         id="path12"
         d="m 1674.59,4464.42 c -6.88,6.92 0.6,14.12 4.87,19.95 5.3,9.83 16.02,30.59 25.78,12.2 0.35,-10.24 -17.83,-44.33 -30.65,-32.15"
         style="fill:#040606;fill-opacity:1;fill-rule:evenodd;stroke:none"
         transform="matrix(0.13333333,0,0,-0.13333333,0,666.66667)" />
      <path
         id="path13"
         d="m 1747.06,4300.07 c 2.97,44.88 6.76,89.78 9.82,134.29 6.67,64.58 8.56,66.6 -26.91,120.62 -21.36,27.68 -57.46,33.82 -87.97,46.16 -63.81,27.03 -132.46,23.22 -184.84,-25.59 -66.11,-54.98 -89.02,-147.29 -74.94,-229.57 -1.08,-12.88 16.01,-50.07 0.93,-53.29 -5.03,-1.38 -10.32,1.66 -11.71,6.65 -34.88,121.46 4.36,275.35 130,325.89 52.45,22.85 110.6,10.38 160.94,-12.13 29.68,-6.4 59.05,-20.66 80,-42.89 9.41,-11.83 14.32,-26.55 24.26,-38.03 19.64,-26.17 11.76,-60.58 9.96,-90.8 -3.69,-46.93 -7.19,-94.9 -10.49,-141.31 0.01,-12.2 -19.08,-12.43 -19.05,0"
         style="fill:#040606;fill-opacity:1;fill-rule:evenodd;stroke:none"
         transform="matrix(0.13333333,0,0,-0.13333333,0,666.66667)" />
      <path
         id="path14"
         d="m 1557.74,4463.41 c -16.57,6.14 13,39.81 10.76,58.09 0.2,4.28 -0.32,8.51 -1.04,12.72 -1.84,12.17 17.24,14.83 18.87,2.58 5.63,-13.19 -9.66,-81.14 -28.59,-73.39"
         style="fill:#040606;fill-opacity:1;fill-rule:evenodd;stroke:none"
         transform="matrix(0.13333333,0,0,-0.13333333,0,666.66667)" />
      <path
         id="path15"
         d="m 1396.01,3886.57 c -15.42,6.66 0.07,26.16 1.43,37.62 13.72,41.56 21.94,85.25 22.44,129.08 -4.06,31.74 23.98,30.83 19.25,8.93 -0.12,-43.47 -6.35,-86.92 -18.77,-128.61 -6.21,-11.19 -8.11,-50.99 -24.35,-47.02"
         style="fill:#040606;fill-opacity:1;fill-rule:evenodd;stroke:none"
         transform="matrix(0.13333333,0,0,-0.13333333,0,666.66667)" />
      <path
         id="path16"
         d="m 1709.78,3932.06 c -9.73,27.79 -14.57,56.87 -18.99,85.89 0.1,14.36 -19.27,64.59 5.93,62.53 4.97,-1.37 8.08,-6.73 6.65,-11.72 1.26,-30.04 8.78,-59.91 13.32,-89.67 2.93,-14.22 6.88,-28.2 11.46,-41.97 3.42,-11.74 -15,-17.06 -18.37,-5.06"
         style="fill:#040606;fill-opacity:1;fill-rule:evenodd;stroke:none"
         transform="matrix(0.13333333,0,0,-0.13333333,0,666.66667)" />
      <path
         id="path17"
         d="m 955.477,3412.71 c -74.856,158.64 -30.778,333.65 133.323,410.75 50.19,24.72 107.38,23.79 159.36,42.78 42.5,15.62 86.35,34.32 123.4,59.89 12.08,7.46 22.6,17.5 35.15,24.07 14.39,5.76 21.68,-17.84 5.05,-18.76 -60.35,-46.04 -130.87,-79.07 -204.72,-96.52 -88.64,-9.63 -173.99,-49.91 -225.583,-124.48 -41.047,-65.72 -54.75,-151.49 -31.348,-225.8 6.192,-22 13.743,-43.57 22.922,-64.51 4.946,-11.14 -12.851,-18.96 -17.554,-7.42"
         style="fill:#040606;fill-opacity:1;fill-rule:evenodd;stroke:none"
         transform="matrix(0.13333333,0,0,-0.13333333,0,666.66667)" />
      <path
         id="path18"
         d="m 2202.74,3506.43 c -5.03,0.69 -8.99,5.61 -8.15,10.73 3.72,19.42 4.81,39.11 4.12,58.86 -0.81,66.23 -12.91,135.91 -55.18,188.93 -77.92,97.97 -140.44,73.81 -244.97,107.11 -35.38,10.8 -73.27,14.15 -107.22,29.03 -25.45,12.83 -48.68,32.88 -71.25,48.95 -6.73,6.58 -20.41,8.14 -21.53,18.7 5.13,23.75 31.99,-4.55 42.56,-10.39 20.3,-15.51 38.57,-30.05 60.83,-41.32 18.81,-8.35 39.6,-10.64 59.36,-16.01 31.33,-7.09 62.09,-16.25 93.03,-24.65 57.12,-8.84 118.86,-15.15 162.43,-57.44 65.9,-51.05 96.42,-133.42 99.98,-214.78 -0.52,-17.12 8.37,-99.41 -14.01,-97.72"
         style="fill:#040606;fill-opacity:1;fill-rule:evenodd;stroke:none"
         transform="matrix(0.13333333,0,0,-0.13333333,0,666.66667)" />
      <path
         id="path19"
         d="m 1006.94,2506.18 c -9.155,31.59 -0.41,67.96 3.57,100.46 7.53,52.16 19.42,103.69 24.58,156.17 11.32,96.8 -1.21,194.03 9.51,290.51 4.58,25.06 26.67,41.6 36.35,64.55 22.61,42.72 26.85,91.39 36.16,138.01 8.67,42.27 29.01,81.21 38.16,123.22 8.76,55.07 4.4,114.46 -18.97,165.54 -4.91,7.03 -5.95,19.49 4.81,21.25 11.17,3.99 17.84,-29.6 22.3,-37.5 16.13,-50.21 19.62,-105.93 9.5,-157.72 -7.95,-34.49 -23.21,-66.75 -32.75,-100.77 -14.72,-59.33 -16.92,-123.28 -50.8,-176.22 -37.37,-43.24 -28.76,-76.11 -29.83,-129.14 -0.25,-65.02 1.11,-130.22 -4.69,-195.06 -4.85,-57.73 -18.26,-114.27 -26.45,-171.57 -4.63,-28.08 -7.23,-56.54 -5.19,-84.99 0.47,-8.07 -10.78,-12.81 -16.26,-6.74"
         style="fill:#040606;fill-opacity:1;fill-rule:evenodd;stroke:none"
         transform="matrix(0.13333333,0,0,-0.13333333,0,666.66667)" />
      <path
         id="path20"
         d="m 905.785,2502.2 c -23.418,62.74 -47.472,125.54 -60.015,191.55 -13.481,85.51 -13.625,173.35 -3.516,259.25 5.664,46.41 -0.133,93.79 10.754,139.71 5.996,30.33 19.629,58.41 27.254,88.24 4.957,27.64 -3.371,55.58 -2.153,83.44 -0.609,61.93 13.649,122.09 31.797,180.87 4.039,15.14 7.403,30.44 10.344,45.82 0.855,4.04 2.285,8.55 5.887,10.98 8.832,6.78 20.547,-5.47 12.965,-13.94 -2.391,-10.78 -4.149,-21.14 -6.789,-31.79 -13.786,-53.65 -32.579,-106.88 -33.958,-162.75 -4.644,-36.45 4.27,-72.64 1.844,-108.87 -11.07,-48.72 -35.035,-95.38 -35.086,-146.38 0.621,-66.27 -11.3,-131.61 -10.73,-197.9 -0.164,-67.18 4.277,-134.82 23.633,-199.49 11.652,-44.9 29.882,-87.68 45.32,-131.33 4.801,-11.05 -12.906,-19.06 -17.551,-7.41"
         style="fill:#040606;fill-opacity:1;fill-rule:evenodd;stroke:none"
         transform="matrix(0.13333333,0,0,-0.13333333,0,666.66667)" />
      <path
         id="path21"
         d="m 1058.88,2193.08 c -15.73,2.18 -31.22,7.24 -44.15,16.65 -9,8.15 -44.507,34.74 -30.546,46.92 16.916,14.75 31.666,-56.14 96.736,-43.54 -19.39,19.27 -38.06,40.85 -45.62,67.7 -9.47,23.19 -6.44,75.53 30.26,55.69 22.37,-22.75 26.63,-63.11 59.07,-76.86 l 0.07,-0.25 c 9.86,5.45 -7.55,32.16 -9.71,41.34 -11.42,26.71 -19.28,54.72 -26.96,82.69 -8.1,30.3 -23.04,59.14 -43.46,82.98 -9.67,13.62 -28.93,22.1 -33.32,38.5 0,5.19 4.33,9.52 9.52,9.52 8.55,-0.63 11.17,-10.88 18.02,-15.06 18.33,-17.06 34.92,-36.18 46.27,-58.64 19.92,-33.29 25.13,-72.26 38.08,-108.33 6.46,-26.5 31.24,-53.75 20.45,-81.54 -21.88,-29.48 -55.35,11.09 -67.61,31.2 -7.23,8.01 -14.85,39.62 -24.43,39.04 -7.92,-32.29 13.75,-64.98 35.68,-87.1 31.91,-25.63 2.05,-47.15 -28.35,-40.91"
         style="fill:#040606;fill-opacity:1;fill-rule:evenodd;stroke:none"
         transform="matrix(0.13333333,0,0,-0.13333333,0,666.66667)" />
      <path
         id="path22"
         d="m 1003.56,2189.3 c -22.654,2.77 -41.72,16.74 -56.458,33.49 -3.368,3.96 -2.243,10.29 1.718,13.35 8.149,6.42 14.957,-3.84 20.125,-8.56 38.975,-43.12 96.935,1.08 99.755,-25.29 0.02,-5.78 -5.24,-10.11 -10.88,-9.53 -17.87,-2.77 -36.18,-6.84 -54.26,-3.46"
         style="fill:#040606;fill-opacity:1;fill-rule:evenodd;stroke:none"
         transform="matrix(0.13333333,0,0,-0.13333333,0,666.66667)" />
      <path
         id="path23"
         d="m 967.934,2190.89 c -13,1.85 -55.348,25.13 -42.868,40.73 3.575,3.57 9.926,3.79 13.469,0 16.309,-21.06 42.785,-27.77 68.075,-21.85 5.19,0 9.52,-4.33 9.52,-9.53 -1.62,-16.43 -36.509,-11.35 -48.196,-9.35"
         style="fill:#040606;fill-opacity:1;fill-rule:evenodd;stroke:none"
         transform="matrix(0.13333333,0,0,-0.13333333,0,666.66667)" />
      <path
         id="path24"
         d="m 953.898,2193.3 c -101.625,29.69 -63.554,224 -52.98,302.97 -0.43,6.68 3.652,13.9 11.18,12.82 15.527,-4.42 4.625,-25.92 4.812,-37.31 -10.875,-72.34 -27.18,-171.97 10.449,-237.53 7.571,-11.3 19.957,-22.58 34.309,-22.16 17.789,-3.36 8.52,-23.7 -7.77,-18.79"
         style="fill:#040606;fill-opacity:1;fill-rule:evenodd;stroke:none"
         transform="matrix(0.13333333,0,0,-0.13333333,0,666.66667)" />
      <path
         id="path25"
         d="m 2098.29,3093.8 c -37.65,42.35 -49.55,100.79 -67.69,152.98 -38.37,84.51 -73.1,174.19 -80.33,267.41 1.65,12.09 20.65,9.72 18.87,-2.58 9.62,-86.26 37.8,-169.79 75.33,-247.79 15.77,-43.23 26.63,-88.31 48.15,-129.33 5.05,-9.94 11.24,-19.32 19.14,-27.22 8.73,-8.54 -4.81,-22.36 -13.47,-13.47"
         style="fill:#040606;fill-opacity:1;fill-rule:evenodd;stroke:none"
         transform="matrix(0.13333333,0,0,-0.13333333,0,666.66667)" />
      <path
         id="path26"
         d="m 2194.18,3480.2 c -18.03,3.64 1.32,38.51 0.96,51.56 3,11.92 21.81,6.8 18.37,-5.06 -5.4,-12.47 -2.05,-46.21 -19.33,-46.5"
         style="fill:#040606;fill-opacity:1;fill-rule:evenodd;stroke:none"
         transform="matrix(0.13333333,0,0,-0.13333333,0,666.66667)" />
      <path
         id="path27"
         d="m 2216.95,2517.41 c -21.36,3.77 23.22,82.48 26.18,98.1 33.98,94.47 72.69,191.39 66.21,293.56 -1.82,66.68 -6.32,133.45 -17.37,199.26 -5.1,35.74 -19.93,70.02 -18.51,106.5 1.06,92.33 -4.98,188.12 -45.93,272.26 -3.25,15.42 -44.45,52.86 -17.56,58.6 13.53,-3.15 31.94,-47.21 39.68,-60.64 25.4,-58.17 37.67,-121.71 41.19,-184.9 3.96,-49.13 -4.1,-99.37 11.27,-147.03 16.8,-70.95 21.89,-144.08 25.5,-216.71 3.92,-64.63 -0.29,-129.28 -20.83,-191.05 -16.67,-58.95 -37.34,-116.79 -60.73,-173.4 -8.61,-11.96 -12.86,-58.82 -29.1,-54.55"
         style="fill:#040606;fill-opacity:1;fill-rule:evenodd;stroke:none"
         transform="matrix(0.13333333,0,0,-0.13333333,0,666.66667)" />
      <path
         id="path28"
         d="m 1976.49,2301.05 c -23.04,24.62 9.85,70.46 15.87,98.43 6.3,17.84 11.28,36.19 19.07,53.46 26.11,53.31 86.56,85.82 97.3,147.69 5.26,50.43 -8.77,100.87 -9.83,151.37 -8.02,105.91 -13.66,213.17 3.17,318.53 5.09,15.46 11.55,92.02 34.12,78.04 5.87,-4.67 3.25,-11.07 0.64,-16.69 -5.77,-16.95 -9.97,-34.35 -13.59,-51.88 -20.42,-110.41 -12.92,-223.94 -4.84,-335.06 2.33,-67.26 28.97,-141.11 -12.84,-201.52 -20.62,-34.61 -55.64,-58.57 -74.65,-93.83 -15.06,-42.7 -36.96,-88.14 -43.26,-132.53 29.02,12.48 48.97,45.73 58.21,75.17 3.15,11.87 21.75,6.83 18.37,-5.06 -8.7,-31.12 -49.06,-101.39 -87.74,-86.12"
         style="fill:#040606;fill-opacity:1;fill-rule:evenodd;stroke:none"
         transform="matrix(0.13333333,0,0,-0.13333333,0,666.66667)" />
      <path
         id="path29"
         d="m 2024.4,2241.9 c -37.45,15.54 10.21,48.65 16.72,70.04 6.95,20.63 3.48,42.76 5.07,64.09 -0.29,6.65 2.62,14.92 10.48,14.8 6.64,0.12 11.56,-7.29 8.72,-13.31 -0.78,-9.99 -0.61,-20.02 -0.75,-30.02 2.96,-37.92 -14.16,-58.69 -34.86,-87.29 32.14,-3.27 56.13,25.92 73.57,49.17 8.58,8.28 11.67,34.17 27.18,27.48 16.47,-9.63 -22.49,-52.52 -30.83,-62.06 -19.3,-20.14 -45.95,-39.27 -75.3,-32.9"
         style="fill:#040606;fill-opacity:1;fill-rule:evenodd;stroke:none"
         transform="matrix(0.13333333,0,0,-0.13333333,0,666.66667)" />
      <path
         id="path30"
         d="m 2072.84,2236.56 c -11.28,0.06 -37.22,3.18 -23.3,19.35 2.76,2.14 6.02,2.27 9.3,1.61 20.67,-5.41 41.85,0.91 58.87,13.1 10.75,7.5 19.46,17.46 27.03,28.09 2.48,4.97 8.8,7.52 13.73,4.49 4.3,-2.52 6.28,-8.69 3.42,-13.03 -19.4,-29.71 -52.22,-54.69 -89.05,-53.61"
         style="fill:#040606;fill-opacity:1;fill-rule:evenodd;stroke:none"
         transform="matrix(0.13333333,0,0,-0.13333333,0,666.66667)" />
      <path
         id="path31"
         d="m 2110.25,2235.52 c -7.68,2.76 -7.53,14.73 0,17.55 10.16,0.7 19.02,5.42 27.53,10.99 17.76,12.39 31.61,29.92 42.14,48.7 6.03,10.7 22.7,1.04 16.44,-9.62 -17.73,-29.7 -48.22,-69.37 -86.11,-67.62"
         style="fill:#040606;fill-opacity:1;fill-rule:evenodd;stroke:none"
         transform="matrix(0.13333333,0,0,-0.13333333,0,666.66667)" />
      <path
         id="path32"
         d="m 2150.09,2250.44 c -7.12,3.81 -5.72,15.62 2.28,17.41 84.04,42.06 59.55,152.74 60.36,229.86 1.71,11.83 -8.05,36.78 8.82,39.16 5.14,0 9.59,-4.34 9.53,-9.53 -2.73,-81.87 23.33,-178.2 -32.2,-247.65 -12.21,-11.46 -30.62,-33.67 -48.79,-29.25"
         style="fill:#040606;fill-opacity:1;fill-rule:evenodd;stroke:none"
         transform="matrix(0.13333333,0,0,-0.13333333,0,666.66667)" />
      <path
         id="path33"
         d="m 1216.01,2828.81 c -8.16,29.47 -0.32,59.76 6.78,88.28 -17.78,57.16 1.29,116.43 3.64,174.47 5.73,117.03 -18.71,97.58 -67.44,183.07 -6.97,14.35 -17.57,27.87 -20.77,43.6 -0.12,11.54 17.85,12.74 18.99,1.05 17.4,-40.35 43.31,-75.16 70.46,-109.16 27.43,-52.89 18.38,-115.65 12.73,-172.69 -2.74,-25.78 -7.29,-51.61 -6.14,-77.62 -0.2,-20.51 13.23,-40.53 3.84,-60.33 -5.92,-21.15 -9.1,-44.03 -3.72,-65.61 3.32,-11.7 -15.16,-17.1 -18.37,-5.06"
         style="fill:#040606;fill-opacity:1;fill-rule:evenodd;stroke:none"
         transform="matrix(0.13333333,0,0,-0.13333333,0,666.66667)" />
      <path
         id="path34"
         d="m 1880.64,2831.8 c 1.27,20.9 -1.32,41.91 -7.61,61.88 -4.12,13.22 -10.92,27.73 -3.29,41 9.07,17.8 13.3,39.51 10.79,58.96 -3.38,38.45 -9.99,76.84 -6.81,115.57 2.64,104.41 82.51,133.8 113.53,227.62 -0.24,8.74 11.9,12.99 17.09,5.8 6.4,-15.61 -10.22,-33.74 -15.37,-48.42 -16.78,-37.05 -45.25,-66.38 -69.07,-98.72 -44.57,-65.02 -22.49,-146.14 -19.78,-218.96 1.68,-20.94 -11.78,-39.22 -14.56,-58.54 4.84,-15.62 28.62,-93.57 4.6,-95.72 -5.01,0 -9.76,4.34 -9.52,9.53"
         style="fill:#040606;fill-opacity:1;fill-rule:evenodd;stroke:none"
         transform="matrix(0.13333333,0,0,-0.13333333,0,666.66667)" />
      <path
         id="path35"
         d="m 1231.93,2816 c 1.03,0.33 1.99,0.84 2.86,1.53 -0.85,-0.64 -1.82,-1.14 -2.86,-1.53 z m -104.9,-509.57 c -17.36,1.61 -1.5,53.93 -2.41,67.18 7.6,68.8 21.1,136.75 37.15,204.03 11.22,50.06 26.85,99.36 37.19,149.56 6.97,20.73 11.95,100.51 27.52,107.04 22.58,1.9 5.03,-26.76 4.92,-38.53 -12.54,-77.65 -34.28,-153.11 -52.72,-229.44 -15.32,-64.48 -27.96,-129.62 -35.22,-195.54 -2.29,-18.68 -4.53,-37.36 -5.7,-56.16 -0.36,-5.17 -5.81,-8.8 -10.73,-8.14 v 0"
         style="fill:#040606;fill-opacity:1;fill-rule:evenodd;stroke:none"
         transform="matrix(0.13333333,0,0,-0.13333333,0,666.66667)" />
      <path
         id="path36"
         d="m 1283.88,1712.33 c -159.61,128.87 -177.08,323.13 -171.9,514.42 1.3,10.7 -3.42,33.31 13.44,30.99 13.24,-4.22 3.07,-30.2 5.37,-41.41 -3.35,-161.34 9.5,-342.73 134,-460.34 10.87,-13.13 26.86,-20.85 34.35,-34.84 1.43,-7.97 -9,-14.27 -15.26,-8.82"
         style="fill:#040606;fill-opacity:1;fill-rule:evenodd;stroke:none"
         transform="matrix(0.13333333,0,0,-0.13333333,0,666.66667)" />
      <path
         id="path37"
         d="m 1245.08,1539.54 c -39.71,43.12 -41.02,104.75 -38.34,160.12 3.62,30.71 -0.32,61.46 8.21,90.18 3.13,4.05 9.32,4.98 13.36,1.73 6.37,-4.68 2.14,-11.7 1.91,-17.88 -2.3,-60.81 -13.19,-122.83 5.04,-182.02 5.43,-15.05 14.85,-28.19 24.9,-40.49 7.61,-9.57 -7.53,-21.51 -15.08,-11.64"
         style="fill:#040606;fill-opacity:1;fill-rule:evenodd;stroke:none"
         transform="matrix(0.13333333,0,0,-0.13333333,0,666.66667)" />
      <path
         id="path38"
         d="m 966.77,529.719 c -23.711,23.543 74.61,72.941 91.23,85.761 62.79,43.692 144.67,94.79 160.18,175 9.55,52.7 4.3,106.579 4.82,159.821 -0.14,64.689 -2.48,129.329 -4.12,193.999 -5.14,140.9 1.28,283.66 6.32,423.48 27.78,18.82 15.98,-43.63 17.38,-56.61 -3,-64.82 -4.86,-129.69 -6.31,-194.56 -1.92,-130.18 5.85,-260.25 6.07,-390.419 -0.48,-61.211 6.47,-125.722 -19.23,-183.14 -30.03,-51.242 -77.77,-90.59 -126.06,-124.082 -35.41,-27.34 -78.75,-44.5 -110.105,-76.637 -5.558,-5.973 -10.257,-18.051 -20.175,-12.613"
         style="fill:#040606;fill-opacity:1;fill-rule:evenodd;stroke:none"
         transform="matrix(0.13333333,0,0,-0.13333333,0,666.66667)" />
      <path
         id="path39"
         d="m 1042.7,458.148 c -39.37,4.141 -34.02,49.551 -6.57,66.602 5.01,3.66 10.58,6.582 16.16,9.238 11.27,4.953 18.8,-12.758 7.42,-17.547 -12.62,-5.859 -31.04,-18.55 -25.59,-34.5 -0.31,0.25 -0.45,0.981 -0.69,1.008 35.24,-21.75 78.53,8.371 112.28,21.821 29.05,12.05 57.38,25.589 86.18,38.089 42.5,22.532 141.89,6.082 155.96,53.09 11.53,31.891 1.84,65.711 0.04,98.391 -2.93,74.019 0.63,148.859 11.94,222.101 21.7,114.039 64.26,224.479 69.91,341.319 13.29,128.58 -16.96,254.77 -7.2,382.19 17.03,64.48 44.91,125.61 56.67,191.56 23.63,127.5 35.37,256.94 45.55,386.1 1.81,29.27 1.53,58.63 -0.19,87.9 -0.03,9.22 -5.75,22.3 6.67,24.98 16.62,0.12 10.64,-23.73 12.9,-34.65 2.67,-46.99 -1.07,-93.91 -5.17,-140.7 -8.63,-94.24 -17.88,-188.48 -32.93,-281.96 -7.34,-46.93 -18.16,-93.33 -32.81,-138.53 -19.98,-56.31 -42.57,-111.17 -33.65,-171.87 7.14,-104.14 17.02,-208.06 8.7,-312.38 -6.17,-106.51 -41.92,-209.48 -65.01,-312.63 -15.82,-79.372 -19.07,-161.2 -16.43,-241.93 2.36,-35.18 11.86,-71.668 -0.94,-105.899 -23.96,-64.25 -112.09,-39.789 -163.86,-63.64 -33.77,-14.461 -67.15,-29.879 -100.88,-44.52 -30.58,-14.222 -63.89,-30.562 -98.46,-23.633"
         style="fill:#040606;fill-opacity:1;fill-rule:evenodd;stroke:none"
         transform="matrix(0.13333333,0,0,-0.13333333,0,666.66667)" />
      <path
         id="path40"
         d="m 1003.52,486.41 c -40.59,9.731 -2.4,73.879 15.73,55.949 10.68,-14.05 -25.59,-23.929 -12.15,-37.25 8,-0.367 18.42,9.981 23.56,-1.668 4.4,-13.793 -16.96,-19.062 -27.14,-17.031"
         style="fill:#040606;fill-opacity:1;fill-rule:evenodd;stroke:none"
         transform="matrix(0.13333333,0,0,-0.13333333,0,666.66667)" />
      <path
         id="path41"
         d="m 976.387,501.648 c -13.821,3.493 -15.574,20.872 -9.887,31.852 2.082,4.742 7.652,7.109 12.48,5.07 8.473,-3.531 5.024,-12.031 3.399,-18.621 25.831,3.903 19.131,-25.34 -5.992,-18.301"
         style="fill:#040606;fill-opacity:1;fill-rule:evenodd;stroke:none"
         transform="matrix(0.13333333,0,0,-0.13333333,0,666.66667)" />
      <path
         id="path42"
         d="m 950.695,528.922 c 0.004,8.379 4.981,21.308 15.465,17.18 7.586,-3.153 5.883,-11.09 3.582,-17.18 0.106,-12.332 -19.152,-12.332 -19.047,0"
         style="fill:#040606;fill-opacity:1;fill-rule:evenodd;stroke:none"
         transform="matrix(0.13333333,0,0,-0.13333333,0,666.66667)" />
      <path
         id="path43"
         d="m 2007.97,2457.16 c -29.56,126.97 -91.68,243.4 -126.65,368.77 -6.52,15.8 16.65,19.74 19.28,3.5 15.4,-46.36 27.59,-93.79 47.06,-138.77 4.67,-14.92 119.41,-284.12 60.31,-233.5"
         style="fill:#040606;fill-opacity:1;fill-rule:evenodd;stroke:none"
         transform="matrix(0.13333333,0,0,-0.13333333,0,666.66667)" />
      <path
         id="path44"
         d="m 1904.26,1673.35 c -8.91,15.35 22.74,25.43 30.74,35.87 22.72,19.32 48.64,37.18 61.6,64.99 60.1,131.16 59.08,302.03 48.45,444.1 -0.65,10.44 -3.28,21.07 -1.6,31.47 2.46,10.48 19.11,8.94 18.92,-2.22 -1.16,-11.73 1.67,-23.61 2.46,-35.36 9.21,-133.55 13.29,-382.1 -79.38,-484.71 -13.32,-9 -70.72,-70.78 -81.19,-54.14"
         style="fill:#040606;fill-opacity:1;fill-rule:evenodd;stroke:none"
         transform="matrix(0.13333333,0,0,-0.13333333,0,666.66667)" />
      <path
         id="path45"
         d="m 1992.53,1552.33 c -15.24,6.57 -0.04,25.97 0.06,37.72 4.93,24.66 7.67,49.85 6.51,75.01 -1.59,22.28 -4.64,44.42 -7.63,66.55 -0.72,9.49 -8.06,26.78 6.84,28.01 16.34,2.89 16.29,-77.29 19.66,-91.79 1.04,-18.18 -1.66,-119.55 -25.44,-115.5"
         style="fill:#040606;fill-opacity:1;fill-rule:evenodd;stroke:none"
         transform="matrix(0.13333333,0,0,-0.13333333,0,666.66667)" />
      <path
         id="path46"
         d="m 2206.12,516.059 c -62.9,79.773 -173.2,158.23 -203.96,254.98 -10.67,40.93 -7.77,83.563 -6.47,125.383 0.56,95.359 17.13,190.078 24.99,284.718 7.48,93.9 -2,187.92 -10.69,281.33 -3.4,35.6 -11.13,68.07 -18.9,102.05 21.48,46.83 34.57,-80.05 36.85,-91.61 12.87,-121.16 21.83,-243.65 4.79,-364.87 -9.61,-66.75 -15.69,-133.892 -17.63,-201.298 -4.62,-72.152 -6.41,-150.89 48.29,-205.941 33.85,-44.391 75.51,-81.84 112.7,-123.289 8.2,-13.723 59.09,-50.633 43.39,-63.172 -4.17,-3.238 -10.01,-2.281 -13.36,1.719"
         style="fill:#040606;fill-opacity:1;fill-rule:evenodd;stroke:none"
         transform="matrix(0.13333333,0,0,-0.13333333,0,666.66667)" />
      <path
         id="path47"
         d="m 1769.6,1577.3 c -114.21,225.06 -140.74,481.72 -199.85,724.07 -2.83,6.91 -0.58,16.66 8.3,16.65 14.37,-2.19 10.49,-23.3 15.59,-33.78 39.94,-177.32 68.48,-357.84 124.91,-530.97 11.15,-34.52 22.44,-69.01 36.98,-102.29 9.72,-22.57 18.35,-43.72 30.52,-64.07 6.25,-10.31 -10.17,-20.49 -16.45,-9.61"
         style="fill:#040606;fill-opacity:1;fill-rule:evenodd;stroke:none"
         transform="matrix(0.13333333,0,0,-0.13333333,0,666.66667)" />
      <path
         id="path48"
         d="m 1785.45,1580.43 c 0.54,0.45 1.28,1.15 1.6,1.59 0.18,0.26 0.36,0.53 0.54,0.79 0.06,0.12 0.12,0.23 0.17,0.34 -0.59,-1.01 -1.36,-1.93 -2.31,-2.72 z M 2159.18,416.199 c -60.13,13.262 -110.11,51.762 -164.02,79.492 -42.78,27.75 -108.84,37.141 -123.33,92.848 -10.22,44.973 -2.84,91.981 -7.19,137.68 -3.14,47.691 -10.25,94.961 -16.39,142.32 -10.89,74.832 -21.4,150.191 -42.52,222.961 -13.94,47.26 -29.35,94.19 -39.99,142.34 -28.25,116.68 -16.73,237.6 3.85,354.46 1.23,8.13 12.05,12.88 17.59,5.49 1.17,-36.45 -10.81,-75.64 -14.38,-113.01 -5.87,-46.92 -6.14,-96.7 -3.03,-143.4 4.6,-101.31 44.85,-195.62 67.91,-293.25 28.32,-141.22 49.25,-284.579 48.81,-428.841 -1.24,-58.617 62.11,-71.109 102.93,-95.238 49.92,-24.332 95.41,-57.969 147.51,-77.68 63.35,-27.242 44.06,21.051 9.35,46.168 -9.96,7.57 1.99,22.543 11.63,15.082 34.69,-19.281 67.56,-96.98 1.27,-87.422 v 0"
         style="fill:#040606;fill-opacity:1;fill-rule:evenodd;stroke:none"
         transform="matrix(0.13333333,0,0,-0.13333333,0,666.66667)" />
      <path
         id="path49"
         d="m 2193.39,434.109 c -15.23,0.922 -11.62,25.973 3.36,19.793 15.81,15.868 -4.72,40.957 -20.25,49.137 -10.71,6.063 -1.02,22.731 9.61,16.441 7.42,-4.031 13.63,-9.718 19.54,-15.679 21.1,-18.481 23.38,-68.649 -12.26,-69.692"
         style="fill:#040606;fill-opacity:1;fill-rule:evenodd;stroke:none"
         transform="matrix(0.13333333,0,0,-0.13333333,0,666.66667)" />
      <path
         id="path50"
         d="m 2217.99,454.57 c -17.95,5.891 -1.19,17.551 0.33,27.809 5.4,13.5 -16.19,25.672 -4.92,36.75 28.51,11.383 33.03,-64.367 4.59,-64.559"
         style="fill:#040606;fill-opacity:1;fill-rule:evenodd;stroke:none"
         transform="matrix(0.13333333,0,0,-0.13333333,0,666.66667)" />
      <path
         id="path51"
         d="m 2233.44,476.859 c -11.49,18.633 15.33,15.692 -25.56,50.59 -9.77,7.492 1.98,22.77 11.64,15.082 8.03,-6.801 15.55,-14.191 21.98,-22.531 11.94,-10.719 16.44,-52.141 -8.06,-43.141"
         style="fill:#040606;fill-opacity:1;fill-rule:evenodd;stroke:none"
         transform="matrix(0.13333333,0,0,-0.13333333,0,666.66667)" />
      <path
         id="path52"
         d="m 1444.2,4273.84 c -13.85,13.46 21.12,31.37 32.58,32.13 11.41,4 49.97,-8.65 39.83,-24.08 -9.37,-7.58 -16.11,10.01 -26.57,9.71 -31.16,5.31 -34.81,-24.22 -45.84,-17.76"
         style="fill:#040606;fill-opacity:1;fill-rule:evenodd;stroke:none"
         transform="matrix(0.13333333,0,0,-0.13333333,0,666.66667)" />
      <path
         id="path53"
         d="m 1474.8,4272.73 c -11.05,2.34 -14.4,25.62 0.06,23.71 16.78,14.52 29.03,-30.75 -0.06,-23.71"
         style="fill:#040606;fill-opacity:1;fill-rule:evenodd;stroke:none"
         transform="matrix(0.13333333,0,0,-0.13333333,0,666.66667)" />
      <path
         id="path54"
         d="m 1618.18,4284.67 c 2.26,14.79 39.8,21.59 52.06,17.16 9.17,-2.19 31.17,-18.19 12.54,-23.2 -7.73,1.62 -12.56,10.69 -21.33,10.47 -10.47,-0.04 -20.97,-3.06 -30.07,-8.19 -3.43,-6.02 -13.4,-3.25 -13.2,3.76"
         style="fill:#040606;fill-opacity:1;fill-rule:evenodd;stroke:none"
         transform="matrix(0.13333333,0,0,-0.13333333,0,666.66667)" />
      <path
         id="path55"
         d="m 1649.8,4265.65 c -14.15,-0.61 -17.43,33.54 -1.5,30.08 20.83,8.53 21.7,-32.05 1.5,-30.08"
         style="fill:#040606;fill-opacity:1;fill-rule:evenodd;stroke:none"
         transform="matrix(0.13333333,0,0,-0.13333333,0,666.66667)" />
      <path
         id="path56"
         d="m 1425.09,4307.19 c -11.09,18.44 42.79,31.76 55.62,30.77 7.3,0.17 14.54,-1.02 21.62,-2.66 10.6,-3.87 3.35,-17.82 -6.5,-13.17 -18.56,3.87 -38.84,-0.07 -54.83,-10.17 -4.69,-3.35 -10.09,-10.43 -15.91,-4.77"
         style="fill:#040606;fill-opacity:1;fill-rule:evenodd;stroke:none"
         transform="matrix(0.13333333,0,0,-0.13333333,0,666.66667)" />
      <path
         id="path57"
         d="m 1615.25,4319.72 c -7.01,20.07 69.69,17.95 79.77,10.08 8.51,-3.53 2.95,-16.82 -5.57,-13.17 -16.66,6.99 -35.66,4.99 -53.12,2.56 -6.95,-0.41 -16.72,-8.35 -21.08,0.53"
         style="fill:#040606;fill-opacity:1;fill-rule:evenodd;stroke:none"
         transform="matrix(0.13333333,0,0,-0.13333333,0,666.66667)" />
      <path
         id="path58"
         d="m 1556.64,4169.03 c -7.84,10.12 -17.51,-2.4 -27.09,1.19 -10.34,2.21 -18.74,22.52 -5.81,26.28 3.86,0.5 7.52,-2.24 8.05,-6.11 -0.96,-17.1 13.94,9.37 35.29,-10.97 19.71,7.83 17.08,4.07 35.96,0.78 3.4,2.14 3.51,7.38 3.07,10.99 -1.37,9.14 12.98,11.12 14.16,1.94 2.51,-25.52 -14.86,-32.19 -36.2,-23.16 -8.86,-2.82 -18.92,-8.56 -27.43,-0.94"
         style="fill:#040606;fill-opacity:1;fill-rule:evenodd;stroke:none"
         transform="matrix(0.13333333,0,0,-0.13333333,0,666.66667)" />
      <path
         id="path59"
         d="m 1593.62,4235.72 c -3.42,15.74 -4.45,32.17 -3.06,48.22 0.55,3.86 4.19,6.63 8.06,6.11 11.41,-2.88 3.37,-21.09 6.01,-29.92 -1.5,-9.04 8.66,-24.8 -2.22,-29.4 -3.64,-1 -7.86,1.2 -8.79,4.99"
         style="fill:#040606;fill-opacity:1;fill-rule:evenodd;stroke:none"
         transform="matrix(0.13333333,0,0,-0.13333333,0,666.66667)" />
      <path
         id="path60"
         d="m 1534.55,4102.59 c 0.83,1.03 1.37,2.37 1.48,3.66 -0.16,-1.36 -0.69,-2.62 -1.48,-3.66 z m -12.76,4.36 c 1.73,13.8 29.52,6.29 39.78,8.3 13.11,-0.05 26.22,-0.49 39.34,-0.28 5.33,0.7 12.45,-0.24 12.46,-7.04 2.4,-13.7 -51.59,-4.7 -62.37,-7.02 -8.69,2.04 -27.95,-6.71 -29.21,6.04 v 0"
         style="fill:#040606;fill-opacity:1;fill-rule:evenodd;stroke:none"
         transform="matrix(0.13333333,0,0,-0.13333333,0,666.66667)" />
      <path
         id="path61"
         d="m 1560.59,4072.29 c -7.01,0.82 -20.96,1.42 -17.49,11.93 4.96,9.75 21.93,-1.89 32.25,3.74 3.76,0.97 7.74,-1.19 8.78,-4.99 1.81,-11.92 -15.64,-10.77 -23.54,-10.68"
         style="fill:#040606;fill-opacity:1;fill-rule:evenodd;stroke:none"
         transform="matrix(0.13333333,0,0,-0.13333333,0,666.66667)" />
      <path
         id="path62"
         d="m 1516.03,3910.58 c -6,8.67 -40.94,36.48 -19.14,42.37 7.21,-0.51 13.74,-17.74 20.64,-22.95 4.02,-5.6 15.28,-11.86 8.61,-19.42 -2.72,-2.71 -7.4,-2.79 -10.11,0"
         style="fill:#040606;fill-opacity:1;fill-rule:evenodd;stroke:none"
         transform="matrix(0.13333333,0,0,-0.13333333,0,666.66667)" />
      <path
         id="path63"
         d="m 1574.29,3873.3 c -9.59,9.02 13.29,25.19 16.81,34.74 8.52,13.28 16.42,27.28 19.46,42.91 0.83,3.81 5.19,5.98 8.79,4.99 7.81,-2.34 4.56,-11.09 3.05,-16.76 -2.89,-11.48 -34.88,-75.78 -48.11,-65.88"
         style="fill:#040606;fill-opacity:1;fill-rule:evenodd;stroke:none"
         transform="matrix(0.13333333,0,0,-0.13333333,0,666.66667)" />
      <path
         id="path64"
         d="m 1605.11,3807.77 c 17.49,58.9 124.01,61.56 173.6,53.29 4.45,-4.14 1.13,-12.53 -5.05,-12.19 -51.03,0.3 -124.02,8.58 -154.29,-41.72 -0.6,-8.8 -14.39,-8.28 -14.26,0.62"
         style="fill:#040606;fill-opacity:1;fill-rule:evenodd;stroke:none"
         transform="matrix(0.13333333,0,0,-0.13333333,0,666.66667)" />
      <path
         id="path65"
         d="m 1516.46,3809.25 c -17.71,17.92 -47.47,16.4 -71.06,17.85 -19.95,0.63 -39.73,-2.16 -59.37,-5.36 -9.09,-1.34 -11.14,12.97 -1.93,14.16 45.26,6.07 100.36,14.14 139.84,-13.57 15.01,-11.3 -0.04,-27.92 -7.48,-13.08"
         style="fill:#040606;fill-opacity:1;fill-rule:evenodd;stroke:none"
         transform="matrix(0.13333333,0,0,-0.13333333,0,666.66667)" />
      <path
         id="path66"
         d="m 1352.73,3443.49 c -58.81,-0.57 -115.95,16.28 -163.03,51.92 -8.21,5.91 -49.51,31.93 -22.26,35.57 9.38,-6.91 17.42,-15.59 27.51,-21.91 40.73,-30.28 88.53,-49.38 139.4,-50.53 77.88,-7.32 153.19,11.7 206.21,72.09 2.76,2.75 7.35,2.75 10.11,0 9.53,-10.69 -24.5,-30.57 -31.17,-38.57 -45.84,-39.29 -107.88,-51.09 -166.77,-48.57"
         style="fill:#040606;fill-opacity:1;fill-rule:evenodd;stroke:none"
         transform="matrix(0.13333333,0,0,-0.13333333,0,666.66667)" />
      <path
         id="path67"
         d="m 1561.11,3557.73 c 2.68,10.46 -4.08,50.73 12.01,47.9 3.87,-1.06 6.15,-5.32 4.89,-9.14 -1.82,-12.81 -1.84,-25.86 -2.61,-38.77 0.02,-9.23 -14.42,-9.25 -14.29,0.01"
         style="fill:#040606;fill-opacity:1;fill-rule:evenodd;stroke:none"
         transform="matrix(0.13333333,0,0,-0.13333333,0,666.66667)" />
      <path
         id="path68"
         d="m 1779,3466.27 c -51.97,5.36 -105.98,11.18 -150.57,40.85 -7.39,6.12 -29.41,14.23 -19.53,25.82 4.06,3.19 8.75,0.77 11.49,-2.77 10.58,-8.44 22.33,-15.37 34.41,-21.43 39.5,-20.76 84.9,-23.35 128.43,-28.48 58.59,-2.23 124.36,14.54 161.81,62.49 12.93,17.95 15.23,41.23 23.62,60.54 18.83,7.47 8.4,-19.93 6,-28.6 -21.43,-82.77 -118.69,-113.1 -195.66,-108.42"
         style="fill:#040606;fill-opacity:1;fill-rule:evenodd;stroke:none"
         transform="matrix(0.13333333,0,0,-0.13333333,0,666.66667)" />
      <path
         id="path69"
         d="m 1819.55,3504.29 c -11.18,-2.15 -18.26,13.5 -5.11,15.57 7.07,-3.39 21.13,2.81 22.1,-8.5 -0.3,-8.91 -10.78,-7.18 -16.99,-7.07"
         style="fill:#040606;fill-opacity:1;fill-rule:evenodd;stroke:none"
         transform="matrix(0.13333333,0,0,-0.13333333,0,666.66667)" />
      <path
         id="path70"
         d="m 1311.24,3489.07 c -8.72,0.89 -17.93,0.64 -26.21,3.78 -3.55,1.58 -5.34,5.71 -3.8,9.35 5.12,9.32 20.24,-0.36 28.97,1.22 9.85,1.08 10.96,-14.38 1.04,-14.35"
         style="fill:#040606;fill-opacity:1;fill-rule:evenodd;stroke:none"
         transform="matrix(0.13333333,0,0,-0.13333333,0,666.66667)" />
      <path
         id="path71"
         d="m 1556.94,3267.57 c 0.02,43.21 0.31,86.43 -0.37,129.64 1.98,10.62 -6.53,42.6 7.27,44.25 3.74,0 7.35,-3.25 7.14,-7.14 -1.05,-30.25 0.62,-60.56 0.31,-90.82 0.05,-25.31 -0.05,-50.62 -0.06,-75.92 0.06,-9.2 -14.38,-9.29 -14.29,-0.01"
         style="fill:#040606;fill-opacity:1;fill-rule:evenodd;stroke:none"
         transform="matrix(0.13333333,0,0,-0.13333333,0,666.66667)" />
      <path
         id="path72"
         d="m 1543.71,3072.62 c 1.72,33.13 5.21,66.03 7.5,99.11 2.87,11.5 -2.58,56.8 15.41,52.65 6.35,-2.7 3.87,-9.35 2.4,-14.36 -4.54,-38.23 -5.93,-76.69 -9.61,-115 -0.61,-7.52 -1.03,-14.88 -1.42,-22.4 0.01,-9.21 -14.43,-9.26 -14.28,0"
         style="fill:#040606;fill-opacity:1;fill-rule:evenodd;stroke:none"
         transform="matrix(0.13333333,0,0,-0.13333333,0,666.66667)" />
      <path
         id="path73"
         d="m 1548.76,2975.09 c -11.92,6.64 -7.18,25.41 -7.24,36.92 1.12,8.69 14.54,7.57 14.24,-1.14 11.67,-4.13 8.37,-39.47 -7,-35.78"
         style="fill:#040606;fill-opacity:1;fill-rule:evenodd;stroke:none"
         transform="matrix(0.13333333,0,0,-0.13333333,0,666.66667)" />
      <path
         id="path74"
         d="m 1378.33,3162.87 c -25.15,46.5 -41.91,99.5 -28.75,152.35 1.07,5.76 1.21,14.84 9.38,13.88 7.96,-1.28 6.18,-10.12 4.77,-15.82 -7.34,-33.09 -5.52,-67.63 7.23,-99.17 5.61,-15.77 13.29,-30.62 20.53,-45.67 3.69,-8.38 -9.48,-14.18 -13.16,-5.57"
         style="fill:#040606;fill-opacity:1;fill-rule:evenodd;stroke:none"
         transform="matrix(0.13333333,0,0,-0.13333333,0,666.66667)" />
      <path
         id="path75"
         d="m 1366.79,2999.62 c -15.75,44.55 -10.54,107.59 16.26,146.86 9.42,7.25 17.1,-6.41 7.74,-12.67 -15.37,-29.65 -19.59,-64.28 -17.76,-97.3 0.7,-10.73 2.56,-21.45 6.93,-31.33 3.65,-8.43 -9.6,-14.17 -13.17,-5.56"
         style="fill:#040606;fill-opacity:1;fill-rule:evenodd;stroke:none"
         transform="matrix(0.13333333,0,0,-0.13333333,0,666.66667)" />
      <path
         id="path76"
         d="m 1370.7,2866.88 c -6.16,14.24 -9.33,29.64 -10.49,45.07 -0.12,12.44 0.31,69.77 21.82,58.47 2.65,-2.66 2.87,-7.48 -0.01,-10.1 -7.6,-13.77 -7.08,-31.25 -7.63,-46.68 1.06,-14.1 3.85,-28.17 9.47,-41.2 3.66,-8.44 -9.61,-14.15 -13.16,-5.56"
         style="fill:#040606;fill-opacity:1;fill-rule:evenodd;stroke:none"
         transform="matrix(0.13333333,0,0,-0.13333333,0,666.66667)" />
      <path
         id="path77"
         d="m 1723.09,2888.72 c -10.79,6.4 2.75,19.2 3.87,27.98 3.77,11.31 5.99,21.13 6.93,32.58 1.35,21.63 -2.6,43.59 2.01,64.98 5.67,23.86 15.73,47.37 13.55,72.36 -3.21,29.14 -11.14,58.11 -8.04,87.68 3.62,24 13.37,46.88 14.42,71.38 1.61,24.85 0.26,49.81 -0.59,74.67 -0.14,3.89 3.35,7.14 7.14,7.14 13.05,0.78 6.18,-41.62 8.39,-51.54 0.22,-19.66 -0.21,-39.55 -4.72,-58.77 -4.97,-22.74 -13.6,-44.87 -10.61,-68.57 8.16,-59.2 14.45,-78.41 -5.66,-137.67 -5.12,-32.91 3.94,-67.36 -9.42,-99.13 -4.17,-7.74 -5.34,-26.03 -17.27,-23.09"
         style="fill:#040606;fill-opacity:1;fill-rule:evenodd;stroke:none"
         transform="matrix(0.13333333,0,0,-0.13333333,0,666.66667)" />
      <path
         id="path78"
         d="m 1412.07,3342.76 c 2.1,13.22 25.44,5.39 35.18,7.39 21.94,-0.12 43.87,1.37 65.46,5.44 3.82,0.71 7.54,-2.39 8.04,-6.11 1.71,-13.95 -42.33,-11.14 -52.63,-13.26 -14.81,-0.68 -29.64,-0.26 -44.46,-0.47 -5.15,-0.85 -11.59,0.7 -11.59,7.01"
         style="fill:#040606;fill-opacity:1;fill-rule:evenodd;stroke:none"
         transform="matrix(0.13333333,0,0,-0.13333333,0,666.66667)" />
      <path
         id="path79"
         d="m 1671.43,3329.85 c -10.82,2.38 -66.75,-1.22 -62,14.53 1.01,3.93 5.36,6.07 9.16,4.91 13.72,-2.37 27.63,-3.46 41.51,-4.53 6.5,-0.97 18.01,1.74 18.47,-7.76 0,-3.78 -3.27,-7.3 -7.14,-7.15"
         style="fill:#040606;fill-opacity:1;fill-rule:evenodd;stroke:none"
         transform="matrix(0.13333333,0,0,-0.13333333,0,666.66667)" />
      <path
         id="path80"
         d="m 1467.42,3147.91 c -12.19,2.47 -31.91,1.05 -37.21,14.68 -0.64,3.84 2.35,7.54 6.11,8.05 6.3,-0.35 10.4,-6.28 17.25,-6.28 15.37,-3.13 31.12,-3.38 46.68,-1.69 3.87,0.4 7.51,-2.15 8.05,-6.12 0.44,-14.36 -31.15,-7.92 -40.88,-8.64"
         style="fill:#040606;fill-opacity:1;fill-rule:evenodd;stroke:none"
         transform="matrix(0.13333333,0,0,-0.13333333,0,666.66667)" />
      <path
         id="path81"
         d="m 1632.95,3142.02 c -11,1.09 -22.54,1.44 -32.87,5.62 -7.92,4.41 -0.93,16.78 6.86,12.53 20.16,-4.67 41.12,-5.07 61.74,-4.99 3.89,0.1 7.14,-3.33 7.14,-7.15 -1.31,-13.77 -32.77,-4.86 -42.87,-6.01"
         style="fill:#040606;fill-opacity:1;fill-rule:evenodd;stroke:none"
         transform="matrix(0.13333333,0,0,-0.13333333,0,666.66667)" />
      <path
         id="path82"
         d="m 1461.93,2974.48 c -15.86,1.71 -32.03,3.75 -46.93,9.75 -8.48,3.57 -2.92,16.89 5.56,13.16 5.08,-2.28 10.57,-3.41 15.95,-4.74 18.18,-3.35 36.71,-5.86 55.23,-4.6 7.45,-0.41 20.46,6.34 22.85,-4.37 0.26,-15.47 -41.73,-9.11 -52.66,-9.2"
         style="fill:#040606;fill-opacity:1;fill-rule:evenodd;stroke:none"
         transform="matrix(0.13333333,0,0,-0.13333333,0,666.66667)" />
      <path
         id="path83"
         d="m 1640.15,2963.62 c -13.79,1.94 -32.79,0.33 -42.52,11.57 -3.05,6.6 5.7,12.97 11,8.37 24.13,-9.88 51.53,-3.05 75.99,-6.58 14.75,-20.17 -34.8,-12.22 -44.47,-13.36"
         style="fill:#040606;fill-opacity:1;fill-rule:evenodd;stroke:none"
         transform="matrix(0.13333333,0,0,-0.13333333,0,666.66667)" />
      <path
         id="path84"
         d="m 997.445,3054.83 c -3.89,17.42 -12.648,34.68 -25.113,47.48 -11.305,12.11 7.156,19.79 15.824,3.97 6.961,-9.68 35.154,-51.29 17.334,-57.56 -3.84,-0.54 -7.463,2.24 -8.045,6.11"
         style="fill:#040606;fill-opacity:1;fill-rule:evenodd;stroke:none"
         transform="matrix(0.13333333,0,0,-0.13333333,0,666.66667)" />
      <path
         id="path85"
         d="m 2166.79,3151.55 c -18.93,5.95 21.87,51.65 31.18,38.85 2.34,-3.03 1.84,-7.71 -1.28,-10.02 -21.35,-12.6 -19.72,-31.63 -29.9,-28.83"
         style="fill:#040606;fill-opacity:1;fill-rule:evenodd;stroke:none"
         transform="matrix(0.13333333,0,0,-0.13333333,0,666.66667)" />
      <path
         id="path86"
         d="m 1270.69,2860.89 c -8.56,13.52 -66.76,67.45 -43.49,78.88 9.88,0.78 11.75,-20.21 19.13,-26.8 10.95,-15.2 23.96,-28.75 35.67,-43.36 5.72,-7.21 -5.63,-16.09 -11.31,-8.72"
         style="fill:#040606;fill-opacity:1;fill-rule:evenodd;stroke:none"
         transform="matrix(0.13333333,0,0,-0.13333333,0,666.66667)" />
      <path
         id="path87"
         d="m 1819.11,2842.82 c -7.95,9.62 16.19,25.24 19.9,35.4 12.57,20.27 23.57,41.47 36.58,61.48 -0.11,3.04 1.77,5.82 4.63,6.97 -0.07,-0.02 -0.14,-0.05 -0.22,-0.08 -0.24,-0.12 -0.48,-0.24 -0.72,-0.35 29.84,6.56 -7.96,-36.82 -11.15,-46.58 -7.52,-10.95 -34.34,-67.78 -49.02,-56.84"
         style="fill:#040606;fill-opacity:1;fill-rule:evenodd;stroke:none"
         transform="matrix(0.13333333,0,0,-0.13333333,0,666.66667)" />
      <path
         id="path88"
         d="m 1523.54,2750 c -82.59,6.5 -164.66,21.69 -243.08,48.68 -19.71,6.04 -38.67,14.24 -58.23,20.71 -3.7,1.21 -5.76,5.33 -4.54,9.03 5.26,13.15 36.29,-7.79 46.8,-9.23 38.59,-12.63 77.14,-26.21 116.97,-34.46 126.01,-26.19 257.83,-31.76 382.84,2.06 32.65,8.18 65.5,16.33 96.65,29.29 9.6,1.65 20.33,17.2 29.01,8.2 9.53,-19.19 -76.22,-38.09 -90.66,-43.3 -89.59,-26.4 -182.67,-35.84 -275.76,-30.98"
         style="fill:#040606;fill-opacity:1;fill-rule:evenodd;stroke:none"
         transform="matrix(0.13333333,0,0,-0.13333333,0,666.66667)" />
      <path
         id="path89"
         d="m 1564.86,2325.63 c -8.68,11.3 24.78,26.41 31.21,35.09 34.88,28.4 70.74,55.58 104.67,85.14 78.38,70.6 160.36,138.91 226.08,221.92 -0.32,1.8 0.07,3.69 1.09,5.21 1.07,1.61 2.63,2.51 4.45,3.02 -0.25,-0.07 -0.51,-0.14 -0.77,-0.22 -0.15,-0.06 -0.3,-0.12 -0.45,-0.18 70.25,7.72 -253.62,-269.87 -273.67,-284.23 -20.01,-15.87 -40.29,-31.4 -59.79,-47.9 -9.62,-4.72 -22.26,-26.11 -32.82,-17.85"
         style="fill:#040606;fill-opacity:1;fill-rule:evenodd;stroke:none"
         transform="matrix(0.13333333,0,0,-0.13333333,0,666.66667)" />
      <path
         id="path90"
         d="m 1569.32,2325.92 c -44.71,50.55 -97.46,93.18 -148.99,136.48 -63.02,52.34 -124.6,106.9 -193.64,151.34 -12.97,9.13 -27.1,15.54 -39.43,24.88 -5.79,6.71 4.4,16.2 10.6,9.57 107.76,-63.1 199.36,-149.07 295.09,-228.39 7.68,-7.89 126.34,-107.05 76.37,-93.88"
         style="fill:#040606;fill-opacity:1;fill-rule:evenodd;stroke:none"
         transform="matrix(0.13333333,0,0,-0.13333333,0,666.66667)" />
      <path
         id="path91"
         d="m 1940.59,1529.93 c -13.84,2.94 -61.61,13.26 -50.03,33.38 8.21,5.93 19.46,-13.13 31.59,-14.04 8.6,-4.9 26.02,-0.96 26.5,-13.23 -0.5,-3.72 -4.28,-6.85 -8.06,-6.11"
         style="fill:#040606;fill-opacity:1;fill-rule:evenodd;stroke:none"
         transform="matrix(0.13333333,0,0,-0.13333333,0,666.66667)" />
      <path
         id="path92"
         d="m 1300.86,1529.44 c -3.89,0 -7.14,3.24 -7.14,7.14 0.15,8.4 9.29,6.77 15.06,7.74 9.04,-0.09 17.92,13.81 25.81,5.73 6.09,-15.48 -22.67,-20.4 -33.73,-20.61"
         style="fill:#040606;fill-opacity:1;fill-rule:evenodd;stroke:none"
         transform="matrix(0.13333333,0,0,-0.13333333,0,666.66667)" />
      <path
         id="path93"
         d="m 1965.21,2022.93 c -8.18,3.18 -3.19,12.13 -1.66,18.08 9.36,35.03 15.48,71.02 17.18,107.24 0.64,3.84 4.78,6.3 8.47,5.53 12.78,-5.44 0.77,-41.24 1.22,-53.63 -4.21,-13.38 -8.57,-81.42 -25.21,-77.22"
         style="fill:#040606;fill-opacity:1;fill-rule:evenodd;stroke:none"
         transform="matrix(0.13333333,0,0,-0.13333333,0,666.66667)" />
      <path
         id="path94"
         d="m 1203.88,2063.41 c -4.13,12.56 -25.54,94.8 -0.46,88.55 3.37,-1.7 4.68,-5.65 3.41,-8.98 -1.81,-16.48 1.5,-33.34 3.85,-49.68 -0.75,-10.78 13.89,-27.21 2.27,-34.33 -3.61,-1.26 -7.8,0.74 -9.07,4.44"
         style="fill:#040606;fill-opacity:1;fill-rule:evenodd;stroke:none"
         transform="matrix(0.13333333,0,0,-0.13333333,0,666.66667)" />
      <path
         id="path95"
         d="m 1641.65,2384.75 c -7.38,9.97 9.89,17.21 13.25,25.91 11.16,17.29 16.78,37.44 21.03,57.39 4.65,9.99 -0.55,36.04 13.22,36.74 3.94,-0.53 6.53,-4.18 6.1,-8.05 -1.24,-22.43 -23.7,-121.6 -53.6,-111.99"
         style="fill:#040606;fill-opacity:1;fill-rule:evenodd;stroke:none"
         transform="matrix(0.13333333,0,0,-0.13333333,0,666.66667)" />
      <path
         id="path96"
         d="m 1464.73,2429.51 c -7.07,11.48 -23.51,73.07 -5.77,76.41 13.7,-1.7 4.16,-32.58 9.52,-43.53 1.06,-10.89 8.55,-20.99 9.3,-31.18 -1.37,-5.88 -10.26,-7.16 -13.05,-1.7"
         style="fill:#040606;fill-opacity:1;fill-rule:evenodd;stroke:none"
         transform="matrix(0.13333333,0,0,-0.13333333,0,666.66667)" />
      <path
         id="path97"
         d="m 910.766,2251.65 c -7.895,11.26 15.824,17.57 18.945,7.1 2.418,-9.58 -13.715,-13.3 -18.945,-7.1"
         style="fill:#040606;fill-opacity:1;fill-rule:evenodd;stroke:none"
         transform="matrix(0.13333333,0,0,-0.13333333,0,666.66667)" />
      <path
         id="path98"
         d="m 951.16,2275.1 c 0,3.96 3.145,6.85 6.938,7.13 -0.578,0 -1.098,-0.13 -1.653,-0.24 8.801,5.99 17.762,-7.43 7.887,-12.28 -5.141,-3.26 -13.082,-1.66 -13.172,5.39"
         style="fill:#040606;fill-opacity:1;fill-rule:evenodd;stroke:none"
         transform="matrix(0.13333333,0,0,-0.13333333,0,666.66667)" />
      <path
         id="path99"
         d="m 995.488,2279.5 c -9.258,1.74 -6.539,12.81 0.043,16.35 16.079,7.18 13.269,-16.66 -0.043,-16.35"
         style="fill:#040606;fill-opacity:1;fill-rule:evenodd;stroke:none"
         transform="matrix(0.13333333,0,0,-0.13333333,0,666.66667)" />
      <path
         id="path100"
         d="m 2108.73,2353.41 c -6.81,1.34 -18.83,1.24 -19.51,10.28 0,3.89 3.26,7.14 7.15,7.14 4.78,-1.01 9.27,-3.07 14.29,-3.26 9.19,-1.16 7.2,-15.48 -1.93,-14.16"
         style="fill:#040606;fill-opacity:1;fill-rule:evenodd;stroke:none"
         transform="matrix(0.13333333,0,0,-0.13333333,0,666.66667)" />
      <path
         id="path101"
         d="m 2158.05,2350.36 c -13.99,-1.68 -15.45,18.74 -1,14.56 10.9,1.18 12.28,-15.37 1,-14.56"
         style="fill:#040606;fill-opacity:1;fill-rule:evenodd;stroke:none"
         transform="matrix(0.13333333,0,0,-0.13333333,0,666.66667)" />
      <path
         id="path102"
         d="m 2209.12,2349.55 c -26.37,-3.34 -22.89,24.65 -6.82,14.76 12.49,2.05 21.04,-10.99 6.82,-14.76"
         style="fill:#040606;fill-opacity:1;fill-rule:evenodd;stroke:none"
         transform="matrix(0.13333333,0,0,-0.13333333,0,666.66667)" />
      <path
         id="path103"
         d="m 4150.15,2961.5 c 1.67,-27.18 -0.93,-54.32 -4.4,-81.26 -4.22,-37.89 -5.54,-76 -8.08,-114.02 -2.26,-30.88 -5.29,-61.64 -11.51,-91.83 -3.51,-9.16 -2.29,-33.11 -11.02,-39.08 -2.3,-9.38 -4.76,-18.71 -7.27,-28.01 -7.32,-27.22 -18.06,-53.39 -25.6,-80.55 -6.01,-26.07 0.14,-53.17 1.12,-79.54 1.29,-29.21 2.01,-58.87 -3.8,-87.68 -7.01,-41.05 -26.16,-64.25 -58.71,-88.66 -25.75,-16.46 -53.68,-44.27 -86.57,-35.3 -38.22,6.32 -59.77,22.58 -39.86,62.18 14.02,29.79 28.18,59.57 42.01,89.43 -10.61,-7.96 -22.08,-14.69 -32.68,-22.66 -9.1,-6.62 -16.76,-16.59 -28.01,-19.51 -15.29,-2.13 -14.88,14.55 -11.04,24.79 8.61,31.33 19.29,62.65 36.66,90.3 9.57,15.87 20.77,30.09 30.91,45.21 11.2,23.64 22.56,47.52 30.11,72.63 5.37,18.51 2.63,38.77 7.98,57.1 -16.16,72.45 -12.75,147.26 -17.27,221.05 -0.35,48.27 3.87,95.07 -6.65,142.05 -13.61,45.67 -47.74,80.77 -70.73,121.69 -20.54,31.18 -28.2,68.41 -40.27,103.3 -3.78,13.6 -8.64,27.17 -11.7,41.02 -5.44,-8.34 -11.25,-16.42 -17.77,-23.93 -34.74,-42.54 -82.57,-82.61 -88.65,-140.34 -6.28,-54.43 -9.54,-110.19 -7.18,-164.51 1.81,-48.29 2.58,-97.04 12.49,-144.52 10.01,-44.94 22.48,-89.31 32.41,-134.28 4.25,-17.65 9.28,-35.11 14.07,-52.62 0.92,-3.37 -0.4,-6.57 -2.72,-8.75 10.05,-43.35 17.06,-87.55 26.14,-131.08 20.99,-94.71 35.14,-190.61 37.73,-287.68 4.45,-73.75 -3.99,-147.31 -11.15,-220.63 -0.18,-1.89 -0.86,-3.63 -1.91,-5.07 -8.95,-68.53 -22.22,-136.56 -39.38,-203.47 -11.73,-42.94 -30.85,-72.6 -23.73,-119.54 0.33,-55.68 -3.21,-112.48 -22.04,-165.26 -1.95,-6.56 -2.58,-13.37 -3.49,-20.07 -0.09,-0.31 -0.21,-0.6 -0.34,-0.88 29.18,-127.55 19.11,-260.3 23.94,-389.86 -1.1,-76.89 -1.97,-153.789 -3.99,-230.648 -0.03,-16.77 -0.87,-33.512 -2.1,-50.223 -0.2,-7.109 -0.54,-14.207 -1.07,-21.289 -2.57,-32.469 -8.83,-68.461 8.2,-98.129 10.37,-16.539 23.35,-31.242 36.27,-45.812 12.64,-13.047 23.68,-28.739 40.29,-37 16.7,-6.661 37.54,-4.809 51.61,-16.829 4.73,-5.269 5.33,-13.039 10.11,-18.23 35.51,-14.48 44.28,-37.262 5.1,-55.5 -12.96,-8.09 -26.12,-15.969 -40.6,-21.109 -31.98,-15.77 -64.69,-29.95 -99.4,-38.602 -34.61,-11.73 -70.33,-24.82 -107.21,-25.25 -74.71,13.211 -44.02,119.211 -42.4,172.199 3.63,31.063 1.08,62.25 -0.98,93.403 -3.31,24.648 -6.52,49.3 -10.87,73.781 -0.65,10.91 -8.03,24.277 -3.29,34.578 -2.35,7.699 -4.56,15.422 -6.15,23.371 0.06,1.149 0.28,2.18 0.64,3.09 -12.65,56.84 -25.54,113.789 -43.76,169.09 -13.85,36.781 -32.28,72.079 -38.73,111.229 -9.15,52.06 -1.46,106.06 -5.98,158.32 1.68,52.37 -6.19,105.52 0.95,157.48 0.15,0.42 0.31,0.81 0.51,1.18 0,0.63 0,1.25 0,1.86 -0.35,30.65 2.19,61.86 -6.78,91.62 -36.47,125.59 -58.21,176.94 -40.51,312.63 5.35,38.9 -0.92,78.34 -15.44,114.65 -9.87,26.49 -17.57,53.7 -27.08,80.33 -16.7,48.77 -22.03,100.45 -29.15,151.13 -4.38,27.99 -10.81,55.59 -15.03,83.62 -4.6,-39.67 -20.61,-74.19 -31.34,-111.9 -9.67,-37.86 -16.39,-76.38 -24.56,-114.55 -8.92,-34.13 -22.39,-66.93 -35.54,-99.55 -0.43,-1.71 -1.22,-3.06 -2.24,-4.11 -0.39,-1.53 -0.81,-3.06 -1.26,-4.58 -17.26,-59.22 -55.42,-111.76 -64.86,-173.38 -3.72,-19.14 0.92,-37.93 3.82,-56.77 1.95,-18.26 -0.39,-36.65 -3.6,-54.64 -2.89,-10.18 -2.01,-22.93 -8.95,-31.22 -4.1,-40.09 -23.2,-75.37 -41.32,-110.52 -5.86,-16.45 -13.6,-33.44 -13.82,-51.12 0.02,-0.81 0.06,-1.61 0.09,-2.42 0.02,-0.27 0.03,-0.53 0.03,-0.78 0.02,-0.35 0.02,-0.7 0.04,-1.04 -0.55,-33.34 8.21,-65.48 11.48,-98.42 1.42,-39 -0.84,-78.08 -2.59,-117.04 -1.43,-19.89 0.29,-39.82 -1.71,-59.54 -3.43,-26.47 -12.02,-51.74 -19.57,-77.21 -6.07,-15.85 -10.78,-49.99 -23.95,-59.38 -12.77,-52.899 -34.91,-102.532 -52.38,-153.91 -7.61,-23.598 -14.72,-47.372 -23.1,-70.719 -1.64,-4.231 -2.83,-10.5 -5.36,-14.949 -14.3,-65.172 -31.13,-130.442 -32.29,-197.09 0.15,-39.953 15.9,-79.16 9.14,-119.203 -3.67,-40.379 -39.65,-71 -80.33,-63.559 -34.02,3.992 -68.24,7.602 -99.04,23.879 -36.44,13.422 -72.78,29.203 -104.52,51.781 -28.03,24.242 -20.01,60.86 17.58,66.949 29.89,20.481 25.95,7.633 53.85,17.973 58.55,25.25 69.44,61.75 86.19,118.59 11.23,48.187 15.22,96.98 20.27,145.637 -1.15,159.562 -20.44,319.211 -4.54,478.571 4.45,36.81 7.49,74.11 16.94,110.08 9.78,34.15 26.87,68.19 21.54,104.56 -1.85,24.78 -5.18,49.56 -3.36,74.45 2.43,49.08 15.68,97.5 10.73,146.84 -4.69,57.84 -21.7,113.84 -28.53,171.39 -5.66,49.08 -11.82,98.42 -9.87,147.97 1.02,3.51 1.28,8.89 1.52,14.75 -9.06,86.84 -3.87,174.77 10.99,260.9 -9.67,-19.97 -36.71,-25.73 -58.28,-21.09 -60.48,11.47 -91.94,75.68 -90.21,132.95 0.08,0.58 0.12,1.2 0.14,1.82 -0.41,0.87 -0.69,1.88 -0.84,3 -8.41,48.39 -11.8,97.96 -25.6,145.25 -9.42,24.46 -27.11,44.56 -37.21,68.85 -25.93,60.61 -50.18,123.39 -60.38,188.81 -4.71,29.85 -3.06,58.36 -8.14,87.82 -1.99,12.92 -9.05,23.93 -13.98,35.79 -9.98,26.07 -11.61,54.89 -7.57,82.37 4.15,24.04 14.27,46.8 16.23,71.31 3.4,26.79 1.57,54 5.24,80.73 13.33,82.88 23.46,167.48 52.88,246.6 9.94,26.76 22.59,52.34 36.61,77.17 4.55,5.96 7.46,20.16 12.58,28.77 -2.53,55.8 1.09,113.83 25.49,164.72 18.19,34.29 39.55,69.37 72.56,91.16 47.23,34.06 102.43,56.91 160.79,60.67 44.56,9.78 91.92,10.31 133.56,30.56 26.1,12.86 49.76,29.69 72.67,47.5 12.91,9.49 28.49,15.72 39.79,27.05 16.05,17.32 13.31,42.83 16.65,64.64 3.68,32.53 17.91,64.27 -0.14,94.69 -6.5,21.86 -19.57,32.28 -39.51,41.83 -3.43,2.02 -6.86,4.07 -10.31,6.08 -3.13,-1.13 -6.78,-0.7 -9.55,2.23 -1.09,1.63 -2.14,3.24 -3.13,4.82 -0.22,0.12 -0.44,0.24 -0.66,0.35 -2.41,1.71 -3.54,4.22 -3.64,6.81 -22.39,39.3 -16.78,66.67 -2.49,111.52 7.58,40.76 9.36,82.36 9.95,123.74 1.69,49.37 10.95,135.14 67.39,150.46 33.4,8.49 38.37,31.49 83.03,35.88 16.01,4.2 31.83,-1.46 47.85,-1.1 21.71,3.77 43.82,2.83 63.69,-7.63 17.46,-6.37 31.44,-18.52 45.8,-29.79 10.47,-6.45 21.6,-11.8 31.14,-19.71 32.2,-30.75 40.7,-77.76 33.5,-120.41 -4.12,-43.12 -10.74,-86.45 -8.92,-129.81 17.6,-2.94 42.52,-22.63 40.43,-48.57 -2.62,-36.71 -35.24,-58.51 -57.98,-83.44 -45.41,-64.55 -53.29,-67.81 -35.41,-147.54 2.71,-12.51 6.24,-24.83 10.3,-36.97 4.92,0.36 10.05,-2.8 10.35,-9.91 8.6,-11.63 20.75,-20.17 31.98,-29.1 25.7,-18.31 55.23,-30.07 81.85,-46.73 16.51,-11.41 33.25,-22.37 51.61,-30.56 42.41,-29.16 94.47,-34.4 143.59,-44.63 18.49,-5.36 35.64,-14.31 52.31,-23.74 24.16,-13.95 50.83,-24.18 72.51,-42.01 57.77,-51.54 80.39,-131.99 82.86,-207.2 -0.18,-25.58 -2.77,-51.31 1.11,-76.75 0.96,-4.58 1.9,-9.18 2.85,-13.76 0.03,0 0.06,0 0.09,0 12.82,-0.89 8.35,-21.16 12.96,-30.11 28.15,-84.44 48.53,-171.2 59.2,-259.61 5.38,-42.1 10.15,-84.25 15.04,-126.4 4.71,-27.22 15.3,-53.37 16.59,-81.2 z m -1074.93,34.93 c -4.49,-121.23 -32.95,-240.49 -67.9,-356.22 -26.32,-81.47 -57.35,-161.38 -79.18,-244.28 -1.7,-7 -3.34,-14 -4.94,-21.03 -5.6,8.83 -16,14.63 -22.33,23.04 -8.03,10.4 -18.5,22.61 -18.1,36.39 9.48,14.4 29.79,-7.43 40.34,-11.31 12.91,-3.09 17.54,12.7 16.05,22.78 -8.36,85.68 -76.26,107.78 -101.69,198.96 0.43,1.22 0.58,2.54 0.38,3.91 -1.16,39.56 -5.98,79.02 -1.99,118.6 1.83,33.67 8.12,71.07 -0.05,104.82 -9.82,47.52 -28.21,94.34 -27.77,143.35 3.08,33.09 21.71,61.9 35.64,91.3 5.3,1.72 7.19,7.8 10.26,11.96 11.34,16.09 23.99,31.44 32.43,49.35 18.21,41.31 27.8,86.01 49.33,125.99 14.59,-32.91 41.1,-56.48 65.77,-81.63 38.13,-44.5 65.23,-98.89 71.57,-157.71 0.43,-2.63 1.87,-4.89 3.87,-6.37 -0.01,-17.31 -0.49,-34.63 -1.69,-51.9 z m -192.44,-561.51 c 0.09,0.23 0.13,0.38 0.02,0.33 -0.01,-0.11 -0.01,-0.21 -0.02,-0.33 z m -45.11,214.67 c -0.04,0.2 -0.08,0.39 -0.12,0.59 0,0 -0.01,0.02 -0.1,0.13 0.09,-0.24 0.16,-0.48 0.22,-0.72 v 0"
         style="fill:#ffffff;fill-opacity:1;fill-rule:evenodd;stroke:none"
         transform="matrix(0.13333333,0,0,-0.13333333,0,666.66667)" />
      <path
         id="path104"
         d="m 3384.98,4068.57 c 28.74,25.61 71.73,20.98 102.62,43.14 75,58.06 64.32,171.79 72.43,257.18 -1.16,55.11 20.19,147.76 -38.39,177.83 -12.67,9.49 -23.27,21.81 -37.08,29.72 -12.35,1.95 -23.18,7.4 -34.02,13.74 -27.52,17.35 -59.8,15.27 -89.24,4.53 -10.22,-0.67 -17.45,9.17 -28.31,6.47 -27.62,0.73 -67.01,-42.71 -84.52,-34.52 -24.3,-11.64 -32.68,-37.64 -42.7,-59.88 -3.47,-73.64 -15.45,-149.16 -0.52,-223.1 6.78,-48.02 11.3,-100.25 45.93,-137.37 36.81,-38.25 97.28,-38.51 133.8,-77.74 z m -21.14,-6.8 c -44.46,36.26 -114.19,37.42 -142.91,93.53 -27.61,40.99 -28.61,92.05 -36.48,139.31 -8.91,70.6 -8.41,146.58 7,215.07 -2.48,27.58 33.41,81.07 64.33,75.32 29.99,17.7 68.8,49.05 104.27,28.81 40.49,17.73 82.79,5.41 118.63,-16.78 22.88,-1.2 36.99,-22.99 54.46,-35.14 9.32,-4.18 18.74,-8.84 24.26,-18 37.78,-59.23 21.05,-133.44 20.52,-199.68 -7.66,-122.06 -9.84,-254.35 -158.25,-277.21 -22.88,-8.15 -33.2,-31.79 -55.83,-5.23 v 0"
         style="fill:#040606;fill-opacity:1;fill-rule:evenodd;stroke:none"
         transform="matrix(0.13333333,0,0,-0.13333333,0,666.66667)" />
      <path
         id="path105"
         d="m 3216.35,4150.45 c -34.59,17.64 -61.3,50.52 -64.04,90.16 -1.2,22.53 7.83,56.43 34.29,58.83 12.34,0.07 12.34,-19.13 0,-19.05 -30.1,-22.87 -11.62,-73.44 12.36,-94.93 8.27,-7.2 17.62,-12.94 27,-18.56 10.69,-6.12 0.94,-22.82 -9.61,-16.45"
         style="fill:#040606;fill-opacity:1;fill-rule:evenodd;stroke:none"
         transform="matrix(0.13333333,0,0,-0.13333333,0,666.66667)" />
      <path
         id="path106"
         d="m 3526.61,4158.89 c -6.6,15.99 25.44,23.15 32.9,33.94 23,19.75 48.92,66.78 18.2,89.75 -1.81,0.17 -3.48,-0.56 -4.72,-1.81 -1.68,-15.2 -23.98,-8.47 -18.53,5.43 13.98,30.83 49.79,9.8 54.18,-16.39 10.87,-49.1 -29.23,-91.9 -68.99,-114.33 -4.34,-2.78 -10.49,-0.94 -13.04,3.41"
         style="fill:#040606;fill-opacity:1;fill-rule:evenodd;stroke:none"
         transform="matrix(0.13333333,0,0,-0.13333333,0,666.66667)" />
      <path
         id="path107"
         d="m 3225.68,3945.99 c -8.64,4.79 -2.71,15.13 0.73,20.73 14.37,28.36 18.18,60.67 21.06,91.96 4.22,20.97 -5.38,57.92 6.49,73.86 6.75,4.44 16.2,-2.65 14.09,-10.35 -0.74,-47.83 -0.38,-96.65 -15.54,-142.63 -6.09,-11.05 -9.67,-39.58 -26.83,-33.57"
         style="fill:#040606;fill-opacity:1;fill-rule:evenodd;stroke:none"
         transform="matrix(0.13333333,0,0,-0.13333333,0,666.66667)" />
      <path
         id="path108"
         d="m 3526.81,3942.36 c -21.42,32.88 -26.11,72.37 -29.74,110.58 1.7,14.54 -14.23,70.4 5.33,70.73 14.06,-0.99 8.39,-19.14 10.41,-28.42 2.22,-31.76 4.54,-63.68 10.81,-94.93 3.23,-17.31 10.64,-33.33 19.64,-48.35 6.28,-10.53 -10.26,-20.35 -16.45,-9.61"
         style="fill:#040606;fill-opacity:1;fill-rule:evenodd;stroke:none"
         transform="matrix(0.13333333,0,0,-0.13333333,0,666.66667)" />
      <path
         id="path109"
         d="m 2724.93,3538.1 c -14.51,78.27 6.73,162.93 53.63,226.89 36.64,46.58 93.01,74.38 148.3,92.59 85.4,28.53 180.72,22.59 250.79,86.79 14.06,10.4 31,16.2 45.49,25.53 7.58,8.99 22.34,-2.66 14.69,-12.07 -23.53,-17.51 -52.72,-27.53 -75.16,-47.48 -41.92,-34.44 -97.3,-40.77 -148.77,-50.55 -105.13,-19.14 -224.47,-63.95 -257.18,-176.58 -13.69,-37.63 -18.87,-76.47 -16.82,-116.15 -0.59,-10.4 5.63,-21.35 2.43,-31.24 -3.74,-7.07 -15.66,-5.74 -17.4,2.27"
         style="fill:#040606;fill-opacity:1;fill-rule:evenodd;stroke:none"
         transform="matrix(0.13333333,0,0,-0.13333333,0,666.66667)" />
      <path
         id="path110"
         d="m 2727.79,2567.65 c -42.3,68.64 -75.42,143.6 -92.47,222.6 -10.8,45.4 -10.1,92.35 -17.15,138.25 -14.5,39.57 -32.83,80.15 -19.87,123.22 21.58,57.92 13.62,119.54 21.79,179.81 9.75,103.82 34.99,208.14 88.51,298.46 5.8,11.4 24.47,43.79 32.81,17.85 -10.13,-19.94 -24.84,-39.15 -34.16,-60.21 -55.8,-111.6 -71.71,-238.41 -74.41,-361.8 -3.55,-66.04 -40.1,-107.5 -1.73,-174.63 13.79,-38.5 9.54,-80.61 16.34,-120.53 7.03,-50.75 21.83,-98.68 41.04,-145.48 15.33,-37.49 34.57,-73.42 55.74,-107.92 6.3,-10.23 -10.16,-20.54 -16.44,-9.62"
         style="fill:#040606;fill-opacity:1;fill-rule:evenodd;stroke:none"
         transform="matrix(0.13333333,0,0,-0.13333333,0,666.66667)" />
      <path
         id="path111"
         d="m 3045.45,2814.06 c -17.83,1.43 1.16,55.3 -0.22,69.05 4.65,42.32 13.33,84.41 13.22,127.1 3.16,98.42 -40.77,157.24 -99.85,229.6 -51.32,61.98 -85.42,135.06 -102.38,213.65 -1.25,16.12 -22.74,89.41 1.34,87.79 5.22,-0.7 8.75,-5.58 8.15,-10.73 -0.11,-21.91 3.77,-44.83 7.52,-65.5 43.55,-242.03 229.04,-250.96 201.79,-499.41 -3.94,-33.55 -8.84,-66.99 -12.87,-100.52 -4.56,-13.07 1,-51.73 -16.7,-51.03"
         style="fill:#040606;fill-opacity:1;fill-rule:evenodd;stroke:none"
         transform="matrix(0.13333333,0,0,-0.13333333,0,666.66667)" />
      <path
         id="path112"
         d="m 3711.62,2817.03 c -1.87,106.42 -19.35,215.36 9.96,319.63 17.32,50.42 64.22,82.51 91.71,126.61 41.21,65.39 65.83,140.98 73.54,217.76 1.93,15.66 1.84,31.61 4.97,47.07 1.2,5.05 6.83,8 11.71,6.65 14.22,-5.91 1.75,-28.91 3.6,-40.96 -6.93,-88.31 -34.07,-176.54 -84.17,-250.05 -21.74,-30.75 -49.91,-56.33 -70.87,-87.66 -37.54,-72.83 -28.3,-163.78 -25.22,-243.49 2.13,-31.83 2.57,-63.7 3.81,-95.56 0.21,-12.12 -19.1,-12.47 -19.04,0"
         style="fill:#040606;fill-opacity:1;fill-rule:evenodd;stroke:none"
         transform="matrix(0.13333333,0,0,-0.13333333,0,666.66667)" />
      <path
         id="path113"
         d="m 4042.04,3441.69 c -18.59,0.22 -3.52,50.79 -5.96,64.39 0.78,18.16 0.5,36.33 -0.29,54.48 -2.83,92.19 -43.72,189.56 -131.96,229.12 -50.98,24.73 -108.61,29.17 -161.21,49.23 -34.82,12.76 -64.83,34.76 -95.86,54.49 -42.68,25.18 -86.88,49.64 -128.35,75.97 -7.67,36.34 51.96,-11.21 63.73,-15.81 45.95,-27.05 91.31,-54.99 136.7,-82.92 79.34,-40.84 178.06,-36.22 247.03,-98.69 75.57,-64.53 93.42,-171.6 89.26,-266.22 -3.58,-13.95 4.1,-64.14 -13.09,-64.04"
         style="fill:#040606;fill-opacity:1;fill-rule:evenodd;stroke:none"
         transform="matrix(0.13333333,0,0,-0.13333333,0,666.66667)" />
      <path
         id="path114"
         d="m 4081.4,2514.97 c -4.82,1.33 -8.25,6.78 -6.65,11.72 11.86,37.1 26,73.5 36.25,111.1 25.25,91.58 25,186.89 31.32,280.89 10.65,47.84 -6.92,93.49 -17,139.63 -4.55,63.6 -8.54,126.69 -24.94,188.61 -13.1,66.78 -27.34,133.93 -53.6,196.97 -3.32,10.89 -20.23,31.45 -0.78,34.92 14.27,-2.15 22.86,-43.75 29.47,-56.21 34.9,-111.61 62.3,-228.28 66.68,-345.39 3.93,-43.77 25.7,-85.06 22.4,-129.72 -11.56,-112.62 -6.16,-228.18 -41.76,-337.19 -5.74,-18.83 -12.41,-37.36 -18.78,-55.97 -7.08,-11.85 -5.2,-40.63 -22.61,-39.36"
         style="fill:#040606;fill-opacity:1;fill-rule:evenodd;stroke:none"
         transform="matrix(0.13333333,0,0,-0.13333333,0,666.66667)" />
      <path
         id="path115"
         d="m 3857.86,2348.11 c -19.03,4.06 0.81,52.73 3.91,65.8 20.6,66.69 88.08,111.94 90.52,184.49 -0.87,80.33 -13.47,159.44 -13.44,239.47 -1.3,49.97 2.92,101.2 -3.91,150.62 -5.17,26.32 -23.84,47.03 -37.29,69.5 -26.35,41.69 -49.89,85.4 -65.58,132.29 -6.51,21.91 -15.7,45.03 -13.46,68.07 2.83,7.51 14.72,7.71 17.55,0 1.38,-8.36 1.58,-17.06 3.63,-25.43 12.06,-53.4 36.46,-103.12 64.69,-149.72 20.06,-34.62 50.22,-66.4 51.57,-108.48 4.01,-64.05 -0.44,-130.61 3.8,-194.15 0.47,-78.85 25.56,-161.7 -0.16,-238.13 -19.91,-39.62 -51.6,-72.48 -70.65,-112.89 -7.68,-15.56 -13.37,-32.06 -17.01,-49.04 -4.25,-10.71 2.05,-32.45 -14.17,-32.4"
         style="fill:#040606;fill-opacity:1;fill-rule:evenodd;stroke:none"
         transform="matrix(0.13333333,0,0,-0.13333333,0,666.66667)" />
      <path
         id="path116"
         d="m 3937.58,2217.49 c -37.85,18.25 18.89,57.85 32.29,75.69 23.49,24.3 35.11,55.92 45.62,86.46 33.1,10.92 2.19,-50.44 -4.51,-61.82 -16.21,-30.99 -44.74,-52.32 -65.24,-79.75 164.63,62.74 128.46,111.89 129.76,262.77 -6.39,32.61 21.75,32.92 18.75,13.28 0.99,-38.29 1.64,-76.61 1.63,-114.92 0.8,-38.83 0.94,-81.82 -28.49,-111.26 -33.86,-33.6 -83.86,-59.63 -129.81,-70.45"
         style="fill:#040606;fill-opacity:1;fill-rule:evenodd;stroke:none"
         transform="matrix(0.13333333,0,0,-0.13333333,0,666.66667)" />
      <path
         id="path117"
         d="m 3999.15,2343.08 c -2.76,14.74 -42.47,84.63 -20.9,91.8 4.79,1.32 10.62,-1.58 11.72,-6.65 4.9,-22.25 11.18,-44.32 21.78,-64.59 17.86,-25.44 -6.56,-42.06 -12.6,-20.56"
         style="fill:#040606;fill-opacity:1;fill-rule:evenodd;stroke:none"
         transform="matrix(0.13333333,0,0,-0.13333333,0,666.66667)" />
      <path
         id="path118"
         d="m 3907.78,2229.5 c -45.69,13.48 43.52,88.22 36.05,125.48 3.69,12.88 -8.41,39.88 7.53,44.55 18.05,-0.62 9.79,-27.27 11.71,-39.32 1.76,-43.87 -31.13,-75.81 -49.36,-112.43 9.02,-2.49 21.38,7.72 26.64,-3.69 4.5,-17.18 -21.63,-16.63 -32.57,-14.59"
         style="fill:#040606;fill-opacity:1;fill-rule:evenodd;stroke:none"
         transform="matrix(0.13333333,0,0,-0.13333333,0,666.66667)" />
      <path
         id="path119"
         d="m 3889.48,2234.95 c -36.3,16.28 -1.15,63.92 8.04,88.81 8.59,11.17 24.41,70.25 38.71,61.3 22.84,-8.42 -50.56,-104.92 -42.93,-130.1 22.37,14.98 25.22,-21.11 -3.82,-20.01"
         style="fill:#040606;fill-opacity:1;fill-rule:evenodd;stroke:none"
         transform="matrix(0.13333333,0,0,-0.13333333,0,666.66667)" />
      <path
         id="path120"
         d="m 3859.11,2343.75 c -0.01,5.36 4.63,9.76 9.98,9.53 17.6,4.56 32.95,18.97 46.21,29.64 13.01,7.31 36.76,49.14 50.81,36.98 3.62,-3.61 3.75,-9.87 0,-13.46 -14.88,-14.18 -92.62,-99.79 -107,-62.69"
         style="fill:#040606;fill-opacity:1;fill-rule:evenodd;stroke:none"
         transform="matrix(0.13333333,0,0,-0.13333333,0,666.66667)" />
      <path
         id="path121"
         d="m 2923.66,2482.74 c -4.79,11.99 -12.28,25.01 -18.94,34.84 -26.07,36.67 -58.84,70.21 -73.53,113.62 -10.44,87.72 3.67,178.08 -9.93,266.08 -3.8,54.55 -38.5,113.76 -9.19,165.38 42.57,60.24 76.66,125.35 101.91,194.74 7.01,12.73 4.82,33.09 17.9,40.83 25.14,1.62 4.14,-27.97 2.38,-40.44 -16.65,-45.15 -36.13,-89.58 -58.67,-132.09 -17.88,-37.33 -59.12,-68.09 -55.97,-112.45 6.29,-52.53 23.09,-103.45 24.64,-156.68 3.59,-53.69 3.1,-107.55 2.44,-161.31 -0.08,-25.56 -3.48,-52.64 9.88,-75.73 17.13,-34.23 43.37,-61.7 64.93,-92.86 5.56,-12.55 30.69,-38.87 14.63,-49 -4.68,-2 -10.49,0.25 -12.48,5.07"
         style="fill:#040606;fill-opacity:1;fill-rule:evenodd;stroke:none"
         transform="matrix(0.13333333,0,0,-0.13333333,0,666.66667)" />
      <path
         id="path122"
         d="m 2736.09,526.93 c -1.3,0.609 -2.64,1.101 -3.99,1.461 1.99,20.347 26.59,17.078 41.31,23.129 30.65,12.859 63.3,33.449 74.31,66.5 65.66,216.96 -0.03,444.63 25.91,665.56 5.4,49.01 16.59,97.04 30.95,144.15 12.99,34.77 16.38,68.28 8.11,104.53 -4.03,78.14 27.02,156.76 3.22,234.13 -59.42,249.89 -41.14,511.86 40.83,754.44 19.25,71.96 45.35,142.1 60.31,215.17 6.44,30.53 13.4,60.97 18.49,91.76 3.46,10.94 -1.44,30.25 14,30.49 18.09,-2.15 -0.27,-48.23 -0.14,-60.63 -15.81,-90.18 -43.46,-177.23 -69.39,-264.82 -56.25,-174.76 -92.05,-357.81 -78.02,-541.81 5,-65.66 13.94,-131.02 27.24,-195.51 9.48,-43.95 18.97,-88.71 14.08,-133.9 -2.82,-30.6 -10.02,-60.63 -11.83,-91.35 -3.31,-28.43 4.43,-56.16 5.92,-84.28 -5.46,-48.7 -26.76,-94.3 -35.1,-142.57 -41.13,-200.16 12.47,-404.931 -11.52,-606.349 -14.29,-100.351 -20.21,-188.121 -139.33,-210.199 0.51,-3.992 0.66,-7.352 0.49,-10.172 -5.01,3.91 -10.06,7.559 -15.85,10.27"
         style="fill:#040606;fill-opacity:1;fill-rule:evenodd;stroke:none"
         transform="matrix(0.13333333,0,0,-0.13333333,0,666.66667)" />
      <path
         id="path123"
         d="m 2713.25,532.02 c 0.47,-0.098 0.94,-0.188 1.42,-0.301 -0.38,-0.02 -0.76,-0.047 -1.14,-0.098 -0.09,0.129 -0.19,0.258 -0.28,0.399"
         style="fill:#040606;fill-opacity:1;fill-rule:evenodd;stroke:none"
         transform="matrix(0.13333333,0,0,-0.13333333,0,666.66667)" />
      <path
         id="path124"
         d="m 2904.83,366.109 c -49.63,10.25 -98.1,26.731 -141.18,53.821 -20.91,14.789 -108.13,48.082 -63.9,78.531 -4.57,24.738 14.37,30.09 34.7,26.68 2.03,20.859 22.06,23.089 21.38,5.05 -3.33,-22.531 -16.84,-26.621 -37.37,-23.371 0.78,-10.3 1.71,-23.34 -11.34,-26.078 47.23,-46.133 198.36,-119.613 263.07,-92.062 41.31,31.472 12,109.582 15.63,155 2.82,101.351 29.55,200.871 62.19,296.351 41.04,118.348 97.19,236.409 100.77,363.539 10.94,80.08 -24.31,160.03 -4.21,239.07 14.57,50.85 40.67,97.96 51.89,149.86 10.87,53.74 -5.09,110.28 17.09,162.18 63.25,162.37 130.76,326.26 134.76,502.96 4.67,15.87 -3.78,44.74 14.51,45.66 5.31,-0.72 8.62,-5.56 8.14,-10.72 -6.04,-53.66 -7.36,-105.58 -16.36,-158.49 -9.94,-74.92 -33.26,-146.95 -59.78,-217.46 -20.54,-67.39 -54.66,-130.7 -71.92,-198.72 -7.05,-31.28 -0.92,-63.31 -3.37,-94.94 -2.76,-77.78 -55.01,-143.22 -62.24,-219.82 -2.03,-43.59 7.95,-86 11.24,-129.17 7.05,-115.53 -22.18,-228.93 -64.15,-335.699 -45.85,-118.441 -87.96,-240.289 -98.57,-367.672 -7.19,-89 48.64,-232.117 -100.98,-204.5"
         style="fill:#040606;fill-opacity:1;fill-rule:evenodd;stroke:none"
         transform="matrix(0.13333333,0,0,-0.13333333,0,666.66667)" />
      <path
         id="path125"
         d="m 3865.01,517.949 c -41.15,14.91 -61.35,60.922 -91.68,89.813 -50.84,51.957 -35.42,129.59 -32.65,195.289 8.18,122.09 5.78,244.469 4.52,366.739 -0.46,55.89 -1.16,111.96 -8.28,167.47 -4.2,47.19 -24.47,97.9 -3.69,143.46 21.4,54.77 5.04,114.12 10.01,171 6.98,40.44 23.61,78.73 33.52,118.56 32.57,117.9 51.25,239.43 52.29,361.65 -2.18,126.16 -23.59,251.96 -45.94,375.82 -18.76,87.22 -42.11,173.43 -59.75,260.91 -0.73,20.82 -23.19,72.34 -4.06,76.02 5.13,0.69 10.05,-3.01 10.72,-8.15 3.7,-24.34 9.16,-48.38 13.68,-72.57 17.98,-87.52 41.68,-173.73 59.81,-261.2 19.82,-110.31 37.68,-221.62 43.74,-333.62 3.87,-93.5 -7.02,-186.91 -23.06,-278.89 -12.41,-83.9 -44.76,-163.24 -62.44,-245.52 -2.29,-45.63 6.17,-91.75 -1.22,-137.11 -18.35,-60.03 -22.58,-70.37 -9.63,-134.06 11.19,-66.02 13.07,-133.1 13.32,-199.91 0.66,-105.77 3.63,-211.638 -1.7,-317.341 0.82,-69.758 -21.28,-144.539 6.75,-210.989 24.91,-36.109 54.56,-67.269 83.62,-99.648 4.97,-4.32 10.74,-7.781 17.18,-9.34 11.89,-2.543 6.79,-22.223 -5.06,-18.383"
         style="fill:#040606;fill-opacity:1;fill-rule:evenodd;stroke:none"
         transform="matrix(0.13333333,0,0,-0.13333333,0,666.66667)" />
      <path
         id="path126"
         d="m 3653.02,382.82 c -106.17,5.071 -62.28,133.121 -60.04,201.129 7.87,85.922 -18.05,169.692 -32.64,253.539 -12.53,75.41 -47.47,144.082 -68.48,216.942 -16.48,100.52 -12.1,203.77 -11.27,305.35 13.6,140.16 -23.1,155.05 -43.58,274.69 -9.44,63.12 3.72,126.06 3.95,189.09 -3.94,46.58 -22.81,90.11 -36.15,134.48 -21.47,68.19 -36.21,138.47 -43.12,209.64 -0.46,24.75 -20.02,123.67 1.09,120.9 16.59,0.22 7.62,-39.3 11.18,-49.56 2.79,-41.47 8.02,-82.75 13.42,-123.94 11.58,-86.4 42.81,-167.9 66.46,-251.27 17.01,-66.63 -7.8,-135.85 0.06,-202.65 1.84,-85 56,-160.17 47.62,-246.41 -3.26,-116.21 -7.79,-234.24 7.45,-349.63 11.1,-46.93 32.73,-90.64 47.16,-136.6 15.32,-42.961 22.81,-88.11 31.56,-132.731 15,-72.328 31.85,-145.82 23.76,-220.09 -0.75,-49.551 -20.41,-99.867 -4.55,-147.179 39.44,-74.59 220.33,22.429 276.01,47.628 39.95,15.563 39.88,29.594 4.25,51.442 -5.42,5.09 -6.82,13.75 -13.89,17.14 -10.22,4.532 -22.26,-0.949 -32.78,1.719 -13.31,7.86 -1.93,21.313 10.3,18.602 22.49,4.359 41.21,-5.719 51.53,-25.621 26.83,-12.18 43.99,-43.211 16.86,-65.321 -41.62,-25.429 -87.54,-43.289 -133.04,-60.918 -41.94,-19.171 -86.38,-34 -133.12,-30.371"
         style="fill:#040606;fill-opacity:1;fill-rule:evenodd;stroke:none"
         transform="matrix(0.13333333,0,0,-0.13333333,0,666.66667)" />
      <path
         id="path127"
         d="m 2852.44,2278.26 c -62.1,7.38 -103.71,65.18 -102.89,125.72 -6.24,54.77 -7.28,110.08 -21.89,163.47 0,5.19 4.33,9.52 9.52,9.52 14.05,-1.54 11.5,-26.69 16.32,-37.32 9.65,-42.41 8.47,-86.26 14.51,-129.21 0.28,-48.3 21.41,-93.04 69.48,-109.52 19.98,-6.61 41.52,-4.75 62.03,-2 5.14,0.72 10.03,-3 10.73,-8.14 0.32,-19.33 -44.48,-11.94 -57.81,-12.52"
         style="fill:#040606;fill-opacity:1;fill-rule:evenodd;stroke:none"
         transform="matrix(0.13333333,0,0,-0.13333333,0,666.66667)" />
      <path
         id="path128"
         d="m 2899.11,2303.64 c -21.61,1.59 -39.4,15.47 -56.26,27.83 -48.31,33.9 -29.83,96.95 -16.43,144.34 3.17,11.84 21.7,6.85 18.37,-5.06 -9.05,-38.47 -30.56,-89.55 5.22,-120.48 17.02,-11.89 38.08,-34.4 59.27,-23.82 19.89,-3.64 4.47,-26.12 -10.17,-22.81"
         style="fill:#040606;fill-opacity:1;fill-rule:evenodd;stroke:none"
         transform="matrix(0.13333333,0,0,-0.13333333,0,666.66667)" />
      <path
         id="path129"
         d="m 2892.7,2338.89 c -15.45,11.62 -28.12,27.49 -35.55,45.37 -2.66,12.78 -20.15,44.71 -1.98,50.3 16.63,1.36 12.35,-37.56 22.43,-49.3 7.92,-13.55 18.18,-27.6 32.69,-34.46 4.66,0.96 9.56,-2.39 10.8,-6.89 2.46,-17.3 -20.32,-12.95 -28.39,-5.02"
         style="fill:#040606;fill-opacity:1;fill-rule:evenodd;stroke:none"
         transform="matrix(0.13333333,0,0,-0.13333333,0,666.66667)" />
      <path
         id="path130"
         d="m 2910.54,2369.8 c -19.89,14.47 -32.11,37.14 -39.07,60.33 -1.51,4.97 1.74,10.36 6.65,11.72 16.64,2.08 14.93,-27.26 25.27,-36.75 5.33,-8.75 12.65,-15.57 20.61,-21.83 8.74,-8.69 -4.87,-22.31 -13.46,-13.47"
         style="fill:#040606;fill-opacity:1;fill-rule:evenodd;stroke:none"
         transform="matrix(0.13333333,0,0,-0.13333333,0,666.66667)" />
      <path
         id="path131"
         d="m 2916.76,2419 c -10.52,9.24 -38.62,4.19 -38.77,20.64 0.67,4.99 5.62,9.05 10.73,8.15 12.68,-2.68 52.92,-12.6 54.8,-26.07 -1.44,-15.14 -18.71,-8.41 -26.76,-2.72"
         style="fill:#040606;fill-opacity:1;fill-rule:evenodd;stroke:none"
         transform="matrix(0.13333333,0,0,-0.13333333,0,666.66667)" />
      <path
         id="path132"
         d="m 2934.47,2433.47 c 0.52,14.19 -3,28.28 -8.6,41.24 -4.94,11.29 12.8,18.81 17.55,7.42 4.61,-12.94 21.3,-54.41 0.57,-58.18 -5.19,0 -9.52,4.33 -9.52,9.52"
         style="fill:#040606;fill-opacity:1;fill-rule:evenodd;stroke:none"
         transform="matrix(0.13333333,0,0,-0.13333333,0,666.66667)" />
      <path
         id="path133"
         d="m 3039,3445.46 c -3.48,2.03 -4.37,6.33 -2.57,9.78 0.44,0.82 0.87,1.65 0.89,1.66 17.49,33.83 21.63,72.5 14.38,109.56 -0.59,3.84 2.31,7.53 6.12,8.05 14.68,-0.09 10.23,-39.56 11.63,-50.69 -0.4,-14.72 -11.07,-84.04 -30.45,-78.36"
         style="fill:#040606;fill-opacity:1;fill-rule:evenodd;stroke:none"
         transform="matrix(0.13333333,0,0,-0.13333333,0,666.66667)" />
      <path
         id="path134"
         d="m 3640.49,3459.26 c -25.11,18.83 -36.1,49.37 -49.08,76.79 -2.13,8.24 -14.88,20.93 -4.27,27.27 11.7,7.97 31.84,-61.79 42.9,-72.28 3.84,-11.19 26.18,-18.34 20.47,-30.5 -2.36,-3.04 -7.01,-3.72 -10.02,-1.28"
         style="fill:#040606;fill-opacity:1;fill-rule:evenodd;stroke:none"
         transform="matrix(0.13333333,0,0,-0.13333333,0,666.66667)" />
      <path
         id="path135"
         d="m 3368.67,2947.42 c -4.06,240.41 2.02,480.73 6.42,721.04 -1.11,21.17 19.98,18.95 14.15,-1.97 -1.11,-155.74 -8.08,-311.43 -7.4,-467.17 0.33,-61.95 -0.25,-123.87 0.53,-185.8 0.26,-22.04 0.35,-44.07 0.58,-66.1 0.09,-8.95 -14.36,-9.46 -14.28,0"
         style="fill:#040606;fill-opacity:1;fill-rule:evenodd;stroke:none"
         transform="matrix(0.13333333,0,0,-0.13333333,0,666.66667)" />
      <path
         id="path136"
         d="m 3499.96,3034.44 c -8.6,9.88 -51.64,70.91 -28.69,75.82 10.4,-1.31 9.01,-22 15.87,-29.81 6.27,-14.83 18.02,-27.16 25.01,-40.96 0.25,-6.08 -8.08,-9.66 -12.19,-5.05"
         style="fill:#040606;fill-opacity:1;fill-rule:evenodd;stroke:none"
         transform="matrix(0.13333333,0,0,-0.13333333,0,666.66667)" />
      <path
         id="path137"
         d="m 3267.13,3035.76 c -10.51,9.24 9.33,24.01 11.75,34.5 7.52,14.85 12.98,30.54 18.49,46.22 6.12,10.79 18.53,-0.63 11.66,-9.64 -5.77,-13.64 -24.92,-76.56 -41.9,-71.08"
         style="fill:#040606;fill-opacity:1;fill-rule:evenodd;stroke:none"
         transform="matrix(0.13333333,0,0,-0.13333333,0,666.66667)" />
      <path
         id="path138"
         d="m 3281.95,4121.09 c -13.37,14.43 -44.99,155.56 -16.77,153.91 4.18,-1.14 6.23,-5.73 4.77,-9.7 -3.41,-29.89 2.5,-60.07 7.47,-89.49 3.62,-16.43 8.78,-32.69 16.87,-47.5 4.69,-7.92 -7.74,-15.29 -12.34,-7.22"
         style="fill:#040606;fill-opacity:1;fill-rule:evenodd;stroke:none"
         transform="matrix(0.13333333,0,0,-0.13333333,0,666.66667)" />
      <path
         id="path139"
         d="m 3335.31,4083.56 c -15.03,9.46 -59.62,104.95 -35.62,111.84 10.65,-0.98 6.42,-15.17 9.01,-22.45 2.39,-12.09 5.88,-24 10.5,-35.43 0.74,-12.07 41.45,-55.53 16.11,-53.96"
         style="fill:#040606;fill-opacity:1;fill-rule:evenodd;stroke:none"
         transform="matrix(0.13333333,0,0,-0.13333333,0,666.66667)" />
      <path
         id="path140"
         d="m 3499.11,4422.13 c -6.66,0.93 -6.49,7.99 -5.68,13.16 0.94,18.36 0.13,36.84 -3.27,54.92 0.28,12.69 -18.48,48.09 -3.33,53.11 13.43,7.73 33.26,-129.93 12.28,-121.19"
         style="fill:#040606;fill-opacity:1;fill-rule:evenodd;stroke:none"
         transform="matrix(0.13333333,0,0,-0.13333333,0,666.66667)" />
      <path
         id="path141"
         d="m 3463.23,4411.19 c -0.63,13.69 -1.87,27.45 -5.64,40.68 -1.69,6.06 -6.76,15.52 2.05,18.31 16.68,0.97 16.23,-46.36 17.87,-58.99 0.12,-9.23 -14.31,-9.26 -14.28,0"
         style="fill:#040606;fill-opacity:1;fill-rule:evenodd;stroke:none"
         transform="matrix(0.13333333,0,0,-0.13333333,0,666.66667)" />
      <path
         id="path142"
         d="m 3042.1,2784.62 c -5.05,-0.4 -9.81,5.12 -7.59,9.92 5.14,8.12 20.54,4.29 29.17,8.36 51.94,11.34 104.5,19.86 157.22,26.62 151.27,17.31 304.79,21.75 456.33,5.47 10.92,-1.59 21.77,-3.5 32.59,-5.63 3.82,-0.75 6.07,-5.08 5.15,-8.69 -2.31,-7.86 -10.8,-4.66 -16.64,-3.63 -218.07,29.04 -441.38,11.53 -656.23,-32.42"
         style="fill:#040606;fill-opacity:1;fill-rule:evenodd;stroke:none"
         transform="matrix(0.13333333,0,0,-0.13333333,0,666.66667)" />
      <path
         id="path143"
         d="m 3366.27,2294.09 c -124.18,14.03 -373.51,119.43 -393.07,257.57 -3.6,9.04 7.76,18.38 13.32,8.33 1.08,-5.8 1.3,-11.79 2.8,-17.59 24.45,-99.74 177.86,-175.54 268.09,-207.8 28.83,-9.21 58.08,-17.51 87.83,-23.13 8.95,-4.04 28.1,2 28.94,-11.1 -0.45,-4 -4.08,-6.54 -7.91,-6.28"
         style="fill:#040606;fill-opacity:1;fill-rule:evenodd;stroke:none"
         transform="matrix(0.13333333,0,0,-0.13333333,0,666.66667)" />
      <path
         id="path144"
         d="m 3357.94,2298.01 c -9.29,15.77 17.07,14 26.28,14.45 26.56,0.99 53.1,3.3 79.04,9.29 114.71,28.74 237.08,89.13 294.98,196.99 7.6,8.97 12.38,47.3 25.25,42.52 3.74,-1.52 5.2,-5.64 3.93,-9.32 -51.83,-160.91 -271.22,-259.64 -429.48,-253.93"
         style="fill:#040606;fill-opacity:1;fill-rule:evenodd;stroke:none"
         transform="matrix(0.13333333,0,0,-0.13333333,0,666.66667)" />
      <path
         id="path145"
         d="m 3372.99,2308.9 c -7.39,3.17 -3.3,11.1 -1.31,16.54 8.7,25.2 6.52,52.16 6.02,78.35 -3.44,21.18 13.95,26.07 14.74,10.57 -2.31,-20.22 7.08,-104.17 -19.45,-105.46"
         style="fill:#040606;fill-opacity:1;fill-rule:evenodd;stroke:none"
         transform="matrix(0.13333333,0,0,-0.13333333,0,666.66667)" />
      <path
         id="path146"
         d="m 3002.26,1539.44 c -19.19,15.43 26.02,46.2 39.06,53.45 10.13,3.18 35.87,18.11 41.82,4.95 0.84,-3.75 -1.6,-7.75 -5.41,-8.53 -26.18,-4.22 -51.86,-18.39 -65.81,-41.45 1.4,-5.4 -4.5,-10.34 -9.66,-8.42"
         style="fill:#040606;fill-opacity:1;fill-rule:evenodd;stroke:none"
         transform="matrix(0.13333333,0,0,-0.13333333,0,666.66667)" />
      <path
         id="path147"
         d="m 3647.63,1537.73 c -13.94,10.85 -24.13,27.39 -41.09,35.14 -6.37,5.59 -20.68,3.88 -21.38,13.87 3.61,28.1 97.67,-46.46 62.47,-49.01"
         style="fill:#040606;fill-opacity:1;fill-rule:evenodd;stroke:none"
         transform="matrix(0.13333333,0,0,-0.13333333,0,666.66667)" />
      <path
         id="path148"
         d="m 3747.02,1654.56 c -14.29,3.09 -1.6,30.17 -2.97,40.02 5.48,47.51 2.62,96.95 -3.18,144 -5.06,10.81 6.68,22.55 12.9,9.43 5.65,-28.56 16.37,-182.14 -6.75,-193.45"
         style="fill:#040606;fill-opacity:1;fill-rule:evenodd;stroke:none"
         transform="matrix(0.13333333,0,0,-0.13333333,0,666.66667)" />
      <path
         id="path149"
         d="m 2931.21,1696.73 c -3.38,22.9 9.23,173.84 31.71,175.51 13.92,-5.77 -2.52,-27.58 -2.65,-38.56 -5.01,-19.88 -9.29,-39.97 -11.45,-60.38 -2.97,-24.92 -4.09,-50.37 -3.38,-75.33 0.94,-9.16 -13.64,-10.48 -14.23,-1.24"
         style="fill:#040606;fill-opacity:1;fill-rule:evenodd;stroke:none"
         transform="matrix(0.13333333,0,0,-0.13333333,0,666.66667)" />
      <path
         id="path150"
         d="m 2636.89,3014.07 c -7.39,2.96 -5.76,14.54 2.52,14.25 4.45,-1.6 8.38,-2.03 13.02,-0.35 13.78,0.65 18.76,23.85 31.1,19.17 13.49,-16.08 -32.22,-41.9 -46.64,-33.07"
         style="fill:#040606;fill-opacity:1;fill-rule:evenodd;stroke:none"
         transform="matrix(0.13333333,0,0,-0.13333333,0,666.66667)" />
      <path
         id="path151"
         d="m 4090.54,2967.53 c -10.09,4.97 -25.75,9.82 -29.16,21.32 3.78,15.72 17.78,-0.47 25.39,-4.04 10.17,-5.14 21.59,-8.77 33.09,-7.56 3.87,0.39 7.44,-2.54 7.81,-6.42 -2.51,-15.57 -26.91,-5.86 -37.13,-3.3"
         style="fill:#040606;fill-opacity:1;fill-rule:evenodd;stroke:none"
         transform="matrix(0.13333333,0,0,-0.13333333,0,666.66667)" />
    </g>
  </g>
</svg>
