<?xml version="1.0" encoding="UTF-8" standalone="no"?>
<!-- Created with Inkscape (http://www.inkscape.org/) -->

<svg
   version="1.1"
   id="svg1"
   width="666.66669"
   height="666.66669"
   viewBox="0 0 666.66669 666.66669"
   sodipodi:docname="9249772.eps"
   xmlns:inkscape="http://www.inkscape.org/namespaces/inkscape"
   xmlns:sodipodi="http://sodipodi.sourceforge.net/DTD/sodipodi-0.dtd"
   xmlns="http://www.w3.org/2000/svg"
   xmlns:svg="http://www.w3.org/2000/svg">
  <defs
     id="defs1" />
  <sodipodi:namedview
     id="namedview1"
     pagecolor="#ffffff"
     bordercolor="#000000"
     borderopacity="0.25"
     inkscape:showpageshadow="2"
     inkscape:pageopacity="0.0"
     inkscape:pagecheckerboard="0"
     inkscape:deskcolor="#d1d1d1">
    <inkscape:page
       x="0"
       y="0"
       inkscape:label="1"
       id="page1"
       width="666.66669"
       height="666.66669"
       margin="0"
       bleed="0" />
  </sodipodi:namedview>
  <g
     id="g1"
     inkscape:groupmode="layer"
     inkscape:label="1">
    <g
       id="group-R5">
      <path
         id="path2"
         d="M 5000,0 H 0 V 5000 H 5000 V 0"
         style="fill:#ffffff;fill-opacity:1;fill-rule:nonzero;stroke:none"
         transform="matrix(0.13333333,0,0,-0.13333333,0,666.66667)" />
      <path
         id="path3"
         d="M 4459.8,2500 C 4459.8,1417.63 3582.37,540.199 2500,540.199 1417.63,540.199 540.199,1417.63 540.199,2500 c 0,1082.37 877.431,1959.8 1959.801,1959.8 1082.37,0 1959.8,-877.43 1959.8,-1959.8"
         style="fill:#feeaaa;fill-opacity:1;fill-rule:nonzero;stroke:none"
         transform="matrix(0.13333333,0,0,-0.13333333,0,666.66667)" />
      <path
         id="path4"
         d="m 1689.95,2399.42 c -0.3,-62.32 -1.52,-158.74 -20.95,-255.4 -35.72,-178.12 -86.27,-362.71 -86.27,-362.71 -12.16,-196.57 -67.41,-276.95 -67.41,-276.95 21.68,-212.17 2.55,-459.57 -47.41,-733.469 -6.28,-34.45 -8.83,-69.782 -5.39,-104.621 3.14,-30.711 -0.49,-58.391 -4.71,-78.008 -4.13,-19.532 -4.03,-39.852 1.08,-59.18 6.77,-25.711 10.2,-50.84 10.2,-74.883 0.98,-28.457 -35.88,-38.078 -55.41,-41.308 -10.99,-1.871 -19.33,-10.7 -20.21,-21.692 l -0.1,-0.789 c -1.77,-23.16 -33.58,-43.621 -48.89,-60.988 -70.76,-79.992 -111.29,-15.613 -111.29,-15.613 -35.72,-18.637 -51.91,2.461 -51.91,2.461 -27.68,-6.481 -38.96,13.832 -38.96,13.832 -30.91,-4.122 -32.58,20.32 -32.58,20.32 -26.89,35.918 22.08,41.609 64.18,69.769 39.55,26.5 70.07,64.868 70.07,64.868 l 41.8,76.55 c -2.65,25.02 -0.29,50.051 3.64,71.442 9.02,49.07 8.73,99.32 -0.79,148.289 -120.71,618.36 -2.85,793.53 -2.85,793.53 -10.5,73.11 3.44,170.56 3.44,170.56 -30.42,153.88 -40.34,303.15 -38.47,439.46 5.2,378.71 101.18,657.32 101.18,657.32 l 338.01,-442.79"
         style="fill:#ffffff;fill-opacity:1;fill-rule:nonzero;stroke:none"
         transform="matrix(0.13333333,0,0,-0.13333333,0,666.66667)" />
      <path
         id="path5"
         d="m 1689.95,2399.42 c -0.3,-62.32 -1.52,-158.74 -20.95,-255.4 -35.72,-178.12 -86.27,-362.71 -86.27,-362.71 -12.16,-196.57 -67.41,-276.95 -67.41,-276.95 21.68,-212.17 2.55,-459.57 -47.41,-733.469 -6.28,-34.45 -8.83,-69.782 -5.39,-104.621 3.14,-30.711 -0.49,-58.391 -4.71,-78.008 -4.13,-19.532 -4.03,-39.852 1.08,-59.18 6.77,-25.711 10.2,-50.84 10.2,-74.883 0.98,-28.457 -35.88,-38.078 -55.41,-41.308 -10.99,-1.871 -19.33,-10.7 -20.21,-21.692 l -0.1,-0.789 c -1.77,-23.16 -33.58,-43.621 -48.89,-60.988 -70.76,-79.992 -111.29,-15.613 -111.29,-15.613 -35.72,-18.637 -51.91,2.461 -51.91,2.461 -27.68,-6.481 -38.96,13.832 -38.96,13.832 -30.91,-4.122 -32.58,20.32 -32.58,20.32 -26.89,35.918 22.08,41.609 64.18,69.769 39.55,26.5 70.07,64.868 70.07,64.868 l 41.8,76.55 c -2.65,25.02 -0.29,50.051 3.64,71.442 9.02,49.07 8.73,99.32 -0.79,148.289 -120.71,618.36 -2.85,793.53 -2.85,793.53 -10.5,73.11 3.44,170.56 3.44,170.56 -30.42,153.88 -40.34,303.15 -38.47,439.46 5.2,378.71 101.18,657.32 101.18,657.32 z"
         style="fill:none;stroke:#341334;stroke-width:10;stroke-linecap:round;stroke-linejoin:round;stroke-miterlimit:10;stroke-dasharray:none;stroke-opacity:1"
         transform="matrix(0.13333333,0,0,-0.13333333,0,666.66667)" />
      <path
         id="path6"
         d="m 1256.11,324.199 c 3.45,-2.64 8.81,-7.051 11.88,-11.16 1.29,-1.73 3.65,-2.187 5.37,-0.879 5.51,4.18 14.87,13.32 6.93,22.512 0,0 -11.27,9.238 -24.6,-4.711 -1.59,-1.672 -1.42,-4.359 0.42,-5.762"
         style="fill:#ffffff;fill-opacity:1;fill-rule:nonzero;stroke:none"
         transform="matrix(0.13333333,0,0,-0.13333333,0,666.66667)" />
      <path
         id="path7"
         d="m 1256.11,324.199 c 3.45,-2.64 8.81,-7.051 11.88,-11.16 1.29,-1.73 3.65,-2.187 5.37,-0.879 5.51,4.18 14.87,13.32 6.93,22.512 0,0 -11.27,9.238 -24.6,-4.711 -1.59,-1.672 -1.42,-4.359 0.42,-5.762 z"
         style="fill:none;stroke:#341334;stroke-width:10;stroke-linecap:round;stroke-linejoin:round;stroke-miterlimit:10;stroke-dasharray:none;stroke-opacity:1"
         transform="matrix(0.13333333,0,0,-0.13333333,0,666.66667)" />
      <path
         id="path8"
         d="m 1199.98,337.43 c 2.45,-1.879 6.24,-5 8.42,-7.918 0.91,-1.231 2.59,-1.551 3.81,-0.621 3.9,2.968 10.54,9.441 4.92,15.961 0,0 -8,6.55 -17.45,-3.34 -1.12,-1.18 -1,-3.09 0.3,-4.082"
         style="fill:#ffffff;fill-opacity:1;fill-rule:nonzero;stroke:none"
         transform="matrix(0.13333333,0,0,-0.13333333,0,666.66667)" />
      <path
         id="path9"
         d="m 1199.98,337.43 c 2.45,-1.879 6.24,-5 8.42,-7.918 0.91,-1.231 2.59,-1.551 3.81,-0.621 3.9,2.968 10.54,9.441 4.92,15.961 0,0 -8,6.55 -17.45,-3.34 -1.12,-1.18 -1,-3.09 0.3,-4.082 z"
         style="fill:none;stroke:#341334;stroke-width:10;stroke-linecap:round;stroke-linejoin:round;stroke-miterlimit:10;stroke-dasharray:none;stroke-opacity:1"
         transform="matrix(0.13333333,0,0,-0.13333333,0,666.66667)" />
      <path
         id="path10"
         d="m 1156.29,348.621 c 2.02,-1.539 5.15,-4.109 6.94,-6.512 0.75,-1.007 2.13,-1.277 3.13,-0.519 3.21,2.449 8.68,7.781 4.04,13.14 0,0 -6.57,5.379 -14.35,-2.75 -0.92,-0.968 -0.82,-2.55 0.24,-3.359"
         style="fill:#ffffff;fill-opacity:1;fill-rule:nonzero;stroke:none"
         transform="matrix(0.13333333,0,0,-0.13333333,0,666.66667)" />
      <path
         id="path11"
         d="m 1156.29,348.621 c 2.02,-1.539 5.15,-4.109 6.94,-6.512 0.75,-1.007 2.13,-1.277 3.13,-0.519 3.21,2.449 8.68,7.781 4.04,13.14 0,0 -6.57,5.379 -14.35,-2.75 -0.92,-0.968 -0.82,-2.55 0.24,-3.359 z"
         style="fill:none;stroke:#341334;stroke-width:10;stroke-linecap:round;stroke-linejoin:round;stroke-miterlimit:10;stroke-dasharray:none;stroke-opacity:1"
         transform="matrix(0.13333333,0,0,-0.13333333,0,666.66667)" />
      <path
         id="path12"
         d="m 1125.68,364.27 c 2.02,-1.54 5.14,-4.11 6.93,-6.508 0.75,-1.012 2.14,-1.274 3.14,-0.512 3.21,2.441 8.67,7.77 4.04,13.129 0,0 -6.58,5.391 -14.35,-2.75 -0.93,-0.969 -0.83,-2.539 0.24,-3.359"
         style="fill:#ffffff;fill-opacity:1;fill-rule:nonzero;stroke:none"
         transform="matrix(0.13333333,0,0,-0.13333333,0,666.66667)" />
      <path
         id="path13"
         d="m 1125.68,364.27 c 2.02,-1.54 5.14,-4.11 6.93,-6.508 0.75,-1.012 2.14,-1.274 3.14,-0.512 3.21,2.441 8.67,7.77 4.04,13.129 0,0 -6.58,5.391 -14.35,-2.75 -0.93,-0.969 -0.83,-2.539 0.24,-3.359 z"
         style="fill:none;stroke:#341334;stroke-width:10;stroke-linecap:round;stroke-linejoin:round;stroke-miterlimit:10;stroke-dasharray:none;stroke-opacity:1"
         transform="matrix(0.13333333,0,0,-0.13333333,0,666.66667)" />
      <path
         id="path14"
         d="m 1113.55,381.531 c 1.3,-0.992 3.3,-2.64 4.44,-4.179 0.48,-0.641 1.37,-0.813 2.01,-0.321 2.06,1.559 5.56,4.981 2.59,8.41 0,0 -4.21,3.45 -9.19,-1.761 -0.6,-0.621 -0.53,-1.629 0.15,-2.149"
         style="fill:#ffffff;fill-opacity:1;fill-rule:nonzero;stroke:none"
         transform="matrix(0.13333333,0,0,-0.13333333,0,666.66667)" />
      <path
         id="path15"
         d="m 1113.55,381.531 c 1.3,-0.992 3.3,-2.64 4.44,-4.179 0.48,-0.641 1.37,-0.813 2.01,-0.321 2.06,1.559 5.56,4.981 2.59,8.41 0,0 -4.21,3.45 -9.19,-1.761 -0.6,-0.621 -0.53,-1.629 0.15,-2.149 z"
         style="fill:none;stroke:#341334;stroke-width:10;stroke-linecap:round;stroke-linejoin:round;stroke-miterlimit:10;stroke-dasharray:none;stroke-opacity:1"
         transform="matrix(0.13333333,0,0,-0.13333333,0,666.66667)" />
      <path
         id="path16"
         d="m 1233.23,313.832 c 0,0 -5.26,21.047 20.92,30.59 8.3,3.019 16.27,6.879 23.01,12.578 7.12,6.039 14.91,13.941 16.99,20.992"
         style="fill:none;stroke:#341334;stroke-width:10;stroke-linecap:round;stroke-linejoin:round;stroke-miterlimit:10;stroke-dasharray:none;stroke-opacity:1"
         transform="matrix(0.13333333,0,0,-0.13333333,0,666.66667)" />
      <path
         id="path17"
         d="m 1181.26,316.262 c 0,0 -9.75,33.297 25.99,42.238 0,0 26.8,8.121 34.92,16.242"
         style="fill:none;stroke:#341334;stroke-width:10;stroke-linecap:round;stroke-linejoin:round;stroke-miterlimit:10;stroke-dasharray:none;stroke-opacity:1"
         transform="matrix(0.13333333,0,0,-0.13333333,0,666.66667)" />
      <path
         id="path18"
         d="m 1142.27,330.07 c 0,0 -8.93,29.239 27.62,38.172 l 23.55,8.938"
         style="fill:none;stroke:#341334;stroke-width:10;stroke-linecap:round;stroke-linejoin:round;stroke-miterlimit:10;stroke-dasharray:none;stroke-opacity:1"
         transform="matrix(0.13333333,0,0,-0.13333333,0,666.66667)" />
      <path
         id="path19"
         d="m 1109.79,350.379 c 0,0 0.81,24.363 47.1,34.113"
         style="fill:none;stroke:#341334;stroke-width:10;stroke-linecap:round;stroke-linejoin:round;stroke-miterlimit:10;stroke-dasharray:none;stroke-opacity:1"
         transform="matrix(0.13333333,0,0,-0.13333333,0,666.66667)" />
      <path
         id="path20"
         d="m 1398.21,1653.08 c 0,0 112.86,-57.66 -4.91,-166.84"
         style="fill:none;stroke:#341334;stroke-width:10;stroke-linecap:round;stroke-linejoin:round;stroke-miterlimit:10;stroke-dasharray:none;stroke-opacity:1"
         transform="matrix(0.13333333,0,0,-0.13333333,0,666.66667)" />
      <path
         id="path21"
         d="m 1325.83,1677.61 c 0,0 -30.67,-49.07 -7.36,-158.25"
         style="fill:none;stroke:#341334;stroke-width:10;stroke-linecap:round;stroke-linejoin:round;stroke-miterlimit:10;stroke-dasharray:none;stroke-opacity:1"
         transform="matrix(0.13333333,0,0,-0.13333333,0,666.66667)" />
      <path
         id="path22"
         d="m 2267.16,350.422 c 0,0 -1.67,-24.442 -32.48,-20.32 0,0 -11.38,-20.313 -38.96,-13.832 0,0 -16.29,-21.098 -52.01,-2.461 0,0 -40.44,-64.379 -111.19,15.613 -8.58,9.66 -15.49,24.566 -20.23,39.879 -6.61,21.308 -41.18,40.73 -63.19,44.449 -0.11,0.02 -0.22,0.039 -0.33,0.051 -19.63,3.238 -47.4,12.859 -46.32,41.32 0,24.309 3.41,49.731 10.34,75.75 5.1,19.149 4.91,39.27 0.77,58.649 -4.18,19.609 -7.66,47.14 -4.63,77.671 3.53,34.84 0.98,70.168 -5.3,104.618 -49.95,273.901 -69.09,521.301 -47.5,733.471 0,0 -55.25,80.38 -67.42,276.94 0,0 -50.44,184.4 -86.16,362.42 -19.53,96.77 -12.31,192.46 -12.6,254.78 l 335.11,442.79 c 0,0 95.88,-278.41 101.08,-656.73 1.86,-136.51 -8.05,-285.97 -38.47,-440.05 0,0 13.94,-97.45 3.53,-170.56 0,0 117.77,-175.17 -2.84,-793.53 -9.62,-48.969 -9.82,-99.219 -0.79,-148.289 3.93,-21.391 6.28,-46.422 3.63,-71.442 l 41.71,-76.55 c 0,0 30.52,-38.368 70.07,-64.868 42.1,-28.16 91.07,-33.851 64.18,-69.769"
         style="fill:#ffffff;fill-opacity:1;fill-rule:nonzero;stroke:none"
         transform="matrix(0.13333333,0,0,-0.13333333,0,666.66667)" />
      <path
         id="path23"
         d="m 2267.16,350.422 c 0,0 -1.67,-24.442 -32.48,-20.32 0,0 -11.38,-20.313 -38.96,-13.832 0,0 -16.29,-21.098 -52.01,-2.461 0,0 -40.44,-64.379 -111.19,15.613 -8.58,9.66 -15.49,24.566 -20.23,39.879 -6.61,21.308 -41.18,40.73 -63.19,44.449 -0.11,0.02 -0.22,0.039 -0.33,0.051 -19.63,3.238 -47.4,12.859 -46.32,41.32 0,24.309 3.41,49.731 10.34,75.75 5.1,19.149 4.91,39.27 0.77,58.649 -4.18,19.609 -7.66,47.14 -4.63,77.671 3.53,34.84 0.98,70.168 -5.3,104.618 -49.95,273.901 -69.09,521.301 -47.5,733.471 0,0 -55.25,80.38 -67.42,276.94 0,0 -50.44,184.4 -86.16,362.42 -19.53,96.77 -12.31,192.46 -12.6,254.78 l 335.11,442.79 c 0,0 95.88,-278.41 101.08,-656.73 1.86,-136.51 -8.05,-285.97 -38.47,-440.05 0,0 13.94,-97.45 3.53,-170.56 0,0 117.77,-175.17 -2.84,-793.53 -9.62,-48.969 -9.82,-99.219 -0.79,-148.289 3.93,-21.391 6.28,-46.422 3.63,-71.442 l 41.71,-76.55 c 0,0 30.52,-38.368 70.07,-64.868 42.1,-28.16 91.07,-33.851 64.18,-69.769 z"
         style="fill:none;stroke:#341334;stroke-width:10;stroke-linecap:round;stroke-linejoin:round;stroke-miterlimit:10;stroke-dasharray:none;stroke-opacity:1"
         transform="matrix(0.13333333,0,0,-0.13333333,0,666.66667)" />
      <path
         id="path24"
         d="m 2120,322.98 c -3.46,-2.64 -8.81,-7.05 -11.88,-11.16 -1.29,-1.73 -3.66,-2.191 -5.38,-0.879 -5.5,4.188 -14.87,13.321 -6.93,22.52 0,0 11.27,9.23 24.6,-4.723 1.59,-1.656 1.42,-4.359 -0.41,-5.758"
         style="fill:#ffffff;fill-opacity:1;fill-rule:nonzero;stroke:none"
         transform="matrix(0.13333333,0,0,-0.13333333,0,666.66667)" />
      <path
         id="path25"
         d="m 2120,322.98 c -3.46,-2.64 -8.81,-7.05 -11.88,-11.16 -1.29,-1.73 -3.66,-2.191 -5.38,-0.879 -5.5,4.188 -14.87,13.321 -6.93,22.52 0,0 11.27,9.23 24.6,-4.723 1.59,-1.656 1.42,-4.359 -0.41,-5.758 z"
         style="fill:none;stroke:#341334;stroke-width:10;stroke-linecap:round;stroke-linejoin:round;stroke-miterlimit:10;stroke-dasharray:none;stroke-opacity:1"
         transform="matrix(0.13333333,0,0,-0.13333333,0,666.66667)" />
      <path
         id="path26"
         d="m 2176.13,336.211 c -2.45,-1.871 -6.25,-5 -8.43,-7.922 -0.91,-1.219 -2.59,-1.547 -3.81,-0.617 -3.9,2.969 -10.54,9.449 -4.91,15.957 0,0 7.99,6.551 17.44,-3.34 1.13,-1.18 1,-3.09 -0.29,-4.078"
         style="fill:#ffffff;fill-opacity:1;fill-rule:nonzero;stroke:none"
         transform="matrix(0.13333333,0,0,-0.13333333,0,666.66667)" />
      <path
         id="path27"
         d="m 2176.13,336.211 c -2.45,-1.871 -6.25,-5 -8.43,-7.922 -0.91,-1.219 -2.59,-1.547 -3.81,-0.617 -3.9,2.969 -10.54,9.449 -4.91,15.957 0,0 7.99,6.551 17.44,-3.34 1.13,-1.18 1,-3.09 -0.29,-4.078 z"
         style="fill:none;stroke:#341334;stroke-width:10;stroke-linecap:round;stroke-linejoin:round;stroke-miterlimit:10;stroke-dasharray:none;stroke-opacity:1"
         transform="matrix(0.13333333,0,0,-0.13333333,0,666.66667)" />
      <path
         id="path28"
         d="m 2219.81,347.398 c -2.02,-1.539 -5.14,-4.109 -6.93,-6.507 -0.75,-1.012 -2.14,-1.282 -3.14,-0.52 -3.21,2.449 -8.67,7.777 -4.04,13.141 0,0 6.58,5.39 14.35,-2.75 0.93,-0.973 0.83,-2.543 -0.24,-3.364"
         style="fill:#ffffff;fill-opacity:1;fill-rule:nonzero;stroke:none"
         transform="matrix(0.13333333,0,0,-0.13333333,0,666.66667)" />
      <path
         id="path29"
         d="m 2219.81,347.398 c -2.02,-1.539 -5.14,-4.109 -6.93,-6.507 -0.75,-1.012 -2.14,-1.282 -3.14,-0.52 -3.21,2.449 -8.67,7.777 -4.04,13.141 0,0 6.58,5.39 14.35,-2.75 0.93,-0.973 0.83,-2.543 -0.24,-3.364 z"
         style="fill:none;stroke:#341334;stroke-width:10;stroke-linecap:round;stroke-linejoin:round;stroke-miterlimit:10;stroke-dasharray:none;stroke-opacity:1"
         transform="matrix(0.13333333,0,0,-0.13333333,0,666.66667)" />
      <path
         id="path30"
         d="m 2250.42,363.051 c -2.02,-1.539 -5.14,-4.11 -6.93,-6.512 -0.75,-1.008 -2.13,-1.269 -3.13,-0.508 -3.22,2.438 -8.68,7.77 -4.05,13.129 0,0 6.58,5.391 14.35,-2.75 0.93,-0.969 0.83,-2.539 -0.24,-3.359"
         style="fill:#ffffff;fill-opacity:1;fill-rule:nonzero;stroke:none"
         transform="matrix(0.13333333,0,0,-0.13333333,0,666.66667)" />
      <path
         id="path31"
         d="m 2250.42,363.051 c -2.02,-1.539 -5.14,-4.11 -6.93,-6.512 -0.75,-1.008 -2.13,-1.269 -3.13,-0.508 -3.22,2.438 -8.68,7.77 -4.05,13.129 0,0 6.58,5.391 14.35,-2.75 0.93,-0.969 0.83,-2.539 -0.24,-3.359 z"
         style="fill:none;stroke:#341334;stroke-width:10;stroke-linecap:round;stroke-linejoin:round;stroke-miterlimit:10;stroke-dasharray:none;stroke-opacity:1"
         transform="matrix(0.13333333,0,0,-0.13333333,0,666.66667)" />
      <path
         id="path32"
         d="m 2262.55,380.309 c -1.29,-0.989 -3.29,-2.629 -4.44,-4.168 -0.48,-0.649 -1.37,-0.821 -2.01,-0.332 -2.06,1.562 -5.56,4.98 -2.59,8.41 0,0 4.21,3.453 9.19,-1.758 0.6,-0.621 0.53,-1.629 -0.15,-2.152"
         style="fill:#ffffff;fill-opacity:1;fill-rule:nonzero;stroke:none"
         transform="matrix(0.13333333,0,0,-0.13333333,0,666.66667)" />
      <path
         id="path33"
         d="m 2262.55,380.309 c -1.29,-0.989 -3.29,-2.629 -4.44,-4.168 -0.48,-0.649 -1.37,-0.821 -2.01,-0.332 -2.06,1.562 -5.56,4.98 -2.59,8.41 0,0 4.21,3.453 9.19,-1.758 0.6,-0.621 0.53,-1.629 -0.15,-2.152 z"
         style="fill:none;stroke:#341334;stroke-width:10;stroke-linecap:round;stroke-linejoin:round;stroke-miterlimit:10;stroke-dasharray:none;stroke-opacity:1"
         transform="matrix(0.13333333,0,0,-0.13333333,0,666.66667)" />
      <path
         id="path34"
         d="m 2143.72,313.832 c 0,0 5.26,21.047 -20.92,30.59 -8.29,3.019 -16.27,6.879 -23,12.578 -7.13,6.039 -14.92,13.941 -16.99,20.992"
         style="fill:none;stroke:#341334;stroke-width:10;stroke-linecap:round;stroke-linejoin:round;stroke-miterlimit:10;stroke-dasharray:none;stroke-opacity:1"
         transform="matrix(0.13333333,0,0,-0.13333333,0,666.66667)" />
      <path
         id="path35"
         d="m 2195.7,316.262 c 0,0 9.74,33.297 -25.99,42.238 0,0 -26.8,8.121 -34.93,16.242"
         style="fill:none;stroke:#341334;stroke-width:10;stroke-linecap:round;stroke-linejoin:round;stroke-miterlimit:10;stroke-dasharray:none;stroke-opacity:1"
         transform="matrix(0.13333333,0,0,-0.13333333,0,666.66667)" />
      <path
         id="path36"
         d="m 2234.68,330.07 c 0,0 8.93,29.239 -27.61,38.172 l -23.56,8.938"
         style="fill:none;stroke:#341334;stroke-width:10;stroke-linecap:round;stroke-linejoin:round;stroke-miterlimit:10;stroke-dasharray:none;stroke-opacity:1"
         transform="matrix(0.13333333,0,0,-0.13333333,0,666.66667)" />
      <path
         id="path37"
         d="m 2267.17,350.379 c 0,0 -0.81,24.363 -47.11,34.113"
         style="fill:none;stroke:#341334;stroke-width:10;stroke-linecap:round;stroke-linejoin:round;stroke-miterlimit:10;stroke-dasharray:none;stroke-opacity:1"
         transform="matrix(0.13333333,0,0,-0.13333333,0,666.66667)" />
      <path
         id="path38"
         d="m 1978.74,1653.08 c 0,0 -112.86,-57.66 4.91,-166.84"
         style="fill:none;stroke:#341334;stroke-width:10;stroke-linecap:round;stroke-linejoin:round;stroke-miterlimit:10;stroke-dasharray:none;stroke-opacity:1"
         transform="matrix(0.13333333,0,0,-0.13333333,0,666.66667)" />
      <path
         id="path39"
         d="m 2051.12,1677.61 c 0,0 30.67,-49.07 7.36,-158.25"
         style="fill:none;stroke:#341334;stroke-width:10;stroke-linecap:round;stroke-linejoin:round;stroke-miterlimit:10;stroke-dasharray:none;stroke-opacity:1"
         transform="matrix(0.13333333,0,0,-0.13333333,0,666.66667)" />
      <path
         id="path40"
         d="m 2006.02,3167.53 c -8.73,-46.81 -10.21,-94.7 -4.22,-142 l 8.34,-65.95 14.82,-117.37 -335.01,-442.79 v 0 l -338.11,442.79 14.62,114.92 8.64,68.4 c 5.89,47.3 4.51,95.19 -4.22,142 l -17.67,94.41 -90.48,194.61 -5.49,452.31 c 94.99,26.59 178.51,62.71 243.38,114.43 25.8,20.51 41.02,51.52 41.02,84.5 v 161.33 h 293.62 v -161.33 c 0,-32.98 15.21,-63.99 41.02,-84.5 64.77,-51.72 148.29,-87.84 243.38,-114.43 l -5.49,-452.31 -90.49,-194.61 -17.66,-94.41"
         style="fill:#ffffff;fill-opacity:1;fill-rule:nonzero;stroke:none"
         transform="matrix(0.13333333,0,0,-0.13333333,0,666.66667)" />
      <path
         id="path41"
         d="m 2006.02,3167.53 c -8.73,-46.81 -10.21,-94.7 -4.22,-142 l 8.34,-65.95 14.82,-117.37 -335.01,-442.79 v 0 l -338.11,442.79 14.62,114.92 8.64,68.4 c 5.89,47.3 4.51,95.19 -4.22,142 l -17.67,94.41 -90.48,194.61 -5.49,452.31 c 94.99,26.59 178.51,62.71 243.38,114.43 25.8,20.51 41.02,51.52 41.02,84.5 v 161.33 h 293.62 v -161.33 c 0,-32.98 15.21,-63.99 41.02,-84.5 64.77,-51.72 148.29,-87.84 243.38,-114.43 l -5.49,-452.31 -90.49,-194.61 z"
         style="fill:none;stroke:#341334;stroke-width:10;stroke-linecap:round;stroke-linejoin:round;stroke-miterlimit:10;stroke-dasharray:none;stroke-opacity:1"
         transform="matrix(0.13333333,0,0,-0.13333333,0,666.66667)" />
      <path
         id="path42"
         d="m 2126.14,2185.48 c -127.68,-24.44 -293.86,-38.38 -423.59,-40.84 -19.53,96.77 -12.31,192.46 -12.6,254.78 v 0 c -0.3,-62.32 -1.52,-158.74 -20.95,-255.4 -127.78,2.94 -288.5,17.91 -418.24,40.87 -16.05,737.5 42.94,773.25 42.94,773.25 214.72,-43.67 502.31,-43.21 716.54,1.44 l 96.8,-53.28 c 39.33,-117.98 40.08,-329.77 19.1,-720.82"
         style="fill:#ffffff;fill-opacity:1;fill-rule:nonzero;stroke:none"
         transform="matrix(0.13333333,0,0,-0.13333333,0,666.66667)" />
      <path
         id="path43"
         d="m 2126.14,2185.48 c -127.68,-24.44 -293.86,-38.38 -423.59,-40.84 -19.53,96.77 -12.31,192.46 -12.6,254.78 v 0 c -0.3,-62.32 -1.52,-158.74 -20.95,-255.4 -127.78,2.94 -288.5,17.91 -418.24,40.87 -16.05,737.5 42.94,773.25 42.94,773.25 214.72,-43.67 502.31,-43.21 716.54,1.44 l 96.8,-53.28 c 39.33,-117.98 40.08,-329.77 19.1,-720.82 z"
         style="fill:none;stroke:#341334;stroke-width:10;stroke-linecap:round;stroke-linejoin:round;stroke-miterlimit:10;stroke-dasharray:none;stroke-opacity:1"
         transform="matrix(0.13333333,0,0,-0.13333333,0,666.66667)" />
      <path
         id="path44"
         d="m 1640.15,2416.79 c 29.58,-22.17 63.28,-24.16 102.29,0"
         style="fill:#ffffff;fill-opacity:1;fill-rule:nonzero;stroke:#341334;stroke-width:10;stroke-linecap:round;stroke-linejoin:round;stroke-miterlimit:10;stroke-dasharray:none;stroke-opacity:1"
         transform="matrix(0.13333333,0,0,-0.13333333,0,666.66667)" />
      <path
         id="path45"
         d="m 1277.25,3406.43 c 0.6,-2.33 1.49,-4.93 2.6,-7.74 17.43,-43.95 17.27,-94.26 -4.47,-136.24 -2.95,-5.71 -5.1,-11.75 -6.35,-18.1 -4.37,-22.2 2.79,-45.06 18.64,-66.12 -17.9,-10.03 -31.04,-23.9 -37.19,-41.39 -6.15,-17.49 -4.67,-36.54 3.02,-55.57 -0.29,-0.75 -0.58,-1.49 -0.86,-2.24 -41.95,-110.3 8.07,-235.12 114.28,-286.56 0.88,-0.42 1.77,-0.85 2.65,-1.27 182.14,-87.14 407.09,-87.83 593.85,-6.86 21.63,9.38 41.39,18.44 58.56,26.59 75.65,35.93 123.01,102.37 122.2,175.05 -0.43,39.17 -12.09,77.56 -27.86,111.83 2.79,13.42 2.28,26.62 -2.09,39.03 -6.15,17.49 -19.28,31.36 -37.18,41.39 15.84,21.06 23.01,43.92 18.63,66.12 -0.91,4.63 -2.3,9.1 -4.13,13.4 -18.38,43.09 -21.74,91.02 -3.72,134.26 2.35,5.65 4.09,10.57 4.89,14.42"
         style="fill:#ffffff;fill-opacity:1;fill-rule:nonzero;stroke:#341334;stroke-width:10;stroke-linecap:round;stroke-linejoin:round;stroke-miterlimit:10;stroke-dasharray:none;stroke-opacity:1"
         transform="matrix(0.13333333,0,0,-0.13333333,0,666.66667)" />
      <path
         id="path46"
         d="m 1653.78,2982.71 c 0,0 37.95,12.15 25.8,-36.43"
         style="fill:none;stroke:#341334;stroke-width:10;stroke-linecap:round;stroke-linejoin:round;stroke-miterlimit:10;stroke-dasharray:none;stroke-opacity:1"
         transform="matrix(0.13333333,0,0,-0.13333333,0,666.66667)" />
      <path
         id="path47"
         d="m 1694.11,2188.22 c 119.13,3.43 289.04,16.89 430.85,44.56"
         style="fill:none;stroke:#341334;stroke-width:10;stroke-linecap:round;stroke-linejoin:round;stroke-miterlimit:10;stroke-dasharray:none;stroke-opacity:1"
         transform="matrix(0.13333333,0,0,-0.13333333,0,666.66667)" />
      <path
         id="path48"
         d="m 1251.64,2225.13 c 89.31,-17.08 248.01,-37.54 416.51,-38.72"
         style="fill:none;stroke:#341334;stroke-width:10;stroke-linecap:round;stroke-linejoin:round;stroke-miterlimit:10;stroke-dasharray:none;stroke-opacity:1"
         transform="matrix(0.13333333,0,0,-0.13333333,0,666.66667)" />
      <path
         id="path49"
         d="m 1483.24,2628.13 132.39,-76.79 21.19,-100.62"
         style="fill:none;stroke:#341334;stroke-width:10;stroke-linecap:round;stroke-linejoin:round;stroke-miterlimit:10;stroke-dasharray:none;stroke-opacity:1"
         transform="matrix(0.13333333,0,0,-0.13333333,0,666.66667)" />
      <path
         id="path50"
         d="m 1893.66,2628.13 -132.39,-76.79 -21.19,-100.62"
         style="fill:none;stroke:#341334;stroke-width:10;stroke-linecap:round;stroke-linejoin:round;stroke-miterlimit:10;stroke-dasharray:none;stroke-opacity:1"
         transform="matrix(0.13333333,0,0,-0.13333333,0,666.66667)" />
      <path
         id="path51"
         d="m 1368.91,3905.55 c 0,0 254.68,17.4 306.88,-61.69"
         style="fill:none;stroke:#341334;stroke-width:10;stroke-linecap:round;stroke-linejoin:round;stroke-miterlimit:10;stroke-dasharray:none;stroke-opacity:1"
         transform="matrix(0.13333333,0,0,-0.13333333,0,666.66667)" />
      <path
         id="path52"
         d="m 1701.1,3845.44 c 4.75,1.58 49.04,74.35 306.88,58.53"
         style="fill:none;stroke:#341334;stroke-width:10;stroke-linecap:round;stroke-linejoin:round;stroke-miterlimit:10;stroke-dasharray:none;stroke-opacity:1"
         transform="matrix(0.13333333,0,0,-0.13333333,0,666.66667)" />
      <path
         id="path53"
         d="m 1766.39,4109.61 c 0,0 -39.54,-74.34 -53.78,-227.79"
         style="fill:none;stroke:#341334;stroke-width:10;stroke-linecap:round;stroke-linejoin:round;stroke-miterlimit:10;stroke-dasharray:none;stroke-opacity:1"
         transform="matrix(0.13333333,0,0,-0.13333333,0,666.66667)" />
      <path
         id="path54"
         d="m 1610.51,4109.61 c 0,0 39.54,-74.34 53.78,-227.79"
         style="fill:none;stroke:#341334;stroke-width:10;stroke-linecap:round;stroke-linejoin:round;stroke-miterlimit:10;stroke-dasharray:none;stroke-opacity:1"
         transform="matrix(0.13333333,0,0,-0.13333333,0,666.66667)" />
      <path
         id="path55"
         d="m 1835.92,4094.63 c 6.63,-48.83 22.31,-98.97 47.02,-141.7"
         style="fill:none;stroke:#341334;stroke-width:10;stroke-linecap:round;stroke-linejoin:round;stroke-miterlimit:10;stroke-dasharray:none;stroke-opacity:1"
         transform="matrix(0.13333333,0,0,-0.13333333,0,666.66667)" />
      <path
         id="path56"
         d="m 1540.98,4094.63 c -6.63,-48.83 -22.31,-98.97 -47.02,-141.7"
         style="fill:none;stroke:#341334;stroke-width:10;stroke-linecap:round;stroke-linejoin:round;stroke-miterlimit:10;stroke-dasharray:none;stroke-opacity:1"
         transform="matrix(0.13333333,0,0,-0.13333333,0,666.66667)" />
      <path
         id="path57"
         d="m 1552.36,4369.96 c 7.82,-41.85 16.52,-79.41 -5.76,-83.57 -22.29,-4.17 -67.11,26.64 -74.93,68.49 -7.83,41.84 3.9,79.15 26.18,83.31 22.28,4.17 46.69,-26.38 54.51,-68.23"
         style="fill:#ffffff;fill-opacity:1;fill-rule:nonzero;stroke:none"
         transform="matrix(0.13333333,0,0,-0.13333333,0,666.66667)" />
      <path
         id="path58"
         d="m 1552.36,4369.96 c 7.82,-41.85 16.52,-79.41 -5.76,-83.57 -22.29,-4.17 -67.11,26.64 -74.93,68.49 -7.83,41.84 3.9,79.15 26.18,83.31 22.28,4.17 46.69,-26.38 54.51,-68.23 z"
         style="fill:none;stroke:#341334;stroke-width:10;stroke-linecap:round;stroke-linejoin:round;stroke-miterlimit:10;stroke-dasharray:none;stroke-opacity:1"
         transform="matrix(0.13333333,0,0,-0.13333333,0,666.66667)" />
      <path
         id="path59"
         d="m 1824.06,4369.96 c -7.82,-41.85 -16.51,-79.41 5.77,-83.57 22.28,-4.17 67.1,26.64 74.93,68.49 7.82,41.84 -3.9,79.15 -26.18,83.31 -22.29,4.17 -46.69,-26.38 -54.52,-68.23"
         style="fill:#ffffff;fill-opacity:1;fill-rule:nonzero;stroke:none"
         transform="matrix(0.13333333,0,0,-0.13333333,0,666.66667)" />
      <path
         id="path60"
         d="m 1824.06,4369.96 c -7.82,-41.85 -16.51,-79.41 5.77,-83.57 22.28,-4.17 67.1,26.64 74.93,68.49 7.82,41.84 -3.9,79.15 -26.18,83.31 -22.29,4.17 -46.69,-26.38 -54.52,-68.23 z"
         style="fill:none;stroke:#341334;stroke-width:10;stroke-linecap:round;stroke-linejoin:round;stroke-miterlimit:10;stroke-dasharray:none;stroke-opacity:1"
         transform="matrix(0.13333333,0,0,-0.13333333,0,666.66667)" />
      <path
         id="path61"
         d="m 1826.04,4182.7 c -93.65,-73.4 -188.46,-70.25 -281.74,1.86 -23.7,18.32 -36.34,46.82 -35.65,76.25 -5.5,74.09 -5.69,154.09 -1.79,237.66 3.75,80.17 76.17,142.92 162.43,142.92 h 32.83 c 85.87,0 158.8,-62.21 162.41,-141.98 3.62,-79.95 3.49,-160.15 -1.76,-239.5 0.7,-29.93 -12.77,-58.43 -36.73,-77.21"
         style="fill:#ffffff;fill-opacity:1;fill-rule:nonzero;stroke:none"
         transform="matrix(0.13333333,0,0,-0.13333333,0,666.66667)" />
      <path
         id="path62"
         d="m 1826.04,4182.7 c -93.65,-73.4 -188.46,-70.25 -281.74,1.86 -23.7,18.32 -36.34,46.82 -35.65,76.25 -5.5,74.09 -5.69,154.09 -1.79,237.66 3.75,80.17 76.17,142.92 162.43,142.92 h 32.83 c 85.87,0 158.8,-62.21 162.41,-141.98 3.62,-79.95 3.49,-160.15 -1.76,-239.5 0.7,-29.93 -12.77,-58.43 -36.73,-77.21 z"
         style="fill:none;stroke:#341334;stroke-width:10;stroke-linecap:round;stroke-linejoin:round;stroke-miterlimit:10;stroke-dasharray:none;stroke-opacity:1"
         transform="matrix(0.13333333,0,0,-0.13333333,0,666.66667)" />
      <path
         id="path63"
         d="m 1946.62,4451.66 c -38.24,52.17 -31.12,120.15 -52.37,178.67 -22.67,62.38 -85.64,96.35 -148.17,107.45 -53.08,9.43 -109.92,5.07 -159.99,-15.47 -39.81,-16.33 -75.05,-43.84 -96.37,-81.66 -21.81,-38.7 -32.06,-82.51 -38.87,-126.04 -3.17,-20.21 -8.71,-33.77 -22.21,-49.66 -8.76,-10.32 -29.37,-30.22 -44.53,-28.92 18.65,-1.6 37.86,5.02 51.56,17.77 -11.05,-12.92 -10.43,-32.91 -2.5,-47.95 7.93,-15.04 21.79,-26 35.98,-35.37 -11.83,30.98 -6.85,67.81 12.79,94.53 7.11,-17.08 4.1,-37.95 -7.55,-52.32 40.48,10.74 76.25,35.4 105.52,65.36 29.27,29.95 52.56,65.15 74.51,100.82 7.35,-40.3 36.28,-76 74.18,-91.55 -13.3,32.22 -17.22,68.24 -11.19,102.57 25.14,-62.64 74.42,-115.25 135.29,-144.41 -9.78,16.14 -14.88,35.07 -14.54,53.94 15.84,-13.92 29.89,-30.63 38.35,-49.77 l -1.36,-56.33 c 3.41,5.31 6.4,10.8 9.21,16.36 -0.91,-19.49 -8.56,-38.56 -23.59,-50.73 15.49,-4.85 32.74,1.48 45,12.12 12.26,10.63 20.52,25.03 28.54,39.13 6.63,-9.99 19.21,-14.76 31.2,-14.9 12,-0.14 23.66,3.67 34.98,7.66 -19.59,14.39 -39.5,29.1 -53.87,48.7"
         style="fill:#ffffff;fill-opacity:1;fill-rule:nonzero;stroke:none"
         transform="matrix(0.13333333,0,0,-0.13333333,0,666.66667)" />
      <path
         id="path64"
         d="m 1946.62,4451.66 c -38.24,52.17 -31.12,120.15 -52.37,178.67 -22.67,62.38 -85.64,96.35 -148.17,107.45 -53.08,9.43 -109.92,5.07 -159.99,-15.47 -39.81,-16.33 -75.05,-43.84 -96.37,-81.66 -21.81,-38.7 -32.06,-82.51 -38.87,-126.04 -3.17,-20.21 -8.71,-33.77 -22.21,-49.66 -8.76,-10.32 -29.37,-30.22 -44.53,-28.92 18.65,-1.6 37.86,5.02 51.56,17.77 -11.05,-12.92 -10.43,-32.91 -2.5,-47.95 7.93,-15.04 21.79,-26 35.98,-35.37 -11.83,30.98 -6.85,67.81 12.79,94.53 7.11,-17.08 4.1,-37.95 -7.55,-52.32 40.48,10.74 76.25,35.4 105.52,65.36 29.27,29.95 52.56,65.15 74.51,100.82 7.35,-40.3 36.28,-76 74.18,-91.55 -13.3,32.22 -17.22,68.24 -11.19,102.57 25.14,-62.64 74.42,-115.25 135.29,-144.41 -9.78,16.14 -14.88,35.07 -14.54,53.94 15.84,-13.92 29.89,-30.63 38.35,-49.77 l -1.36,-56.33 c 3.41,5.31 6.4,10.8 9.21,16.36 -0.91,-19.49 -8.56,-38.56 -23.59,-50.73 15.49,-4.85 32.74,1.48 45,12.12 12.26,10.63 20.52,25.03 28.54,39.13 6.63,-9.99 19.21,-14.76 31.2,-14.9 12,-0.14 23.66,3.67 34.98,7.66 -19.59,14.39 -39.5,29.1 -53.87,48.7 z"
         style="fill:none;stroke:#341334;stroke-width:10;stroke-linecap:round;stroke-linejoin:round;stroke-miterlimit:10;stroke-dasharray:none;stroke-opacity:1"
         transform="matrix(0.13333333,0,0,-0.13333333,0,666.66667)" />
      <path
         id="path65"
         d="m 1564.03,4409.61 c 8.31,6.49 16.15,10.77 23.35,13.38 19.32,6.89 34.44,1.42 44.73,-5.94 v -0.08 c 10.53,-7.36 16.08,-16.79 16.08,-16.79"
         style="fill:none;stroke:#341334;stroke-width:10;stroke-linecap:round;stroke-linejoin:round;stroke-miterlimit:10;stroke-dasharray:none;stroke-opacity:1"
         transform="matrix(0.13333333,0,0,-0.13333333,0,666.66667)" />
      <path
         id="path66"
         d="m 1632.11,4417.05 v -0.08 c 0,-14.01 -10.21,-25.33 -22.72,-25.33 -12.51,0 -22.72,11.32 -22.72,25.33 0,2.06 0.24,4.12 0.71,6.02 19.32,6.89 34.44,1.42 44.73,-5.94 z"
         style="fill:none;stroke:#341334;stroke-width:10;stroke-linecap:round;stroke-linejoin:round;stroke-miterlimit:10;stroke-dasharray:none;stroke-opacity:1"
         transform="matrix(0.13333333,0,0,-0.13333333,0,666.66667)" />
      <path
         id="path67"
         d="m 1733.71,4400.18 c 0,0 5.54,9.43 16.07,16.79 v 0.08 c 10.29,7.36 25.41,12.83 44.73,5.94 7.21,-2.61 15.04,-6.89 23.36,-13.38"
         style="fill:none;stroke:#341334;stroke-width:10;stroke-linecap:round;stroke-linejoin:round;stroke-miterlimit:10;stroke-dasharray:none;stroke-opacity:1"
         transform="matrix(0.13333333,0,0,-0.13333333,0,666.66667)" />
      <path
         id="path68"
         d="m 1749.78,4417.05 v -0.08 c 0,-14.01 10.21,-25.33 22.72,-25.33 12.51,0 22.72,11.32 22.72,25.33 0,2.06 -0.23,4.12 -0.71,6.02 -19.32,6.89 -34.44,1.42 -44.73,-5.94 z"
         style="fill:none;stroke:#341334;stroke-width:10;stroke-linecap:round;stroke-linejoin:round;stroke-miterlimit:10;stroke-dasharray:none;stroke-opacity:1"
         transform="matrix(0.13333333,0,0,-0.13333333,0,666.66667)" />
      <path
         id="path69"
         d="m 1555.9,4447.72 v 0 c 16.28,14.61 38.72,18.84 58.76,11.08 l 45.7,-12.93 1.79,15.13 -46.14,7.38 c -20.38,5.36 -41.91,-1.08 -56.63,-16.92 l -3.48,-3.74"
         style="fill:#341334;fill-opacity:1;fill-rule:nonzero;stroke:none"
         transform="matrix(0.13333333,0,0,-0.13333333,0,666.66667)" />
      <path
         id="path70"
         d="m 1555.9,4447.72 v 0 c 16.28,14.61 38.72,18.84 58.76,11.08 l 45.7,-12.93 1.79,15.13 -46.14,7.38 c -20.38,5.36 -41.91,-1.08 -56.63,-16.92 z"
         style="fill:none;stroke:#341334;stroke-width:10;stroke-linecap:round;stroke-linejoin:round;stroke-miterlimit:10;stroke-dasharray:none;stroke-opacity:1"
         transform="matrix(0.13333333,0,0,-0.13333333,0,666.66667)" />
      <path
         id="path71"
         d="m 1825.97,4447.72 v 0 c -16.28,14.61 -38.71,18.84 -58.76,11.08 l -45.69,-12.93 -1.79,15.13 46.14,7.38 c 20.37,5.36 41.91,-1.08 56.63,-16.92 l 3.47,-3.74"
         style="fill:#341334;fill-opacity:1;fill-rule:nonzero;stroke:none"
         transform="matrix(0.13333333,0,0,-0.13333333,0,666.66667)" />
      <path
         id="path72"
         d="m 1825.97,4447.72 v 0 c -16.28,14.61 -38.71,18.84 -58.76,11.08 l -45.69,-12.93 -1.79,15.13 46.14,7.38 c 20.37,5.36 41.91,-1.08 56.63,-16.92 z"
         style="fill:none;stroke:#341334;stroke-width:10;stroke-linecap:round;stroke-linejoin:round;stroke-miterlimit:10;stroke-dasharray:none;stroke-opacity:1"
         transform="matrix(0.13333333,0,0,-0.13333333,0,666.66667)" />
      <path
         id="path73"
         d="m 1711.98,4422.85 c 0,0 -10.88,-15.6 -6.15,-74.22"
         style="fill:none;stroke:#341334;stroke-width:10;stroke-linecap:round;stroke-linejoin:round;stroke-miterlimit:10;stroke-dasharray:none;stroke-opacity:1"
         transform="matrix(0.13333333,0,0,-0.13333333,0,666.66667)" />
      <path
         id="path74"
         d="m 1661.86,4309.38 c 0,0 5.17,-2.38 15.49,-2.78"
         style="fill:none;stroke:#341334;stroke-width:10;stroke-linecap:round;stroke-linejoin:round;stroke-miterlimit:10;stroke-dasharray:none;stroke-opacity:1"
         transform="matrix(0.13333333,0,0,-0.13333333,0,666.66667)" />
      <path
         id="path75"
         d="m 1718.6,4309.38 c 0,0 -5.76,-2.65 -17.27,-2.83"
         style="fill:none;stroke:#341334;stroke-width:10;stroke-linecap:round;stroke-linejoin:round;stroke-miterlimit:10;stroke-dasharray:none;stroke-opacity:1"
         transform="matrix(0.13333333,0,0,-0.13333333,0,666.66667)" />
      <path
         id="path76"
         d="m 1659.85,4221.02 c 10.46,-4.08 24.84,-7.63 42.7,-5.33 9.49,1.22 18.66,4.35 26.73,9.12"
         style="fill:#ffffff;fill-opacity:1;fill-rule:nonzero;stroke:#341334;stroke-width:10;stroke-linecap:round;stroke-linejoin:round;stroke-miterlimit:10;stroke-dasharray:none;stroke-opacity:1"
         transform="matrix(0.13333333,0,0,-0.13333333,0,666.66667)" />
      <path
         id="path77"
         d="m 1617.95,4250.61 c 47.33,-8.09 94.45,-8.33 141.34,0"
         style="fill:none;stroke:#341334;stroke-width:10;stroke-linecap:round;stroke-linejoin:round;stroke-miterlimit:10;stroke-dasharray:none;stroke-opacity:1"
         transform="matrix(0.13333333,0,0,-0.13333333,0,666.66667)" />
      <path
         id="path78"
         d="m 2041.84,3372.21 c 22.57,-118.95 107.82,-199.91 132.67,-237.29 -10.26,-128.67 53.82,-304.58 73.24,-354.37 4.08,-10.46 7.61,-21.12 10.24,-32.03 20.37,-84.49 35.35,-225.47 35.35,-225.47 -18.06,-17.96 -35.43,-45.63 -48.68,-69.38 -15.5,-28.07 -23.16,-59.86 -21.88,-91.85 l 0.88,-22.87 c 0.89,-22.67 -0.59,-45.44 -4.51,-67.91 l -0.79,-4.52 -6.18,-35.72 c -1.28,-7.16 2.94,-13.54 8.83,-15.9 3.64,-1.47 7.76,-1.57 11.68,0.59 16.88,9.23 24.34,33.08 27.58,54.57 4.41,29.14 15.8,56.72 34.35,79.49 l 2.74,3.43 c 8.05,-64.28 -26.79,-136.6 -26.79,-136.6 -36.7,-38.67 -50.64,-62.52 -55.35,-76.85 0,0 0,0 0,-0.09 -4.81,-15.02 0.39,-19.53 0.39,-19.53 -1.66,-4.52 -3.04,-8.64 -4.02,-12.37 -2.16,-7.06 -3.34,-12.95 -4.02,-17.86 -0.39,-3.73 0.98,-6.87 3.24,-8.93 4.12,-3.73 10.99,-4.22 15.31,0.79 l 12.95,15.01 0.79,0.88 7.55,8.84 120.41,139.19 c 25.74,29.77 39.75,67.9 39.39,107.25 l -1.31,143.65 c 73.61,606.68 1.59,661.99 1.59,661.99 2.49,742.93 -285.4,750.51 -285.4,750.51 l -17.76,4.61"
         style="fill:#ffffff;fill-opacity:1;fill-rule:nonzero;stroke:#341334;stroke-width:10;stroke-linecap:round;stroke-linejoin:round;stroke-miterlimit:10;stroke-dasharray:none;stroke-opacity:1"
         transform="matrix(0.13333333,0,0,-0.13333333,0,666.66667)" />
      <path
         id="path79"
         d="m 2210.81,2080.75 c 4.12,-3.73 10.99,-4.22 15.31,0.79 l 12.95,15.01 0.79,0.88 c -3.05,3.34 -6.87,5.3 -10.9,5.3 -9.03,0 -16.39,-9.42 -18.15,-21.98 z"
         style="fill:none;stroke:#341334;stroke-width:10;stroke-linecap:round;stroke-linejoin:round;stroke-miterlimit:10;stroke-dasharray:none;stroke-opacity:1"
         transform="matrix(0.13333333,0,0,-0.13333333,0,666.66667)" />
      <path
         id="path80"
         d="m 2215.61,2119.91 27.48,24.92 c -3.04,3.14 -6.67,5.01 -10.69,5.01 -5.5,0 -12.17,-4.12 -17.18,-10.31 0,0 0,0 0,-0.09 -4.81,-15.02 0.39,-19.53 0.39,-19.53 z"
         style="fill:none;stroke:#341334;stroke-width:10;stroke-linecap:round;stroke-linejoin:round;stroke-miterlimit:10;stroke-dasharray:none;stroke-opacity:1"
         transform="matrix(0.13333333,0,0,-0.13333333,0,666.66667)" />
      <path
         id="path81"
         d="m 2212.18,2230.8 c -1.28,-7.16 2.94,-13.54 8.83,-15.9 6.48,4.32 10.9,13.94 10.9,25.13 0,12.66 -5.7,23.35 -13.55,26.49 z"
         style="fill:none;stroke:#341334;stroke-width:10;stroke-linecap:round;stroke-linejoin:round;stroke-miterlimit:10;stroke-dasharray:none;stroke-opacity:1"
         transform="matrix(0.13333333,0,0,-0.13333333,0,666.66667)" />
      <path
         id="path82"
         d="m 2215.62,2119.91 27.47,24.92 74.39,67.52 42.79,87.05"
         style="fill:none;stroke:#341334;stroke-width:10;stroke-linecap:round;stroke-linejoin:round;stroke-miterlimit:10;stroke-dasharray:none;stroke-opacity:1"
         transform="matrix(0.13333333,0,0,-0.13333333,0,666.66667)" />
      <path
         id="path83"
         d="m 2174.47,3134.94 26.79,70.99"
         style="fill:none;stroke:#341334;stroke-width:10;stroke-linecap:round;stroke-linejoin:round;stroke-miterlimit:10;stroke-dasharray:none;stroke-opacity:1"
         transform="matrix(0.13333333,0,0,-0.13333333,0,666.66667)" />
      <path
         id="path84"
         d="m 1334.6,3370.61 c -23.03,-118.08 -107.62,-198.47 -132.36,-235.69 10.27,-128.67 -53.82,-304.58 -73.24,-354.37 -4.07,-10.46 -7.61,-21.12 -10.24,-32.03 -20.37,-84.49 -35.35,-225.47 -35.35,-225.47 18.06,-17.96 35.43,-45.63 48.68,-69.38 15.5,-28.07 23.16,-59.86 21.88,-91.85 l -0.88,-22.87 c -0.88,-22.67 0.59,-45.44 4.51,-67.91 l 0.79,-4.52 6.18,-35.72 c 1.28,-7.16 -2.94,-13.54 -8.83,-15.9 -3.63,-1.47 -7.75,-1.57 -11.68,0.59 -16.88,9.23 -24.34,33.08 -27.58,54.57 -4.41,29.14 -15.8,56.72 -34.34,79.49 l -2.75,3.43 c -8.05,-64.28 26.79,-136.6 26.79,-136.6 36.7,-38.67 50.64,-62.52 55.35,-76.85 0,0 0,0 0,-0.09 4.81,-15.02 -0.39,-19.53 -0.39,-19.53 1.67,-4.52 3.04,-8.64 4.02,-12.37 2.16,-7.06 3.34,-12.95 4.02,-17.86 0.4,-3.73 -0.98,-6.87 -3.23,-8.93 -4.13,-3.73 -11,-4.22 -15.31,0.79 l -12.96,15.01 -0.78,0.88 -7.56,8.84 -120.41,139.19 c -25.742,29.77 -39.746,67.9 -39.387,107.25 l 1.305,143.65 c -73.602,606.68 -1.59,661.99 -1.59,661.99 -2.485,742.93 285.402,750.51 285.402,750.51 l 17.76,4.61"
         style="fill:#ffffff;fill-opacity:1;fill-rule:nonzero;stroke:#341334;stroke-width:10;stroke-linecap:round;stroke-linejoin:round;stroke-miterlimit:10;stroke-dasharray:none;stroke-opacity:1"
         transform="matrix(0.13333333,0,0,-0.13333333,0,666.66667)" />
      <path
         id="path85"
         d="m 1165.95,2080.75 c -4.13,-3.73 -11,-4.22 -15.31,0.79 l -12.96,15.01 -0.78,0.88 c 3.04,3.34 6.87,5.3 10.89,5.3 9.03,0 16.39,-9.42 18.16,-21.98 z"
         style="fill:none;stroke:#341334;stroke-width:10;stroke-linecap:round;stroke-linejoin:round;stroke-miterlimit:10;stroke-dasharray:none;stroke-opacity:1"
         transform="matrix(0.13333333,0,0,-0.13333333,0,666.66667)" />
      <path
         id="path86"
         d="m 1161.14,2119.91 -27.48,24.92 c 3.04,3.14 6.67,5.01 10.7,5.01 5.49,0 12.16,-4.12 17.17,-10.31 0,0 0,0 0,-0.09 4.81,-15.02 -0.39,-19.53 -0.39,-19.53 z"
         style="fill:none;stroke:#341334;stroke-width:10;stroke-linecap:round;stroke-linejoin:round;stroke-miterlimit:10;stroke-dasharray:none;stroke-opacity:1"
         transform="matrix(0.13333333,0,0,-0.13333333,0,666.66667)" />
      <path
         id="path87"
         d="m 1164.57,2230.8 c 1.28,-7.16 -2.94,-13.54 -8.83,-15.9 -6.48,4.32 -10.89,13.94 -10.89,25.13 0,12.66 5.69,23.35 13.54,26.49 z"
         style="fill:none;stroke:#341334;stroke-width:10;stroke-linecap:round;stroke-linejoin:round;stroke-miterlimit:10;stroke-dasharray:none;stroke-opacity:1"
         transform="matrix(0.13333333,0,0,-0.13333333,0,666.66667)" />
      <path
         id="path88"
         d="m 1016.48,2299.4 42.79,-87.05 74.39,-67.52 27.48,-24.92"
         style="fill:none;stroke:#341334;stroke-width:10;stroke-linecap:round;stroke-linejoin:round;stroke-miterlimit:10;stroke-dasharray:none;stroke-opacity:1"
         transform="matrix(0.13333333,0,0,-0.13333333,0,666.66667)" />
      <path
         id="path89"
         d="m 1202.28,3134.94 -26.79,70.99"
         style="fill:none;stroke:#341334;stroke-width:10;stroke-linecap:round;stroke-linejoin:round;stroke-miterlimit:10;stroke-dasharray:none;stroke-opacity:1"
         transform="matrix(0.13333333,0,0,-0.13333333,0,666.66667)" />
      <path
         id="path90"
         d="m 1273.39,3546.39 c 0,0 60.86,-261.25 371.09,-141.01"
         style="fill:#ffffff;fill-opacity:1;fill-rule:nonzero;stroke:#341334;stroke-width:10;stroke-linecap:round;stroke-linejoin:round;stroke-miterlimit:10;stroke-dasharray:none;stroke-opacity:1"
         transform="matrix(0.13333333,0,0,-0.13333333,0,666.66667)" />
      <path
         id="path91"
         d="m 1452.49,3448.12 c -3,-8.5 -17.03,-11.29 -31.33,-6.24 -14.3,5.06 -23.45,16.05 -20.44,24.55 3,8.51 17.03,11.3 31.33,6.24 14.3,-5.06 23.45,-16.05 20.44,-24.55 z"
         style="fill:none;stroke:#341334;stroke-width:10;stroke-linecap:round;stroke-linejoin:round;stroke-miterlimit:10;stroke-dasharray:none;stroke-opacity:1"
         transform="matrix(0.13333333,0,0,-0.13333333,0,666.66667)" />
      <path
         id="path92"
         d="m 2097.62,3553.5 c 0,0 -60.86,-261.25 -371.09,-141.02"
         style="fill:#ffffff;fill-opacity:1;fill-rule:nonzero;stroke:#341334;stroke-width:10;stroke-linecap:round;stroke-linejoin:round;stroke-miterlimit:10;stroke-dasharray:none;stroke-opacity:1"
         transform="matrix(0.13333333,0,0,-0.13333333,0,666.66667)" />
      <path
         id="path93"
         d="m 1929.97,3441.92 c 3.01,-8.5 17.04,-11.29 31.34,-6.24 14.3,5.06 23.45,16.05 20.44,24.55 -3,8.51 -17.03,11.3 -31.33,6.24 -14.3,-5.06 -23.45,-16.05 -20.45,-24.55 z"
         style="fill:none;stroke:#341334;stroke-width:10;stroke-linecap:round;stroke-linejoin:round;stroke-miterlimit:10;stroke-dasharray:none;stroke-opacity:1"
         transform="matrix(0.13333333,0,0,-0.13333333,0,666.66667)" />
      <path
         id="path94"
         d="m 2928.33,2836.62 c 0,0 -33.76,-331.83 -38.96,-710.54 -1.86,-136.31 8.05,-285.58 38.47,-439.46 0,0 -13.93,-97.45 -3.43,-170.56 0,0 -117.87,-175.17 2.84,-793.529 9.52,-48.972 9.82,-99.222 0.79,-148.289 -3.68,-20.051 -5.79,-42.172 -3.88,-65.601 2.25,-121.782 -103.71,-170.262 -103.71,-170.262 -25.84,3.293 -41.11,-1.637 -50.13,-8.52 -16.43,-12.519 -10.89,-39.23 8.94,-45.05 19.38,-5.688 43.45,2.832 43.45,2.832 9.02,-27.059 93.58,-14.661 93.58,-14.661 17.78,-18.621 145.82,-15.089 173.53,-12.761 12.15,1.019 24.16,4.351 34.48,10.84 52.88,33.261 16.78,97.433 8.79,164.339 -7.07,59.204 12.06,116.321 6.28,174.961 -3.43,34.84 -0.88,70.172 5.4,104.621 49.95,273.899 69.09,521.3 47.4,733.47 0,0 55.25,80.38 67.42,276.94 0,0 39.95,186.08 75.67,364.2 19.43,96.66 2.46,188.7 2.76,251.02 l -409.69,496.01"
         style="fill:#ffffff;fill-opacity:1;fill-rule:nonzero;stroke:none"
         transform="matrix(0.13333333,0,0,-0.13333333,0,666.66667)" />
      <path
         id="path95"
         d="m 2928.33,2836.62 c 0,0 -33.76,-331.83 -38.96,-710.54 -1.86,-136.31 8.05,-285.58 38.47,-439.46 0,0 -13.93,-97.45 -3.43,-170.56 0,0 -117.87,-175.17 2.84,-793.529 9.52,-48.972 9.82,-99.222 0.79,-148.289 -3.68,-20.051 -5.79,-42.172 -3.88,-65.601 2.25,-121.782 -103.71,-170.262 -103.71,-170.262 -25.84,3.293 -41.11,-1.637 -50.13,-8.52 -16.43,-12.519 -10.89,-39.23 8.94,-45.05 19.38,-5.688 43.45,2.832 43.45,2.832 9.02,-27.059 93.58,-14.661 93.58,-14.661 17.78,-18.621 145.82,-15.089 173.53,-12.761 12.15,1.019 24.16,4.351 34.48,10.84 52.88,33.261 16.78,97.433 8.79,164.339 -7.07,59.204 12.06,116.321 6.28,174.961 -3.43,34.84 -0.88,70.172 5.4,104.621 49.95,273.899 69.09,521.3 47.4,733.47 0,0 55.25,80.38 67.42,276.94 0,0 39.95,186.08 75.67,364.2 19.43,96.66 2.46,188.7 2.76,251.02 z"
         style="fill:none;stroke:#341334;stroke-width:10;stroke-linecap:round;stroke-linejoin:round;stroke-miterlimit:10;stroke-dasharray:none;stroke-opacity:1"
         transform="matrix(0.13333333,0,0,-0.13333333,0,666.66667)" />
      <path
         id="path96"
         d="m 2948.88,391.73 c 0,0 44.65,30.809 47.13,166.168"
         style="fill:#ffffff;fill-opacity:1;fill-rule:nonzero;stroke:#341334;stroke-width:10;stroke-linecap:round;stroke-linejoin:round;stroke-miterlimit:10;stroke-dasharray:none;stroke-opacity:1"
         transform="matrix(0.13333333,0,0,-0.13333333,0,666.66667)" />
      <path
         id="path97"
         d="m 3039.65,552.352 c 0,0 47.89,-77.532 75.72,-163.922"
         style="fill:#ffffff;fill-opacity:1;fill-rule:nonzero;stroke:#341334;stroke-width:10;stroke-linecap:round;stroke-linejoin:round;stroke-miterlimit:10;stroke-dasharray:none;stroke-opacity:1"
         transform="matrix(0.13333333,0,0,-0.13333333,0,666.66667)" />
      <path
         id="path98"
         d="m 3192.21,1448.46 c 0,0 -50.82,-65.24 -68,-153.56"
         style="fill:#ffffff;fill-opacity:1;fill-rule:nonzero;stroke:#341334;stroke-width:10;stroke-linecap:round;stroke-linejoin:round;stroke-miterlimit:10;stroke-dasharray:none;stroke-opacity:1"
         transform="matrix(0.13333333,0,0,-0.13333333,0,666.66667)" />
      <path
         id="path99"
         d="m 2924.39,1516.02 c 0,0 52.32,-60.37 57.23,-148.7"
         style="fill:#ffffff;fill-opacity:1;fill-rule:nonzero;stroke:#341334;stroke-width:10;stroke-linecap:round;stroke-linejoin:round;stroke-miterlimit:10;stroke-dasharray:none;stroke-opacity:1"
         transform="matrix(0.13333333,0,0,-0.13333333,0,666.66667)" />
      <path
         id="path100"
         d="m 3884.48,329.859 c -9.02,6.883 -24.29,11.813 -50.13,8.52 0,0 -106.23,47.922 -103.98,169.691 1.91,23.442 -0.51,46.121 -4.19,66.172 -9.03,49.067 -8.83,99.317 0.79,148.289 120.61,618.359 2.85,793.529 2.85,793.529 10.4,73.11 -3.54,170.56 -3.54,170.56 30.42,154.08 40.34,303.54 38.47,440.05 -5.2,378.32 -43.27,692.03 -43.27,692.03 l -383.46,-478.09 c 0.29,-62.32 7.34,-157.22 26.87,-253.98 35.72,-178.02 64.62,-362.42 64.62,-362.42 12.17,-196.57 67.42,-276.94 67.42,-276.94 -21.59,-212.17 -2.45,-459.579 47.5,-733.481 6.28,-34.437 8.83,-69.769 5.3,-104.609 -3.04,-30.719 0.49,-58.391 4.71,-78.02 6.73,-31.121 6.02,-65.461 2.26,-96.941 -7.99,-66.918 -44.1,-131.078 8.79,-164.34 10.32,-6.488 22.32,-9.82 34.47,-10.84 27.71,-2.328 120.77,-4.68 138.55,13.941 0,0 84.57,-12.398 93.59,14.661 0,0 24.07,-8.52 43.45,-2.832 19.82,5.82 25.37,32.531 8.93,45.05"
         style="fill:#ffffff;fill-opacity:1;fill-rule:nonzero;stroke:none"
         transform="matrix(0.13333333,0,0,-0.13333333,0,666.66667)" />
      <path
         id="path101"
         d="m 3884.48,329.859 c -9.02,6.883 -24.29,11.813 -50.13,8.52 0,0 -106.23,47.922 -103.98,169.691 1.91,23.442 -0.51,46.121 -4.19,66.172 -9.03,49.067 -8.83,99.317 0.79,148.289 120.61,618.359 2.85,793.529 2.85,793.529 10.4,73.11 -3.54,170.56 -3.54,170.56 30.42,154.08 40.34,303.54 38.47,440.05 -5.2,378.32 -43.27,692.03 -43.27,692.03 l -383.46,-478.09 c 0.29,-62.32 7.34,-157.22 26.87,-253.98 35.72,-178.02 64.62,-362.42 64.62,-362.42 12.17,-196.57 67.42,-276.94 67.42,-276.94 -21.59,-212.17 -2.45,-459.579 47.5,-733.481 6.28,-34.437 8.83,-69.769 5.3,-104.609 -3.04,-30.719 0.49,-58.391 4.71,-78.02 6.73,-31.121 6.02,-65.461 2.26,-96.941 -7.99,-66.918 -44.1,-131.078 8.79,-164.34 10.32,-6.488 22.32,-9.82 34.47,-10.84 27.71,-2.328 120.77,-4.68 138.55,13.941 0,0 84.57,-12.398 93.59,14.661 0,0 24.07,-8.52 43.45,-2.832 19.82,5.82 25.37,32.531 8.93,45.05 z"
         style="fill:none;stroke:#341334;stroke-width:10;stroke-linecap:round;stroke-linejoin:round;stroke-miterlimit:10;stroke-dasharray:none;stroke-opacity:1"
         transform="matrix(0.13333333,0,0,-0.13333333,0,666.66667)" />
      <path
         id="path102"
         d="m 3704.76,404.141 c 0,0 -44.65,30.8 -47.13,166.16"
         style="fill:#ffffff;fill-opacity:1;fill-rule:nonzero;stroke:#341334;stroke-width:10;stroke-linecap:round;stroke-linejoin:round;stroke-miterlimit:10;stroke-dasharray:none;stroke-opacity:1"
         transform="matrix(0.13333333,0,0,-0.13333333,0,666.66667)" />
      <path
         id="path103"
         d="m 3578.75,564.75 c 0,0 22.33,-78.711 -5.5,-165.102"
         style="fill:#ffffff;fill-opacity:1;fill-rule:nonzero;stroke:#341334;stroke-width:10;stroke-linecap:round;stroke-linejoin:round;stroke-miterlimit:10;stroke-dasharray:none;stroke-opacity:1"
         transform="matrix(0.13333333,0,0,-0.13333333,0,666.66667)" />
      <path
         id="path104"
         d="m 3496.95,1447.28 c 0,0 50.82,-65.24 68,-153.56"
         style="fill:#ffffff;fill-opacity:1;fill-rule:nonzero;stroke:#341334;stroke-width:10;stroke-linecap:round;stroke-linejoin:round;stroke-miterlimit:10;stroke-dasharray:none;stroke-opacity:1"
         transform="matrix(0.13333333,0,0,-0.13333333,0,666.66667)" />
      <path
         id="path105"
         d="m 3729.78,1516.02 c 0,0 -52.31,-60.37 -57.22,-148.7"
         style="fill:#ffffff;fill-opacity:1;fill-rule:nonzero;stroke:#341334;stroke-width:10;stroke-linecap:round;stroke-linejoin:round;stroke-miterlimit:10;stroke-dasharray:none;stroke-opacity:1"
         transform="matrix(0.13333333,0,0,-0.13333333,0,666.66667)" />
      <path
         id="path106"
         d="m 3764.75,2126.67 c -127.67,-24.44 -270.12,-37.59 -399.86,-40.04 -19.53,96.76 -26.58,191.66 -26.87,253.98 v 0 c 0,0 16.67,-154.36 -2.76,-251.02 -127.77,2.94 -316.15,13.53 -445.89,36.49 5.2,378.71 38.96,710.54 38.96,710.54 l 14.62,114.91 c 214.73,-43.67 549.48,-60.11 763.71,-15.46 l 14.82,-117.37 c 0,0 38.07,-313.71 43.27,-692.03"
         style="fill:#ffffff;fill-opacity:1;fill-rule:nonzero;stroke:none"
         transform="matrix(0.13333333,0,0,-0.13333333,0,666.66667)" />
      <path
         id="path107"
         d="m 3764.75,2126.67 c -127.67,-24.44 -270.12,-37.59 -399.86,-40.04 -19.53,96.76 -26.58,191.66 -26.87,253.98 v 0 c 0,0 16.67,-154.36 -2.76,-251.02 -127.77,2.94 -316.15,13.53 -445.89,36.49 5.2,378.71 38.96,710.54 38.96,710.54 l 14.62,114.91 c 214.73,-43.67 549.48,-60.11 763.71,-15.46 l 14.82,-117.37 c 0,0 38.07,-313.71 43.27,-692.03 z"
         style="fill:none;stroke:#341334;stroke-width:10;stroke-linecap:round;stroke-linejoin:round;stroke-miterlimit:10;stroke-dasharray:none;stroke-opacity:1"
         transform="matrix(0.13333333,0,0,-0.13333333,0,666.66667)" />
      <path
         id="path108"
         d="m 3370.14,2130.2 c 119.14,3.44 251.63,16.1 393.43,43.77"
         style="fill:#ffffff;fill-opacity:1;fill-rule:nonzero;stroke:#341334;stroke-width:10;stroke-linecap:round;stroke-linejoin:round;stroke-miterlimit:10;stroke-dasharray:none;stroke-opacity:1"
         transform="matrix(0.13333333,0,0,-0.13333333,0,666.66667)" />
      <path
         id="path109"
         d="m 2890.25,2166.32 c 157.46,-30.11 352.64,-38.18 450.96,-38.87"
         style="fill:#ffffff;fill-opacity:1;fill-rule:nonzero;stroke:#341334;stroke-width:10;stroke-linecap:round;stroke-linejoin:round;stroke-miterlimit:10;stroke-dasharray:none;stroke-opacity:1"
         transform="matrix(0.13333333,0,0,-0.13333333,0,666.66667)" />
      <path
         id="path110"
         d="m 3048.8,2363.98 c 131.13,-94.95 242.35,-28.26 279.87,13.06"
         style="fill:#ffffff;fill-opacity:1;fill-rule:nonzero;stroke:#341334;stroke-width:10;stroke-linecap:round;stroke-linejoin:round;stroke-miterlimit:10;stroke-dasharray:none;stroke-opacity:1"
         transform="matrix(0.13333333,0,0,-0.13333333,0,666.66667)" />
      <path
         id="path111"
         d="m 3328.67,2377.04 c 0,0 171.88,-139.14 303.24,20.42"
         style="fill:#ffffff;fill-opacity:1;fill-rule:nonzero;stroke:#341334;stroke-width:10;stroke-linecap:round;stroke-linejoin:round;stroke-miterlimit:10;stroke-dasharray:none;stroke-opacity:1"
         transform="matrix(0.13333333,0,0,-0.13333333,0,666.66667)" />
      <path
         id="path112"
         d="m 3753.25,3436.73 5.02,413.32 c -94.7,13.47 -178.61,62.71 -243.38,114.43 -25.81,20.51 -41.02,51.52 -41.02,84.5 v 89.85 c 0,0 27.9,36.37 28.2,52.83 7.99,75.81 -5.39,152.94 -5.38,235.58 0.01,85.87 -70.09,155.35 -155.96,155.35 h -32.83 c -86.26,0 -155.83,-70.07 -155.93,-156.33 -0.1,-86.26 -11.15,-167.01 -3.14,-237.72 0.36,-19.81 31.42,-56.82 31.42,-56.82 v -82.74 c 0,-32.98 -15.21,-63.99 -41.02,-84.5 -64.87,-51.72 -148.39,-87.83 -243.38,-114.43 l 5.02,-413.32 h 852.38"
         style="fill:#ffffff;fill-opacity:1;fill-rule:nonzero;stroke:none"
         transform="matrix(0.13333333,0,0,-0.13333333,0,666.66667)" />
      <path
         id="path113"
         d="m 3753.25,3436.73 5.02,413.32 c -94.7,13.47 -178.61,62.71 -243.38,114.43 -25.81,20.51 -41.02,51.52 -41.02,84.5 v 89.85 c 0,0 27.9,36.37 28.2,52.83 7.99,75.81 -5.39,152.94 -5.38,235.58 0.01,85.87 -70.09,155.35 -155.96,155.35 h -32.83 c -86.26,0 -155.83,-70.07 -155.93,-156.33 -0.1,-86.26 -11.15,-167.01 -3.14,-237.72 0.36,-19.81 31.42,-56.82 31.42,-56.82 v -82.74 c 0,-32.98 -15.21,-63.99 -41.02,-84.5 -64.87,-51.72 -148.39,-87.83 -243.38,-114.43 l 5.02,-413.32 z"
         style="fill:none;stroke:#341334;stroke-width:10;stroke-linecap:round;stroke-linejoin:round;stroke-miterlimit:10;stroke-dasharray:none;stroke-opacity:1"
         transform="matrix(0.13333333,0,0,-0.13333333,0,666.66667)" />
      <path
         id="path114"
         d="m 3741.55,3500.71 c -16.67,-43.95 -51.62,-226.91 -30.82,-268.9 2.83,-5.71 4.88,-11.75 6.08,-18.1 4.18,-22.2 -2.68,-45.05 -17.83,-66.12 17.12,-10.03 29.69,-23.9 35.57,-41.39 5.89,-17.49 4.48,-36.54 -2.88,-55.57 0.27,-0.74 0.55,-1.49 0.82,-2.23 28.89,-79.4 38.52,-168.04 -11.01,-229.7 -261.32,-57.25 -524.19,-65 -789.64,8.79 -33.63,35.41 -52.86,80.3 -52.35,127.86 0.41,39.17 11.57,77.55 26.66,111.83 -2.68,13.41 -2.18,26.61 1.99,39.02 5.89,17.49 18.45,31.36 35.58,41.39 -15.16,21.07 -22.01,43.92 -17.83,66.12 0.87,4.64 2.2,9.11 3.96,13.4 17.58,43.09 20.79,91.02 3.56,134.27 -2.25,5.64 -32.55,161.78 -33.31,165.63"
         style="fill:#ffffff;fill-opacity:1;fill-rule:nonzero;stroke:#341334;stroke-width:10;stroke-linecap:round;stroke-linejoin:round;stroke-miterlimit:10;stroke-dasharray:none;stroke-opacity:1"
         transform="matrix(0.13333333,0,0,-0.13333333,0,666.66667)" />
      <path
         id="path115"
         d="m 3718.45,3515.66 c -58.75,-320.88 97.22,-419.56 97.22,-419.56 0,0 -4.06,-125.15 5.75,-193.85 19.63,-107.95 116.99,-410.58 92.83,-490.22 0,0 -21.32,-46.57 -1.42,-117.64 0,0 5.58,-24.9 1.98,-53.48 0,0 -4.17,-47.09 12.23,-71.27 8.46,-12.47 30.08,-10.53 35.94,3 5.45,12.55 9.26,33.9 3.71,69.52 0,0 -5.05,56.53 6.48,73.92 l 28.82,-38.51 -12.25,-86.35 -64.84,-87.6 c 0,0 -11.53,-14.28 2.16,-31.06 0,0 3.6,-38.51 33.86,-5.59 0,0 91.5,43.49 100.15,145.37 l 1.19,99.85 c 0.17,13.76 -0.69,27.52 -2.57,41.19 l -20.24,147.2 c 0,0 58.63,507.03 -49.32,683.68 9.82,117.76 68.96,640.79 -257.14,670.42"
         style="fill:#ffffff;fill-opacity:1;fill-rule:nonzero;stroke:#341334;stroke-width:10;stroke-linecap:round;stroke-linejoin:round;stroke-miterlimit:10;stroke-dasharray:none;stroke-opacity:1"
         transform="matrix(0.13333333,0,0,-0.13333333,0,666.66667)" />
      <path
         id="path116"
         d="m 3815.67,3096.1 23.25,61.23"
         style="fill:#ffffff;fill-opacity:1;fill-rule:nonzero;stroke:#341334;stroke-width:10;stroke-linecap:round;stroke-linejoin:round;stroke-miterlimit:10;stroke-dasharray:none;stroke-opacity:1"
         transform="matrix(0.13333333,0,0,-0.13333333,0,666.66667)" />
      <path
         id="path117"
         d="m 3965.96,2429.76 v 0 c -1.87,-36.77 7.76,-73.21 27.55,-104.26 l 37.3,-58.5 -13.69,-87.59 c 0,0 -87.18,-74.54 -56.2,-112.44"
         style="fill:none;stroke:#341334;stroke-width:10;stroke-linecap:round;stroke-linejoin:round;stroke-miterlimit:10;stroke-dasharray:none;stroke-opacity:1"
         transform="matrix(0.13333333,0,0,-0.13333333,0,666.66667)" />
      <path
         id="path118"
         d="m 3927.06,2072.56 c 0,0 -17.29,6.84 75.65,112.44 l 14.41,76.41"
         style="fill:none;stroke:#341334;stroke-width:10;stroke-linecap:round;stroke-linejoin:round;stroke-miterlimit:10;stroke-dasharray:none;stroke-opacity:1"
         transform="matrix(0.13333333,0,0,-0.13333333,0,666.66667)" />
      <path
         id="path119"
         d="m 2928.19,3515.66 c 58.75,-320.88 -97.22,-419.56 -97.22,-419.56 0,0 4.06,-125.15 -5.75,-193.85 -19.63,-107.95 -116.99,-410.58 -92.83,-490.22 0,0 21.32,-46.57 1.42,-117.64 0,0 -5.58,-24.9 -1.98,-53.48 0,0 4.17,-47.09 -12.23,-71.27 -8.46,-12.47 -30.08,-10.53 -35.94,3 -5.45,12.55 -9.26,33.9 -3.7,69.52 0,0 5.04,56.53 -6.49,73.92 l -28.82,-38.51 12.25,-86.35 64.84,-87.6 c 0,0 11.53,-14.28 -2.16,-31.06 0,0 -3.6,-38.51 -33.86,-5.59 0,0 -91.5,43.49 -100.15,145.37 l -1.19,99.85 c -0.16,13.76 0.7,27.52 2.57,41.19 l 20.24,147.2 c 0,0 -58.63,507.03 49.32,683.68 -9.82,117.76 -68.96,640.79 257.14,670.42"
         style="fill:#ffffff;fill-opacity:1;fill-rule:nonzero;stroke:#341334;stroke-width:10;stroke-linecap:round;stroke-linejoin:round;stroke-miterlimit:10;stroke-dasharray:none;stroke-opacity:1"
         transform="matrix(0.13333333,0,0,-0.13333333,0,666.66667)" />
      <path
         id="path120"
         d="m 2830.97,3096.1 -23.25,61.23"
         style="fill:#ffffff;fill-opacity:1;fill-rule:nonzero;stroke:#341334;stroke-width:10;stroke-linecap:round;stroke-linejoin:round;stroke-miterlimit:10;stroke-dasharray:none;stroke-opacity:1"
         transform="matrix(0.13333333,0,0,-0.13333333,0,666.66667)" />
      <path
         id="path121"
         d="m 2680.68,2429.76 v 0 c 1.87,-36.77 -7.76,-73.21 -27.55,-104.26 l -37.3,-58.5 13.69,-87.59 c 0,0 87.18,-74.54 56.2,-112.44"
         style="fill:none;stroke:#341334;stroke-width:10;stroke-linecap:round;stroke-linejoin:round;stroke-miterlimit:10;stroke-dasharray:none;stroke-opacity:1"
         transform="matrix(0.13333333,0,0,-0.13333333,0,666.66667)" />
      <path
         id="path122"
         d="m 2719.58,2072.56 c 0,0 17.29,6.84 -75.65,112.44 l -14.41,76.41"
         style="fill:none;stroke:#341334;stroke-width:10;stroke-linecap:round;stroke-linejoin:round;stroke-miterlimit:10;stroke-dasharray:none;stroke-opacity:1"
         transform="matrix(0.13333333,0,0,-0.13333333,0,666.66667)" />
      <path
         id="path123"
         d="m 3190.97,4311.15 c 7.83,-41.85 16.52,-79.4 -5.76,-83.57 -22.28,-4.17 -67.11,26.64 -74.93,68.49 -7.82,41.85 3.9,79.15 26.18,83.31 22.28,4.17 46.69,-26.38 54.51,-68.23"
         style="fill:#ffffff;fill-opacity:1;fill-rule:nonzero;stroke:none"
         transform="matrix(0.13333333,0,0,-0.13333333,0,666.66667)" />
      <path
         id="path124"
         d="m 3190.97,4311.15 c 7.83,-41.85 16.52,-79.4 -5.76,-83.57 -22.28,-4.17 -67.11,26.64 -74.93,68.49 -7.82,41.85 3.9,79.15 26.18,83.31 22.28,4.17 46.69,-26.38 54.51,-68.23 z"
         style="fill:none;stroke:#341334;stroke-width:10;stroke-linecap:round;stroke-linejoin:round;stroke-miterlimit:10;stroke-dasharray:none;stroke-opacity:1"
         transform="matrix(0.13333333,0,0,-0.13333333,0,666.66667)" />
      <path
         id="path125"
         d="m 3462.68,4311.15 c -7.83,-41.85 -16.52,-79.4 5.76,-83.57 22.28,-4.17 67.11,26.64 74.93,68.49 7.82,41.85 -3.9,79.15 -26.18,83.31 -22.29,4.17 -46.69,-26.38 -54.51,-68.23"
         style="fill:#ffffff;fill-opacity:1;fill-rule:nonzero;stroke:none"
         transform="matrix(0.13333333,0,0,-0.13333333,0,666.66667)" />
      <path
         id="path126"
         d="m 3462.68,4311.15 c -7.83,-41.85 -16.52,-79.4 5.76,-83.57 22.28,-4.17 67.11,26.64 74.93,68.49 7.82,41.85 -3.9,79.15 -26.18,83.31 -22.29,4.17 -46.69,-26.38 -54.51,-68.23 z"
         style="fill:none;stroke:#341334;stroke-width:10;stroke-linecap:round;stroke-linejoin:round;stroke-miterlimit:10;stroke-dasharray:none;stroke-opacity:1"
         transform="matrix(0.13333333,0,0,-0.13333333,0,666.66667)" />
      <path
         id="path127"
         d="m 3401.24,3619.3 c 0,0 -9.75,-136.47 23.39,-191.05"
         style="fill:#ffffff;fill-opacity:1;fill-rule:nonzero;stroke:#341334;stroke-width:10;stroke-linecap:round;stroke-linejoin:round;stroke-miterlimit:10;stroke-dasharray:none;stroke-opacity:1"
         transform="matrix(0.13333333,0,0,-0.13333333,0,666.66667)" />
      <path
         id="path128"
         d="m 3243.93,3619.3 c 0,0 9.75,-136.47 -23.39,-191.05"
         style="fill:#ffffff;fill-opacity:1;fill-rule:nonzero;stroke:#341334;stroke-width:10;stroke-linecap:round;stroke-linejoin:round;stroke-miterlimit:10;stroke-dasharray:none;stroke-opacity:1"
         transform="matrix(0.13333333,0,0,-0.13333333,0,666.66667)" />
      <path
         id="path129"
         d="m 3311.56,3482.83 c 0,0 -3.9,-518.59 15.59,-602.42"
         style="fill:#ffffff;fill-opacity:1;fill-rule:nonzero;stroke:#341334;stroke-width:10;stroke-linecap:round;stroke-linejoin:round;stroke-miterlimit:10;stroke-dasharray:none;stroke-opacity:1"
         transform="matrix(0.13333333,0,0,-0.13333333,0,666.66667)" />
      <path
         id="path130"
         d="m 3634.42,4366.7 c -18.29,13.44 -36.68,27.32 -50.76,45.03 -5.69,23.89 -6.09,121.54 -42.51,181.64 -34.4,56.76 -98.61,97.05 -161.14,108.15 -53.08,9.43 -109.92,5.07 -159.99,-15.47 -39.81,-16.33 -75.05,-43.84 -96.36,-81.66 -21.81,-38.69 -32.07,-82.51 -38.88,-126.03 -3.17,-20.22 -8.71,-33.78 -22.21,-49.67 -8.76,-10.31 -29.37,-30.22 -44.52,-28.92 18.64,-1.6 37.85,5.02 51.55,17.77 -11.05,-12.92 -10.43,-32.91 -2.5,-47.95 2.47,-4.7 5.67,-8.88 9.13,-12.86 2.48,-24.45 9.32,-48.4 10.56,-72.96 1.28,-25.38 -4.75,-53.06 -24.15,-69.5 21.91,2.13 43.19,10.3 60.9,23.38 -7.05,-19.42 -2.43,-42.58 11.54,-57.81 8.58,-9.36 19.99,-15.55 31.17,-21.57 15.6,-8.39 31.19,-16.79 46.79,-25.18 13.17,-7.09 26.97,-14.76 34.65,-27.59 7.67,-12.84 6.2,-32.41 -6.95,-39.52 52.35,5.97 98.31,48.94 107.79,100.77 2.75,-24.34 21.61,-44.53 43.61,-55.3 22,-10.77 59.32,-15.45 56.06,-10.53 -3.25,4.92 -3.84,11.09 -4.15,16.98 -1.33,25.14 0.54,50.45 5.58,75.12 14.59,-28.39 51,-43.42 81.36,-33.59 -10,13.03 -9.08,31.75 -2.91,46.98 6.16,15.23 16.76,28.16 25.54,42.05 21.18,33.53 31.49,72.94 33.25,112.72 4.1,-1.24 8.33,-2.09 12.58,-2.14 11.99,-0.13 23.65,3.67 34.97,7.66"
         style="fill:#ffffff;fill-opacity:1;fill-rule:nonzero;stroke:none"
         transform="matrix(0.13333333,0,0,-0.13333333,0,666.66667)" />
      <path
         id="path131"
         d="m 3636.94,4371.02 c -15.27,11.23 -30.52,22.72 -43.35,36.77 -2.02,2.21 -4.55,4.37 -5.51,7.1 -0.51,1.47 -0.59,3.26 -0.81,4.79 -0.62,4.12 -1.06,8.26 -1.51,12.4 -2.76,25.41 -5.3,50.84 -10.04,75.99 -5.51,29.27 -13.58,58.95 -28.55,84.93 -16.43,28.52 -40.22,52.59 -67.02,71.46 -57.85,40.73 -129.82,53.79 -199.24,43.38 -68.76,-10.31 -134.04,-46.43 -166.36,-109.87 -17.43,-34.2 -26.83,-71.76 -33.16,-109.43 -2.72,-16.18 -5.36,-31.67 -14.42,-45.7 -7.74,-12 -18.46,-23.19 -30.32,-31.16 -5.53,-3.72 -11.75,-7.22 -18.6,-6.91 -6.47,0.3 -6.37,-9.56 0,-10 20.32,-1.42 39.99,5.63 55.08,19.23 -2.35,2.36 -4.71,4.72 -7.07,7.07 -17.05,-21.12 -9.61,-48.84 6.63,-67.87 -0.49,1.18 -0.97,2.36 -1.46,3.53 4.7,-43.89 27.67,-104.07 -12.12,-138.92 -3.1,-2.71 -0.76,-8.99 3.53,-8.54 22.97,2.44 44.69,10.49 63.42,24.07 -2.45,1.88 -4.9,3.76 -7.35,5.64 -6.12,-17.86 -3.84,-38.27 6.35,-54.24 11.36,-17.8 31.35,-26.85 49.3,-36.51 10.64,-5.73 21.27,-11.45 31.9,-17.17 9.05,-4.87 18.51,-9.54 26.47,-16.13 7.04,-5.83 13.01,-13.24 14.35,-22.52 1.21,-8.46 -1.19,-17.57 -8.87,-22.11 -3.94,-2.34 -2.63,-9.95 2.53,-9.32 54.84,6.7 102.19,49.91 112.62,104.44 -3.28,0.44 -6.55,0.88 -9.83,1.33 4.25,-32.7 31.09,-55.91 61.21,-65.61 12.08,-3.89 25.69,-7.37 38.49,-7.17 3.32,0.05 7.59,0.32 9.43,3.6 1.08,1.92 0.67,3.79 -0.06,5.72 -1.78,4.68 -3.16,8.48 -3.49,13.62 -1.58,25.01 0.44,50.24 5.34,74.78 -3.05,-0.4 -6.09,-0.8 -9.14,-1.19 16.19,-30.45 54.07,-46.04 87.01,-35.89 2.82,0.87 4.96,4.62 2.99,7.34 -23.17,32.02 14.73,68.49 29.17,95.16 17.32,31.98 25.65,67.91 27.39,104.07 -2.11,-1.61 -4.22,-3.22 -6.33,-4.83 17.22,-4.87 33.82,-0.21 50.21,5.53 6.03,2.11 3.44,11.78 -2.66,9.64 -14.61,-5.11 -29.47,-9.88 -44.89,-5.52 -3.25,0.91 -6.17,-1.63 -6.33,-4.82 -1.86,-38.7 -11.75,-77.24 -32.57,-110.2 -16.86,-26.69 -45.78,-62.07 -22.62,-94.07 0.99,2.45 1.99,4.89 2.98,7.34 -28.84,-8.89 -61.54,4.66 -75.71,31.3 -1.95,3.65 -8.3,3.02 -9.14,-1.2 -4.55,-22.75 -6.71,-45.94 -6.06,-69.15 0.16,-5.49 0.25,-11.1 1.27,-16.52 0.36,-1.94 0.85,-3.79 1.56,-5.64 0.41,-1 0.85,-1.99 1.32,-2.96 1.48,-3.49 2.45,-2.13 2.91,4.09 -0.73,0.37 -4.09,-0.19 -5.07,-0.14 -3.28,0.15 -6.54,0.57 -9.77,1.1 -33.48,5.4 -72.53,23.84 -77.44,61.62 -0.65,5.02 -8.65,7.43 -9.82,1.33 -9.52,-49.79 -52.38,-90.92 -102.97,-97.1 0.84,-3.11 1.68,-6.21 2.52,-9.32 14.47,8.55 17.13,27.61 10.83,42.18 -8.32,19.25 -29.69,28.81 -47.03,38.14 -11.35,6.11 -22.69,12.21 -34.03,18.31 -10.29,5.54 -21.11,10.83 -29.91,18.65 -16.15,14.38 -21.74,37.02 -14.76,57.38 1.35,3.94 -3.83,8.2 -7.35,5.65 -17.23,-12.5 -37.16,-20.45 -58.37,-22.7 1.18,-2.84 2.36,-5.68 3.54,-8.53 26.82,23.49 28.14,61.71 23.35,94.45 -1.55,10.6 -3.65,21.11 -5.46,31.68 -0.87,5.03 -1.69,10.07 -2.31,15.14 -0.79,6.36 -1.68,7.47 -5.48,12.5 -10.43,13.81 -14.85,35 -3.15,49.49 3.99,4.94 -2.19,11.47 -7.07,7.07 -13.19,-11.89 -30.34,-17.53 -48.01,-16.3 0,-3.33 0,-6.66 0,-10 13.3,-0.61 25.47,8.74 34.92,17.07 10.53,9.27 20.17,20.36 26.66,32.85 7.44,14.35 9.42,29.91 12.16,45.62 3.29,18.83 7.36,37.55 12.9,55.85 10.55,34.86 26.48,68.25 52.91,93.86 25.06,24.28 56.66,40.69 90.02,50.35 68.66,19.86 146.22,13.67 208.47,-22.38 29.1,-16.86 55.29,-39.62 74.43,-67.4 17.19,-24.94 26.73,-53.71 33.12,-83.11 5.69,-26.22 8.69,-52.85 11.49,-79.5 0.88,-8.36 1.59,-16.82 3.18,-25.08 1.19,-6.18 6.97,-10.99 11.2,-15.37 6.6,-6.84 13.79,-13.1 21.2,-19.05 6.92,-5.55 14.04,-10.84 21.19,-16.1 5.18,-3.81 10.18,4.86 5.04,8.64"
         style="fill:#341334;fill-opacity:1;fill-rule:nonzero;stroke:none"
         transform="matrix(0.13333333,0,0,-0.13333333,0,666.66667)" />
    </g>
  </g>
</svg>
